G04 #@! TF.GenerationSoftware,KiCad,Pcbnew,6.0.7-f9a2dced07~116~ubuntu20.04.1*
G04 #@! TF.CreationDate,2022-12-02T22:22:49+05:00*
G04 #@! TF.ProjectId,smart light,736d6172-7420-46c6-9967-68742e6b6963,rev?*
G04 #@! TF.SameCoordinates,Original*
G04 #@! TF.FileFunction,Profile,NP*
%FSLAX46Y46*%
G04 Gerber Fmt 4.6, Leading zero omitted, Abs format (unit mm)*
G04 Created by KiCad (PCBNEW 6.0.7-f9a2dced07~116~ubuntu20.04.1) date 2022-12-02 22:22:49*
%MOMM*%
%LPD*%
G01*
G04 APERTURE LIST*
G04 #@! TA.AperFunction,Profile*
%ADD10C,0.100000*%
G04 #@! TD*
G04 APERTURE END LIST*
D10*
X185089540Y-43581685D02*
G75*
G03*
X183100663Y-41840460I-1756622J25D01*
G01*
X174694418Y-96640460D02*
X180894418Y-96640460D01*
X137894418Y-66440460D02*
X137905564Y-100440460D01*
X139894418Y-102240460D02*
X183353193Y-102235559D01*
X180894418Y-96640460D02*
G75*
G03*
X180894418Y-95840460I-353126J400000D01*
G01*
X137894418Y-43834215D02*
X137894418Y-47240460D01*
X173894418Y-100640460D02*
G75*
G03*
X174694418Y-100640460I400000J353100D01*
G01*
X173894418Y-95840460D02*
X173894418Y-100640460D01*
X137905550Y-100440460D02*
G75*
G03*
X139894418Y-102240460I1808968J0D01*
G01*
X144694419Y-97440460D02*
G75*
G03*
X144694419Y-97440460I-2163331J0D01*
G01*
X185094418Y-100240460D02*
X185089517Y-43581685D01*
X147094418Y-47240460D02*
X147094418Y-66440460D01*
X174694418Y-100640460D02*
X174694418Y-96640460D01*
X139635643Y-41845338D02*
G75*
G03*
X137894418Y-43834215I-25J-1756622D01*
G01*
X147094418Y-47240460D02*
X137894418Y-47240460D01*
X180894418Y-95840460D02*
X173894418Y-95840460D01*
X183353193Y-102235510D02*
G75*
G03*
X185094418Y-100240460I25J1757350D01*
G01*
X178257749Y-45277130D02*
G75*
G03*
X178257749Y-45277130I-2163331J0D01*
G01*
X183100663Y-41840460D02*
X139635643Y-41845361D01*
X147094418Y-66440460D02*
X137894418Y-66440460D01*
M02*
