G04 #@! TF.GenerationSoftware,KiCad,Pcbnew,6.0.7-f9a2dced07~116~ubuntu20.04.1*
G04 #@! TF.CreationDate,2022-12-02T22:22:49+05:00*
G04 #@! TF.ProjectId,smart light,736d6172-7420-46c6-9967-68742e6b6963,rev?*
G04 #@! TF.SameCoordinates,Original*
G04 #@! TF.FileFunction,Copper,L2,Bot*
G04 #@! TF.FilePolarity,Positive*
%FSLAX46Y46*%
G04 Gerber Fmt 4.6, Leading zero omitted, Abs format (unit mm)*
G04 Created by KiCad (PCBNEW 6.0.7-f9a2dced07~116~ubuntu20.04.1) date 2022-12-02 22:22:49*
%MOMM*%
%LPD*%
G01*
G04 APERTURE LIST*
G04 #@! TA.AperFunction,ComponentPad*
%ADD10R,1.700000X1.700000*%
G04 #@! TD*
G04 #@! TA.AperFunction,ComponentPad*
%ADD11O,1.700000X1.700000*%
G04 #@! TD*
G04 #@! TA.AperFunction,ComponentPad*
%ADD12C,0.400000*%
G04 #@! TD*
G04 #@! TA.AperFunction,ComponentPad*
%ADD13C,0.300000*%
G04 #@! TD*
G04 #@! TA.AperFunction,ComponentPad*
%ADD14O,1.600000X1.200000*%
G04 #@! TD*
G04 #@! TA.AperFunction,ComponentPad*
%ADD15O,1.200000X1.200000*%
G04 #@! TD*
G04 #@! TA.AperFunction,ComponentPad*
%ADD16O,1.000000X1.600000*%
G04 #@! TD*
G04 #@! TA.AperFunction,ComponentPad*
%ADD17O,1.000000X2.100000*%
G04 #@! TD*
G04 #@! TA.AperFunction,ViaPad*
%ADD18C,0.800000*%
G04 #@! TD*
G04 #@! TA.AperFunction,Conductor*
%ADD19C,0.450000*%
G04 #@! TD*
G04 #@! TA.AperFunction,Conductor*
%ADD20C,0.750000*%
G04 #@! TD*
G04 #@! TA.AperFunction,Conductor*
%ADD21C,0.250000*%
G04 #@! TD*
G04 APERTURE END LIST*
D10*
X144569418Y-83365460D03*
D11*
X142029418Y-83365460D03*
X144569418Y-80825460D03*
X142029418Y-80825460D03*
X144569418Y-78285460D03*
X142029418Y-78285460D03*
D12*
X153699418Y-59007960D03*
X153699418Y-57172960D03*
X154616918Y-59925460D03*
X154616918Y-58090460D03*
X154616918Y-56255460D03*
X155534418Y-59007960D03*
D13*
X155534418Y-57172960D03*
D12*
X156451918Y-59925460D03*
D13*
X156451918Y-58090460D03*
X156451918Y-56255460D03*
D12*
X157369418Y-59007960D03*
X157369418Y-57172960D03*
D10*
X151294418Y-99040460D03*
D11*
X148754418Y-99040460D03*
D10*
X182119418Y-50515460D03*
D11*
X182119418Y-53055460D03*
X182119418Y-55595460D03*
X182119418Y-58135460D03*
X182119418Y-60675460D03*
X182119418Y-63215460D03*
D14*
X160954418Y-80240460D03*
D15*
X166288418Y-80240460D03*
X163494418Y-83034460D03*
D16*
X165014418Y-99200460D03*
D17*
X165014418Y-95020460D03*
D16*
X156374418Y-99200460D03*
D17*
X156374418Y-95020460D03*
D18*
X148052418Y-63468460D03*
X150338418Y-73374460D03*
X181834418Y-83026460D03*
X167356418Y-62960460D03*
X157704418Y-70072460D03*
X157450418Y-58134460D03*
X183104418Y-74136460D03*
X143988418Y-71088460D03*
X149344418Y-78984460D03*
X152444418Y-58840460D03*
X153640418Y-58134460D03*
X162444418Y-90340460D03*
X154444418Y-61340460D03*
X139162418Y-68040460D03*
X178527418Y-98515460D03*
X145766418Y-86582460D03*
X156444418Y-61340460D03*
X148052418Y-46704460D03*
X155469418Y-81553460D03*
X179584418Y-78490460D03*
X148052418Y-71088460D03*
X168880418Y-89630460D03*
X162530418Y-86582460D03*
X152878418Y-76168460D03*
X146020418Y-72866460D03*
X157958418Y-67278460D03*
X173706418Y-64230460D03*
X148560418Y-45434460D03*
X148814418Y-52800460D03*
X162832717Y-92726759D03*
X161300119Y-92210161D03*
X172944418Y-60674460D03*
X162784418Y-60928460D03*
X174976418Y-61499960D03*
X163038418Y-59150460D03*
X178532418Y-74644460D03*
X164816418Y-67278460D03*
X163292418Y-68040460D03*
X177520717Y-75410759D03*
X169642418Y-54070460D03*
X169642418Y-57626460D03*
X171166418Y-69818460D03*
X161768418Y-56102460D03*
X162784418Y-57118460D03*
X171420418Y-68802460D03*
X155418418Y-69056460D03*
X156942418Y-50451960D03*
X156180418Y-68294460D03*
X158212418Y-50451960D03*
X147036418Y-67532460D03*
X149322418Y-63214460D03*
D19*
X173706418Y-101568460D02*
X177770418Y-101568460D01*
X171338418Y-99200460D02*
X173706418Y-101568460D01*
X165014418Y-99200460D02*
X171338418Y-99200460D01*
X178527418Y-100811460D02*
X178527418Y-98515460D01*
X177770418Y-101568460D02*
X178527418Y-100811460D01*
D20*
X162530418Y-86582460D02*
X165578418Y-89630460D01*
X151354418Y-74644460D02*
X152878418Y-76168460D01*
X165578418Y-89630460D02*
X168880418Y-89630460D01*
X146020418Y-72866460D02*
X147798418Y-74644460D01*
X147798418Y-74644460D02*
X151354418Y-74644460D01*
D19*
X169958929Y-70642971D02*
X171865907Y-70642971D01*
X165769907Y-66453949D02*
X169958929Y-70642971D01*
X173706418Y-68802460D02*
X173706418Y-64230460D01*
X173452418Y-69056460D02*
X173706418Y-68802460D01*
X158782929Y-66453949D02*
X165769907Y-66453949D01*
X171865907Y-70642971D02*
X173452418Y-69056460D01*
X157958418Y-67278460D02*
X158782929Y-66453949D01*
X148876929Y-48165949D02*
X148876929Y-45750971D01*
X148814418Y-48228460D02*
X148876929Y-48165949D01*
X148814418Y-52800460D02*
X148814418Y-48228460D01*
X148876929Y-45750971D02*
X148560418Y-45434460D01*
D21*
X161816717Y-92726759D02*
X161300119Y-92210161D01*
X162832717Y-92726759D02*
X161816717Y-92726759D01*
D19*
X163038418Y-60674460D02*
X162784418Y-60928460D01*
X172944418Y-60674460D02*
X163038418Y-60674460D01*
X172626918Y-59150460D02*
X163038418Y-59150460D01*
X174976418Y-61499960D02*
X172626918Y-59150460D01*
D21*
X178532418Y-74644460D02*
X172182418Y-74644460D01*
X172182418Y-74644460D02*
X164816418Y-67278460D01*
X169896418Y-73374460D02*
X164562418Y-68040460D01*
X177520717Y-75410759D02*
X171932717Y-75410759D01*
X164562418Y-68040460D02*
X163292418Y-68040460D01*
X171932717Y-75410759D02*
X169896418Y-73374460D01*
D19*
X169642418Y-57626460D02*
X169642418Y-54070460D01*
X161006418Y-61944460D02*
X161514418Y-62452460D01*
X161768418Y-56102460D02*
X161006418Y-56864460D01*
X161514418Y-62452460D02*
X163800418Y-62452460D01*
X163800418Y-62452460D02*
X171166418Y-69818460D01*
X161006418Y-56864460D02*
X161006418Y-61944460D01*
X164420898Y-61802940D02*
X171420418Y-68802460D01*
X161768418Y-61078496D02*
X162492862Y-61802940D01*
X161768418Y-58134460D02*
X161768418Y-61078496D01*
X162492862Y-61802940D02*
X164420898Y-61802940D01*
X162784418Y-57118460D02*
X161768418Y-58134460D01*
D21*
X156942418Y-52546460D02*
X156942418Y-50451960D01*
X155418418Y-65754460D02*
X158466418Y-62706460D01*
X158466418Y-54070460D02*
X156942418Y-52546460D01*
X155418418Y-69056460D02*
X155418418Y-65754460D01*
X158466418Y-62706460D02*
X158466418Y-54070460D01*
X156180418Y-65754460D02*
X158974418Y-62960460D01*
X158974418Y-62960460D02*
X158974418Y-51213960D01*
X156180418Y-68294460D02*
X156180418Y-65754460D01*
X158974418Y-51213960D02*
X158212418Y-50451960D01*
X149322418Y-65246460D02*
X147036418Y-67532460D01*
X149322418Y-63214460D02*
X149322418Y-65246460D01*
G04 #@! TA.AperFunction,Conductor*
G36*
X138401044Y-43436925D02*
G01*
X138402024Y-43427129D01*
X138404840Y-43398978D01*
X138410680Y-43371675D01*
X138515439Y-43057397D01*
X138519386Y-43047086D01*
X138528180Y-43026820D01*
X138537299Y-43009593D01*
X138630140Y-42862900D01*
X138641806Y-42847285D01*
X138756169Y-42716658D01*
X138770105Y-42703029D01*
X138903242Y-42591608D01*
X138919113Y-42580292D01*
X139067852Y-42490732D01*
X139085272Y-42482002D01*
X139121567Y-42467204D01*
X139246032Y-42416459D01*
X139264596Y-42410519D01*
X139433543Y-42370554D01*
X139452800Y-42367547D01*
X139565933Y-42358770D01*
X139594603Y-42356546D01*
X139611524Y-42357198D01*
X139611526Y-42357056D01*
X139620502Y-42357166D01*
X139629373Y-42358547D01*
X139638275Y-42357383D01*
X139638277Y-42357383D01*
X139660932Y-42354420D01*
X139677255Y-42353356D01*
X175842527Y-42349278D01*
X176085044Y-42349251D01*
X176098357Y-42353158D01*
X176126606Y-42349246D01*
X183087133Y-42348462D01*
X183091898Y-42348461D01*
X183094655Y-42348491D01*
X183162287Y-42349971D01*
X183170959Y-42347640D01*
X183176135Y-42346249D01*
X183201896Y-42342122D01*
X183350923Y-42333894D01*
X183370410Y-42334328D01*
X183543157Y-42351608D01*
X183562344Y-42355042D01*
X183730365Y-42398760D01*
X183748793Y-42405113D01*
X183908058Y-42474222D01*
X183925285Y-42483341D01*
X184071978Y-42576182D01*
X184087593Y-42587848D01*
X184218220Y-42702211D01*
X184231849Y-42716147D01*
X184343270Y-42849284D01*
X184354586Y-42865155D01*
X184444146Y-43013894D01*
X184452876Y-43031314D01*
X184518420Y-43192078D01*
X184524359Y-43210638D01*
X184552815Y-43330934D01*
X184564324Y-43379588D01*
X184567331Y-43398842D01*
X184576108Y-43511975D01*
X184578332Y-43540645D01*
X184577680Y-43557566D01*
X184577822Y-43557568D01*
X184577712Y-43566544D01*
X184576331Y-43575415D01*
X184577495Y-43584317D01*
X184577495Y-43584319D01*
X184578332Y-43590718D01*
X184580457Y-43606972D01*
X184581521Y-43623288D01*
X184586417Y-100232383D01*
X184586395Y-100234738D01*
X184585101Y-100303666D01*
X184587459Y-100312329D01*
X184587459Y-100312332D01*
X184588861Y-100317484D01*
X184593069Y-100343249D01*
X184601765Y-100492702D01*
X184601385Y-100512226D01*
X184586084Y-100669439D01*
X184580211Y-100697079D01*
X184464458Y-101044338D01*
X184451516Y-101071680D01*
X184360545Y-101216005D01*
X184348883Y-101231669D01*
X184343270Y-101238100D01*
X184234437Y-101362801D01*
X184220504Y-101376465D01*
X184087172Y-101488339D01*
X184071296Y-101499686D01*
X183922277Y-101589616D01*
X183904829Y-101598378D01*
X183748793Y-101662123D01*
X183743709Y-101664200D01*
X183725120Y-101670160D01*
X183555765Y-101710297D01*
X183536471Y-101713314D01*
X183394230Y-101724369D01*
X183377310Y-101723719D01*
X183377308Y-101723864D01*
X183368334Y-101723754D01*
X183359462Y-101722373D01*
X183327899Y-101726500D01*
X183311579Y-101727564D01*
X183238660Y-101727572D01*
X182086113Y-101727702D01*
X182086113Y-64578209D01*
X182091266Y-64577912D01*
X182091269Y-64577912D01*
X182186008Y-64572449D01*
X182309133Y-64565350D01*
X182314179Y-64564213D01*
X182314185Y-64564212D01*
X182402357Y-64544341D01*
X182527057Y-64516238D01*
X182734034Y-64432194D01*
X182816856Y-64381441D01*
X182920106Y-64318169D01*
X182924506Y-64315473D01*
X183093356Y-64169210D01*
X183236050Y-63997334D01*
X183348756Y-63804460D01*
X183350598Y-63799635D01*
X183350599Y-63799634D01*
X183353194Y-63792838D01*
X183428448Y-63595768D01*
X183429479Y-63590700D01*
X183429480Y-63590697D01*
X183451301Y-63483443D01*
X183472985Y-63376863D01*
X183473175Y-63371688D01*
X183473175Y-63371686D01*
X183480982Y-63158787D01*
X183480982Y-63158783D01*
X183481171Y-63153623D01*
X183480515Y-63148503D01*
X183480515Y-63148501D01*
X183453443Y-62937172D01*
X183453443Y-62937171D01*
X183452786Y-62932044D01*
X183451301Y-62927094D01*
X183390079Y-62723031D01*
X183390077Y-62723026D01*
X183388592Y-62718076D01*
X183290314Y-62517466D01*
X183160591Y-62335600D01*
X183153311Y-62328294D01*
X183017552Y-62192060D01*
X183002907Y-62177364D01*
X182920107Y-62117866D01*
X182821495Y-62047007D01*
X182822446Y-62045684D01*
X182779275Y-61998815D01*
X182767043Y-61928880D01*
X182794562Y-61863434D01*
X182826412Y-61835585D01*
X182924506Y-61775473D01*
X183093356Y-61629210D01*
X183236050Y-61457334D01*
X183348756Y-61264460D01*
X183350598Y-61259635D01*
X183350599Y-61259634D01*
X183353194Y-61252838D01*
X183428448Y-61055768D01*
X183429479Y-61050700D01*
X183429480Y-61050697D01*
X183451301Y-60943443D01*
X183472985Y-60836863D01*
X183473175Y-60831688D01*
X183473175Y-60831686D01*
X183480982Y-60618787D01*
X183480982Y-60618783D01*
X183481171Y-60613623D01*
X183480515Y-60608503D01*
X183480515Y-60608501D01*
X183453443Y-60397172D01*
X183453443Y-60397171D01*
X183452786Y-60392044D01*
X183451301Y-60387094D01*
X183390079Y-60183031D01*
X183390077Y-60183026D01*
X183388592Y-60178076D01*
X183290314Y-59977466D01*
X183160591Y-59795600D01*
X183153311Y-59788294D01*
X183017552Y-59652060D01*
X183002907Y-59637364D01*
X182920107Y-59577866D01*
X182821495Y-59507007D01*
X182822446Y-59505684D01*
X182779275Y-59458815D01*
X182767043Y-59388880D01*
X182794562Y-59323434D01*
X182826412Y-59295585D01*
X182924506Y-59235473D01*
X183093356Y-59089210D01*
X183236050Y-58917334D01*
X183348756Y-58724460D01*
X183350598Y-58719635D01*
X183350599Y-58719634D01*
X183353194Y-58712838D01*
X183428448Y-58515768D01*
X183429479Y-58510700D01*
X183429480Y-58510697D01*
X183451301Y-58403443D01*
X183472985Y-58296863D01*
X183473175Y-58291688D01*
X183473175Y-58291686D01*
X183480982Y-58078787D01*
X183480982Y-58078783D01*
X183481171Y-58073623D01*
X183480515Y-58068503D01*
X183480515Y-58068501D01*
X183453443Y-57857172D01*
X183453443Y-57857171D01*
X183452786Y-57852044D01*
X183451301Y-57847094D01*
X183390079Y-57643031D01*
X183390077Y-57643026D01*
X183388592Y-57638076D01*
X183290314Y-57437466D01*
X183160591Y-57255600D01*
X183153311Y-57248294D01*
X183017552Y-57112060D01*
X183002907Y-57097364D01*
X182920107Y-57037866D01*
X182821495Y-56967007D01*
X182822446Y-56965684D01*
X182779275Y-56918815D01*
X182767043Y-56848880D01*
X182794562Y-56783434D01*
X182826412Y-56755585D01*
X182924506Y-56695473D01*
X183093356Y-56549210D01*
X183236050Y-56377334D01*
X183348756Y-56184460D01*
X183350598Y-56179635D01*
X183350599Y-56179634D01*
X183353194Y-56172838D01*
X183428448Y-55975768D01*
X183429479Y-55970700D01*
X183429480Y-55970697D01*
X183451301Y-55863443D01*
X183472985Y-55756863D01*
X183473175Y-55751688D01*
X183473175Y-55751686D01*
X183480982Y-55538787D01*
X183480982Y-55538783D01*
X183481171Y-55533623D01*
X183480515Y-55528503D01*
X183480515Y-55528501D01*
X183453443Y-55317172D01*
X183453443Y-55317171D01*
X183452786Y-55312044D01*
X183451301Y-55307094D01*
X183390079Y-55103031D01*
X183390077Y-55103026D01*
X183388592Y-55098076D01*
X183290314Y-54897466D01*
X183160591Y-54715600D01*
X183153311Y-54708294D01*
X183017552Y-54572060D01*
X183017552Y-51873960D01*
X183079734Y-51867205D01*
X183216123Y-51816075D01*
X183332679Y-51728721D01*
X183420033Y-51612165D01*
X183471163Y-51475776D01*
X183477918Y-51413594D01*
X183477918Y-49617326D01*
X183471163Y-49555144D01*
X183420033Y-49418755D01*
X183332679Y-49302199D01*
X183216123Y-49214845D01*
X183079734Y-49163715D01*
X183017552Y-49156960D01*
X181221284Y-49156960D01*
X181159102Y-49163715D01*
X181022713Y-49214845D01*
X180906157Y-49302199D01*
X180818803Y-49418755D01*
X180767673Y-49555144D01*
X180760918Y-49617326D01*
X180760918Y-51413594D01*
X180767673Y-51475776D01*
X180818803Y-51612165D01*
X180906157Y-51728721D01*
X181022713Y-51816075D01*
X181159102Y-51867205D01*
X181221284Y-51873960D01*
X183017552Y-51873960D01*
X183017552Y-54572060D01*
X183002907Y-54557364D01*
X182920107Y-54497866D01*
X182825695Y-54430025D01*
X182821495Y-54427007D01*
X182779275Y-54406140D01*
X182625871Y-54330324D01*
X182625869Y-54330323D01*
X182621229Y-54328030D01*
X182407487Y-54263090D01*
X182186008Y-54233931D01*
X182119418Y-54232304D01*
X181896779Y-54250608D01*
X181680120Y-54305029D01*
X181475258Y-54394106D01*
X181358387Y-54469713D01*
X181292035Y-54512638D01*
X181292032Y-54512640D01*
X181287695Y-54515446D01*
X181122469Y-54665790D01*
X181119270Y-54669841D01*
X181119266Y-54669845D01*
X180987218Y-54837046D01*
X180987216Y-54837050D01*
X180984016Y-54841101D01*
X180960862Y-54883044D01*
X180936764Y-54926698D01*
X180876056Y-55036671D01*
X180874332Y-55041540D01*
X180874330Y-55041544D01*
X180803213Y-55242373D01*
X180803212Y-55242377D01*
X180801487Y-55247248D01*
X180800580Y-55252341D01*
X180800579Y-55252344D01*
X180763218Y-55462087D01*
X180763217Y-55462093D01*
X180762312Y-55467176D01*
X180761410Y-55541008D01*
X180759646Y-55685379D01*
X180759646Y-55685381D01*
X180759583Y-55690549D01*
X180793373Y-55911369D01*
X180862775Y-56123704D01*
X180965925Y-56321853D01*
X180969028Y-56325986D01*
X180969030Y-56325989D01*
X181086117Y-56481934D01*
X181100053Y-56500495D01*
X181103791Y-56504067D01*
X181234078Y-56628572D01*
X181261556Y-56654831D01*
X181419039Y-56762259D01*
X181464039Y-56817167D01*
X181472210Y-56887692D01*
X181440956Y-56951439D01*
X181416472Y-56972136D01*
X181292035Y-57052638D01*
X181292032Y-57052640D01*
X181287695Y-57055446D01*
X181122469Y-57205790D01*
X181119270Y-57209841D01*
X181119266Y-57209845D01*
X180987218Y-57377046D01*
X180987216Y-57377050D01*
X180984016Y-57381101D01*
X180960862Y-57423044D01*
X180936764Y-57466698D01*
X180876056Y-57576671D01*
X180874332Y-57581540D01*
X180874330Y-57581544D01*
X180803213Y-57782373D01*
X180803212Y-57782377D01*
X180801487Y-57787248D01*
X180800580Y-57792341D01*
X180800579Y-57792344D01*
X180763218Y-58002087D01*
X180763217Y-58002093D01*
X180762312Y-58007176D01*
X180761410Y-58081008D01*
X180759646Y-58225379D01*
X180759646Y-58225381D01*
X180759583Y-58230549D01*
X180793373Y-58451369D01*
X180862775Y-58663704D01*
X180965925Y-58861853D01*
X180969028Y-58865986D01*
X180969030Y-58865989D01*
X181086117Y-59021934D01*
X181100053Y-59040495D01*
X181103791Y-59044067D01*
X181234078Y-59168572D01*
X181261556Y-59194831D01*
X181419039Y-59302259D01*
X181464039Y-59357167D01*
X181472210Y-59427692D01*
X181440956Y-59491439D01*
X181416472Y-59512136D01*
X181292035Y-59592638D01*
X181292032Y-59592640D01*
X181287695Y-59595446D01*
X181122469Y-59745790D01*
X181119270Y-59749841D01*
X181119266Y-59749845D01*
X180987218Y-59917046D01*
X180987216Y-59917050D01*
X180984016Y-59921101D01*
X180960862Y-59963044D01*
X180936764Y-60006698D01*
X180876056Y-60116671D01*
X180874332Y-60121540D01*
X180874330Y-60121544D01*
X180803213Y-60322373D01*
X180803212Y-60322377D01*
X180801487Y-60327248D01*
X180800580Y-60332341D01*
X180800579Y-60332344D01*
X180763218Y-60542087D01*
X180763217Y-60542093D01*
X180762312Y-60547176D01*
X180761410Y-60621008D01*
X180759646Y-60765379D01*
X180759646Y-60765381D01*
X180759583Y-60770549D01*
X180793373Y-60991369D01*
X180862775Y-61203704D01*
X180965925Y-61401853D01*
X180969028Y-61405986D01*
X180969030Y-61405989D01*
X181086117Y-61561934D01*
X181100053Y-61580495D01*
X181103791Y-61584067D01*
X181234078Y-61708572D01*
X181261556Y-61734831D01*
X181419039Y-61842259D01*
X181464039Y-61897167D01*
X181472210Y-61967692D01*
X181440956Y-62031439D01*
X181416472Y-62052136D01*
X181292035Y-62132638D01*
X181292032Y-62132640D01*
X181287695Y-62135446D01*
X181122469Y-62285790D01*
X181119270Y-62289841D01*
X181119266Y-62289845D01*
X180987218Y-62457046D01*
X180987216Y-62457050D01*
X180984016Y-62461101D01*
X180960862Y-62503044D01*
X180936764Y-62546698D01*
X180876056Y-62656671D01*
X180874332Y-62661540D01*
X180874330Y-62661544D01*
X180803213Y-62862373D01*
X180803212Y-62862377D01*
X180801487Y-62867248D01*
X180800580Y-62872341D01*
X180800579Y-62872344D01*
X180763218Y-63082087D01*
X180763217Y-63082093D01*
X180762312Y-63087176D01*
X180761410Y-63161008D01*
X180759646Y-63305379D01*
X180759646Y-63305381D01*
X180759583Y-63310549D01*
X180793373Y-63531369D01*
X180862775Y-63743704D01*
X180965925Y-63941853D01*
X180969028Y-63945986D01*
X180969030Y-63945989D01*
X181086117Y-64101934D01*
X181100053Y-64120495D01*
X181103791Y-64124067D01*
X181234078Y-64248572D01*
X181261556Y-64274831D01*
X181265821Y-64277740D01*
X181265829Y-64277746D01*
X181351709Y-64336329D01*
X181446098Y-64400717D01*
X181648723Y-64494772D01*
X181863988Y-64554471D01*
X182086113Y-64578209D01*
X182086113Y-101727702D01*
X174294418Y-101728581D01*
X174294418Y-101332670D01*
X174303681Y-101331883D01*
X174463982Y-101318264D01*
X174470767Y-101317688D01*
X174642061Y-101273170D01*
X174646935Y-101270971D01*
X174793053Y-101205055D01*
X174803390Y-101200392D01*
X174807823Y-101197403D01*
X174807826Y-101197401D01*
X174833218Y-101180278D01*
X174950128Y-101101442D01*
X174953988Y-101097753D01*
X174953990Y-101097751D01*
X175008105Y-101046027D01*
X175013502Y-101041158D01*
X175019457Y-101036090D01*
X175027049Y-101031300D01*
X175032992Y-101024571D01*
X175032994Y-101024569D01*
X175040193Y-101016417D01*
X175055322Y-101001918D01*
X175070751Y-100989419D01*
X175079165Y-100980120D01*
X175083232Y-100973926D01*
X175094273Y-100957111D01*
X175105155Y-100942862D01*
X175117433Y-100928960D01*
X175117435Y-100928957D01*
X175123374Y-100922232D01*
X175135127Y-100897200D01*
X175143850Y-100881604D01*
X175159031Y-100858482D01*
X175161653Y-100849898D01*
X175161655Y-100849895D01*
X175167074Y-100832159D01*
X175173520Y-100815427D01*
X175181400Y-100798642D01*
X175185217Y-100790512D01*
X175189471Y-100763192D01*
X175193469Y-100745761D01*
X175198925Y-100727903D01*
X175198925Y-100727902D01*
X175201548Y-100719317D01*
X175201656Y-100710342D01*
X175201656Y-100710341D01*
X175201967Y-100684469D01*
X175202063Y-100682318D01*
X175202418Y-100680037D01*
X175202418Y-100647704D01*
X175202427Y-100646191D01*
X175203297Y-100573813D01*
X175202587Y-100571271D01*
X175202418Y-100568684D01*
X175202418Y-97274460D01*
X175222420Y-97206339D01*
X175276076Y-97159846D01*
X175328418Y-97148460D01*
X180887229Y-97148460D01*
X180888794Y-97148470D01*
X180960862Y-97149365D01*
X180969510Y-97146952D01*
X180991242Y-97140889D01*
X181007241Y-97137526D01*
X181022713Y-97135310D01*
X181038463Y-97133055D01*
X181046634Y-97129340D01*
X181046637Y-97129339D01*
X181059974Y-97123275D01*
X181078260Y-97116613D01*
X181092375Y-97112675D01*
X181092381Y-97112672D01*
X181101024Y-97110261D01*
X181119940Y-97098492D01*
X181127808Y-97093597D01*
X181142211Y-97085884D01*
X181170928Y-97072827D01*
X181177729Y-97066967D01*
X181188830Y-97057402D01*
X181204510Y-97045876D01*
X181224577Y-97033390D01*
X181234078Y-97025207D01*
X181237229Y-97021506D01*
X181237237Y-97021498D01*
X181248131Y-97008702D01*
X181252995Y-97003311D01*
X181255279Y-97000922D01*
X181264105Y-96992541D01*
X181274365Y-96983701D01*
X181274368Y-96983698D01*
X181281165Y-96977841D01*
X181286047Y-96970309D01*
X181291948Y-96963544D01*
X181292046Y-96963630D01*
X181297420Y-96956832D01*
X181355400Y-96896170D01*
X181358387Y-96891740D01*
X181446098Y-96761669D01*
X181454350Y-96749432D01*
X181456549Y-96744558D01*
X181456551Y-96744554D01*
X181499994Y-96648251D01*
X181527128Y-96588103D01*
X181571646Y-96416809D01*
X181572098Y-96411491D01*
X181572098Y-96411490D01*
X181586176Y-96245780D01*
X181586628Y-96240460D01*
X181586176Y-96235140D01*
X181572098Y-96069430D01*
X181572098Y-96069429D01*
X181571646Y-96064111D01*
X181527128Y-95892817D01*
X181499994Y-95832669D01*
X181456551Y-95736366D01*
X181456549Y-95736362D01*
X181454350Y-95731488D01*
X181446098Y-95719250D01*
X181358385Y-95589177D01*
X181355400Y-95584750D01*
X181299985Y-95526773D01*
X181295116Y-95521376D01*
X181290048Y-95515421D01*
X181285258Y-95507829D01*
X181278529Y-95501886D01*
X181278527Y-95501884D01*
X181270375Y-95494685D01*
X181255876Y-95479556D01*
X181243377Y-95464127D01*
X181234078Y-95455713D01*
X181211069Y-95440605D01*
X181196820Y-95429723D01*
X181182918Y-95417445D01*
X181182915Y-95417443D01*
X181176190Y-95411504D01*
X181151158Y-95399751D01*
X181135562Y-95391028D01*
X181112440Y-95375847D01*
X181103856Y-95373225D01*
X181103853Y-95373223D01*
X181086117Y-95367804D01*
X181069385Y-95361358D01*
X181052600Y-95353478D01*
X181044470Y-95349661D01*
X181017150Y-95345407D01*
X180999719Y-95341409D01*
X180981861Y-95335953D01*
X180981860Y-95335953D01*
X180973275Y-95333330D01*
X180938427Y-95332911D01*
X180936276Y-95332815D01*
X180933995Y-95332460D01*
X180901662Y-95332460D01*
X180900148Y-95332451D01*
X180887229Y-95332296D01*
X180827771Y-95331581D01*
X180825229Y-95332291D01*
X180822642Y-95332460D01*
X177520717Y-95332460D01*
X177520717Y-76324263D01*
X177710645Y-76304301D01*
X177892273Y-76245286D01*
X178057661Y-76149799D01*
X178062568Y-76145381D01*
X178062569Y-76145380D01*
X178194672Y-76026434D01*
X178199583Y-76022012D01*
X178311835Y-75867511D01*
X178314519Y-75861483D01*
X178314520Y-75861481D01*
X178349053Y-75783918D01*
X178389511Y-75693047D01*
X178390883Y-75686592D01*
X178390886Y-75686583D01*
X178397158Y-75657076D01*
X178430886Y-75594603D01*
X178493036Y-75560282D01*
X178520404Y-75557274D01*
X178525853Y-75557274D01*
X178532418Y-75557964D01*
X178722346Y-75538002D01*
X178903974Y-75478987D01*
X179069362Y-75383500D01*
X179211284Y-75255713D01*
X179323536Y-75101212D01*
X179326220Y-75095184D01*
X179326221Y-75095182D01*
X179398527Y-74932779D01*
X179401212Y-74926748D01*
X179421065Y-74833348D01*
X179439546Y-74746404D01*
X179439546Y-74746399D01*
X179440918Y-74739947D01*
X179440918Y-74548973D01*
X179439546Y-74542521D01*
X179439546Y-74542516D01*
X179421065Y-74455573D01*
X179401212Y-74362172D01*
X179398527Y-74356141D01*
X179326221Y-74193738D01*
X179326220Y-74193736D01*
X179323536Y-74187708D01*
X179211284Y-74033207D01*
X179069362Y-73905420D01*
X178903974Y-73809933D01*
X178722346Y-73750918D01*
X178532418Y-73730956D01*
X178446321Y-73740005D01*
X178349053Y-73750228D01*
X178349051Y-73750228D01*
X178342490Y-73750918D01*
X178160862Y-73809933D01*
X177995474Y-73905420D01*
X177914203Y-73978597D01*
X177850197Y-74009313D01*
X177829894Y-74010960D01*
X176066393Y-74010960D01*
X176066393Y-47953197D01*
X176094418Y-47951802D01*
X176388090Y-47937182D01*
X176391823Y-47936541D01*
X176391828Y-47936540D01*
X176467713Y-47923500D01*
X176705534Y-47882635D01*
X176709173Y-47881547D01*
X176709176Y-47881546D01*
X176978870Y-47800890D01*
X177014125Y-47790347D01*
X177309394Y-47661654D01*
X177312665Y-47659731D01*
X177312669Y-47659729D01*
X177583793Y-47500343D01*
X177583801Y-47500338D01*
X177587063Y-47498420D01*
X177590078Y-47496119D01*
X177749749Y-47374262D01*
X177843111Y-47303011D01*
X177845830Y-47300363D01*
X177845835Y-47300358D01*
X178057661Y-47094006D01*
X178073829Y-47078256D01*
X178076209Y-47075302D01*
X178076211Y-47075299D01*
X178167147Y-46962398D01*
X178275874Y-46827410D01*
X178277882Y-46824190D01*
X178444309Y-46557336D01*
X178444313Y-46557329D01*
X178446321Y-46554109D01*
X178582699Y-46262310D01*
X178583882Y-46258700D01*
X178583884Y-46258696D01*
X178681855Y-45959838D01*
X178683034Y-45956241D01*
X178745871Y-45640334D01*
X178746158Y-45636562D01*
X178746159Y-45636554D01*
X178770015Y-45322943D01*
X178770015Y-45322938D01*
X178770302Y-45319166D01*
X178755971Y-44997389D01*
X178703088Y-44679665D01*
X178702022Y-44676031D01*
X178702021Y-44676027D01*
X178613485Y-44374237D01*
X178613482Y-44374229D01*
X178612416Y-44370595D01*
X178485271Y-44074656D01*
X178483367Y-44071379D01*
X178483364Y-44071372D01*
X178342490Y-43828842D01*
X178323493Y-43796136D01*
X178129427Y-43539068D01*
X177990571Y-43395027D01*
X177908516Y-43309908D01*
X177908513Y-43309906D01*
X177905883Y-43307177D01*
X177902943Y-43304783D01*
X177902937Y-43304778D01*
X177659040Y-43106215D01*
X177659036Y-43106212D01*
X177656099Y-43103821D01*
X177383694Y-42931946D01*
X177092613Y-42794042D01*
X176787073Y-42692106D01*
X176471500Y-42627615D01*
X176150464Y-42601503D01*
X176125301Y-42601239D01*
X176112957Y-42597473D01*
X176092640Y-42601023D01*
X175776684Y-42620071D01*
X175776680Y-42620071D01*
X175772906Y-42620299D01*
X175763655Y-42621988D01*
X175513362Y-42667700D01*
X175456051Y-42678167D01*
X175148444Y-42773682D01*
X174854539Y-42905460D01*
X174578594Y-43071592D01*
X174575610Y-43073919D01*
X174575603Y-43073924D01*
X174327601Y-43267336D01*
X174327598Y-43267338D01*
X174324606Y-43269672D01*
X174096254Y-43496831D01*
X173896847Y-43749778D01*
X173729272Y-44024850D01*
X173595957Y-44318061D01*
X173498833Y-44625164D01*
X173462051Y-44820763D01*
X173440007Y-44937987D01*
X173440006Y-44937992D01*
X173439307Y-44941711D01*
X173418241Y-45263117D01*
X173418449Y-45266897D01*
X173418449Y-45266898D01*
X173422203Y-45335111D01*
X173435940Y-45584726D01*
X173436601Y-45588453D01*
X173436601Y-45588457D01*
X173467911Y-45765123D01*
X173492148Y-45901880D01*
X173493253Y-45905505D01*
X173493254Y-45905510D01*
X173536551Y-46047570D01*
X173586051Y-46209983D01*
X173587582Y-46213447D01*
X173587585Y-46213454D01*
X173623284Y-46294203D01*
X173716288Y-46504574D01*
X173718224Y-46507828D01*
X173718227Y-46507834D01*
X173879034Y-46778126D01*
X173880973Y-46781385D01*
X173883288Y-46784386D01*
X173883291Y-46784390D01*
X173941901Y-46860359D01*
X174077721Y-47036407D01*
X174110309Y-47069511D01*
X174293669Y-47255774D01*
X174303681Y-47265945D01*
X174555581Y-47466674D01*
X174829771Y-47635687D01*
X175122280Y-47770535D01*
X175125880Y-47771694D01*
X175125887Y-47771697D01*
X175341689Y-47841191D01*
X175428871Y-47869266D01*
X175432587Y-47869985D01*
X175432595Y-47869987D01*
X175741383Y-47929730D01*
X175741392Y-47929731D01*
X175745102Y-47930449D01*
X175748878Y-47930716D01*
X175748883Y-47930717D01*
X176062604Y-47952929D01*
X176066393Y-47953197D01*
X176066393Y-74010960D01*
X172497012Y-74010960D01*
X172428891Y-73990958D01*
X172407917Y-73974055D01*
X170025428Y-71591566D01*
X169991402Y-71529254D01*
X169996467Y-71458439D01*
X170039014Y-71401603D01*
X170105534Y-71376792D01*
X170114523Y-71376471D01*
X171800741Y-71376471D01*
X171819690Y-71377904D01*
X171840134Y-71381014D01*
X171847426Y-71380421D01*
X171847429Y-71380421D01*
X171890886Y-71376886D01*
X171901101Y-71376471D01*
X171908733Y-71376471D01*
X171912352Y-71376049D01*
X171912371Y-71376048D01*
X171935976Y-71373296D01*
X171940342Y-71372864D01*
X172010611Y-71367148D01*
X172017580Y-71364890D01*
X172023100Y-71363787D01*
X172028525Y-71362505D01*
X172035797Y-71361657D01*
X172099284Y-71338612D01*
X172102103Y-71337589D01*
X172106263Y-71336161D01*
X172166365Y-71316691D01*
X172166369Y-71316689D01*
X172173327Y-71314435D01*
X172179579Y-71310641D01*
X172184695Y-71308299D01*
X172189696Y-71305795D01*
X172196574Y-71303298D01*
X172202691Y-71299288D01*
X172202696Y-71299285D01*
X172255561Y-71264624D01*
X172259283Y-71262276D01*
X172319552Y-71225704D01*
X172323755Y-71221992D01*
X172327662Y-71218542D01*
X172327677Y-71218559D01*
X172330987Y-71215625D01*
X172333494Y-71213529D01*
X172339613Y-71209517D01*
X172344645Y-71204205D01*
X172391073Y-71155195D01*
X172393451Y-71152753D01*
X173914173Y-69632031D01*
X174178995Y-69367208D01*
X174193409Y-69354820D01*
X174204171Y-69346901D01*
X174204174Y-69346898D01*
X174210069Y-69342560D01*
X174214812Y-69336977D01*
X174243049Y-69303740D01*
X174249979Y-69296224D01*
X174255363Y-69290840D01*
X174257638Y-69287964D01*
X174257642Y-69287960D01*
X174272363Y-69269354D01*
X174275134Y-69265974D01*
X174320810Y-69212209D01*
X174324140Y-69205688D01*
X174327244Y-69201033D01*
X174330189Y-69196265D01*
X174334736Y-69190518D01*
X174337838Y-69183882D01*
X174337838Y-69183881D01*
X174364589Y-69126643D01*
X174366517Y-69122697D01*
X174398594Y-69059878D01*
X174400334Y-69052767D01*
X174402287Y-69047515D01*
X174404056Y-69042197D01*
X174407156Y-69035565D01*
X174421519Y-68966513D01*
X174422489Y-68962229D01*
X174439248Y-68893739D01*
X174439596Y-68888137D01*
X174439596Y-68888134D01*
X174439918Y-68882940D01*
X174439942Y-68882941D01*
X174440206Y-68878526D01*
X174440496Y-68875276D01*
X174441987Y-68868108D01*
X174439964Y-68793337D01*
X174439918Y-68789929D01*
X174439918Y-64807456D01*
X174459920Y-64739335D01*
X174463982Y-64733395D01*
X174475934Y-64716944D01*
X174497536Y-64687212D01*
X174500220Y-64681184D01*
X174500221Y-64681182D01*
X174572527Y-64518779D01*
X174575212Y-64512748D01*
X174595065Y-64419348D01*
X174613546Y-64332404D01*
X174613546Y-64332399D01*
X174614918Y-64325947D01*
X174614918Y-64134973D01*
X174613546Y-64128521D01*
X174613546Y-64128516D01*
X174595065Y-64041572D01*
X174575212Y-63948172D01*
X174572527Y-63942141D01*
X174500221Y-63779738D01*
X174500220Y-63779736D01*
X174497536Y-63773708D01*
X174475934Y-63743975D01*
X174434566Y-63687038D01*
X174385284Y-63619207D01*
X174366520Y-63602312D01*
X174248270Y-63495839D01*
X174248269Y-63495838D01*
X174243362Y-63491420D01*
X174077974Y-63395933D01*
X173896346Y-63336918D01*
X173761274Y-63322721D01*
X173712983Y-63317646D01*
X173706418Y-63316956D01*
X173652613Y-63322611D01*
X173523053Y-63336228D01*
X173523051Y-63336228D01*
X173516490Y-63336918D01*
X173334862Y-63395933D01*
X173169474Y-63491420D01*
X173140624Y-63517396D01*
X173032463Y-63614785D01*
X173032462Y-63614786D01*
X173027552Y-63619207D01*
X172944418Y-63733631D01*
X172919181Y-63768366D01*
X172919180Y-63768367D01*
X172915300Y-63773708D01*
X172912616Y-63779736D01*
X172912615Y-63779738D01*
X172840309Y-63942141D01*
X172840309Y-63942142D01*
X172837624Y-63948172D01*
X172817771Y-64041572D01*
X172799290Y-64128516D01*
X172799290Y-64128521D01*
X172797918Y-64134973D01*
X172797918Y-64325947D01*
X172799290Y-64332399D01*
X172799290Y-64332404D01*
X172817771Y-64419347D01*
X172837624Y-64512748D01*
X172840309Y-64518778D01*
X172840309Y-64518779D01*
X172912615Y-64681182D01*
X172912616Y-64681184D01*
X172915300Y-64687212D01*
X172919180Y-64692553D01*
X172919181Y-64692554D01*
X172948854Y-64733395D01*
X172972712Y-64800263D01*
X172972918Y-64807456D01*
X172972918Y-68446443D01*
X172952916Y-68514564D01*
X172936014Y-68535538D01*
X172748212Y-68723340D01*
X172544013Y-68927540D01*
X172481701Y-68961564D01*
X172410886Y-68956500D01*
X172354050Y-68913953D01*
X172329239Y-68847433D01*
X172328918Y-68838444D01*
X172328918Y-68706973D01*
X172327546Y-68700521D01*
X172327546Y-68700516D01*
X172309065Y-68613573D01*
X172289212Y-68520172D01*
X172255561Y-68444590D01*
X172214221Y-68351738D01*
X172214220Y-68351736D01*
X172211536Y-68345708D01*
X172196574Y-68325114D01*
X172104170Y-68197932D01*
X172099284Y-68191207D01*
X172023100Y-68122611D01*
X171962270Y-68067839D01*
X171962269Y-68067838D01*
X171957362Y-68063420D01*
X171804106Y-67974937D01*
X171797697Y-67971237D01*
X171797696Y-67971236D01*
X171791974Y-67967933D01*
X171610346Y-67908918D01*
X171603776Y-67908228D01*
X171603769Y-67908226D01*
X171603149Y-67908161D01*
X171602814Y-67908023D01*
X171597318Y-67906855D01*
X171597532Y-67905850D01*
X171537494Y-67881145D01*
X171527230Y-67871947D01*
X165278338Y-61623055D01*
X165244312Y-61560743D01*
X165249377Y-61489928D01*
X165291924Y-61433092D01*
X165358444Y-61408281D01*
X165367433Y-61407960D01*
X172364117Y-61407960D01*
X172427117Y-61424841D01*
X172572862Y-61508987D01*
X172754490Y-61568002D01*
X172761051Y-61568692D01*
X172761053Y-61568692D01*
X172871938Y-61580346D01*
X172944418Y-61587964D01*
X172950983Y-61587274D01*
X173120689Y-61569437D01*
X173134346Y-61568002D01*
X173315974Y-61508987D01*
X173481362Y-61413500D01*
X173587872Y-61317598D01*
X173651876Y-61286883D01*
X173722329Y-61295646D01*
X173761274Y-61322141D01*
X174050525Y-61611392D01*
X174084676Y-61674289D01*
X174107624Y-61782248D01*
X174110309Y-61788278D01*
X174110309Y-61788279D01*
X174182615Y-61950682D01*
X174182616Y-61950684D01*
X174185300Y-61956712D01*
X174189180Y-61962053D01*
X174189181Y-61962054D01*
X174214812Y-61997332D01*
X174297552Y-62111213D01*
X174302462Y-62115634D01*
X174302463Y-62115635D01*
X174408646Y-62211242D01*
X174439474Y-62239000D01*
X174604862Y-62334487D01*
X174786490Y-62393502D01*
X174793051Y-62394192D01*
X174793053Y-62394192D01*
X174826542Y-62397712D01*
X174976418Y-62413464D01*
X174982983Y-62412774D01*
X175154106Y-62394788D01*
X175166346Y-62393502D01*
X175347974Y-62334487D01*
X175513362Y-62239000D01*
X175655284Y-62111213D01*
X175767536Y-61956712D01*
X175770220Y-61950684D01*
X175770221Y-61950682D01*
X175835467Y-61804136D01*
X175845212Y-61782248D01*
X175865065Y-61688847D01*
X175883546Y-61601904D01*
X175883546Y-61601899D01*
X175884918Y-61595447D01*
X175884918Y-61404473D01*
X175883546Y-61398021D01*
X175883546Y-61398016D01*
X175865065Y-61311073D01*
X175845212Y-61217672D01*
X175835467Y-61195784D01*
X175770221Y-61049238D01*
X175770220Y-61049236D01*
X175767536Y-61043208D01*
X175655284Y-60888707D01*
X175513362Y-60760920D01*
X175347974Y-60665433D01*
X175203212Y-60618397D01*
X175172631Y-60608460D01*
X175172630Y-60608460D01*
X175166346Y-60606418D01*
X175159163Y-60605663D01*
X175158832Y-60605527D01*
X175153318Y-60604355D01*
X175153532Y-60603347D01*
X175093506Y-60578655D01*
X175083232Y-60569448D01*
X173191663Y-58677879D01*
X173179276Y-58663466D01*
X173171359Y-58652708D01*
X173167018Y-58646809D01*
X173128205Y-58613835D01*
X173120689Y-58606905D01*
X173115298Y-58601514D01*
X173093794Y-58584501D01*
X173090408Y-58581724D01*
X173042251Y-58540811D01*
X173042246Y-58540807D01*
X173036667Y-58536068D01*
X173030145Y-58532738D01*
X173025467Y-58529618D01*
X173020713Y-58526682D01*
X173014975Y-58522142D01*
X172951064Y-58492271D01*
X172947157Y-58490361D01*
X172884336Y-58458284D01*
X172877224Y-58456544D01*
X172871938Y-58454578D01*
X172866653Y-58452820D01*
X172860023Y-58449721D01*
X172790950Y-58435354D01*
X172786666Y-58434384D01*
X172754490Y-58426511D01*
X172718197Y-58417630D01*
X172707398Y-58416960D01*
X172707399Y-58416936D01*
X172702983Y-58416672D01*
X172699734Y-58416382D01*
X172692566Y-58414891D01*
X172617778Y-58416914D01*
X172614372Y-58416960D01*
X170438342Y-58416960D01*
X170370221Y-58396958D01*
X170323728Y-58343302D01*
X170313624Y-58273028D01*
X170336406Y-58216900D01*
X170433536Y-58083212D01*
X170436220Y-58077184D01*
X170436221Y-58077182D01*
X170508527Y-57914779D01*
X170511212Y-57908748D01*
X170531065Y-57815347D01*
X170549546Y-57728404D01*
X170549546Y-57728399D01*
X170550918Y-57721947D01*
X170550918Y-57530973D01*
X170549546Y-57524521D01*
X170549546Y-57524516D01*
X170531065Y-57437572D01*
X170511212Y-57344172D01*
X170508527Y-57338141D01*
X170436221Y-57175738D01*
X170436220Y-57175736D01*
X170433536Y-57169708D01*
X170399982Y-57123525D01*
X170376124Y-57056657D01*
X170375918Y-57049464D01*
X170375918Y-54647456D01*
X170395920Y-54579335D01*
X170399982Y-54573395D01*
X170433536Y-54527212D01*
X170436220Y-54521184D01*
X170436221Y-54521182D01*
X170508527Y-54358779D01*
X170511212Y-54352748D01*
X170531065Y-54259347D01*
X170549546Y-54172404D01*
X170549546Y-54172399D01*
X170550918Y-54165947D01*
X170550918Y-53974973D01*
X170549546Y-53968521D01*
X170549546Y-53968516D01*
X170531065Y-53881572D01*
X170511212Y-53788172D01*
X170508527Y-53782141D01*
X170436221Y-53619738D01*
X170436220Y-53619736D01*
X170433536Y-53613708D01*
X170321284Y-53459207D01*
X170179362Y-53331420D01*
X170013974Y-53235933D01*
X169832346Y-53176918D01*
X169788918Y-53172353D01*
X169648983Y-53157646D01*
X169642418Y-53156956D01*
X169635853Y-53157646D01*
X169459053Y-53176228D01*
X169459051Y-53176228D01*
X169452490Y-53176918D01*
X169270862Y-53235933D01*
X169105474Y-53331420D01*
X169076624Y-53357396D01*
X168968463Y-53454785D01*
X168968462Y-53454786D01*
X168963552Y-53459207D01*
X168880418Y-53573631D01*
X168855181Y-53608366D01*
X168855180Y-53608367D01*
X168851300Y-53613708D01*
X168848616Y-53619736D01*
X168848615Y-53619738D01*
X168776309Y-53782141D01*
X168776309Y-53782142D01*
X168773624Y-53788172D01*
X168753771Y-53881573D01*
X168735290Y-53968516D01*
X168735290Y-53968521D01*
X168733918Y-53974973D01*
X168733918Y-54165947D01*
X168735290Y-54172399D01*
X168735290Y-54172404D01*
X168753771Y-54259347D01*
X168773624Y-54352748D01*
X168776309Y-54358778D01*
X168776309Y-54358779D01*
X168848615Y-54521182D01*
X168848616Y-54521184D01*
X168851300Y-54527212D01*
X168855180Y-54532553D01*
X168855181Y-54532554D01*
X168884854Y-54573395D01*
X168908712Y-54640263D01*
X168908918Y-54647456D01*
X168908918Y-57049464D01*
X168888916Y-57117585D01*
X168884854Y-57123525D01*
X168855181Y-57164366D01*
X168855180Y-57164367D01*
X168851300Y-57169708D01*
X168848616Y-57175736D01*
X168848615Y-57175738D01*
X168776309Y-57338141D01*
X168776309Y-57338142D01*
X168773624Y-57344172D01*
X168753771Y-57437573D01*
X168735290Y-57524516D01*
X168735290Y-57524521D01*
X168733918Y-57530973D01*
X168733918Y-57721947D01*
X168735290Y-57728399D01*
X168735290Y-57728404D01*
X168753771Y-57815347D01*
X168773624Y-57908748D01*
X168776309Y-57914778D01*
X168776309Y-57914779D01*
X168848615Y-58077182D01*
X168848616Y-58077184D01*
X168851300Y-58083212D01*
X168855180Y-58088553D01*
X168855181Y-58088554D01*
X168880418Y-58123289D01*
X168908712Y-58162232D01*
X168948430Y-58216899D01*
X168972288Y-58283766D01*
X168956208Y-58352918D01*
X168905294Y-58402398D01*
X168846494Y-58416960D01*
X163618719Y-58416960D01*
X163555719Y-58400079D01*
X163415697Y-58319237D01*
X163415696Y-58319236D01*
X163409974Y-58315933D01*
X163228346Y-58256918D01*
X163213167Y-58255322D01*
X163056422Y-58238848D01*
X162990766Y-58211835D01*
X162950136Y-58153613D01*
X162947433Y-58082668D01*
X162983515Y-58021524D01*
X163030656Y-57993706D01*
X163155974Y-57952987D01*
X163321362Y-57857500D01*
X163326269Y-57853082D01*
X163326270Y-57853081D01*
X163458373Y-57734135D01*
X163463284Y-57729713D01*
X163575536Y-57575212D01*
X163578220Y-57569184D01*
X163578221Y-57569182D01*
X163650527Y-57406779D01*
X163653212Y-57400748D01*
X163673065Y-57307348D01*
X163691546Y-57220404D01*
X163691546Y-57220399D01*
X163692918Y-57213947D01*
X163692918Y-57022973D01*
X163691546Y-57016521D01*
X163691546Y-57016516D01*
X163673065Y-56929573D01*
X163653212Y-56836172D01*
X163650527Y-56830141D01*
X163578221Y-56667738D01*
X163578220Y-56667736D01*
X163575536Y-56661708D01*
X163463284Y-56507207D01*
X163458373Y-56502785D01*
X163326270Y-56383839D01*
X163326269Y-56383838D01*
X163321362Y-56379420D01*
X163155974Y-56283933D01*
X162974346Y-56224918D01*
X162920862Y-56219296D01*
X162789747Y-56205516D01*
X162724091Y-56178503D01*
X162683461Y-56120281D01*
X162676918Y-56080206D01*
X162676918Y-56006973D01*
X162675546Y-56000521D01*
X162675546Y-56000516D01*
X162657065Y-55913572D01*
X162637212Y-55820172D01*
X162621932Y-55785852D01*
X162562221Y-55651738D01*
X162562220Y-55651736D01*
X162559536Y-55645708D01*
X162536983Y-55614666D01*
X162455438Y-55502430D01*
X162447284Y-55491207D01*
X162442373Y-55486785D01*
X162310270Y-55367839D01*
X162310269Y-55367838D01*
X162305362Y-55363420D01*
X162139974Y-55267933D01*
X161958346Y-55208918D01*
X161847669Y-55197285D01*
X161774983Y-55189646D01*
X161768418Y-55188956D01*
X161671675Y-55199124D01*
X161585053Y-55208228D01*
X161585051Y-55208228D01*
X161578490Y-55208918D01*
X161396862Y-55267933D01*
X161339177Y-55301237D01*
X161288478Y-55330509D01*
X161231474Y-55363420D01*
X161110191Y-55472623D01*
X161094463Y-55486785D01*
X161094462Y-55486786D01*
X161089552Y-55491207D01*
X160977300Y-55645708D01*
X160974616Y-55651736D01*
X160974615Y-55651738D01*
X160902309Y-55814141D01*
X160902309Y-55814142D01*
X160899624Y-55820172D01*
X160876677Y-55928128D01*
X160842526Y-55991026D01*
X160533838Y-56299715D01*
X160519424Y-56312102D01*
X160508666Y-56320019D01*
X160502767Y-56324360D01*
X160469787Y-56363180D01*
X160462857Y-56370696D01*
X160457473Y-56376080D01*
X160455210Y-56378941D01*
X160455205Y-56378946D01*
X160440485Y-56397552D01*
X160437696Y-56400953D01*
X160396769Y-56449128D01*
X160396768Y-56449129D01*
X160392026Y-56454711D01*
X160388695Y-56461234D01*
X160385576Y-56465911D01*
X160382640Y-56470665D01*
X160378100Y-56476403D01*
X160348229Y-56540313D01*
X160346319Y-56544221D01*
X160314242Y-56607042D01*
X160312502Y-56614154D01*
X160310536Y-56619440D01*
X160308778Y-56624725D01*
X160305679Y-56631355D01*
X160291312Y-56700428D01*
X160290342Y-56704712D01*
X160273588Y-56773181D01*
X160273240Y-56778783D01*
X160273240Y-56778786D01*
X160272918Y-56783980D01*
X160272894Y-56783979D01*
X160272630Y-56788394D01*
X160272340Y-56791644D01*
X160270849Y-56798812D01*
X160272503Y-56859944D01*
X160272872Y-56873583D01*
X160272918Y-56876991D01*
X160272918Y-61879294D01*
X160271485Y-61898244D01*
X160269475Y-61911453D01*
X160269475Y-61911457D01*
X160268375Y-61918687D01*
X160268968Y-61925979D01*
X160268968Y-61925983D01*
X160272503Y-61969441D01*
X160272918Y-61979655D01*
X160272918Y-61987286D01*
X160273342Y-61990920D01*
X160273342Y-61990926D01*
X160274799Y-62003421D01*
X160276093Y-62014518D01*
X160276523Y-62018866D01*
X160282241Y-62089165D01*
X160284497Y-62096129D01*
X160285595Y-62101625D01*
X160286884Y-62107078D01*
X160287732Y-62114350D01*
X160311802Y-62180662D01*
X160313220Y-62184793D01*
X160317571Y-62198223D01*
X160332699Y-62244922D01*
X160332701Y-62244926D01*
X160334954Y-62251881D01*
X160338746Y-62258131D01*
X160341089Y-62263248D01*
X160343596Y-62268255D01*
X160346091Y-62275127D01*
X160350099Y-62281240D01*
X160350101Y-62281244D01*
X160384771Y-62334123D01*
X160387118Y-62337844D01*
X160420771Y-62393303D01*
X160423685Y-62398105D01*
X160430848Y-62406215D01*
X160430830Y-62406231D01*
X160433760Y-62409535D01*
X160435859Y-62412046D01*
X160439872Y-62418166D01*
X160445184Y-62423198D01*
X160494213Y-62469644D01*
X160496655Y-62472022D01*
X160949670Y-62925037D01*
X160962057Y-62939449D01*
X160974318Y-62956111D01*
X161003549Y-62980945D01*
X161013138Y-62989091D01*
X161020654Y-62996021D01*
X161026038Y-63001405D01*
X161028899Y-63003668D01*
X161028904Y-63003673D01*
X161047509Y-63018392D01*
X161050911Y-63021181D01*
X161099090Y-63062113D01*
X161099094Y-63062116D01*
X161104669Y-63066852D01*
X161111190Y-63070181D01*
X161115869Y-63073302D01*
X161120623Y-63076238D01*
X161126361Y-63080778D01*
X161132988Y-63083875D01*
X161132989Y-63083876D01*
X161190272Y-63110649D01*
X161194179Y-63112559D01*
X161257000Y-63144636D01*
X161264112Y-63146376D01*
X161269398Y-63148342D01*
X161274683Y-63150100D01*
X161281313Y-63153199D01*
X161306684Y-63158476D01*
X161350381Y-63167565D01*
X161354665Y-63168535D01*
X161423139Y-63185290D01*
X161433938Y-63185960D01*
X161433937Y-63185984D01*
X161438352Y-63186248D01*
X161441602Y-63186538D01*
X161448770Y-63188029D01*
X161490047Y-63186912D01*
X161523541Y-63186006D01*
X161526949Y-63185960D01*
X163444402Y-63185960D01*
X163512523Y-63205962D01*
X163533497Y-63222865D01*
X165815986Y-65505354D01*
X165850012Y-65567666D01*
X165844947Y-65638481D01*
X165802400Y-65695317D01*
X165735880Y-65720128D01*
X165726891Y-65720449D01*
X158848103Y-65720449D01*
X158829152Y-65719016D01*
X158815936Y-65717005D01*
X158815933Y-65717005D01*
X158808703Y-65715905D01*
X158757942Y-65720034D01*
X158747727Y-65720449D01*
X158740103Y-65720449D01*
X158712863Y-65723625D01*
X158708523Y-65724054D01*
X158645522Y-65729178D01*
X158645518Y-65729179D01*
X158638225Y-65729772D01*
X158631261Y-65732028D01*
X158625746Y-65733130D01*
X158620307Y-65734416D01*
X158613039Y-65735263D01*
X158606161Y-65737760D01*
X158606155Y-65737761D01*
X158546732Y-65759331D01*
X158542629Y-65760741D01*
X158475509Y-65782484D01*
X158469246Y-65786284D01*
X158464130Y-65788627D01*
X158459141Y-65791125D01*
X158452262Y-65793622D01*
X158393286Y-65832288D01*
X158389568Y-65834634D01*
X158334086Y-65868302D01*
X158329284Y-65871216D01*
X158321174Y-65878378D01*
X158321159Y-65878361D01*
X158317851Y-65881294D01*
X158315346Y-65883388D01*
X158309223Y-65887403D01*
X158267260Y-65931700D01*
X158257797Y-65941690D01*
X158255419Y-65944134D01*
X157851604Y-66347948D01*
X157789292Y-66381973D01*
X157775683Y-66384161D01*
X157775063Y-66384226D01*
X157775053Y-66384228D01*
X157768490Y-66384918D01*
X157586862Y-66443933D01*
X157577418Y-66449385D01*
X157427192Y-66536119D01*
X157421474Y-66539420D01*
X157279552Y-66667207D01*
X157197261Y-66780470D01*
X157171181Y-66816366D01*
X157171180Y-66816367D01*
X157167300Y-66821708D01*
X157164616Y-66827736D01*
X157164615Y-66827738D01*
X157092309Y-66990141D01*
X157092309Y-66990142D01*
X157089624Y-66996172D01*
X157063165Y-67120651D01*
X157029436Y-67183124D01*
X156967287Y-67217446D01*
X156896448Y-67212718D01*
X156839410Y-67170442D01*
X156814283Y-67104041D01*
X156813918Y-67094454D01*
X156813918Y-66069054D01*
X156833920Y-66000933D01*
X156850823Y-65979959D01*
X159366665Y-63464117D01*
X159374955Y-63456573D01*
X159381436Y-63452460D01*
X159386861Y-63446683D01*
X159428076Y-63402793D01*
X159430831Y-63399951D01*
X159450553Y-63380229D01*
X159452990Y-63377087D01*
X159453037Y-63377027D01*
X159460735Y-63368015D01*
X159473349Y-63354582D01*
X159491004Y-63335781D01*
X159494821Y-63328838D01*
X159500763Y-63318029D01*
X159511616Y-63301507D01*
X159524032Y-63285501D01*
X159527182Y-63278223D01*
X159527182Y-63278222D01*
X159541592Y-63244923D01*
X159546809Y-63234273D01*
X159568113Y-63195520D01*
X159570084Y-63187845D01*
X159570084Y-63187844D01*
X159573151Y-63175898D01*
X159579555Y-63157193D01*
X159587599Y-63138605D01*
X159588838Y-63130782D01*
X159588841Y-63130772D01*
X159594517Y-63094936D01*
X159596923Y-63083316D01*
X159605091Y-63051501D01*
X159607918Y-63040490D01*
X159607918Y-63020236D01*
X159609469Y-63000526D01*
X159612638Y-62980517D01*
X159611892Y-62972625D01*
X159610120Y-62953880D01*
X159608477Y-62936498D01*
X159607918Y-62924641D01*
X159607918Y-51292727D01*
X159608445Y-51281544D01*
X159610120Y-51274051D01*
X159609871Y-51266125D01*
X159609871Y-51266124D01*
X159607980Y-51205974D01*
X159607918Y-51202015D01*
X159607918Y-51174104D01*
X159607421Y-51170169D01*
X159607413Y-51170104D01*
X159606480Y-51158267D01*
X159605466Y-51126009D01*
X159605340Y-51121990D01*
X159605091Y-51114071D01*
X159599439Y-51094617D01*
X159595431Y-51075260D01*
X159593886Y-51063030D01*
X159593886Y-51063029D01*
X159592892Y-51055163D01*
X159589973Y-51047792D01*
X159589973Y-51047790D01*
X159576614Y-51014048D01*
X159572769Y-51002818D01*
X159562647Y-50967977D01*
X159562647Y-50967976D01*
X159560436Y-50960367D01*
X159556403Y-50953548D01*
X159556401Y-50953543D01*
X159550125Y-50942932D01*
X159541430Y-50925184D01*
X159533970Y-50906343D01*
X159507982Y-50870573D01*
X159501466Y-50860653D01*
X159482998Y-50829425D01*
X159482996Y-50829422D01*
X159478960Y-50822598D01*
X159464639Y-50808277D01*
X159451798Y-50793243D01*
X159444550Y-50783267D01*
X159439890Y-50776853D01*
X159405819Y-50748667D01*
X159397040Y-50740678D01*
X159157823Y-50501461D01*
X159123797Y-50439149D01*
X159120918Y-50412366D01*
X159120918Y-50356473D01*
X159119546Y-50350021D01*
X159119546Y-50350016D01*
X159101065Y-50263072D01*
X159081212Y-50169672D01*
X159049850Y-50099231D01*
X159006221Y-50001238D01*
X159006220Y-50001236D01*
X159003536Y-49995208D01*
X158891284Y-49840707D01*
X158749362Y-49712920D01*
X158598103Y-49625590D01*
X158589697Y-49620737D01*
X158589696Y-49620736D01*
X158583974Y-49617433D01*
X158402346Y-49558418D01*
X158321174Y-49549886D01*
X158218983Y-49539146D01*
X158212418Y-49538456D01*
X158141783Y-49545880D01*
X158029053Y-49557728D01*
X158029051Y-49557728D01*
X158022490Y-49558418D01*
X157840862Y-49617433D01*
X157820054Y-49629446D01*
X157750879Y-49669385D01*
X157675474Y-49712920D01*
X157661727Y-49725298D01*
X157597721Y-49756014D01*
X157527268Y-49747250D01*
X157493111Y-49725299D01*
X157479362Y-49712920D01*
X157313974Y-49617433D01*
X157132346Y-49558418D01*
X157116824Y-49556786D01*
X156948983Y-49539146D01*
X156942418Y-49538456D01*
X156887576Y-49544220D01*
X156759053Y-49557728D01*
X156759051Y-49557728D01*
X156752490Y-49558418D01*
X156570862Y-49617433D01*
X156405474Y-49712920D01*
X156387528Y-49729078D01*
X156268463Y-49836285D01*
X156268462Y-49836286D01*
X156263552Y-49840707D01*
X156151300Y-49995208D01*
X156148616Y-50001236D01*
X156148615Y-50001238D01*
X156076309Y-50163641D01*
X156076309Y-50163642D01*
X156073624Y-50169672D01*
X156053771Y-50263072D01*
X156035290Y-50350016D01*
X156035290Y-50350021D01*
X156033918Y-50356473D01*
X156033918Y-50547447D01*
X156035290Y-50553899D01*
X156035290Y-50553904D01*
X156053771Y-50640848D01*
X156073624Y-50734248D01*
X156076309Y-50740278D01*
X156076309Y-50740279D01*
X156148615Y-50902682D01*
X156148616Y-50902684D01*
X156151300Y-50908712D01*
X156263552Y-51063213D01*
X156268455Y-51067628D01*
X156272878Y-51072540D01*
X156271629Y-51073665D01*
X156304469Y-51126974D01*
X156308918Y-51160160D01*
X156308918Y-52467697D01*
X156308391Y-52478881D01*
X156306717Y-52486369D01*
X156306966Y-52494292D01*
X156308856Y-52554427D01*
X156308918Y-52558385D01*
X156308918Y-52586316D01*
X156309413Y-52590231D01*
X156309413Y-52590235D01*
X156309421Y-52590293D01*
X156309424Y-52590322D01*
X156310357Y-52602164D01*
X156311745Y-52646350D01*
X156316790Y-52663716D01*
X156317396Y-52665802D01*
X156321404Y-52685154D01*
X156322950Y-52697392D01*
X156322951Y-52697394D01*
X156323944Y-52705257D01*
X156340224Y-52746374D01*
X156344059Y-52757575D01*
X156356400Y-52800054D01*
X156360433Y-52806873D01*
X156360435Y-52806878D01*
X156366711Y-52817489D01*
X156375408Y-52835239D01*
X156382866Y-52854077D01*
X156387527Y-52860493D01*
X156387528Y-52860494D01*
X156408846Y-52889835D01*
X156415365Y-52899759D01*
X156433840Y-52931000D01*
X156433844Y-52931005D01*
X156437876Y-52937823D01*
X156452200Y-52952147D01*
X156465039Y-52967179D01*
X156476946Y-52983567D01*
X156511011Y-53011748D01*
X156519791Y-53019738D01*
X157796013Y-54295960D01*
X157830039Y-54358272D01*
X157832918Y-54385055D01*
X157832918Y-62391866D01*
X157812916Y-62459987D01*
X157796013Y-62480961D01*
X156415365Y-63861608D01*
X155026165Y-65250808D01*
X155017879Y-65258348D01*
X155011400Y-65262460D01*
X154964774Y-65312112D01*
X154962020Y-65314953D01*
X154942283Y-65334690D01*
X154939803Y-65337887D01*
X154932098Y-65346909D01*
X154907259Y-65373360D01*
X154901832Y-65379139D01*
X154898013Y-65386085D01*
X154898011Y-65386088D01*
X154892070Y-65396894D01*
X154881219Y-65413413D01*
X154876566Y-65419412D01*
X154868804Y-65429419D01*
X154865659Y-65436688D01*
X154865656Y-65436692D01*
X154851244Y-65469997D01*
X154846027Y-65480647D01*
X154824723Y-65519400D01*
X154819685Y-65539023D01*
X154813281Y-65557726D01*
X154808385Y-65569040D01*
X154808385Y-65569041D01*
X154805237Y-65576315D01*
X154803998Y-65584138D01*
X154803995Y-65584148D01*
X154798319Y-65619984D01*
X154795913Y-65631604D01*
X154786890Y-65666749D01*
X154786890Y-65666750D01*
X154784918Y-65674430D01*
X154784918Y-65694684D01*
X154783367Y-65714395D01*
X154781438Y-65726574D01*
X154780198Y-65734403D01*
X154780944Y-65742295D01*
X154784359Y-65778421D01*
X154784918Y-65790279D01*
X154784918Y-68348260D01*
X154764916Y-68416381D01*
X154748575Y-68435607D01*
X154748878Y-68435880D01*
X154744455Y-68440792D01*
X154739552Y-68445207D01*
X154627300Y-68599708D01*
X154624616Y-68605736D01*
X154624615Y-68605738D01*
X154552309Y-68768141D01*
X154552309Y-68768142D01*
X154549624Y-68774172D01*
X154529771Y-68867572D01*
X154511290Y-68954516D01*
X154511290Y-68954521D01*
X154509918Y-68960973D01*
X154509918Y-69151947D01*
X154511290Y-69158399D01*
X154511290Y-69158404D01*
X154529771Y-69245348D01*
X154549624Y-69338748D01*
X154552309Y-69344778D01*
X154552309Y-69344779D01*
X154624615Y-69507182D01*
X154624616Y-69507184D01*
X154627300Y-69513212D01*
X154739552Y-69667713D01*
X154744462Y-69672134D01*
X154744463Y-69672135D01*
X154865656Y-69781257D01*
X154881474Y-69795500D01*
X155046862Y-69890987D01*
X155228490Y-69950002D01*
X155418418Y-69969964D01*
X155608346Y-69950002D01*
X155789974Y-69890987D01*
X155955362Y-69795500D01*
X156097284Y-69667713D01*
X156209536Y-69513212D01*
X156212220Y-69507184D01*
X156212221Y-69507182D01*
X156272878Y-69370943D01*
X156287212Y-69338748D01*
X156300339Y-69276989D01*
X156334067Y-69214517D01*
X156384649Y-69183355D01*
X156551974Y-69128987D01*
X156717362Y-69033500D01*
X156722269Y-69029082D01*
X156722270Y-69029081D01*
X156752490Y-69001871D01*
X156859284Y-68905713D01*
X156896448Y-68854561D01*
X156967287Y-68757060D01*
X156971536Y-68751212D01*
X156974220Y-68745184D01*
X156974221Y-68745182D01*
X157041146Y-68594865D01*
X157049212Y-68576748D01*
X157069065Y-68483347D01*
X157087546Y-68396404D01*
X157087546Y-68396399D01*
X157088918Y-68389947D01*
X157088918Y-68198973D01*
X157087546Y-68192521D01*
X157087546Y-68192516D01*
X157069065Y-68105572D01*
X157049212Y-68012172D01*
X157046529Y-68006145D01*
X157046526Y-68006137D01*
X157031446Y-67972267D01*
X157022012Y-67901900D01*
X157052119Y-67837603D01*
X157112208Y-67799790D01*
X157183202Y-67800467D01*
X157242559Y-67839418D01*
X157248480Y-67846947D01*
X157279552Y-67889713D01*
X157421474Y-68017500D01*
X157427192Y-68020801D01*
X157577418Y-68107534D01*
X157586862Y-68112987D01*
X157768490Y-68172002D01*
X157775051Y-68172692D01*
X157775053Y-68172692D01*
X157796013Y-68174895D01*
X157958418Y-68191964D01*
X157964983Y-68191274D01*
X158132406Y-68173677D01*
X158148346Y-68172002D01*
X158329974Y-68112987D01*
X158335696Y-68109684D01*
X158335697Y-68109683D01*
X158342169Y-68105946D01*
X158495362Y-68017500D01*
X158500269Y-68013082D01*
X158500270Y-68013081D01*
X158595223Y-67927585D01*
X158637284Y-67889713D01*
X158645522Y-67878374D01*
X158743767Y-67743152D01*
X158749536Y-67735212D01*
X158752220Y-67729184D01*
X158752221Y-67729182D01*
X158824527Y-67566779D01*
X158827212Y-67560748D01*
X158850159Y-67452790D01*
X158884311Y-67389893D01*
X159049850Y-67224354D01*
X159112162Y-67190328D01*
X159138945Y-67187449D01*
X162553811Y-67187449D01*
X162621932Y-67207451D01*
X162668425Y-67261107D01*
X162678529Y-67331381D01*
X162649035Y-67395961D01*
X162638121Y-67407085D01*
X162618463Y-67424785D01*
X162618462Y-67424786D01*
X162613552Y-67429207D01*
X162530418Y-67543631D01*
X162505181Y-67578366D01*
X162505180Y-67578367D01*
X162501300Y-67583708D01*
X162498616Y-67589736D01*
X162498615Y-67589738D01*
X162426309Y-67752141D01*
X162426309Y-67752142D01*
X162423624Y-67758172D01*
X162403771Y-67851572D01*
X162385290Y-67938516D01*
X162385290Y-67938521D01*
X162383918Y-67944973D01*
X162383918Y-68135947D01*
X162385290Y-68142399D01*
X162385290Y-68142404D01*
X162403771Y-68229347D01*
X162423624Y-68322748D01*
X162426309Y-68328778D01*
X162426309Y-68328779D01*
X162498615Y-68491182D01*
X162498616Y-68491184D01*
X162501300Y-68497212D01*
X162505180Y-68502553D01*
X162505181Y-68502554D01*
X162530418Y-68537289D01*
X162613552Y-68651713D01*
X162618462Y-68656134D01*
X162618463Y-68656135D01*
X162732638Y-68758938D01*
X162755474Y-68779500D01*
X162821146Y-68817416D01*
X162913079Y-68870493D01*
X162920862Y-68874987D01*
X163102490Y-68934002D01*
X163109051Y-68934692D01*
X163109053Y-68934692D01*
X163221784Y-68946540D01*
X163292418Y-68953964D01*
X163298983Y-68953274D01*
X163467167Y-68935597D01*
X163482346Y-68934002D01*
X163663974Y-68874987D01*
X163829362Y-68779500D01*
X163910633Y-68706323D01*
X163974639Y-68675607D01*
X163994942Y-68673960D01*
X164247824Y-68673960D01*
X164315945Y-68693962D01*
X164336919Y-68710865D01*
X169476648Y-73850595D01*
X169476652Y-73850598D01*
X171429065Y-75803012D01*
X171436605Y-75811298D01*
X171440717Y-75817777D01*
X171446494Y-75823202D01*
X171490368Y-75864402D01*
X171493210Y-75867157D01*
X171512947Y-75886894D01*
X171516144Y-75889374D01*
X171525164Y-75897077D01*
X171557396Y-75927345D01*
X171564342Y-75931164D01*
X171564345Y-75931166D01*
X171575151Y-75937107D01*
X171591670Y-75947958D01*
X171607676Y-75960373D01*
X171614945Y-75963518D01*
X171614949Y-75963521D01*
X171648254Y-75977933D01*
X171658904Y-75983150D01*
X171697657Y-76004454D01*
X171705332Y-76006425D01*
X171705333Y-76006425D01*
X171717279Y-76009492D01*
X171735983Y-76015896D01*
X171754572Y-76023940D01*
X171762395Y-76025179D01*
X171762405Y-76025182D01*
X171798241Y-76030858D01*
X171809861Y-76033264D01*
X171832900Y-76039179D01*
X171852687Y-76044259D01*
X171872941Y-76044259D01*
X171892651Y-76045810D01*
X171912660Y-76048979D01*
X171920552Y-76048233D01*
X171956678Y-76044818D01*
X171968536Y-76044259D01*
X176818193Y-76044259D01*
X176886314Y-76064261D01*
X176902496Y-76076617D01*
X176983773Y-76149799D01*
X177149161Y-76245286D01*
X177330789Y-76304301D01*
X177337350Y-76304991D01*
X177337352Y-76304991D01*
X177386907Y-76310199D01*
X177520717Y-76324263D01*
X177520717Y-95332460D01*
X173903120Y-95332460D01*
X173902350Y-95332458D01*
X173833740Y-95332039D01*
X173824766Y-95331984D01*
X173816137Y-95334450D01*
X173816132Y-95334451D01*
X173796370Y-95340099D01*
X173779609Y-95343677D01*
X173759266Y-95346590D01*
X173759256Y-95346593D01*
X173750373Y-95347865D01*
X173727023Y-95358481D01*
X173709511Y-95364924D01*
X173693481Y-95369506D01*
X173684853Y-95371972D01*
X173659870Y-95387734D01*
X173644804Y-95395864D01*
X173617908Y-95408093D01*
X173598479Y-95424834D01*
X173583471Y-95435939D01*
X173569379Y-95444830D01*
X173561787Y-95449620D01*
X173542236Y-95471757D01*
X173530044Y-95483801D01*
X173514469Y-95497221D01*
X173514468Y-95497223D01*
X173507671Y-95503079D01*
X173502792Y-95510607D01*
X173502789Y-95510610D01*
X173493722Y-95524599D01*
X173482432Y-95539473D01*
X173471406Y-95551958D01*
X173465462Y-95558688D01*
X173461647Y-95566814D01*
X173461646Y-95566815D01*
X173458986Y-95572481D01*
X173452908Y-95585426D01*
X173444594Y-95600395D01*
X173428525Y-95625187D01*
X173421179Y-95649751D01*
X173414517Y-95667196D01*
X173411603Y-95673403D01*
X173403619Y-95690408D01*
X173399075Y-95719590D01*
X173395292Y-95736309D01*
X173389404Y-95755996D01*
X173389403Y-95755999D01*
X173386831Y-95764601D01*
X173386776Y-95773576D01*
X173386776Y-95773577D01*
X173386735Y-95780270D01*
X173386621Y-95799016D01*
X173386588Y-95799788D01*
X173386418Y-95800883D01*
X173386418Y-95831758D01*
X173386416Y-95832528D01*
X173385966Y-95906176D01*
X173385966Y-95906177D01*
X173385942Y-95910112D01*
X173386326Y-95911456D01*
X173386418Y-95912801D01*
X173386418Y-100633271D01*
X173386408Y-100634836D01*
X173386404Y-100635195D01*
X173385513Y-100706904D01*
X173389404Y-100720850D01*
X173393989Y-100737284D01*
X173397352Y-100753283D01*
X173400550Y-100775618D01*
X173400551Y-100775620D01*
X173401823Y-100784505D01*
X173405538Y-100792676D01*
X173405539Y-100792679D01*
X173411603Y-100806016D01*
X173418265Y-100824302D01*
X173422203Y-100838417D01*
X173422206Y-100838423D01*
X173424617Y-100847066D01*
X173441281Y-100873850D01*
X173448994Y-100888253D01*
X173462051Y-100916970D01*
X173467911Y-100923771D01*
X173477476Y-100934872D01*
X173489002Y-100950552D01*
X173501488Y-100970619D01*
X173504658Y-100974299D01*
X173504659Y-100974301D01*
X173506495Y-100976433D01*
X173506498Y-100976436D01*
X173509671Y-100980120D01*
X173513372Y-100983271D01*
X173513380Y-100983279D01*
X173526176Y-100994173D01*
X173531567Y-100999037D01*
X173533956Y-101001321D01*
X173542337Y-101010147D01*
X173551177Y-101020407D01*
X173551180Y-101020410D01*
X173557037Y-101027207D01*
X173564569Y-101032089D01*
X173571334Y-101037990D01*
X173571248Y-101038088D01*
X173578047Y-101043462D01*
X173617908Y-101081561D01*
X173638708Y-101101442D01*
X173785446Y-101200392D01*
X173946775Y-101273170D01*
X174118069Y-101317688D01*
X174294418Y-101332670D01*
X174294418Y-101728581D01*
X168880418Y-101729192D01*
X168880418Y-90543964D01*
X168886983Y-90543274D01*
X168959669Y-90535634D01*
X169070346Y-90524002D01*
X169251974Y-90464987D01*
X169417362Y-90369500D01*
X169422269Y-90365082D01*
X169422270Y-90365081D01*
X169452490Y-90337871D01*
X169559284Y-90241713D01*
X169631282Y-90142617D01*
X169648983Y-90118253D01*
X169671536Y-90087212D01*
X169674220Y-90081184D01*
X169674221Y-90081182D01*
X169746527Y-89918779D01*
X169749212Y-89912748D01*
X169769065Y-89819347D01*
X169787546Y-89732404D01*
X169787546Y-89732399D01*
X169788918Y-89725947D01*
X169788918Y-89534973D01*
X169787546Y-89528521D01*
X169787546Y-89528516D01*
X169769065Y-89441573D01*
X169749212Y-89348172D01*
X169746527Y-89342141D01*
X169674221Y-89179738D01*
X169674220Y-89179736D01*
X169671536Y-89173708D01*
X169648983Y-89142666D01*
X169631282Y-89118303D01*
X169559284Y-89019207D01*
X169452490Y-88923049D01*
X169422270Y-88895839D01*
X169422269Y-88895838D01*
X169417362Y-88891420D01*
X169251974Y-88795933D01*
X169070346Y-88736918D01*
X168959669Y-88725285D01*
X168886983Y-88717646D01*
X168880418Y-88716956D01*
X168848615Y-88720299D01*
X168697053Y-88736228D01*
X168697051Y-88736228D01*
X168690490Y-88736918D01*
X168678564Y-88740793D01*
X168639628Y-88746960D01*
X166259277Y-88746960D01*
X166259277Y-81353328D01*
X166462569Y-81340003D01*
X166660028Y-81289855D01*
X166845042Y-81204562D01*
X167011415Y-81086981D01*
X167153575Y-80941050D01*
X167156780Y-80936254D01*
X167156782Y-80936251D01*
X167202178Y-80868311D01*
X167266760Y-80771657D01*
X167269038Y-80766354D01*
X167269040Y-80766351D01*
X167307280Y-80677345D01*
X167347181Y-80584473D01*
X167363661Y-80511643D01*
X167390868Y-80391405D01*
X167390869Y-80391400D01*
X167392143Y-80385768D01*
X167392370Y-80379997D01*
X167392370Y-80379995D01*
X167394845Y-80316990D01*
X167400141Y-80182197D01*
X167370908Y-79980577D01*
X167369053Y-79975113D01*
X167369052Y-79975108D01*
X167307280Y-79793133D01*
X167307278Y-79793128D01*
X167305422Y-79787661D01*
X167205876Y-79609909D01*
X167075604Y-79453274D01*
X166918969Y-79323002D01*
X166741217Y-79223456D01*
X166735750Y-79221600D01*
X166735745Y-79221598D01*
X166553770Y-79159826D01*
X166553765Y-79159825D01*
X166548301Y-79157970D01*
X166346681Y-79128737D01*
X166288418Y-79127211D01*
X166085544Y-79145852D01*
X166027325Y-79162272D01*
X165895024Y-79199585D01*
X165895022Y-79199586D01*
X165889465Y-79201153D01*
X165867914Y-79211780D01*
X165711928Y-79288704D01*
X165706747Y-79291259D01*
X165682099Y-79309664D01*
X165548133Y-79409702D01*
X165548132Y-79409702D01*
X165543509Y-79413155D01*
X165439447Y-79525728D01*
X165409137Y-79558517D01*
X165409135Y-79558520D01*
X165405218Y-79562757D01*
X165367433Y-79622643D01*
X165299587Y-79730172D01*
X165299585Y-79730177D01*
X165296506Y-79735056D01*
X165239271Y-79878516D01*
X165223155Y-79918911D01*
X165221013Y-79924280D01*
X165181267Y-80124094D01*
X165181191Y-80129868D01*
X165181191Y-80129872D01*
X165179842Y-80233008D01*
X165178601Y-80327805D01*
X165179580Y-80333502D01*
X165179580Y-80333503D01*
X165211363Y-80518470D01*
X165213102Y-80528590D01*
X165283616Y-80719726D01*
X165286568Y-80724687D01*
X165286568Y-80724688D01*
X165291924Y-80733690D01*
X165387781Y-80894811D01*
X165522108Y-81047982D01*
X165526633Y-81051549D01*
X165526638Y-81051554D01*
X165551973Y-81071526D01*
X165682099Y-81174109D01*
X165862396Y-81268968D01*
X166056961Y-81329382D01*
X166259277Y-81353328D01*
X166259277Y-88746960D01*
X165996566Y-88746960D01*
X165928445Y-88726958D01*
X165907471Y-88710055D01*
X163465277Y-86267861D01*
X163465277Y-84147328D01*
X163668569Y-84134003D01*
X163866028Y-84083855D01*
X164051042Y-83998562D01*
X164217415Y-83880981D01*
X164247824Y-83849765D01*
X164341994Y-83753097D01*
X164359575Y-83735050D01*
X164362780Y-83730254D01*
X164362782Y-83730251D01*
X164408178Y-83662311D01*
X164472760Y-83565657D01*
X164475038Y-83560354D01*
X164475040Y-83560351D01*
X164513280Y-83471345D01*
X164553181Y-83378473D01*
X164569661Y-83305643D01*
X164596868Y-83185405D01*
X164596869Y-83185400D01*
X164598143Y-83179768D01*
X164598370Y-83173997D01*
X164598370Y-83173995D01*
X164600845Y-83110990D01*
X164606141Y-82976197D01*
X164576908Y-82774577D01*
X164575053Y-82769113D01*
X164575052Y-82769108D01*
X164513280Y-82587133D01*
X164513278Y-82587128D01*
X164511422Y-82581661D01*
X164411876Y-82403909D01*
X164281604Y-82247274D01*
X164124969Y-82117002D01*
X163947217Y-82017456D01*
X163941750Y-82015600D01*
X163941745Y-82015598D01*
X163759770Y-81953826D01*
X163759765Y-81953825D01*
X163754301Y-81951970D01*
X163552681Y-81922737D01*
X163494418Y-81921211D01*
X163358952Y-81933658D01*
X163297298Y-81939323D01*
X163297295Y-81939324D01*
X163291544Y-81939852D01*
X163197143Y-81966476D01*
X163101024Y-81993585D01*
X163101022Y-81993586D01*
X163095465Y-81995153D01*
X163073914Y-82005780D01*
X162917928Y-82082704D01*
X162912747Y-82085259D01*
X162901974Y-82093303D01*
X162754133Y-82203702D01*
X162754132Y-82203702D01*
X162749509Y-82207155D01*
X162642789Y-82322604D01*
X162615137Y-82352517D01*
X162615135Y-82352520D01*
X162611218Y-82356757D01*
X162553811Y-82447742D01*
X162505587Y-82524172D01*
X162505585Y-82524177D01*
X162502506Y-82529056D01*
X162427013Y-82718280D01*
X162387267Y-82918094D01*
X162387191Y-82923868D01*
X162387191Y-82923872D01*
X162385842Y-83027008D01*
X162384601Y-83121805D01*
X162385580Y-83127502D01*
X162385580Y-83127503D01*
X162418123Y-83316893D01*
X162419102Y-83322590D01*
X162489616Y-83513726D01*
X162492568Y-83518687D01*
X162492568Y-83518688D01*
X162536983Y-83593342D01*
X162593781Y-83688811D01*
X162728108Y-83841982D01*
X162732633Y-83845549D01*
X162732638Y-83845554D01*
X162826152Y-83919274D01*
X162888099Y-83968109D01*
X162893210Y-83970798D01*
X162893213Y-83970800D01*
X162977749Y-84015276D01*
X163068396Y-84062968D01*
X163262961Y-84123382D01*
X163465277Y-84147328D01*
X163465277Y-86267861D01*
X163324331Y-86126915D01*
X163311490Y-86111881D01*
X163298983Y-86094667D01*
X163209284Y-85971207D01*
X163185163Y-85949488D01*
X163072270Y-85847839D01*
X163072269Y-85847838D01*
X163067362Y-85843420D01*
X162927147Y-85762467D01*
X162907697Y-85751237D01*
X162907696Y-85751236D01*
X162901974Y-85747933D01*
X162720346Y-85688918D01*
X162676918Y-85684353D01*
X162536983Y-85669646D01*
X162530418Y-85668956D01*
X162487618Y-85673454D01*
X162347053Y-85688228D01*
X162347051Y-85688228D01*
X162340490Y-85688918D01*
X162158862Y-85747933D01*
X161993474Y-85843420D01*
X161982868Y-85852969D01*
X161856463Y-85966785D01*
X161856462Y-85966786D01*
X161851552Y-85971207D01*
X161766859Y-86087776D01*
X161743181Y-86120366D01*
X161743180Y-86120367D01*
X161739300Y-86125708D01*
X161736616Y-86131736D01*
X161736615Y-86131738D01*
X161664309Y-86294141D01*
X161664309Y-86294142D01*
X161661624Y-86300172D01*
X161641771Y-86393572D01*
X161623290Y-86480516D01*
X161623290Y-86480521D01*
X161621918Y-86486973D01*
X161621918Y-86677947D01*
X161623290Y-86684399D01*
X161623290Y-86684404D01*
X161641771Y-86771348D01*
X161661624Y-86864748D01*
X161664309Y-86870778D01*
X161664309Y-86870779D01*
X161736615Y-87033182D01*
X161736616Y-87033184D01*
X161739300Y-87039212D01*
X161743180Y-87044553D01*
X161743181Y-87044554D01*
X161766859Y-87077144D01*
X161851552Y-87193713D01*
X161856462Y-87198134D01*
X161856463Y-87198135D01*
X161982868Y-87311950D01*
X161993474Y-87321500D01*
X161999192Y-87324801D01*
X162041871Y-87349442D01*
X162067966Y-87369466D01*
X164897506Y-90199006D01*
X164910343Y-90214034D01*
X164918233Y-90224894D01*
X164923143Y-90229315D01*
X164923144Y-90229316D01*
X164967602Y-90269346D01*
X164972387Y-90273887D01*
X164986432Y-90287932D01*
X164989006Y-90290016D01*
X164989009Y-90290019D01*
X165001864Y-90300429D01*
X165006880Y-90304713D01*
X165051338Y-90344743D01*
X165051343Y-90344747D01*
X165056249Y-90349164D01*
X165067515Y-90355669D01*
X165067866Y-90355871D01*
X165084159Y-90367069D01*
X165094579Y-90375507D01*
X165153781Y-90405673D01*
X165159551Y-90408806D01*
X165211363Y-90438720D01*
X165211368Y-90438722D01*
X165217087Y-90442024D01*
X165223367Y-90444065D01*
X165223375Y-90444068D01*
X165229839Y-90446168D01*
X165248101Y-90453732D01*
X165254167Y-90456823D01*
X165254176Y-90456826D01*
X165260055Y-90459822D01*
X165266433Y-90461531D01*
X165324222Y-90477016D01*
X165330524Y-90478882D01*
X165393716Y-90499414D01*
X165400284Y-90500104D01*
X165407046Y-90500815D01*
X165426489Y-90504418D01*
X165439447Y-90507890D01*
X165446037Y-90508235D01*
X165446041Y-90508236D01*
X165505785Y-90511367D01*
X165512349Y-90511883D01*
X165532112Y-90513960D01*
X165551973Y-90513960D01*
X165558568Y-90514133D01*
X165624911Y-90517610D01*
X165631425Y-90516578D01*
X165638162Y-90515511D01*
X165657874Y-90513960D01*
X168639628Y-90513960D01*
X168678564Y-90520127D01*
X168690490Y-90524002D01*
X168697051Y-90524692D01*
X168697053Y-90524692D01*
X168848615Y-90540621D01*
X168880418Y-90543964D01*
X168880418Y-101729192D01*
X163537616Y-101729794D01*
X163537616Y-96357568D01*
X163544433Y-96357211D01*
X163544437Y-96357211D01*
X163637957Y-96352309D01*
X163718465Y-96348090D01*
X163725038Y-96346279D01*
X163725041Y-96346279D01*
X163860428Y-96308987D01*
X163893059Y-96299999D01*
X164053254Y-96215538D01*
X164058467Y-96211133D01*
X164058471Y-96211130D01*
X164186361Y-96103054D01*
X164186365Y-96103050D01*
X164191575Y-96098647D01*
X164195722Y-96093223D01*
X164195723Y-96093222D01*
X164297424Y-95960203D01*
X164297427Y-95960199D01*
X164301568Y-95954782D01*
X164336919Y-95878971D01*
X164375223Y-95796829D01*
X164375224Y-95796826D01*
X164378103Y-95790652D01*
X164379589Y-95784004D01*
X164379590Y-95784001D01*
X164403275Y-95678039D01*
X164417608Y-95613917D01*
X164417918Y-95608372D01*
X164417918Y-95475216D01*
X164403275Y-95340423D01*
X164355548Y-95198606D01*
X164347690Y-95175256D01*
X164347689Y-95175254D01*
X164345512Y-95168785D01*
X164252241Y-95013555D01*
X164247553Y-95008598D01*
X164247551Y-95008595D01*
X164132500Y-94886933D01*
X164132498Y-94886931D01*
X164127811Y-94881975D01*
X164122173Y-94878143D01*
X164122169Y-94878140D01*
X163983673Y-94784018D01*
X163978030Y-94780183D01*
X163809884Y-94712930D01*
X163803156Y-94711816D01*
X163803152Y-94711815D01*
X163637957Y-94684467D01*
X163637954Y-94684467D01*
X163631220Y-94683352D01*
X163607087Y-94684616D01*
X163457184Y-94692473D01*
X163450371Y-94692830D01*
X163415697Y-94702380D01*
X163282359Y-94739108D01*
X163275777Y-94740921D01*
X163115582Y-94825382D01*
X163110369Y-94829787D01*
X163110365Y-94829790D01*
X162982475Y-94937866D01*
X162982471Y-94937870D01*
X162977261Y-94942273D01*
X162927147Y-95007819D01*
X162871412Y-95080717D01*
X162871409Y-95080721D01*
X162867268Y-95086138D01*
X162832717Y-95160234D01*
X162832717Y-93640263D01*
X162839282Y-93639573D01*
X162974346Y-93625377D01*
X163022645Y-93620301D01*
X163204273Y-93561286D01*
X163209995Y-93557983D01*
X163209996Y-93557982D01*
X163234624Y-93543763D01*
X163369661Y-93465799D01*
X163374568Y-93461381D01*
X163374569Y-93461380D01*
X163496592Y-93351510D01*
X163511583Y-93338012D01*
X163623835Y-93183511D01*
X163626519Y-93177483D01*
X163626520Y-93177481D01*
X163698826Y-93015078D01*
X163701511Y-93009047D01*
X163718465Y-92929285D01*
X163739845Y-92828703D01*
X163739845Y-92828698D01*
X163741217Y-92822246D01*
X163741217Y-92631272D01*
X163739845Y-92624820D01*
X163739845Y-92624815D01*
X163718465Y-92524233D01*
X163701511Y-92444471D01*
X163698826Y-92438440D01*
X163626520Y-92276037D01*
X163626519Y-92276035D01*
X163623835Y-92270007D01*
X163511583Y-92115506D01*
X163496592Y-92102008D01*
X163374569Y-91992138D01*
X163374568Y-91992137D01*
X163369661Y-91987719D01*
X163234624Y-91909755D01*
X163209996Y-91895536D01*
X163209995Y-91895535D01*
X163204273Y-91892232D01*
X163022645Y-91833217D01*
X162974346Y-91828140D01*
X162839282Y-91813945D01*
X162832717Y-91813255D01*
X162752354Y-91821701D01*
X162649352Y-91832527D01*
X162649350Y-91832527D01*
X162642789Y-91833217D01*
X162461161Y-91892232D01*
X162421103Y-91915359D01*
X162337240Y-91963778D01*
X162268245Y-91980516D01*
X162201153Y-91957296D01*
X162159133Y-91905907D01*
X162093924Y-91759442D01*
X162093920Y-91759435D01*
X162091237Y-91753409D01*
X161978985Y-91598908D01*
X161964624Y-91585977D01*
X161841971Y-91475540D01*
X161841970Y-91475539D01*
X161837063Y-91471121D01*
X161671675Y-91375634D01*
X161490047Y-91316619D01*
X161448770Y-91312280D01*
X161306684Y-91297347D01*
X161300119Y-91296657D01*
X161293554Y-91297347D01*
X161116754Y-91315929D01*
X161116752Y-91315929D01*
X161110191Y-91316619D01*
X160928563Y-91375634D01*
X160763175Y-91471121D01*
X160621253Y-91598908D01*
X160509001Y-91753409D01*
X160506317Y-91759437D01*
X160506316Y-91759439D01*
X160434010Y-91921842D01*
X160434010Y-91921843D01*
X160431325Y-91927873D01*
X160411472Y-92021274D01*
X160392991Y-92108217D01*
X160392991Y-92108222D01*
X160391619Y-92114674D01*
X160391619Y-92305648D01*
X160392991Y-92312100D01*
X160392991Y-92312105D01*
X160411472Y-92399048D01*
X160431325Y-92492449D01*
X160434010Y-92498479D01*
X160434010Y-92498480D01*
X160506316Y-92660883D01*
X160506317Y-92660885D01*
X160509001Y-92666913D01*
X160621253Y-92821414D01*
X160763175Y-92949201D01*
X160928563Y-93044688D01*
X161110191Y-93103703D01*
X161269576Y-93120454D01*
X161273520Y-93120869D01*
X161339177Y-93147882D01*
X161346601Y-93154327D01*
X161374368Y-93180402D01*
X161377210Y-93183157D01*
X161396947Y-93202894D01*
X161400144Y-93205374D01*
X161409164Y-93213077D01*
X161441396Y-93243345D01*
X161448342Y-93247164D01*
X161448345Y-93247166D01*
X161459151Y-93253107D01*
X161475670Y-93263958D01*
X161491676Y-93276373D01*
X161498945Y-93279518D01*
X161498949Y-93279521D01*
X161532254Y-93293933D01*
X161542904Y-93299150D01*
X161581657Y-93320454D01*
X161589332Y-93322425D01*
X161589333Y-93322425D01*
X161601279Y-93325492D01*
X161619983Y-93331896D01*
X161638572Y-93339940D01*
X161646395Y-93341179D01*
X161646405Y-93341182D01*
X161682241Y-93346858D01*
X161693861Y-93349264D01*
X161736687Y-93360259D01*
X161756941Y-93360259D01*
X161776651Y-93361810D01*
X161796660Y-93364979D01*
X161804552Y-93364233D01*
X161840678Y-93360818D01*
X161852536Y-93360259D01*
X162130193Y-93360259D01*
X162198314Y-93380261D01*
X162214496Y-93392617D01*
X162295773Y-93465799D01*
X162383918Y-93516690D01*
X162421103Y-93538158D01*
X162461161Y-93561286D01*
X162642789Y-93620301D01*
X162649350Y-93620991D01*
X162649352Y-93620991D01*
X162752354Y-93631817D01*
X162832717Y-93640263D01*
X162832717Y-95160234D01*
X162818243Y-95191274D01*
X162793613Y-95244091D01*
X162793612Y-95244094D01*
X162790733Y-95250268D01*
X162789247Y-95256916D01*
X162789246Y-95256919D01*
X162752354Y-95421966D01*
X162752354Y-95421965D01*
X162751228Y-95427003D01*
X162750918Y-95432548D01*
X162750918Y-95565704D01*
X162765561Y-95700497D01*
X162793613Y-95783851D01*
X162821146Y-95865664D01*
X162821147Y-95865666D01*
X162823324Y-95872135D01*
X162916595Y-96027365D01*
X162921283Y-96032322D01*
X162921285Y-96032325D01*
X163036336Y-96153987D01*
X163041025Y-96158945D01*
X163046663Y-96162777D01*
X163046667Y-96162780D01*
X163121623Y-96213720D01*
X163190806Y-96260737D01*
X163358952Y-96327990D01*
X163365680Y-96329104D01*
X163365684Y-96329105D01*
X163512523Y-96353414D01*
X163537616Y-96357568D01*
X163537616Y-101729794D01*
X157757616Y-101730446D01*
X157757616Y-96357568D01*
X157764433Y-96357211D01*
X157764437Y-96357211D01*
X157851604Y-96352642D01*
X157938465Y-96348090D01*
X157945038Y-96346279D01*
X157945041Y-96346279D01*
X158029053Y-96323138D01*
X158113059Y-96299999D01*
X158273254Y-96215538D01*
X158278467Y-96211133D01*
X158278471Y-96211130D01*
X158406361Y-96103054D01*
X158406365Y-96103050D01*
X158411575Y-96098647D01*
X158415722Y-96093223D01*
X158415723Y-96093222D01*
X158517424Y-95960203D01*
X158517427Y-95960199D01*
X158521568Y-95954782D01*
X158561994Y-95868088D01*
X158595223Y-95796829D01*
X158595224Y-95796826D01*
X158598103Y-95790652D01*
X158599589Y-95784004D01*
X158599590Y-95784001D01*
X158625905Y-95666273D01*
X158637608Y-95613917D01*
X158637918Y-95608372D01*
X158637918Y-95475216D01*
X158623275Y-95340423D01*
X158577689Y-95204968D01*
X158567690Y-95175256D01*
X158567689Y-95175254D01*
X158565512Y-95168785D01*
X158472241Y-95013555D01*
X158467553Y-95008598D01*
X158467551Y-95008595D01*
X158352500Y-94886933D01*
X158352498Y-94886931D01*
X158347811Y-94881975D01*
X158342173Y-94878143D01*
X158342169Y-94878140D01*
X158203673Y-94784018D01*
X158198030Y-94780183D01*
X158029884Y-94712930D01*
X158023156Y-94711816D01*
X158023152Y-94711815D01*
X157857957Y-94684467D01*
X157857954Y-94684467D01*
X157851220Y-94683352D01*
X157840862Y-94683894D01*
X157677184Y-94692473D01*
X157670371Y-94692830D01*
X157585684Y-94716156D01*
X157502359Y-94739108D01*
X157495777Y-94740921D01*
X157335582Y-94825382D01*
X157330369Y-94829787D01*
X157330365Y-94829790D01*
X157202475Y-94937866D01*
X157202471Y-94937870D01*
X157197261Y-94942273D01*
X157164615Y-94984972D01*
X157091412Y-95080717D01*
X157091409Y-95080721D01*
X157087268Y-95086138D01*
X157026628Y-95216181D01*
X157013613Y-95244091D01*
X157013612Y-95244094D01*
X157010733Y-95250268D01*
X157009247Y-95256916D01*
X157009246Y-95256919D01*
X156972354Y-95421966D01*
X156972354Y-95421965D01*
X156971228Y-95427003D01*
X156970918Y-95432548D01*
X156970918Y-95565704D01*
X156985561Y-95700497D01*
X157013613Y-95783851D01*
X157041146Y-95865664D01*
X157041147Y-95865666D01*
X157043324Y-95872135D01*
X157136595Y-96027365D01*
X157141283Y-96032322D01*
X157141285Y-96032325D01*
X157193113Y-96087131D01*
X157261025Y-96158945D01*
X157266663Y-96162777D01*
X157266667Y-96162780D01*
X157341623Y-96213720D01*
X157410806Y-96260737D01*
X157578952Y-96327990D01*
X157585680Y-96329104D01*
X157585684Y-96329105D01*
X157681192Y-96344916D01*
X157757616Y-96357568D01*
X157757616Y-101730446D01*
X152878418Y-101730996D01*
X152878418Y-77081964D01*
X153068346Y-77062002D01*
X153249974Y-77002987D01*
X153415362Y-76907500D01*
X153557284Y-76779713D01*
X153669536Y-76625212D01*
X153672220Y-76619184D01*
X153672221Y-76619182D01*
X153744527Y-76456779D01*
X153747212Y-76450748D01*
X153767065Y-76357347D01*
X153785546Y-76270404D01*
X153785546Y-76270399D01*
X153786918Y-76263947D01*
X153786918Y-76072973D01*
X153785546Y-76066521D01*
X153785546Y-76066516D01*
X153767065Y-75979573D01*
X153747212Y-75886172D01*
X153744527Y-75880141D01*
X153672221Y-75717738D01*
X153672220Y-75717736D01*
X153669536Y-75711708D01*
X153557284Y-75557207D01*
X153415362Y-75429420D01*
X153366965Y-75401478D01*
X153340870Y-75381454D01*
X152035330Y-74075914D01*
X152022493Y-74060886D01*
X152014603Y-74050026D01*
X151965234Y-74005574D01*
X151960449Y-74001033D01*
X151946404Y-73986988D01*
X151930960Y-73974481D01*
X151925954Y-73970205D01*
X151881499Y-73930178D01*
X151881495Y-73930175D01*
X151876587Y-73925756D01*
X151864967Y-73919047D01*
X151848681Y-73907853D01*
X151843389Y-73903568D01*
X151838258Y-73899413D01*
X151779067Y-73869254D01*
X151773283Y-73866113D01*
X151721467Y-73836197D01*
X151721465Y-73836196D01*
X151715749Y-73832896D01*
X151709473Y-73830857D01*
X151709469Y-73830855D01*
X151702997Y-73828752D01*
X151684735Y-73821188D01*
X151678666Y-73818096D01*
X151678662Y-73818094D01*
X151672781Y-73815098D01*
X151666410Y-73813391D01*
X151666405Y-73813389D01*
X151608615Y-73797905D01*
X151602289Y-73796031D01*
X151545404Y-73777548D01*
X151539120Y-73775506D01*
X151525782Y-73774104D01*
X151506349Y-73770502D01*
X151499779Y-73768742D01*
X151499772Y-73768741D01*
X151493390Y-73767031D01*
X151427072Y-73763555D01*
X151420498Y-73763038D01*
X151403997Y-73761304D01*
X151400724Y-73760960D01*
X151380844Y-73760960D01*
X151374250Y-73760787D01*
X151314517Y-73757656D01*
X151314512Y-73757656D01*
X151307925Y-73757311D01*
X151294678Y-73759409D01*
X151274968Y-73760960D01*
X148216566Y-73760960D01*
X148148445Y-73740958D01*
X148127471Y-73724055D01*
X146814333Y-72410918D01*
X146801492Y-72395884D01*
X146703167Y-72260551D01*
X146703165Y-72260549D01*
X146699284Y-72255207D01*
X146557362Y-72127420D01*
X146391974Y-72031933D01*
X146210346Y-71972918D01*
X146176052Y-71969313D01*
X146026983Y-71953646D01*
X146020418Y-71952956D01*
X145927549Y-71962717D01*
X145837053Y-71972228D01*
X145837051Y-71972228D01*
X145830490Y-71972918D01*
X145648862Y-72031933D01*
X145483474Y-72127420D01*
X145470949Y-72138697D01*
X145346463Y-72250785D01*
X145346462Y-72250786D01*
X145341552Y-72255207D01*
X145244562Y-72388702D01*
X145233181Y-72404366D01*
X145233180Y-72404367D01*
X145229300Y-72409708D01*
X145226616Y-72415736D01*
X145226615Y-72415738D01*
X145154309Y-72578141D01*
X145154309Y-72578142D01*
X145151624Y-72584172D01*
X145131771Y-72677572D01*
X145113290Y-72764516D01*
X145113290Y-72764521D01*
X145111918Y-72770973D01*
X145111918Y-72961947D01*
X145113290Y-72968399D01*
X145113290Y-72968404D01*
X145131771Y-73055348D01*
X145151624Y-73148748D01*
X145154309Y-73154778D01*
X145154309Y-73154779D01*
X145226615Y-73317182D01*
X145226616Y-73317184D01*
X145229300Y-73323212D01*
X145233180Y-73328553D01*
X145233181Y-73328554D01*
X145244562Y-73344218D01*
X145341552Y-73477713D01*
X145483474Y-73605500D01*
X145489192Y-73608801D01*
X145531875Y-73633445D01*
X145557969Y-73653469D01*
X147117506Y-75213006D01*
X147130343Y-75228034D01*
X147138233Y-75238894D01*
X147143143Y-75243315D01*
X147143144Y-75243316D01*
X147187602Y-75283346D01*
X147192387Y-75287887D01*
X147206432Y-75301932D01*
X147209006Y-75304016D01*
X147209009Y-75304019D01*
X147221864Y-75314429D01*
X147226880Y-75318713D01*
X147271338Y-75358743D01*
X147271343Y-75358747D01*
X147276249Y-75363164D01*
X147285128Y-75368290D01*
X147287866Y-75369871D01*
X147304159Y-75381069D01*
X147314579Y-75389507D01*
X147373781Y-75419673D01*
X147379551Y-75422806D01*
X147431363Y-75452720D01*
X147431368Y-75452722D01*
X147437087Y-75456024D01*
X147443367Y-75458065D01*
X147443375Y-75458068D01*
X147449839Y-75460168D01*
X147468101Y-75467732D01*
X147474167Y-75470823D01*
X147474176Y-75470826D01*
X147480055Y-75473822D01*
X147486433Y-75475531D01*
X147544222Y-75491016D01*
X147550524Y-75492882D01*
X147613716Y-75513414D01*
X147620284Y-75514104D01*
X147627046Y-75514815D01*
X147646489Y-75518418D01*
X147659447Y-75521890D01*
X147666037Y-75522235D01*
X147666041Y-75522236D01*
X147725785Y-75525367D01*
X147732349Y-75525883D01*
X147752112Y-75527960D01*
X147771973Y-75527960D01*
X147778568Y-75528133D01*
X147827536Y-75530699D01*
X147844911Y-75531610D01*
X147851425Y-75530578D01*
X147858162Y-75529511D01*
X147877874Y-75527960D01*
X150936270Y-75527960D01*
X151004391Y-75547962D01*
X151025365Y-75564865D01*
X152084505Y-76624005D01*
X152097345Y-76639038D01*
X152199552Y-76779713D01*
X152204462Y-76784134D01*
X152204463Y-76784135D01*
X152246878Y-76822325D01*
X152341474Y-76907500D01*
X152506862Y-77002987D01*
X152688490Y-77062002D01*
X152878418Y-77081964D01*
X152878418Y-101730996D01*
X152192552Y-101731073D01*
X152192552Y-100398960D01*
X152254734Y-100392205D01*
X152391123Y-100341075D01*
X152507679Y-100253721D01*
X152595033Y-100137165D01*
X152646163Y-100000776D01*
X152652918Y-99938594D01*
X152652918Y-98142326D01*
X152646163Y-98080144D01*
X152595033Y-97943755D01*
X152507679Y-97827199D01*
X152391123Y-97739845D01*
X152254734Y-97688715D01*
X152192552Y-97681960D01*
X150396284Y-97681960D01*
X150334102Y-97688715D01*
X150197713Y-97739845D01*
X150081157Y-97827199D01*
X149993803Y-97943755D01*
X149942673Y-98080144D01*
X149935918Y-98142326D01*
X149935918Y-99938594D01*
X149942673Y-100000776D01*
X149993803Y-100137165D01*
X150081157Y-100253721D01*
X150197713Y-100341075D01*
X150334102Y-100392205D01*
X150396284Y-100398960D01*
X152192552Y-100398960D01*
X152192552Y-101731073D01*
X142503063Y-101732166D01*
X142503063Y-100116527D01*
X142506855Y-100116338D01*
X142531088Y-100115132D01*
X142736412Y-100104910D01*
X142824760Y-100100512D01*
X142828493Y-100099871D01*
X142828498Y-100099870D01*
X143073589Y-100057755D01*
X143142204Y-100045965D01*
X143145843Y-100044877D01*
X143145846Y-100044876D01*
X143437218Y-99957737D01*
X143450795Y-99953677D01*
X143746064Y-99824984D01*
X143749335Y-99823061D01*
X143749339Y-99823059D01*
X144020463Y-99663673D01*
X144020471Y-99663668D01*
X144023733Y-99661750D01*
X144026748Y-99659449D01*
X144186419Y-99537592D01*
X144279781Y-99466341D01*
X144282500Y-99463693D01*
X144282505Y-99463688D01*
X144346779Y-99401075D01*
X144510499Y-99241586D01*
X144712544Y-98990740D01*
X144714552Y-98987520D01*
X144880979Y-98720666D01*
X144880983Y-98720659D01*
X144882991Y-98717439D01*
X145019369Y-98425640D01*
X145020552Y-98422030D01*
X145020554Y-98422026D01*
X145111918Y-98143322D01*
X145119704Y-98119571D01*
X145182541Y-97803664D01*
X145182828Y-97799892D01*
X145182829Y-97799884D01*
X145206685Y-97486273D01*
X145206685Y-97486268D01*
X145206972Y-97482496D01*
X145192641Y-97160719D01*
X145139758Y-96842995D01*
X145138692Y-96839361D01*
X145138691Y-96839357D01*
X145050155Y-96537567D01*
X145050152Y-96537559D01*
X145049086Y-96533925D01*
X144921941Y-96237986D01*
X144920037Y-96234709D01*
X144920034Y-96234702D01*
X144826080Y-96072950D01*
X144760163Y-95959466D01*
X144566097Y-95702398D01*
X144469021Y-95601698D01*
X144345186Y-95473238D01*
X144345183Y-95473236D01*
X144342553Y-95470507D01*
X144339613Y-95468113D01*
X144339607Y-95468108D01*
X144095710Y-95269545D01*
X144095706Y-95269542D01*
X144092769Y-95267151D01*
X143920910Y-95158716D01*
X143823577Y-95097303D01*
X143823574Y-95097301D01*
X143820364Y-95095276D01*
X143733875Y-95054300D01*
X143616958Y-94998909D01*
X143529283Y-94957372D01*
X143223743Y-94855436D01*
X143217673Y-94854195D01*
X143042613Y-94818420D01*
X142908170Y-94790945D01*
X142587134Y-94764833D01*
X142531088Y-94764246D01*
X142503063Y-94765935D01*
X142213354Y-94783401D01*
X142213350Y-94783401D01*
X142209576Y-94783629D01*
X141996113Y-94822614D01*
X141996113Y-84728209D01*
X142001266Y-84727912D01*
X142001269Y-84727912D01*
X142096008Y-84722449D01*
X142219133Y-84715350D01*
X142224179Y-84714213D01*
X142224185Y-84714212D01*
X142272137Y-84703405D01*
X142437057Y-84666238D01*
X142644034Y-84582194D01*
X142726856Y-84531441D01*
X142830106Y-84468169D01*
X142834506Y-84465473D01*
X143003356Y-84319210D01*
X143006660Y-84315230D01*
X143010605Y-84310479D01*
X143069508Y-84270844D01*
X143140489Y-84269347D01*
X143201011Y-84306463D01*
X143225530Y-84346735D01*
X143250579Y-84413553D01*
X143268803Y-84462165D01*
X143356157Y-84578721D01*
X143472713Y-84666075D01*
X143609102Y-84717205D01*
X143671284Y-84723960D01*
X145467552Y-84723960D01*
X145529734Y-84717205D01*
X145666123Y-84666075D01*
X145782679Y-84578721D01*
X145870033Y-84462165D01*
X145921163Y-84325776D01*
X145927918Y-84263594D01*
X145927918Y-82467326D01*
X145921163Y-82405144D01*
X145870033Y-82268755D01*
X145782679Y-82152199D01*
X145666123Y-82064845D01*
X145606947Y-82042661D01*
X145548800Y-82020862D01*
X145492036Y-81978220D01*
X145467336Y-81911658D01*
X145482544Y-81842310D01*
X145510532Y-81807643D01*
X145543356Y-81779210D01*
X145686050Y-81607334D01*
X145798756Y-81414460D01*
X145878448Y-81205768D01*
X145879479Y-81200700D01*
X145879480Y-81200697D01*
X145901301Y-81093443D01*
X145922985Y-80986863D01*
X145923175Y-80981688D01*
X145923175Y-80981686D01*
X145930982Y-80768787D01*
X145930982Y-80768783D01*
X145931171Y-80763623D01*
X145930515Y-80758503D01*
X145930515Y-80758501D01*
X145903443Y-80547172D01*
X145903443Y-80547171D01*
X145902786Y-80542044D01*
X145901301Y-80537094D01*
X145840079Y-80333031D01*
X145840077Y-80333026D01*
X145838592Y-80328076D01*
X145740314Y-80127466D01*
X145610591Y-79945600D01*
X145452907Y-79787364D01*
X145271495Y-79657007D01*
X145272446Y-79655684D01*
X145229275Y-79608815D01*
X145217043Y-79538880D01*
X145244562Y-79473434D01*
X145276412Y-79445585D01*
X145374506Y-79385473D01*
X145543356Y-79239210D01*
X145686050Y-79067334D01*
X145798756Y-78874460D01*
X145878448Y-78665768D01*
X145879479Y-78660700D01*
X145879480Y-78660697D01*
X145901301Y-78553443D01*
X145922985Y-78446863D01*
X145923175Y-78441688D01*
X145923175Y-78441686D01*
X145930982Y-78228787D01*
X145930982Y-78228783D01*
X145931171Y-78223623D01*
X145930515Y-78218503D01*
X145930515Y-78218501D01*
X145903443Y-78007172D01*
X145903443Y-78007171D01*
X145902786Y-78002044D01*
X145901301Y-77997094D01*
X145840079Y-77793031D01*
X145840077Y-77793026D01*
X145838592Y-77788076D01*
X145740314Y-77587466D01*
X145610591Y-77405600D01*
X145452907Y-77247364D01*
X145271495Y-77117007D01*
X145229275Y-77096140D01*
X145075871Y-77020324D01*
X145075869Y-77020323D01*
X145071229Y-77018030D01*
X144857487Y-76953090D01*
X144636008Y-76923931D01*
X144569418Y-76922304D01*
X144346779Y-76940608D01*
X144130120Y-76995029D01*
X143925258Y-77084106D01*
X143746064Y-77200032D01*
X143742035Y-77202638D01*
X143742032Y-77202640D01*
X143737695Y-77205446D01*
X143572469Y-77355790D01*
X143569270Y-77359841D01*
X143569266Y-77359845D01*
X143437218Y-77527046D01*
X143437216Y-77527050D01*
X143434016Y-77531101D01*
X143326056Y-77726671D01*
X143324332Y-77731540D01*
X143324330Y-77731544D01*
X143253213Y-77932373D01*
X143253212Y-77932377D01*
X143251487Y-77937248D01*
X143250580Y-77942341D01*
X143250579Y-77942344D01*
X143213218Y-78152087D01*
X143213217Y-78152093D01*
X143212312Y-78157176D01*
X143211410Y-78231008D01*
X143209646Y-78375379D01*
X143209646Y-78375381D01*
X143209583Y-78380549D01*
X143243373Y-78601369D01*
X143312775Y-78813704D01*
X143415925Y-79011853D01*
X143419028Y-79015986D01*
X143419030Y-79015989D01*
X143529283Y-79162832D01*
X143550053Y-79190495D01*
X143553791Y-79194067D01*
X143666455Y-79301731D01*
X143711556Y-79344831D01*
X143869039Y-79452259D01*
X143914039Y-79507167D01*
X143922210Y-79577692D01*
X143890956Y-79641439D01*
X143866472Y-79662136D01*
X143742035Y-79742638D01*
X143742032Y-79742640D01*
X143737695Y-79745446D01*
X143572469Y-79895790D01*
X143569270Y-79899841D01*
X143569266Y-79899845D01*
X143437218Y-80067046D01*
X143437216Y-80067050D01*
X143434016Y-80071101D01*
X143411214Y-80112407D01*
X143360782Y-80162376D01*
X143291339Y-80177148D01*
X143224934Y-80152032D01*
X143198327Y-80124680D01*
X143167068Y-80080857D01*
X143070591Y-79945600D01*
X142912907Y-79787364D01*
X142830107Y-79727866D01*
X142735695Y-79660025D01*
X142731495Y-79657007D01*
X142689275Y-79636140D01*
X142535871Y-79560324D01*
X142535869Y-79560323D01*
X142531229Y-79558030D01*
X142317487Y-79493090D01*
X142096008Y-79463931D01*
X142029418Y-79462304D01*
X141806779Y-79480608D01*
X141590120Y-79535029D01*
X141385258Y-79624106D01*
X141197695Y-79745446D01*
X141032469Y-79895790D01*
X141029270Y-79899841D01*
X141029266Y-79899845D01*
X140897218Y-80067046D01*
X140897216Y-80067050D01*
X140894016Y-80071101D01*
X140786056Y-80266671D01*
X140784332Y-80271540D01*
X140784330Y-80271544D01*
X140713213Y-80472373D01*
X140713212Y-80472377D01*
X140711487Y-80477248D01*
X140710580Y-80482341D01*
X140710579Y-80482344D01*
X140673218Y-80692087D01*
X140673217Y-80692093D01*
X140672312Y-80697176D01*
X140671410Y-80771008D01*
X140669646Y-80915379D01*
X140669646Y-80915381D01*
X140669583Y-80920549D01*
X140703373Y-81141369D01*
X140772775Y-81353704D01*
X140875925Y-81551853D01*
X140879028Y-81555986D01*
X140879030Y-81555989D01*
X140989283Y-81702832D01*
X141010053Y-81730495D01*
X141171556Y-81884831D01*
X141329039Y-81992259D01*
X141374039Y-82047167D01*
X141382210Y-82117692D01*
X141350956Y-82181439D01*
X141326472Y-82202136D01*
X141202035Y-82282638D01*
X141202032Y-82282640D01*
X141197695Y-82285446D01*
X141032469Y-82435790D01*
X141029270Y-82439841D01*
X141029266Y-82439845D01*
X140897218Y-82607046D01*
X140897216Y-82607050D01*
X140894016Y-82611101D01*
X140786056Y-82806671D01*
X140784332Y-82811540D01*
X140784330Y-82811544D01*
X140713213Y-83012373D01*
X140713212Y-83012377D01*
X140711487Y-83017248D01*
X140710580Y-83022341D01*
X140710579Y-83022344D01*
X140673218Y-83232087D01*
X140673217Y-83232093D01*
X140672312Y-83237176D01*
X140671410Y-83311008D01*
X140669646Y-83455379D01*
X140669646Y-83455381D01*
X140669583Y-83460549D01*
X140703373Y-83681369D01*
X140772775Y-83893704D01*
X140875925Y-84091853D01*
X140879028Y-84095986D01*
X140879030Y-84095989D01*
X140989283Y-84242832D01*
X141010053Y-84270495D01*
X141171556Y-84424831D01*
X141175821Y-84427740D01*
X141175829Y-84427746D01*
X141266441Y-84489557D01*
X141356098Y-84550717D01*
X141558723Y-84644772D01*
X141773988Y-84704471D01*
X141996113Y-84728209D01*
X141996113Y-94822614D01*
X141892721Y-94841497D01*
X141585114Y-94937012D01*
X141291209Y-95068790D01*
X141015264Y-95234922D01*
X141012280Y-95237249D01*
X141012273Y-95237254D01*
X140764271Y-95430666D01*
X140764268Y-95430668D01*
X140761276Y-95433002D01*
X140532924Y-95660161D01*
X140333517Y-95913108D01*
X140165942Y-96188180D01*
X140032627Y-96481391D01*
X139935503Y-96788494D01*
X139905624Y-96947384D01*
X139876677Y-97101317D01*
X139876676Y-97101322D01*
X139875977Y-97105041D01*
X139854911Y-97426447D01*
X139855119Y-97430227D01*
X139855119Y-97430228D01*
X139860199Y-97522538D01*
X139872610Y-97748056D01*
X139873271Y-97751783D01*
X139873271Y-97751787D01*
X139905624Y-97934338D01*
X139928818Y-98065210D01*
X139929923Y-98068835D01*
X139929924Y-98068840D01*
X139990974Y-98269148D01*
X140022721Y-98373313D01*
X140024252Y-98376777D01*
X140024255Y-98376784D01*
X140104401Y-98558070D01*
X140152958Y-98667904D01*
X140154894Y-98671158D01*
X140154897Y-98671164D01*
X140315704Y-98941456D01*
X140317643Y-98944715D01*
X140514391Y-99199737D01*
X140517047Y-99202435D01*
X140703373Y-99391711D01*
X140740351Y-99429275D01*
X140992251Y-99630004D01*
X141266441Y-99799017D01*
X141558950Y-99933865D01*
X141562550Y-99935024D01*
X141562557Y-99935027D01*
X141779125Y-100004768D01*
X141865541Y-100032596D01*
X141869257Y-100033315D01*
X141869265Y-100033317D01*
X142178053Y-100093060D01*
X142178062Y-100093061D01*
X142181772Y-100093779D01*
X142185548Y-100094046D01*
X142185553Y-100094047D01*
X142224185Y-100096782D01*
X142503063Y-100116527D01*
X142503063Y-101732166D01*
X139912532Y-101732458D01*
X139905624Y-101732268D01*
X139858590Y-101729685D01*
X139858581Y-101729686D01*
X139849625Y-101729194D01*
X139840887Y-101731237D01*
X139840882Y-101731237D01*
X139835413Y-101732515D01*
X139809720Y-101735787D01*
X139656168Y-101739424D01*
X139637078Y-101738425D01*
X139460350Y-101715648D01*
X139441631Y-101711774D01*
X139270368Y-101662520D01*
X139252452Y-101655859D01*
X139246032Y-101652900D01*
X139090609Y-101581265D01*
X139073921Y-101571978D01*
X138925228Y-101473762D01*
X138910125Y-101462049D01*
X138825785Y-101385718D01*
X138777994Y-101342465D01*
X138764841Y-101328605D01*
X138652329Y-101190420D01*
X138641418Y-101174724D01*
X138607949Y-101117796D01*
X138551101Y-101021103D01*
X138542695Y-101003945D01*
X138476655Y-100838425D01*
X138470941Y-100820192D01*
X138455179Y-100752198D01*
X138430700Y-100646597D01*
X138427808Y-100627701D01*
X138416693Y-100481582D01*
X138417360Y-100464576D01*
X138417259Y-100464575D01*
X138417368Y-100455605D01*
X138418750Y-100446730D01*
X138414614Y-100415099D01*
X138413550Y-100398813D01*
X138402626Y-67074500D01*
X138422606Y-67006374D01*
X138476246Y-66959864D01*
X138528626Y-66948460D01*
X146107931Y-66948460D01*
X146176052Y-66968462D01*
X146222545Y-67022118D01*
X146232649Y-67092392D01*
X146223038Y-67125708D01*
X146170310Y-67244137D01*
X146170307Y-67244145D01*
X146167624Y-67250172D01*
X146147771Y-67343572D01*
X146129290Y-67430516D01*
X146129290Y-67430521D01*
X146127918Y-67436973D01*
X146127918Y-67627947D01*
X146129290Y-67634399D01*
X146129290Y-67634404D01*
X146147771Y-67721348D01*
X146167624Y-67814748D01*
X146170309Y-67820778D01*
X146170309Y-67820779D01*
X146242615Y-67983182D01*
X146242616Y-67983184D01*
X146245300Y-67989212D01*
X146357552Y-68143713D01*
X146499474Y-68271500D01*
X146664862Y-68366987D01*
X146846490Y-68426002D01*
X147036418Y-68445964D01*
X147042983Y-68445274D01*
X147206800Y-68428056D01*
X147226346Y-68426002D01*
X147407974Y-68366987D01*
X147413696Y-68363684D01*
X147413697Y-68363683D01*
X147443375Y-68346548D01*
X147573362Y-68271500D01*
X147578269Y-68267082D01*
X147578270Y-68267081D01*
X147646495Y-68205651D01*
X147715284Y-68143713D01*
X147773181Y-68064025D01*
X147817513Y-68003007D01*
X147827536Y-67989212D01*
X147830220Y-67983184D01*
X147830221Y-67983182D01*
X147902527Y-67820779D01*
X147905212Y-67814748D01*
X147925065Y-67721347D01*
X147943546Y-67634404D01*
X147943546Y-67634399D01*
X147944918Y-67627947D01*
X147944918Y-67572054D01*
X147964920Y-67503933D01*
X147981823Y-67482959D01*
X149714665Y-65750117D01*
X149722955Y-65742573D01*
X149729436Y-65738460D01*
X149734861Y-65732683D01*
X149776076Y-65688793D01*
X149778831Y-65685951D01*
X149798552Y-65666230D01*
X149801030Y-65663035D01*
X149808736Y-65654013D01*
X149839004Y-65621781D01*
X149842824Y-65614832D01*
X149848764Y-65604028D01*
X149859617Y-65587504D01*
X149872031Y-65571501D01*
X149889594Y-65530917D01*
X149894801Y-65520287D01*
X149916113Y-65481520D01*
X149918084Y-65473843D01*
X149918086Y-65473838D01*
X149921150Y-65461902D01*
X149927555Y-65443194D01*
X149935599Y-65424605D01*
X149936839Y-65416777D01*
X149936841Y-65416770D01*
X149942517Y-65380936D01*
X149944923Y-65369316D01*
X149953946Y-65334171D01*
X149955918Y-65326490D01*
X149955918Y-65306236D01*
X149957469Y-65286526D01*
X149960638Y-65266517D01*
X149959892Y-65258625D01*
X149956477Y-65222499D01*
X149955918Y-65210641D01*
X149955918Y-63922660D01*
X149975920Y-63854539D01*
X149992261Y-63835313D01*
X149991958Y-63835040D01*
X149996381Y-63830128D01*
X150001284Y-63825713D01*
X150016964Y-63804131D01*
X150088337Y-63705895D01*
X150113536Y-63671212D01*
X150116220Y-63665184D01*
X150116221Y-63665182D01*
X150188527Y-63502779D01*
X150191212Y-63496748D01*
X150211065Y-63403348D01*
X150229546Y-63316404D01*
X150229546Y-63316399D01*
X150230918Y-63309947D01*
X150230918Y-63118973D01*
X150229546Y-63112521D01*
X150229546Y-63112516D01*
X150211065Y-63025572D01*
X150191212Y-62932172D01*
X150188527Y-62926141D01*
X150116221Y-62763738D01*
X150116220Y-62763736D01*
X150113536Y-62757708D01*
X150001284Y-62603207D01*
X149960638Y-62566609D01*
X149864270Y-62479839D01*
X149864269Y-62479838D01*
X149859362Y-62475420D01*
X149729436Y-62400407D01*
X149699697Y-62383237D01*
X149699696Y-62383236D01*
X149693974Y-62379933D01*
X149512346Y-62320918D01*
X149497167Y-62319322D01*
X149328983Y-62301646D01*
X149322418Y-62300956D01*
X149315853Y-62301646D01*
X149139053Y-62320228D01*
X149139051Y-62320228D01*
X149132490Y-62320918D01*
X148950862Y-62379933D01*
X148814418Y-62458709D01*
X148814418Y-53713964D01*
X149004346Y-53694002D01*
X149185974Y-53634987D01*
X149351362Y-53539500D01*
X149493284Y-53411713D01*
X149548393Y-53335862D01*
X149601106Y-53263309D01*
X149605536Y-53257212D01*
X149608220Y-53251184D01*
X149608221Y-53251182D01*
X149680527Y-53088779D01*
X149683212Y-53082748D01*
X149703065Y-52989348D01*
X149721546Y-52902404D01*
X149721546Y-52902399D01*
X149722918Y-52895947D01*
X149722918Y-52704973D01*
X149721546Y-52698521D01*
X149721546Y-52698516D01*
X149703065Y-52611572D01*
X149683212Y-52518172D01*
X149680527Y-52512141D01*
X149608221Y-52349738D01*
X149608220Y-52349736D01*
X149605536Y-52343708D01*
X149601106Y-52337610D01*
X149571982Y-52297525D01*
X149548124Y-52230657D01*
X149547918Y-52223464D01*
X149547918Y-48495168D01*
X149561701Y-48437868D01*
X149565776Y-48429888D01*
X149565778Y-48429882D01*
X149569105Y-48423367D01*
X149570844Y-48416261D01*
X149572808Y-48410979D01*
X149574570Y-48405682D01*
X149577668Y-48399054D01*
X149592034Y-48329986D01*
X149593004Y-48325702D01*
X149609759Y-48257228D01*
X149610107Y-48251626D01*
X149610107Y-48251623D01*
X149610429Y-48246429D01*
X149610453Y-48246430D01*
X149610717Y-48242015D01*
X149611007Y-48238765D01*
X149612498Y-48231597D01*
X149610475Y-48156826D01*
X149610429Y-48153418D01*
X149610429Y-45816137D01*
X149611862Y-45797187D01*
X149613872Y-45783978D01*
X149613872Y-45783974D01*
X149614972Y-45776744D01*
X149614379Y-45769452D01*
X149614379Y-45769449D01*
X149610844Y-45725992D01*
X149610429Y-45715777D01*
X149610429Y-45708145D01*
X149610007Y-45704526D01*
X149610006Y-45704507D01*
X149607254Y-45680902D01*
X149606822Y-45676536D01*
X149604600Y-45649217D01*
X149601700Y-45613567D01*
X149601700Y-45613565D01*
X149601106Y-45606267D01*
X149598848Y-45599298D01*
X149597745Y-45593778D01*
X149596463Y-45588353D01*
X149595615Y-45581081D01*
X149571542Y-45514761D01*
X149570119Y-45510615D01*
X149550649Y-45450513D01*
X149550647Y-45450509D01*
X149548393Y-45443551D01*
X149544599Y-45437299D01*
X149542257Y-45432183D01*
X149539753Y-45427184D01*
X149537256Y-45420304D01*
X149498581Y-45361315D01*
X149496244Y-45357611D01*
X149471368Y-45316618D01*
X149455841Y-45277451D01*
X149448178Y-45241401D01*
X149429212Y-45152172D01*
X149426527Y-45146141D01*
X149354221Y-44983738D01*
X149354220Y-44983736D01*
X149351536Y-44977708D01*
X149328983Y-44946666D01*
X149311282Y-44922303D01*
X149239284Y-44823207D01*
X149234373Y-44818785D01*
X149102270Y-44699839D01*
X149102269Y-44699838D01*
X149097362Y-44695420D01*
X148931974Y-44599933D01*
X148750346Y-44540918D01*
X148651629Y-44530542D01*
X148566983Y-44521646D01*
X148560418Y-44520956D01*
X148453624Y-44532180D01*
X148377053Y-44540228D01*
X148377051Y-44540228D01*
X148370490Y-44540918D01*
X148188862Y-44599933D01*
X148023474Y-44695420D01*
X147881552Y-44823207D01*
X147769300Y-44977708D01*
X147766616Y-44983736D01*
X147766615Y-44983738D01*
X147694309Y-45146141D01*
X147694309Y-45146142D01*
X147691624Y-45152172D01*
X147671771Y-45245572D01*
X147653290Y-45332516D01*
X147653290Y-45332521D01*
X147651918Y-45338973D01*
X147651918Y-45529947D01*
X147653290Y-45536399D01*
X147653290Y-45536404D01*
X147671771Y-45623348D01*
X147691624Y-45716748D01*
X147694309Y-45722778D01*
X147694309Y-45722779D01*
X147766615Y-45885182D01*
X147766616Y-45885184D01*
X147769300Y-45891212D01*
X147881552Y-46045713D01*
X148023474Y-46173500D01*
X148029192Y-46176801D01*
X148080429Y-46206383D01*
X148129422Y-46257765D01*
X148143429Y-46315502D01*
X148143429Y-47899241D01*
X148129646Y-47956541D01*
X148125571Y-47964521D01*
X148125569Y-47964527D01*
X148122242Y-47971042D01*
X148120503Y-47978148D01*
X148118539Y-47983430D01*
X148116777Y-47988727D01*
X148113679Y-47995355D01*
X148099312Y-48064428D01*
X148098342Y-48068712D01*
X148081588Y-48137181D01*
X148081240Y-48142783D01*
X148081240Y-48142786D01*
X148080918Y-48147980D01*
X148080894Y-48147979D01*
X148080630Y-48152394D01*
X148080340Y-48155644D01*
X148078849Y-48162812D01*
X148080429Y-48221209D01*
X148080872Y-48237583D01*
X148080918Y-48240991D01*
X148080918Y-52223464D01*
X148060916Y-52291585D01*
X148056854Y-52297525D01*
X148027181Y-52338366D01*
X148027180Y-52338367D01*
X148023300Y-52343708D01*
X148020616Y-52349736D01*
X148020615Y-52349738D01*
X147948309Y-52512141D01*
X147948309Y-52512142D01*
X147945624Y-52518172D01*
X147925771Y-52611572D01*
X147907290Y-52698516D01*
X147907290Y-52698521D01*
X147905918Y-52704973D01*
X147905918Y-52895947D01*
X147907290Y-52902399D01*
X147907290Y-52902404D01*
X147925771Y-52989348D01*
X147945624Y-53082748D01*
X147948309Y-53088778D01*
X147948309Y-53088779D01*
X148020615Y-53251182D01*
X148020616Y-53251184D01*
X148023300Y-53257212D01*
X148135552Y-53411713D01*
X148140462Y-53416134D01*
X148140463Y-53416135D01*
X148188862Y-53459713D01*
X148277474Y-53539500D01*
X148442862Y-53634987D01*
X148624490Y-53694002D01*
X148631051Y-53694692D01*
X148631053Y-53694692D01*
X148652013Y-53696895D01*
X148814418Y-53713964D01*
X148814418Y-62458709D01*
X148785474Y-62475420D01*
X148756624Y-62501396D01*
X148648463Y-62598785D01*
X148648462Y-62598786D01*
X148643552Y-62603207D01*
X148560418Y-62717631D01*
X148535181Y-62752366D01*
X148535180Y-62752367D01*
X148531300Y-62757708D01*
X148528616Y-62763736D01*
X148528615Y-62763738D01*
X148456309Y-62926141D01*
X148456309Y-62926142D01*
X148453624Y-62932172D01*
X148433771Y-63025572D01*
X148415290Y-63112516D01*
X148415290Y-63112521D01*
X148413918Y-63118973D01*
X148413918Y-63309947D01*
X148415290Y-63316399D01*
X148415290Y-63316404D01*
X148433771Y-63403348D01*
X148453624Y-63496748D01*
X148456309Y-63502778D01*
X148456309Y-63502779D01*
X148528615Y-63665182D01*
X148528616Y-63665184D01*
X148531300Y-63671212D01*
X148535180Y-63676553D01*
X148535181Y-63676554D01*
X148566983Y-63720325D01*
X148643552Y-63825713D01*
X148648455Y-63830128D01*
X148652878Y-63835040D01*
X148651629Y-63836165D01*
X148684469Y-63889474D01*
X148688918Y-63922660D01*
X148688918Y-64931865D01*
X148668916Y-64999986D01*
X148652013Y-65020960D01*
X147817513Y-65855460D01*
X147755201Y-65889486D01*
X147684386Y-65884421D01*
X147627550Y-65841874D01*
X147602739Y-65775354D01*
X147602418Y-65766365D01*
X147602418Y-47249162D01*
X147602420Y-47248391D01*
X147602894Y-47170808D01*
X147600428Y-47162179D01*
X147600427Y-47162174D01*
X147594779Y-47142412D01*
X147591201Y-47125651D01*
X147588288Y-47105308D01*
X147588285Y-47105298D01*
X147587013Y-47096415D01*
X147576397Y-47073065D01*
X147569954Y-47055553D01*
X147565374Y-47039528D01*
X147565373Y-47039525D01*
X147562906Y-47030895D01*
X147558116Y-47023302D01*
X147555401Y-47017234D01*
X147550379Y-46993706D01*
X147549522Y-46993958D01*
X147544418Y-46976576D01*
X147544418Y-46958460D01*
X147536624Y-46958460D01*
X147514248Y-46939071D01*
X147515092Y-46938097D01*
X147504320Y-46932216D01*
X147496162Y-46922007D01*
X147495867Y-46922258D01*
X147490047Y-46915420D01*
X147485258Y-46907829D01*
X147463121Y-46888278D01*
X147451077Y-46876086D01*
X147437657Y-46860511D01*
X147437655Y-46860510D01*
X147431799Y-46853713D01*
X147424271Y-46848834D01*
X147424268Y-46848831D01*
X147410279Y-46839764D01*
X147395405Y-46828474D01*
X147382920Y-46817448D01*
X147376190Y-46811504D01*
X147349452Y-46798950D01*
X147334483Y-46790636D01*
X147309691Y-46774567D01*
X147285127Y-46767221D01*
X147267682Y-46760559D01*
X147252597Y-46753477D01*
X147244470Y-46749661D01*
X147215288Y-46745117D01*
X147198569Y-46741334D01*
X147178882Y-46735446D01*
X147178879Y-46735445D01*
X147170277Y-46732873D01*
X147135862Y-46732663D01*
X147135090Y-46732630D01*
X147133995Y-46732460D01*
X147103120Y-46732460D01*
X147102350Y-46732458D01*
X147028702Y-46732008D01*
X147028701Y-46732008D01*
X147024766Y-46731984D01*
X147023422Y-46732368D01*
X147022077Y-46732460D01*
X138528418Y-46732460D01*
X138460297Y-46712458D01*
X138413804Y-46658802D01*
X138402418Y-46606460D01*
X138402418Y-43843016D01*
X138402448Y-43840259D01*
X138403733Y-43781567D01*
X138403733Y-43781564D01*
X138403929Y-43772591D01*
X138401599Y-43763921D01*
X138401329Y-43761693D01*
X138400418Y-43746565D01*
X138400418Y-43449466D01*
X138401044Y-43436925D01*
G37*
G04 #@! TD.AperFunction*
M02*
