G04 #@! TF.GenerationSoftware,KiCad,Pcbnew,6.0.7-f9a2dced07~116~ubuntu20.04.1*
G04 #@! TF.CreationDate,2022-12-02T22:22:49+05:00*
G04 #@! TF.ProjectId,smart light,736d6172-7420-46c6-9967-68742e6b6963,rev?*
G04 #@! TF.SameCoordinates,Original*
G04 #@! TF.FileFunction,Paste,Top*
G04 #@! TF.FilePolarity,Positive*
%FSLAX46Y46*%
G04 Gerber Fmt 4.6, Leading zero omitted, Abs format (unit mm)*
G04 Created by KiCad (PCBNEW 6.0.7-f9a2dced07~116~ubuntu20.04.1) date 2022-12-02 22:22:49*
%MOMM*%
%LPD*%
G01*
G04 APERTURE LIST*
G04 Aperture macros list*
%AMRoundRect*
0 Rectangle with rounded corners*
0 $1 Rounding radius*
0 $2 $3 $4 $5 $6 $7 $8 $9 X,Y pos of 4 corners*
0 Add a 4 corners polygon primitive as box body*
4,1,4,$2,$3,$4,$5,$6,$7,$8,$9,$2,$3,0*
0 Add four circle primitives for the rounded corners*
1,1,$1+$1,$2,$3*
1,1,$1+$1,$4,$5*
1,1,$1+$1,$6,$7*
1,1,$1+$1,$8,$9*
0 Add four rect primitives between the rounded corners*
20,1,$1+$1,$2,$3,$4,$5,0*
20,1,$1+$1,$4,$5,$6,$7,0*
20,1,$1+$1,$6,$7,$8,$9,0*
20,1,$1+$1,$8,$9,$2,$3,0*%
G04 Aperture macros list end*
%ADD10RoundRect,0.225000X0.225000X0.250000X-0.225000X0.250000X-0.225000X-0.250000X0.225000X-0.250000X0*%
%ADD11RoundRect,0.200000X0.275000X-0.200000X0.275000X0.200000X-0.275000X0.200000X-0.275000X-0.200000X0*%
%ADD12RoundRect,0.200000X0.200000X0.800000X-0.200000X0.800000X-0.200000X-0.800000X0.200000X-0.800000X0*%
%ADD13RoundRect,0.225000X0.250000X-0.225000X0.250000X0.225000X-0.250000X0.225000X-0.250000X-0.225000X0*%
%ADD14R,0.900000X2.000000*%
%ADD15R,2.000000X0.900000*%
%ADD16R,1.330000X1.330000*%
%ADD17RoundRect,0.135000X0.135000X0.185000X-0.135000X0.185000X-0.135000X-0.185000X0.135000X-0.185000X0*%
%ADD18R,1.500000X2.000000*%
%ADD19R,3.800000X2.000000*%
%ADD20RoundRect,0.135000X0.185000X-0.135000X0.185000X0.135000X-0.185000X0.135000X-0.185000X-0.135000X0*%
%ADD21RoundRect,0.125000X0.575000X-0.125000X0.575000X0.125000X-0.575000X0.125000X-0.575000X-0.125000X0*%
%ADD22RoundRect,0.087500X0.087500X-0.187500X0.087500X0.187500X-0.087500X0.187500X-0.087500X-0.187500X0*%
%ADD23RoundRect,0.087500X-0.087500X0.187500X-0.087500X-0.187500X0.087500X-0.187500X0.087500X0.187500X0*%
%ADD24RoundRect,0.150000X0.150000X-0.825000X0.150000X0.825000X-0.150000X0.825000X-0.150000X-0.825000X0*%
%ADD25RoundRect,0.200000X-0.275000X0.200000X-0.275000X-0.200000X0.275000X-0.200000X0.275000X0.200000X0*%
%ADD26RoundRect,0.225000X-0.250000X0.225000X-0.250000X-0.225000X0.250000X-0.225000X0.250000X0.225000X0*%
%ADD27RoundRect,0.225000X-0.225000X-0.250000X0.225000X-0.250000X0.225000X0.250000X-0.225000X0.250000X0*%
%ADD28R,0.250000X0.550000*%
%ADD29RoundRect,0.218750X-0.218750X-0.256250X0.218750X-0.256250X0.218750X0.256250X-0.218750X0.256250X0*%
%ADD30R,0.300000X1.150000*%
G04 APERTURE END LIST*
D10*
X180869418Y-77640460D03*
X179319418Y-77640460D03*
D11*
X149494418Y-70265460D03*
X149494418Y-68615460D03*
D12*
X144310418Y-44418460D03*
X140110418Y-44418460D03*
D13*
X175894418Y-65015460D03*
X175894418Y-63465460D03*
D14*
X148034418Y-65590460D03*
X149304418Y-65590460D03*
X150574418Y-65590460D03*
X151844418Y-65590460D03*
X153114418Y-65590460D03*
X154384418Y-65590460D03*
X155654418Y-65590460D03*
X156924418Y-65590460D03*
X158194418Y-65590460D03*
X159464418Y-65590460D03*
X160734418Y-65590460D03*
X162004418Y-65590460D03*
X163274418Y-65590460D03*
X164544418Y-65590460D03*
D15*
X165544418Y-62805460D03*
X165544418Y-61535460D03*
X165544418Y-60265460D03*
X165544418Y-58995460D03*
X165544418Y-57725460D03*
X165544418Y-56455460D03*
X165544418Y-55185460D03*
X165544418Y-53915460D03*
X165544418Y-52645460D03*
X165544418Y-51375460D03*
D14*
X164544418Y-48590460D03*
X163274418Y-48590460D03*
X162004418Y-48590460D03*
X160734418Y-48590460D03*
X159464418Y-48590460D03*
X158194418Y-48590460D03*
X156924418Y-48590460D03*
X155654418Y-48590460D03*
X154384418Y-48590460D03*
X153114418Y-48590460D03*
X151844418Y-48590460D03*
X150574418Y-48590460D03*
X149304418Y-48590460D03*
X148034418Y-48590460D03*
D16*
X153699418Y-59925460D03*
X153699418Y-58090460D03*
X153699418Y-56255460D03*
X155534418Y-59925460D03*
X155534418Y-58090460D03*
X155534418Y-56255460D03*
X157369418Y-59925460D03*
X157369418Y-58090460D03*
X157369418Y-56255460D03*
D17*
X180604418Y-79440460D03*
X179584418Y-79440460D03*
D18*
X155194418Y-83890460D03*
X152894418Y-83890460D03*
D19*
X152894418Y-90190460D03*
D18*
X150594418Y-83890460D03*
D20*
X161894418Y-69950460D03*
X161894418Y-68930460D03*
D17*
X145604418Y-67640460D03*
X144584418Y-67640460D03*
X180604418Y-80840460D03*
X179584418Y-80840460D03*
D10*
X155469418Y-78240460D03*
X153919418Y-78240460D03*
D13*
X183104418Y-72879460D03*
X183104418Y-71329460D03*
D21*
X179894418Y-99440460D03*
D22*
X179394418Y-100465460D03*
D23*
X180394418Y-98415460D03*
X179394418Y-98415460D03*
D22*
X180394418Y-100465460D03*
D10*
X155469418Y-80040460D03*
X153919418Y-80040460D03*
X150869418Y-78040460D03*
X149319418Y-78040460D03*
X180869418Y-82840460D03*
X179319418Y-82840460D03*
D12*
X144818418Y-71088460D03*
X140618418Y-71088460D03*
D13*
X158720418Y-70215460D03*
X158720418Y-68665460D03*
D24*
X172049418Y-72315460D03*
X173319418Y-72315460D03*
X174589418Y-72315460D03*
X175859418Y-72315460D03*
X177129418Y-72315460D03*
X178399418Y-72315460D03*
X179669418Y-72315460D03*
X180939418Y-72315460D03*
X180939418Y-67365460D03*
X179669418Y-67365460D03*
X178399418Y-67365460D03*
X177129418Y-67365460D03*
X175859418Y-67365460D03*
X174589418Y-67365460D03*
X173319418Y-67365460D03*
X172049418Y-67365460D03*
D25*
X167694418Y-71015460D03*
X167694418Y-72665460D03*
D13*
X178494418Y-52215460D03*
X178494418Y-50665460D03*
D26*
X177394418Y-98615460D03*
X177394418Y-100165460D03*
D27*
X149344418Y-80040460D03*
X150894418Y-80040460D03*
D13*
X147544418Y-70215460D03*
X147544418Y-68665460D03*
D28*
X182350418Y-80615460D03*
X182850418Y-80615460D03*
X183350418Y-80615460D03*
X183350418Y-77865460D03*
X182850418Y-77865460D03*
X182350418Y-77865460D03*
D29*
X140506918Y-67640460D03*
X142081918Y-67640460D03*
D20*
X164894418Y-69350460D03*
X164894418Y-68330460D03*
D10*
X144869418Y-86640460D03*
X143319418Y-86640460D03*
D30*
X157344418Y-94455460D03*
X158144418Y-94455460D03*
X159444418Y-94455460D03*
X160444418Y-94455460D03*
X160944418Y-94455460D03*
X161944418Y-94455460D03*
X163244418Y-94455460D03*
X164044418Y-94455460D03*
X163744418Y-94455460D03*
X162944418Y-94455460D03*
X162444418Y-94455460D03*
X161444418Y-94455460D03*
X159944418Y-94455460D03*
X158944418Y-94455460D03*
X158444418Y-94455460D03*
X157644418Y-94455460D03*
D13*
X149494418Y-73415460D03*
X149494418Y-71865460D03*
D25*
X160294418Y-68615460D03*
X160294418Y-70265460D03*
M02*
