G04 #@! TF.GenerationSoftware,KiCad,Pcbnew,6.0.7-f9a2dced07~116~ubuntu20.04.1*
G04 #@! TF.CreationDate,2022-12-02T22:22:49+05:00*
G04 #@! TF.ProjectId,smart light,736d6172-7420-46c6-9967-68742e6b6963,rev?*
G04 #@! TF.SameCoordinates,Original*
G04 #@! TF.FileFunction,Legend,Top*
G04 #@! TF.FilePolarity,Positive*
%FSLAX46Y46*%
G04 Gerber Fmt 4.6, Leading zero omitted, Abs format (unit mm)*
G04 Created by KiCad (PCBNEW 6.0.7-f9a2dced07~116~ubuntu20.04.1) date 2022-12-02 22:22:49*
%MOMM*%
%LPD*%
G01*
G04 APERTURE LIST*
%ADD10C,0.300000*%
%ADD11C,0.150000*%
%ADD12C,0.120000*%
%ADD13C,0.127000*%
%ADD14C,0.200000*%
G04 APERTURE END LIST*
D10*
X154001560Y-99853888D02*
X154001560Y-98711031D01*
X154572989Y-99282460D02*
X153430132Y-99282460D01*
D11*
X179451560Y-76397602D02*
X179403941Y-76445221D01*
X179261084Y-76492840D01*
X179165846Y-76492840D01*
X179022989Y-76445221D01*
X178927751Y-76349983D01*
X178880132Y-76254745D01*
X178832513Y-76064269D01*
X178832513Y-75921412D01*
X178880132Y-75730936D01*
X178927751Y-75635698D01*
X179022989Y-75540460D01*
X179165846Y-75492840D01*
X179261084Y-75492840D01*
X179403941Y-75540460D01*
X179451560Y-75588079D01*
X180403941Y-76492840D02*
X179832513Y-76492840D01*
X180118227Y-76492840D02*
X180118227Y-75492840D01*
X180022989Y-75635698D01*
X179927751Y-75730936D01*
X179832513Y-75778555D01*
X180784894Y-75588079D02*
X180832513Y-75540460D01*
X180927751Y-75492840D01*
X181165846Y-75492840D01*
X181261084Y-75540460D01*
X181308703Y-75588079D01*
X181356322Y-75683317D01*
X181356322Y-75778555D01*
X181308703Y-75921412D01*
X180737275Y-76492840D01*
X181356322Y-76492840D01*
X141346798Y-75973793D02*
X142061084Y-75973793D01*
X142203941Y-76021412D01*
X142299179Y-76116650D01*
X142346798Y-76259507D01*
X142346798Y-76354745D01*
X141680132Y-75069031D02*
X142346798Y-75069031D01*
X141299179Y-75307126D02*
X142013465Y-75545221D01*
X142013465Y-74926174D01*
X151546798Y-69607126D02*
X151070608Y-69940460D01*
X151546798Y-70178555D02*
X150546798Y-70178555D01*
X150546798Y-69797602D01*
X150594418Y-69702364D01*
X150642037Y-69654745D01*
X150737275Y-69607126D01*
X150880132Y-69607126D01*
X150975370Y-69654745D01*
X151022989Y-69702364D01*
X151070608Y-69797602D01*
X151070608Y-70178555D01*
X151546798Y-68654745D02*
X151546798Y-69226174D01*
X151546798Y-68940460D02*
X150546798Y-68940460D01*
X150689656Y-69035698D01*
X150784894Y-69130936D01*
X150832513Y-69226174D01*
X145872989Y-46185698D02*
X145920608Y-46042840D01*
X145968227Y-45995221D01*
X146063465Y-45947602D01*
X146206322Y-45947602D01*
X146301560Y-45995221D01*
X146349179Y-46042840D01*
X146396798Y-46138079D01*
X146396798Y-46519031D01*
X145396798Y-46519031D01*
X145396798Y-46185698D01*
X145444418Y-46090460D01*
X145492037Y-46042840D01*
X145587275Y-45995221D01*
X145682513Y-45995221D01*
X145777751Y-46042840D01*
X145825370Y-46090460D01*
X145872989Y-46185698D01*
X145872989Y-46519031D01*
X146396798Y-45376174D02*
X146349179Y-45471412D01*
X146301560Y-45519031D01*
X146206322Y-45566650D01*
X145920608Y-45566650D01*
X145825370Y-45519031D01*
X145777751Y-45471412D01*
X145730132Y-45376174D01*
X145730132Y-45233317D01*
X145777751Y-45138079D01*
X145825370Y-45090460D01*
X145920608Y-45042840D01*
X146206322Y-45042840D01*
X146301560Y-45090460D01*
X146349179Y-45138079D01*
X146396798Y-45233317D01*
X146396798Y-45376174D01*
X146396798Y-44471412D02*
X146349179Y-44566650D01*
X146301560Y-44614269D01*
X146206322Y-44661888D01*
X145920608Y-44661888D01*
X145825370Y-44614269D01*
X145777751Y-44566650D01*
X145730132Y-44471412D01*
X145730132Y-44328555D01*
X145777751Y-44233317D01*
X145825370Y-44185698D01*
X145920608Y-44138079D01*
X146206322Y-44138079D01*
X146301560Y-44185698D01*
X146349179Y-44233317D01*
X146396798Y-44328555D01*
X146396798Y-44471412D01*
X145730132Y-43852364D02*
X145730132Y-43471412D01*
X145396798Y-43709507D02*
X146253941Y-43709507D01*
X146349179Y-43661888D01*
X146396798Y-43566650D01*
X146396798Y-43471412D01*
X146396798Y-42614269D02*
X146396798Y-43185698D01*
X146396798Y-42899983D02*
X145396798Y-42899983D01*
X145539656Y-42995221D01*
X145634894Y-43090460D01*
X145682513Y-43185698D01*
X176251560Y-61807126D02*
X176299179Y-61854745D01*
X176346798Y-61997602D01*
X176346798Y-62092840D01*
X176299179Y-62235698D01*
X176203941Y-62330936D01*
X176108703Y-62378555D01*
X175918227Y-62426174D01*
X175775370Y-62426174D01*
X175584894Y-62378555D01*
X175489656Y-62330936D01*
X175394418Y-62235698D01*
X175346798Y-62092840D01*
X175346798Y-61997602D01*
X175394418Y-61854745D01*
X175442037Y-61807126D01*
X175680132Y-60949983D02*
X176346798Y-60949983D01*
X175299179Y-61188079D02*
X176013465Y-61426174D01*
X176013465Y-60807126D01*
X154646798Y-46352364D02*
X155456322Y-46352364D01*
X155551560Y-46304745D01*
X155599179Y-46257126D01*
X155646798Y-46161888D01*
X155646798Y-45971412D01*
X155599179Y-45876174D01*
X155551560Y-45828555D01*
X155456322Y-45780936D01*
X154646798Y-45780936D01*
X154980132Y-44876174D02*
X155646798Y-44876174D01*
X154599179Y-45114269D02*
X155313465Y-45352364D01*
X155313465Y-44733317D01*
X167587989Y-60144269D02*
X167587989Y-59810936D01*
X168111798Y-59668079D02*
X168111798Y-60144269D01*
X167111798Y-60144269D01*
X167111798Y-59668079D01*
X168064179Y-59287126D02*
X168111798Y-59144269D01*
X168111798Y-58906174D01*
X168064179Y-58810936D01*
X168016560Y-58763317D01*
X167921322Y-58715698D01*
X167826084Y-58715698D01*
X167730846Y-58763317D01*
X167683227Y-58810936D01*
X167635608Y-58906174D01*
X167587989Y-59096650D01*
X167540370Y-59191888D01*
X167492751Y-59239507D01*
X167397513Y-59287126D01*
X167302275Y-59287126D01*
X167207037Y-59239507D01*
X167159418Y-59191888D01*
X167111798Y-59096650D01*
X167111798Y-58858555D01*
X167159418Y-58715698D01*
X168111798Y-58287126D02*
X167111798Y-58287126D01*
X167111798Y-57906174D01*
X167159418Y-57810936D01*
X167207037Y-57763317D01*
X167302275Y-57715698D01*
X167445132Y-57715698D01*
X167540370Y-57763317D01*
X167587989Y-57810936D01*
X167635608Y-57906174D01*
X167635608Y-58287126D01*
X167111798Y-57382364D02*
X167111798Y-56763317D01*
X167492751Y-57096650D01*
X167492751Y-56953793D01*
X167540370Y-56858555D01*
X167587989Y-56810936D01*
X167683227Y-56763317D01*
X167921322Y-56763317D01*
X168016560Y-56810936D01*
X168064179Y-56858555D01*
X168111798Y-56953793D01*
X168111798Y-57239507D01*
X168064179Y-57334745D01*
X168016560Y-57382364D01*
X167207037Y-56382364D02*
X167159418Y-56334745D01*
X167111798Y-56239507D01*
X167111798Y-56001412D01*
X167159418Y-55906174D01*
X167207037Y-55858555D01*
X167302275Y-55810936D01*
X167397513Y-55810936D01*
X167540370Y-55858555D01*
X168111798Y-56429983D01*
X168111798Y-55810936D01*
X167730846Y-55382364D02*
X167730846Y-54620460D01*
X167111798Y-54239507D02*
X168111798Y-54001412D01*
X167397513Y-53810936D01*
X168111798Y-53620460D01*
X167111798Y-53382364D01*
X168111798Y-52429983D02*
X167635608Y-52763317D01*
X168111798Y-53001412D02*
X167111798Y-53001412D01*
X167111798Y-52620460D01*
X167159418Y-52525221D01*
X167207037Y-52477602D01*
X167302275Y-52429983D01*
X167445132Y-52429983D01*
X167540370Y-52477602D01*
X167587989Y-52525221D01*
X167635608Y-52620460D01*
X167635608Y-53001412D01*
X167111798Y-51810936D02*
X167111798Y-51620460D01*
X167159418Y-51525221D01*
X167254656Y-51429983D01*
X167445132Y-51382364D01*
X167778465Y-51382364D01*
X167968941Y-51429983D01*
X168064179Y-51525221D01*
X168111798Y-51620460D01*
X168111798Y-51810936D01*
X168064179Y-51906174D01*
X167968941Y-52001412D01*
X167778465Y-52049031D01*
X167445132Y-52049031D01*
X167254656Y-52001412D01*
X167159418Y-51906174D01*
X167111798Y-51810936D01*
X167111798Y-50763317D02*
X167111798Y-50572840D01*
X167159418Y-50477602D01*
X167254656Y-50382364D01*
X167445132Y-50334745D01*
X167778465Y-50334745D01*
X167968941Y-50382364D01*
X168064179Y-50477602D01*
X168111798Y-50572840D01*
X168111798Y-50763317D01*
X168064179Y-50858555D01*
X167968941Y-50953793D01*
X167778465Y-51001412D01*
X167445132Y-51001412D01*
X167254656Y-50953793D01*
X167159418Y-50858555D01*
X167111798Y-50763317D01*
X168111798Y-49906174D02*
X167111798Y-49906174D01*
X167826084Y-49572840D01*
X167111798Y-49239507D01*
X168111798Y-49239507D01*
X167730846Y-48763317D02*
X167730846Y-48001412D01*
X167111798Y-47620460D02*
X167111798Y-47001412D01*
X167492751Y-47334745D01*
X167492751Y-47191888D01*
X167540370Y-47096650D01*
X167587989Y-47049031D01*
X167683227Y-47001412D01*
X167921322Y-47001412D01*
X168016560Y-47049031D01*
X168064179Y-47096650D01*
X168111798Y-47191888D01*
X168111798Y-47477602D01*
X168064179Y-47572840D01*
X168016560Y-47620460D01*
X167207037Y-46620460D02*
X167159418Y-46572840D01*
X167111798Y-46477602D01*
X167111798Y-46239507D01*
X167159418Y-46144269D01*
X167207037Y-46096650D01*
X167302275Y-46049031D01*
X167397513Y-46049031D01*
X167540370Y-46096650D01*
X168111798Y-46668079D01*
X168111798Y-46049031D01*
X168111798Y-45620460D02*
X167111798Y-45620460D01*
X167111798Y-45382364D01*
X167159418Y-45239507D01*
X167254656Y-45144269D01*
X167349894Y-45096650D01*
X167540370Y-45049031D01*
X167683227Y-45049031D01*
X167873703Y-45096650D01*
X167968941Y-45144269D01*
X168064179Y-45239507D01*
X168111798Y-45382364D01*
X168111798Y-45620460D01*
X177927751Y-79892840D02*
X177594418Y-79416650D01*
X177356322Y-79892840D02*
X177356322Y-78892840D01*
X177737275Y-78892840D01*
X177832513Y-78940460D01*
X177880132Y-78988079D01*
X177927751Y-79083317D01*
X177927751Y-79226174D01*
X177880132Y-79321412D01*
X177832513Y-79369031D01*
X177737275Y-79416650D01*
X177356322Y-79416650D01*
X178832513Y-78892840D02*
X178356322Y-78892840D01*
X178308703Y-79369031D01*
X178356322Y-79321412D01*
X178451560Y-79273793D01*
X178689656Y-79273793D01*
X178784894Y-79321412D01*
X178832513Y-79369031D01*
X178880132Y-79464269D01*
X178880132Y-79702364D01*
X178832513Y-79797602D01*
X178784894Y-79845221D01*
X178689656Y-79892840D01*
X178451560Y-79892840D01*
X178356322Y-79845221D01*
X178308703Y-79797602D01*
X156846798Y-87802364D02*
X157656322Y-87802364D01*
X157751560Y-87754745D01*
X157799179Y-87707126D01*
X157846798Y-87611888D01*
X157846798Y-87421412D01*
X157799179Y-87326174D01*
X157751560Y-87278555D01*
X157656322Y-87230936D01*
X156846798Y-87230936D01*
X156846798Y-86849983D02*
X156846798Y-86230936D01*
X157227751Y-86564269D01*
X157227751Y-86421412D01*
X157275370Y-86326174D01*
X157322989Y-86278555D01*
X157418227Y-86230936D01*
X157656322Y-86230936D01*
X157751560Y-86278555D01*
X157799179Y-86326174D01*
X157846798Y-86421412D01*
X157846798Y-86707126D01*
X157799179Y-86802364D01*
X157751560Y-86849983D01*
X162546798Y-71607126D02*
X162070608Y-71940460D01*
X162546798Y-72178555D02*
X161546798Y-72178555D01*
X161546798Y-71797602D01*
X161594418Y-71702364D01*
X161642037Y-71654745D01*
X161737275Y-71607126D01*
X161880132Y-71607126D01*
X161975370Y-71654745D01*
X162022989Y-71702364D01*
X162070608Y-71797602D01*
X162070608Y-72178555D01*
X161880132Y-70749983D02*
X162546798Y-70749983D01*
X161499179Y-70988079D02*
X162213465Y-71226174D01*
X162213465Y-70607126D01*
X146646798Y-69507126D02*
X146170608Y-69840460D01*
X146646798Y-70078555D02*
X145646798Y-70078555D01*
X145646798Y-69697602D01*
X145694418Y-69602364D01*
X145742037Y-69554745D01*
X145837275Y-69507126D01*
X145980132Y-69507126D01*
X146075370Y-69554745D01*
X146122989Y-69602364D01*
X146170608Y-69697602D01*
X146170608Y-70078555D01*
X146075370Y-68935698D02*
X146027751Y-69030936D01*
X145980132Y-69078555D01*
X145884894Y-69126174D01*
X145837275Y-69126174D01*
X145742037Y-69078555D01*
X145694418Y-69030936D01*
X145646798Y-68935698D01*
X145646798Y-68745221D01*
X145694418Y-68649983D01*
X145742037Y-68602364D01*
X145837275Y-68554745D01*
X145884894Y-68554745D01*
X145980132Y-68602364D01*
X146027751Y-68649983D01*
X146075370Y-68745221D01*
X146075370Y-68935698D01*
X146122989Y-69030936D01*
X146170608Y-69078555D01*
X146265846Y-69126174D01*
X146456322Y-69126174D01*
X146551560Y-69078555D01*
X146599179Y-69030936D01*
X146646798Y-68935698D01*
X146646798Y-68745221D01*
X146599179Y-68649983D01*
X146551560Y-68602364D01*
X146456322Y-68554745D01*
X146265846Y-68554745D01*
X146170608Y-68602364D01*
X146122989Y-68649983D01*
X146075370Y-68745221D01*
X148111084Y-95792840D02*
X148111084Y-96507126D01*
X148063465Y-96649983D01*
X147968227Y-96745221D01*
X147825370Y-96792840D01*
X147730132Y-96792840D01*
X149063465Y-95792840D02*
X148587275Y-95792840D01*
X148539656Y-96269031D01*
X148587275Y-96221412D01*
X148682513Y-96173793D01*
X148920608Y-96173793D01*
X149015846Y-96221412D01*
X149063465Y-96269031D01*
X149111084Y-96364269D01*
X149111084Y-96602364D01*
X149063465Y-96697602D01*
X149015846Y-96745221D01*
X148920608Y-96792840D01*
X148682513Y-96792840D01*
X148587275Y-96745221D01*
X148539656Y-96697602D01*
X177927751Y-81292840D02*
X177594418Y-80816650D01*
X177356322Y-81292840D02*
X177356322Y-80292840D01*
X177737275Y-80292840D01*
X177832513Y-80340460D01*
X177880132Y-80388079D01*
X177927751Y-80483317D01*
X177927751Y-80626174D01*
X177880132Y-80721412D01*
X177832513Y-80769031D01*
X177737275Y-80816650D01*
X177356322Y-80816650D01*
X178784894Y-80292840D02*
X178594418Y-80292840D01*
X178499179Y-80340460D01*
X178451560Y-80388079D01*
X178356322Y-80530936D01*
X178308703Y-80721412D01*
X178308703Y-81102364D01*
X178356322Y-81197602D01*
X178403941Y-81245221D01*
X178499179Y-81292840D01*
X178689656Y-81292840D01*
X178784894Y-81245221D01*
X178832513Y-81197602D01*
X178880132Y-81102364D01*
X178880132Y-80864269D01*
X178832513Y-80769031D01*
X178784894Y-80721412D01*
X178689656Y-80673793D01*
X178499179Y-80673793D01*
X178403941Y-80721412D01*
X178356322Y-80769031D01*
X178308703Y-80864269D01*
X156927751Y-78597602D02*
X156880132Y-78645221D01*
X156737275Y-78692840D01*
X156642037Y-78692840D01*
X156499179Y-78645221D01*
X156403941Y-78549983D01*
X156356322Y-78454745D01*
X156308703Y-78264269D01*
X156308703Y-78121412D01*
X156356322Y-77930936D01*
X156403941Y-77835698D01*
X156499179Y-77740460D01*
X156642037Y-77692840D01*
X156737275Y-77692840D01*
X156880132Y-77740460D01*
X156927751Y-77788079D01*
X157499179Y-78121412D02*
X157403941Y-78073793D01*
X157356322Y-78026174D01*
X157308703Y-77930936D01*
X157308703Y-77883317D01*
X157356322Y-77788079D01*
X157403941Y-77740460D01*
X157499179Y-77692840D01*
X157689656Y-77692840D01*
X157784894Y-77740460D01*
X157832513Y-77788079D01*
X157880132Y-77883317D01*
X157880132Y-77930936D01*
X157832513Y-78026174D01*
X157784894Y-78073793D01*
X157689656Y-78121412D01*
X157499179Y-78121412D01*
X157403941Y-78169031D01*
X157356322Y-78216650D01*
X157308703Y-78311888D01*
X157308703Y-78502364D01*
X157356322Y-78597602D01*
X157403941Y-78645221D01*
X157499179Y-78692840D01*
X157689656Y-78692840D01*
X157784894Y-78645221D01*
X157832513Y-78597602D01*
X157880132Y-78502364D01*
X157880132Y-78311888D01*
X157832513Y-78216650D01*
X157784894Y-78169031D01*
X157689656Y-78121412D01*
X183801560Y-69257126D02*
X183849179Y-69304745D01*
X183896798Y-69447602D01*
X183896798Y-69542840D01*
X183849179Y-69685698D01*
X183753941Y-69780936D01*
X183658703Y-69828555D01*
X183468227Y-69876174D01*
X183325370Y-69876174D01*
X183134894Y-69828555D01*
X183039656Y-69780936D01*
X182944418Y-69685698D01*
X182896798Y-69542840D01*
X182896798Y-69447602D01*
X182944418Y-69304745D01*
X182992037Y-69257126D01*
X182992037Y-68876174D02*
X182944418Y-68828555D01*
X182896798Y-68733317D01*
X182896798Y-68495221D01*
X182944418Y-68399983D01*
X182992037Y-68352364D01*
X183087275Y-68304745D01*
X183182513Y-68304745D01*
X183325370Y-68352364D01*
X183896798Y-68923793D01*
X183896798Y-68304745D01*
X181446798Y-100202364D02*
X182256322Y-100202364D01*
X182351560Y-100154745D01*
X182399179Y-100107126D01*
X182446798Y-100011888D01*
X182446798Y-99821412D01*
X182399179Y-99726174D01*
X182351560Y-99678555D01*
X182256322Y-99630936D01*
X181446798Y-99630936D01*
X182446798Y-98630936D02*
X182446798Y-99202364D01*
X182446798Y-98916650D02*
X181446798Y-98916650D01*
X181589656Y-99011888D01*
X181684894Y-99107126D01*
X181732513Y-99202364D01*
X176777751Y-94745221D02*
X176920608Y-94792840D01*
X177158703Y-94792840D01*
X177253941Y-94745221D01*
X177301560Y-94697602D01*
X177349179Y-94602364D01*
X177349179Y-94507126D01*
X177301560Y-94411888D01*
X177253941Y-94364269D01*
X177158703Y-94316650D01*
X176968227Y-94269031D01*
X176872989Y-94221412D01*
X176825370Y-94173793D01*
X176777751Y-94078555D01*
X176777751Y-93983317D01*
X176825370Y-93888079D01*
X176872989Y-93840460D01*
X176968227Y-93792840D01*
X177206322Y-93792840D01*
X177349179Y-93840460D01*
X177777751Y-94792840D02*
X177777751Y-93792840D01*
X177777751Y-94269031D02*
X178349179Y-94269031D01*
X178349179Y-94792840D02*
X178349179Y-93792840D01*
X178682513Y-93792840D02*
X179253941Y-93792840D01*
X178968227Y-94792840D02*
X178968227Y-93792840D01*
X180158703Y-94697602D02*
X180111084Y-94745221D01*
X179968227Y-94792840D01*
X179872989Y-94792840D01*
X179730132Y-94745221D01*
X179634894Y-94649983D01*
X179587275Y-94554745D01*
X179539656Y-94364269D01*
X179539656Y-94221412D01*
X179587275Y-94030936D01*
X179634894Y-93935698D01*
X179730132Y-93840460D01*
X179872989Y-93792840D01*
X179968227Y-93792840D01*
X180111084Y-93840460D01*
X180158703Y-93888079D01*
X180492037Y-93792840D02*
X181111084Y-93792840D01*
X180777751Y-94173793D01*
X180920608Y-94173793D01*
X181015846Y-94221412D01*
X181063465Y-94269031D01*
X181111084Y-94364269D01*
X181111084Y-94602364D01*
X181063465Y-94697602D01*
X181015846Y-94745221D01*
X180920608Y-94792840D01*
X180634894Y-94792840D01*
X180539656Y-94745221D01*
X180492037Y-94697602D01*
X181786084Y-47197840D02*
X181786084Y-47912126D01*
X181738465Y-48054983D01*
X181643227Y-48150221D01*
X181500370Y-48197840D01*
X181405132Y-48197840D01*
X182167037Y-47197840D02*
X182786084Y-47197840D01*
X182452751Y-47578793D01*
X182595608Y-47578793D01*
X182690846Y-47626412D01*
X182738465Y-47674031D01*
X182786084Y-47769269D01*
X182786084Y-48007364D01*
X182738465Y-48102602D01*
X182690846Y-48150221D01*
X182595608Y-48197840D01*
X182309894Y-48197840D01*
X182214656Y-48150221D01*
X182167037Y-48102602D01*
X179896798Y-65114269D02*
X178896798Y-65114269D01*
X179611084Y-64780936D01*
X178896798Y-64447602D01*
X179896798Y-64447602D01*
X179896798Y-63971412D02*
X178896798Y-63971412D01*
X179611084Y-63638079D01*
X178896798Y-63304745D01*
X179896798Y-63304745D01*
X178896798Y-62923793D02*
X179896798Y-62685698D01*
X179182513Y-62495221D01*
X179896798Y-62304745D01*
X178896798Y-62066650D01*
X179611084Y-61733317D02*
X179611084Y-61257126D01*
X179896798Y-61828555D02*
X178896798Y-61495221D01*
X179896798Y-61161888D01*
X178896798Y-60971412D02*
X179896798Y-60638079D01*
X178896798Y-60304745D01*
X179372989Y-59971412D02*
X179372989Y-59638079D01*
X179896798Y-59495221D02*
X179896798Y-59971412D01*
X178896798Y-59971412D01*
X178896798Y-59495221D01*
X179896798Y-57733317D02*
X179420608Y-58066650D01*
X179896798Y-58304745D02*
X178896798Y-58304745D01*
X178896798Y-57923793D01*
X178944418Y-57828555D01*
X178992037Y-57780936D01*
X179087275Y-57733317D01*
X179230132Y-57733317D01*
X179325370Y-57780936D01*
X179372989Y-57828555D01*
X179420608Y-57923793D01*
X179420608Y-58304745D01*
X179611084Y-57352364D02*
X179611084Y-56876174D01*
X179896798Y-57447602D02*
X178896798Y-57114269D01*
X179896798Y-56780936D01*
X179896798Y-56447602D02*
X178896798Y-56447602D01*
X178896798Y-56209507D01*
X178944418Y-56066650D01*
X179039656Y-55971412D01*
X179134894Y-55923793D01*
X179325370Y-55876174D01*
X179468227Y-55876174D01*
X179658703Y-55923793D01*
X179753941Y-55971412D01*
X179849179Y-56066650D01*
X179896798Y-56209507D01*
X179896798Y-56447602D01*
X179611084Y-55495221D02*
X179611084Y-55019031D01*
X179896798Y-55590460D02*
X178896798Y-55257126D01*
X179896798Y-54923793D01*
X179896798Y-54019031D02*
X179420608Y-54352364D01*
X179896798Y-54590460D02*
X178896798Y-54590460D01*
X178896798Y-54209507D01*
X178944418Y-54114269D01*
X178992037Y-54066650D01*
X179087275Y-54019031D01*
X179230132Y-54019031D01*
X179325370Y-54066650D01*
X179372989Y-54114269D01*
X179420608Y-54209507D01*
X179420608Y-54590460D01*
X157127751Y-80397602D02*
X157080132Y-80445221D01*
X156937275Y-80492840D01*
X156842037Y-80492840D01*
X156699179Y-80445221D01*
X156603941Y-80349983D01*
X156556322Y-80254745D01*
X156508703Y-80064269D01*
X156508703Y-79921412D01*
X156556322Y-79730936D01*
X156603941Y-79635698D01*
X156699179Y-79540460D01*
X156842037Y-79492840D01*
X156937275Y-79492840D01*
X157080132Y-79540460D01*
X157127751Y-79588079D01*
X157603941Y-80492840D02*
X157794418Y-80492840D01*
X157889656Y-80445221D01*
X157937275Y-80397602D01*
X158032513Y-80254745D01*
X158080132Y-80064269D01*
X158080132Y-79683317D01*
X158032513Y-79588079D01*
X157984894Y-79540460D01*
X157889656Y-79492840D01*
X157699179Y-79492840D01*
X157603941Y-79540460D01*
X157556322Y-79588079D01*
X157508703Y-79683317D01*
X157508703Y-79921412D01*
X157556322Y-80016650D01*
X157603941Y-80064269D01*
X157699179Y-80111888D01*
X157889656Y-80111888D01*
X157984894Y-80064269D01*
X158032513Y-80016650D01*
X158080132Y-79921412D01*
X147327751Y-78397602D02*
X147280132Y-78445221D01*
X147137275Y-78492840D01*
X147042037Y-78492840D01*
X146899179Y-78445221D01*
X146803941Y-78349983D01*
X146756322Y-78254745D01*
X146708703Y-78064269D01*
X146708703Y-77921412D01*
X146756322Y-77730936D01*
X146803941Y-77635698D01*
X146899179Y-77540460D01*
X147042037Y-77492840D01*
X147137275Y-77492840D01*
X147280132Y-77540460D01*
X147327751Y-77588079D01*
X147661084Y-77492840D02*
X148280132Y-77492840D01*
X147946798Y-77873793D01*
X148089656Y-77873793D01*
X148184894Y-77921412D01*
X148232513Y-77969031D01*
X148280132Y-78064269D01*
X148280132Y-78302364D01*
X148232513Y-78397602D01*
X148184894Y-78445221D01*
X148089656Y-78492840D01*
X147803941Y-78492840D01*
X147708703Y-78445221D01*
X147661084Y-78397602D01*
X179927751Y-84627602D02*
X179880132Y-84675221D01*
X179737275Y-84722840D01*
X179642037Y-84722840D01*
X179499179Y-84675221D01*
X179403941Y-84579983D01*
X179356322Y-84484745D01*
X179308703Y-84294269D01*
X179308703Y-84151412D01*
X179356322Y-83960936D01*
X179403941Y-83865698D01*
X179499179Y-83770460D01*
X179642037Y-83722840D01*
X179737275Y-83722840D01*
X179880132Y-83770460D01*
X179927751Y-83818079D01*
X180880132Y-84722840D02*
X180308703Y-84722840D01*
X180594418Y-84722840D02*
X180594418Y-83722840D01*
X180499179Y-83865698D01*
X180403941Y-83960936D01*
X180308703Y-84008555D01*
X140980132Y-74042840D02*
X140646798Y-73566650D01*
X140408703Y-74042840D02*
X140408703Y-73042840D01*
X140789656Y-73042840D01*
X140884894Y-73090460D01*
X140932513Y-73138079D01*
X140980132Y-73233317D01*
X140980132Y-73376174D01*
X140932513Y-73471412D01*
X140884894Y-73519031D01*
X140789656Y-73566650D01*
X140408703Y-73566650D01*
X141789656Y-73995221D02*
X141694418Y-74042840D01*
X141503941Y-74042840D01*
X141408703Y-73995221D01*
X141361084Y-73899983D01*
X141361084Y-73519031D01*
X141408703Y-73423793D01*
X141503941Y-73376174D01*
X141694418Y-73376174D01*
X141789656Y-73423793D01*
X141837275Y-73519031D01*
X141837275Y-73614269D01*
X141361084Y-73709507D01*
X142218227Y-73995221D02*
X142313465Y-74042840D01*
X142503941Y-74042840D01*
X142599179Y-73995221D01*
X142646798Y-73899983D01*
X142646798Y-73852364D01*
X142599179Y-73757126D01*
X142503941Y-73709507D01*
X142361084Y-73709507D01*
X142265846Y-73661888D01*
X142218227Y-73566650D01*
X142218227Y-73519031D01*
X142265846Y-73423793D01*
X142361084Y-73376174D01*
X142503941Y-73376174D01*
X142599179Y-73423793D01*
X143456322Y-73995221D02*
X143361084Y-74042840D01*
X143170608Y-74042840D01*
X143075370Y-73995221D01*
X143027751Y-73899983D01*
X143027751Y-73519031D01*
X143075370Y-73423793D01*
X143170608Y-73376174D01*
X143361084Y-73376174D01*
X143456322Y-73423793D01*
X143503941Y-73519031D01*
X143503941Y-73614269D01*
X143027751Y-73709507D01*
X143789656Y-73376174D02*
X144170608Y-73376174D01*
X143932513Y-73042840D02*
X143932513Y-73899983D01*
X143980132Y-73995221D01*
X144075370Y-74042840D01*
X144170608Y-74042840D01*
X145027751Y-74042840D02*
X144456322Y-74042840D01*
X144742037Y-74042840D02*
X144742037Y-73042840D01*
X144646798Y-73185698D01*
X144551560Y-73280936D01*
X144456322Y-73328555D01*
X158877560Y-73083317D02*
X158925179Y-73130936D01*
X158972798Y-73273793D01*
X158972798Y-73369031D01*
X158925179Y-73511888D01*
X158829941Y-73607126D01*
X158734703Y-73654745D01*
X158544227Y-73702364D01*
X158401370Y-73702364D01*
X158210894Y-73654745D01*
X158115656Y-73607126D01*
X158020418Y-73511888D01*
X157972798Y-73369031D01*
X157972798Y-73273793D01*
X158020418Y-73130936D01*
X158068037Y-73083317D01*
X158972798Y-72130936D02*
X158972798Y-72702364D01*
X158972798Y-72416650D02*
X157972798Y-72416650D01*
X158115656Y-72511888D01*
X158210894Y-72607126D01*
X158258513Y-72702364D01*
X158972798Y-71178555D02*
X158972798Y-71749983D01*
X158972798Y-71464269D02*
X157972798Y-71464269D01*
X158115656Y-71559507D01*
X158210894Y-71654745D01*
X158258513Y-71749983D01*
X170046798Y-70602364D02*
X170856322Y-70602364D01*
X170951560Y-70554745D01*
X170999179Y-70507126D01*
X171046798Y-70411888D01*
X171046798Y-70221412D01*
X170999179Y-70126174D01*
X170951560Y-70078555D01*
X170856322Y-70030936D01*
X170046798Y-70030936D01*
X170142037Y-69602364D02*
X170094418Y-69554745D01*
X170046798Y-69459507D01*
X170046798Y-69221412D01*
X170094418Y-69126174D01*
X170142037Y-69078555D01*
X170237275Y-69030936D01*
X170332513Y-69030936D01*
X170475370Y-69078555D01*
X171046798Y-69649983D01*
X171046798Y-69030936D01*
X169576798Y-72007126D02*
X169100608Y-72340460D01*
X169576798Y-72578555D02*
X168576798Y-72578555D01*
X168576798Y-72197602D01*
X168624418Y-72102364D01*
X168672037Y-72054745D01*
X168767275Y-72007126D01*
X168910132Y-72007126D01*
X169005370Y-72054745D01*
X169052989Y-72102364D01*
X169100608Y-72197602D01*
X169100608Y-72578555D01*
X168576798Y-71673793D02*
X168576798Y-71007126D01*
X169576798Y-71435698D01*
X177421560Y-51607126D02*
X177469179Y-51654745D01*
X177516798Y-51797602D01*
X177516798Y-51892840D01*
X177469179Y-52035698D01*
X177373941Y-52130936D01*
X177278703Y-52178555D01*
X177088227Y-52226174D01*
X176945370Y-52226174D01*
X176754894Y-52178555D01*
X176659656Y-52130936D01*
X176564418Y-52035698D01*
X176516798Y-51892840D01*
X176516798Y-51797602D01*
X176564418Y-51654745D01*
X176612037Y-51607126D01*
X176516798Y-51273793D02*
X176516798Y-50607126D01*
X177516798Y-51035698D01*
X176151560Y-100033317D02*
X176199179Y-100080936D01*
X176246798Y-100223793D01*
X176246798Y-100319031D01*
X176199179Y-100461888D01*
X176103941Y-100557126D01*
X176008703Y-100604745D01*
X175818227Y-100652364D01*
X175675370Y-100652364D01*
X175484894Y-100604745D01*
X175389656Y-100557126D01*
X175294418Y-100461888D01*
X175246798Y-100319031D01*
X175246798Y-100223793D01*
X175294418Y-100080936D01*
X175342037Y-100033317D01*
X176246798Y-99080936D02*
X176246798Y-99652364D01*
X176246798Y-99366650D02*
X175246798Y-99366650D01*
X175389656Y-99461888D01*
X175484894Y-99557126D01*
X175532513Y-99652364D01*
X175246798Y-98461888D02*
X175246798Y-98366650D01*
X175294418Y-98271412D01*
X175342037Y-98223793D01*
X175437275Y-98176174D01*
X175627751Y-98128555D01*
X175865846Y-98128555D01*
X176056322Y-98176174D01*
X176151560Y-98223793D01*
X176199179Y-98271412D01*
X176246798Y-98366650D01*
X176246798Y-98461888D01*
X176199179Y-98557126D01*
X176151560Y-98604745D01*
X176056322Y-98652364D01*
X175865846Y-98699983D01*
X175627751Y-98699983D01*
X175437275Y-98652364D01*
X175342037Y-98604745D01*
X175294418Y-98557126D01*
X175246798Y-98461888D01*
X148051560Y-81283317D02*
X148099179Y-81330936D01*
X148146798Y-81473793D01*
X148146798Y-81569031D01*
X148099179Y-81711888D01*
X148003941Y-81807126D01*
X147908703Y-81854745D01*
X147718227Y-81902364D01*
X147575370Y-81902364D01*
X147384894Y-81854745D01*
X147289656Y-81807126D01*
X147194418Y-81711888D01*
X147146798Y-81569031D01*
X147146798Y-81473793D01*
X147194418Y-81330936D01*
X147242037Y-81283317D01*
X148146798Y-80330936D02*
X148146798Y-80902364D01*
X148146798Y-80616650D02*
X147146798Y-80616650D01*
X147289656Y-80711888D01*
X147384894Y-80807126D01*
X147432513Y-80902364D01*
X147146798Y-79997602D02*
X147146798Y-79378555D01*
X147527751Y-79711888D01*
X147527751Y-79569031D01*
X147575370Y-79473793D01*
X147622989Y-79426174D01*
X147718227Y-79378555D01*
X147956322Y-79378555D01*
X148051560Y-79426174D01*
X148099179Y-79473793D01*
X148146798Y-79569031D01*
X148146798Y-79854745D01*
X148099179Y-79949983D01*
X148051560Y-79997602D01*
X147801560Y-73483317D02*
X147849179Y-73530936D01*
X147896798Y-73673793D01*
X147896798Y-73769031D01*
X147849179Y-73911888D01*
X147753941Y-74007126D01*
X147658703Y-74054745D01*
X147468227Y-74102364D01*
X147325370Y-74102364D01*
X147134894Y-74054745D01*
X147039656Y-74007126D01*
X146944418Y-73911888D01*
X146896798Y-73769031D01*
X146896798Y-73673793D01*
X146944418Y-73530936D01*
X146992037Y-73483317D01*
X147896798Y-72530936D02*
X147896798Y-73102364D01*
X147896798Y-72816650D02*
X146896798Y-72816650D01*
X147039656Y-72911888D01*
X147134894Y-73007126D01*
X147182513Y-73102364D01*
X147230132Y-71673793D02*
X147896798Y-71673793D01*
X146849179Y-71911888D02*
X147563465Y-72149983D01*
X147563465Y-71530936D01*
X182502096Y-77003342D02*
X183312658Y-77003342D01*
X183408019Y-76955662D01*
X183455699Y-76907982D01*
X183503379Y-76812621D01*
X183503379Y-76621901D01*
X183455699Y-76526540D01*
X183408019Y-76478860D01*
X183312658Y-76431180D01*
X182502096Y-76431180D01*
X182502096Y-75477577D02*
X182502096Y-75954379D01*
X182978897Y-76002059D01*
X182931217Y-75954379D01*
X182883537Y-75859018D01*
X182883537Y-75620618D01*
X182931217Y-75525257D01*
X182978897Y-75477577D01*
X183074258Y-75429897D01*
X183312658Y-75429897D01*
X183408019Y-75477577D01*
X183455699Y-75525257D01*
X183503379Y-75620618D01*
X183503379Y-75859018D01*
X183455699Y-75954379D01*
X183408019Y-76002059D01*
X176334826Y-86268957D02*
X176477831Y-86316625D01*
X176525500Y-86364294D01*
X176573168Y-86459631D01*
X176573168Y-86602636D01*
X176525500Y-86697973D01*
X176477831Y-86745642D01*
X176382494Y-86793310D01*
X176001146Y-86793310D01*
X176001146Y-85792271D01*
X176334826Y-85792271D01*
X176430163Y-85839940D01*
X176477831Y-85887609D01*
X176525500Y-85982946D01*
X176525500Y-86078283D01*
X176477831Y-86173620D01*
X176430163Y-86221288D01*
X176334826Y-86268957D01*
X176001146Y-86268957D01*
X177002185Y-86793310D02*
X177002185Y-85792271D01*
X177002185Y-86268957D02*
X177574207Y-86268957D01*
X177574207Y-86793310D02*
X177574207Y-85792271D01*
X178575246Y-86793310D02*
X178003224Y-86793310D01*
X178289235Y-86793310D02*
X178289235Y-85792271D01*
X178193898Y-85935277D01*
X178098561Y-86030614D01*
X178003224Y-86078283D01*
X178908926Y-85792271D02*
X179576285Y-85792271D01*
X179147268Y-86793310D01*
X180434319Y-85792271D02*
X179957633Y-85792271D01*
X179909965Y-86268957D01*
X179957633Y-86221288D01*
X180052970Y-86173620D01*
X180291313Y-86173620D01*
X180386650Y-86221288D01*
X180434319Y-86268957D01*
X180481987Y-86364294D01*
X180481987Y-86602636D01*
X180434319Y-86697973D01*
X180386650Y-86745642D01*
X180291313Y-86793310D01*
X180052970Y-86793310D01*
X179957633Y-86745642D01*
X179909965Y-86697973D01*
X181101678Y-85792271D02*
X181197015Y-85792271D01*
X181292352Y-85839940D01*
X181340021Y-85887609D01*
X181387689Y-85982946D01*
X181435358Y-86173620D01*
X181435358Y-86411962D01*
X181387689Y-86602636D01*
X181340021Y-86697973D01*
X181292352Y-86745642D01*
X181197015Y-86793310D01*
X181101678Y-86793310D01*
X181006341Y-86745642D01*
X180958672Y-86697973D01*
X180911004Y-86602636D01*
X180863335Y-86411962D01*
X180863335Y-86173620D01*
X180911004Y-85982946D01*
X180958672Y-85887609D01*
X181006341Y-85839940D01*
X181101678Y-85792271D01*
X143946798Y-68378555D02*
X142946798Y-68378555D01*
X142946798Y-68140460D01*
X142994418Y-67997602D01*
X143089656Y-67902364D01*
X143184894Y-67854745D01*
X143375370Y-67807126D01*
X143518227Y-67807126D01*
X143708703Y-67854745D01*
X143803941Y-67902364D01*
X143899179Y-67997602D01*
X143946798Y-68140460D01*
X143946798Y-68378555D01*
X143946798Y-66854745D02*
X143946798Y-67426174D01*
X143946798Y-67140460D02*
X142946798Y-67140460D01*
X143089656Y-67235698D01*
X143184894Y-67330936D01*
X143232513Y-67426174D01*
X163161084Y-73872840D02*
X163161084Y-74587126D01*
X163113465Y-74729983D01*
X163018227Y-74825221D01*
X162875370Y-74872840D01*
X162780132Y-74872840D01*
X163589656Y-73968079D02*
X163637275Y-73920460D01*
X163732513Y-73872840D01*
X163970608Y-73872840D01*
X164065846Y-73920460D01*
X164113465Y-73968079D01*
X164161084Y-74063317D01*
X164161084Y-74158555D01*
X164113465Y-74301412D01*
X163542037Y-74872840D01*
X164161084Y-74872840D01*
X165346798Y-71007126D02*
X164870608Y-71340460D01*
X165346798Y-71578555D02*
X164346798Y-71578555D01*
X164346798Y-71197602D01*
X164394418Y-71102364D01*
X164442037Y-71054745D01*
X164537275Y-71007126D01*
X164680132Y-71007126D01*
X164775370Y-71054745D01*
X164822989Y-71102364D01*
X164870608Y-71197602D01*
X164870608Y-71578555D01*
X164346798Y-70673793D02*
X164346798Y-70054745D01*
X164727751Y-70388079D01*
X164727751Y-70245221D01*
X164775370Y-70149983D01*
X164822989Y-70102364D01*
X164918227Y-70054745D01*
X165156322Y-70054745D01*
X165251560Y-70102364D01*
X165299179Y-70149983D01*
X165346798Y-70245221D01*
X165346798Y-70530936D01*
X165299179Y-70626174D01*
X165251560Y-70673793D01*
X143927751Y-88427602D02*
X143880132Y-88475221D01*
X143737275Y-88522840D01*
X143642037Y-88522840D01*
X143499179Y-88475221D01*
X143403941Y-88379983D01*
X143356322Y-88284745D01*
X143308703Y-88094269D01*
X143308703Y-87951412D01*
X143356322Y-87760936D01*
X143403941Y-87665698D01*
X143499179Y-87570460D01*
X143642037Y-87522840D01*
X143737275Y-87522840D01*
X143880132Y-87570460D01*
X143927751Y-87618079D01*
X144832513Y-87522840D02*
X144356322Y-87522840D01*
X144308703Y-87999031D01*
X144356322Y-87951412D01*
X144451560Y-87903793D01*
X144689656Y-87903793D01*
X144784894Y-87951412D01*
X144832513Y-87999031D01*
X144880132Y-88094269D01*
X144880132Y-88332364D01*
X144832513Y-88427602D01*
X144784894Y-88475221D01*
X144689656Y-88522840D01*
X144451560Y-88522840D01*
X144356322Y-88475221D01*
X144308703Y-88427602D01*
X160361084Y-91862840D02*
X160361084Y-92577126D01*
X160313465Y-92719983D01*
X160218227Y-92815221D01*
X160075370Y-92862840D01*
X159980132Y-92862840D01*
X161361084Y-92862840D02*
X160789656Y-92862840D01*
X161075370Y-92862840D02*
X161075370Y-91862840D01*
X160980132Y-92005698D01*
X160884894Y-92100936D01*
X160789656Y-92148555D01*
X149851560Y-75407126D02*
X149899179Y-75454745D01*
X149946798Y-75597602D01*
X149946798Y-75692840D01*
X149899179Y-75835698D01*
X149803941Y-75930936D01*
X149708703Y-75978555D01*
X149518227Y-76026174D01*
X149375370Y-76026174D01*
X149184894Y-75978555D01*
X149089656Y-75930936D01*
X148994418Y-75835698D01*
X148946798Y-75692840D01*
X148946798Y-75597602D01*
X148994418Y-75454745D01*
X149042037Y-75407126D01*
X148946798Y-74549983D02*
X148946798Y-74740460D01*
X148994418Y-74835698D01*
X149042037Y-74883317D01*
X149184894Y-74978555D01*
X149375370Y-75026174D01*
X149756322Y-75026174D01*
X149851560Y-74978555D01*
X149899179Y-74930936D01*
X149946798Y-74835698D01*
X149946798Y-74645221D01*
X149899179Y-74549983D01*
X149851560Y-74502364D01*
X149756322Y-74454745D01*
X149518227Y-74454745D01*
X149422989Y-74502364D01*
X149375370Y-74549983D01*
X149327751Y-74645221D01*
X149327751Y-74835698D01*
X149375370Y-74930936D01*
X149422989Y-74978555D01*
X149518227Y-75026174D01*
X160746798Y-72807126D02*
X160270608Y-73140460D01*
X160746798Y-73378555D02*
X159746798Y-73378555D01*
X159746798Y-72997602D01*
X159794418Y-72902364D01*
X159842037Y-72854745D01*
X159937275Y-72807126D01*
X160080132Y-72807126D01*
X160175370Y-72854745D01*
X160222989Y-72902364D01*
X160270608Y-72997602D01*
X160270608Y-73378555D01*
X159842037Y-72426174D02*
X159794418Y-72378555D01*
X159746798Y-72283317D01*
X159746798Y-72045221D01*
X159794418Y-71949983D01*
X159842037Y-71902364D01*
X159937275Y-71854745D01*
X160032513Y-71854745D01*
X160175370Y-71902364D01*
X160746798Y-72473793D01*
X160746798Y-71854745D01*
D12*
X180234998Y-77130460D02*
X179953838Y-77130460D01*
X180234998Y-78150460D02*
X179953838Y-78150460D01*
X145899418Y-84695460D02*
X144569418Y-84695460D01*
X145899418Y-82095460D02*
X143299418Y-82095460D01*
X145899418Y-82095460D02*
X145899418Y-76955460D01*
X145899418Y-76955460D02*
X140699418Y-76955460D01*
X140699418Y-84695460D02*
X140699418Y-76955460D01*
X145899418Y-83365460D02*
X145899418Y-84695460D01*
X143299418Y-82095460D02*
X143299418Y-84695460D01*
X143299418Y-84695460D02*
X140699418Y-84695460D01*
X150016918Y-69677718D02*
X150016918Y-69203202D01*
X148971918Y-69677718D02*
X148971918Y-69203202D01*
X140140418Y-45988460D02*
X140140418Y-45688460D01*
X144280418Y-42848460D02*
X144280418Y-43148460D01*
X140140418Y-42848460D02*
X144280418Y-42848460D01*
X144280418Y-45988460D02*
X140140418Y-45988460D01*
X140140418Y-43148460D02*
X140140418Y-42848460D01*
X144280418Y-45688460D02*
X144280418Y-45988460D01*
X175384418Y-64381040D02*
X175384418Y-64099880D01*
X176404418Y-64381040D02*
X176404418Y-64099880D01*
D13*
X166044418Y-50540460D02*
X166044418Y-48090460D01*
X166044418Y-66090460D02*
X166044418Y-63640460D01*
X166044418Y-48090460D02*
X165394418Y-48090460D01*
X140544418Y-66090460D02*
X140544418Y-48090460D01*
X147044418Y-66090460D02*
X140544418Y-66090460D01*
X165394418Y-66090460D02*
X166044418Y-66090460D01*
X140544418Y-48090460D02*
X147044418Y-48090460D01*
D14*
X148144418Y-67090460D02*
G75*
G03*
X148144418Y-67090460I-100000J0D01*
G01*
D12*
X180248059Y-79820460D02*
X179940777Y-79820460D01*
X180248059Y-79060460D02*
X179940777Y-79060460D01*
X156304418Y-82940460D02*
X156304418Y-88950460D01*
X149484418Y-88950460D02*
X150744418Y-88950460D01*
X149484418Y-85190460D02*
X149484418Y-88950460D01*
X156304418Y-88950460D02*
X155044418Y-88950460D01*
X162274418Y-69594101D02*
X162274418Y-69286819D01*
X161514418Y-69594101D02*
X161514418Y-69286819D01*
X145248059Y-68020460D02*
X144940777Y-68020460D01*
X145248059Y-67260460D02*
X144940777Y-67260460D01*
X152624418Y-97710460D02*
X152624418Y-99040460D01*
X151294418Y-97710460D02*
X152624418Y-97710460D01*
X147424418Y-97710460D02*
X147424418Y-100370460D01*
X150024418Y-97710460D02*
X147424418Y-97710460D01*
X150024418Y-100370460D02*
X147424418Y-100370460D01*
X150024418Y-97710460D02*
X150024418Y-100370460D01*
X180248059Y-81220460D02*
X179940777Y-81220460D01*
X180248059Y-80460460D02*
X179940777Y-80460460D01*
X154834998Y-77730460D02*
X154553838Y-77730460D01*
X154834998Y-78750460D02*
X154553838Y-78750460D01*
X183614418Y-72245040D02*
X183614418Y-71963880D01*
X182594418Y-72245040D02*
X182594418Y-71963880D01*
X178784418Y-99440460D02*
X178784418Y-98440460D01*
X181004418Y-100440460D02*
X181004418Y-98440460D01*
X183449418Y-51785460D02*
X183449418Y-64545460D01*
X183449418Y-49185460D02*
X183449418Y-50515460D01*
X180789418Y-64545460D02*
X183449418Y-64545460D01*
X182119418Y-49185460D02*
X183449418Y-49185460D01*
X180789418Y-51785460D02*
X180789418Y-64545460D01*
X180789418Y-51785460D02*
X183449418Y-51785460D01*
X154834998Y-79530460D02*
X154553838Y-79530460D01*
X154834998Y-80550460D02*
X154553838Y-80550460D01*
X150234998Y-78550460D02*
X149953838Y-78550460D01*
X150234998Y-77530460D02*
X149953838Y-77530460D01*
X180234998Y-83350460D02*
X179953838Y-83350460D01*
X180234998Y-82330460D02*
X179953838Y-82330460D01*
X140648418Y-69518460D02*
X144788418Y-69518460D01*
X144788418Y-72358460D02*
X144788418Y-72658460D01*
X144788418Y-69518460D02*
X144788418Y-69818460D01*
X140648418Y-72658460D02*
X140648418Y-72358460D01*
X140648418Y-69818460D02*
X140648418Y-69518460D01*
X144788418Y-72658460D02*
X140648418Y-72658460D01*
X159230418Y-69581040D02*
X159230418Y-69299880D01*
X158210418Y-69581040D02*
X158210418Y-69299880D01*
X181554418Y-69840460D02*
X181554418Y-71790460D01*
X171434418Y-69840460D02*
X171434418Y-67890460D01*
X181554418Y-69840460D02*
X181554418Y-67890460D01*
X171434418Y-69840460D02*
X171434418Y-73290460D01*
X168216918Y-71603202D02*
X168216918Y-72077718D01*
X167171918Y-71603202D02*
X167171918Y-72077718D01*
X177984418Y-51581040D02*
X177984418Y-51299880D01*
X179004418Y-51581040D02*
X179004418Y-51299880D01*
X176884418Y-99249880D02*
X176884418Y-99531040D01*
X177904418Y-99249880D02*
X177904418Y-99531040D01*
X149978838Y-80550460D02*
X150259998Y-80550460D01*
X149978838Y-79530460D02*
X150259998Y-79530460D01*
X148054418Y-69581040D02*
X148054418Y-69299880D01*
X147034418Y-69581040D02*
X147034418Y-69299880D01*
D13*
X182050418Y-78460460D02*
X182050418Y-80020460D01*
X183650418Y-80020460D02*
X183650418Y-78460460D01*
D14*
X182450418Y-81340460D02*
G75*
G03*
X182450418Y-81340460I-100000J0D01*
G01*
D12*
X139809418Y-66905460D02*
X139809418Y-68375460D01*
X142094418Y-66905460D02*
X139809418Y-66905460D01*
X139809418Y-68375460D02*
X142094418Y-68375460D01*
X159606379Y-75574604D02*
X158828562Y-76352421D01*
X160497334Y-76465558D02*
X159606379Y-75574604D01*
X158828562Y-76352421D02*
X159719516Y-77243376D01*
X159719744Y-77243089D02*
G75*
G03*
X160497334Y-76465558I3774674J-2997371D01*
G01*
X164514418Y-68994101D02*
X164514418Y-68686819D01*
X165274418Y-68994101D02*
X165274418Y-68686819D01*
X144234998Y-86130460D02*
X143953838Y-86130460D01*
X144234998Y-87150460D02*
X143953838Y-87150460D01*
X156114418Y-101910460D02*
X156114418Y-100205460D01*
X165274418Y-100205460D02*
X165274418Y-101910460D01*
X165274418Y-101910460D02*
X156114418Y-101910460D01*
X156114418Y-96275460D02*
X156114418Y-98195460D01*
X165274418Y-98195460D02*
X165274418Y-96275460D01*
X150004418Y-72781040D02*
X150004418Y-72499880D01*
X148984418Y-72781040D02*
X148984418Y-72499880D01*
X159771918Y-69203202D02*
X159771918Y-69677718D01*
X160816918Y-69203202D02*
X160816918Y-69677718D01*
M02*
