G04 #@! TF.GenerationSoftware,KiCad,Pcbnew,6.0.7-f9a2dced07~116~ubuntu20.04.1*
G04 #@! TF.CreationDate,2022-12-02T22:22:49+05:00*
G04 #@! TF.ProjectId,smart light,736d6172-7420-46c6-9967-68742e6b6963,rev?*
G04 #@! TF.SameCoordinates,Original*
G04 #@! TF.FileFunction,Copper,L1,Top*
G04 #@! TF.FilePolarity,Positive*
%FSLAX46Y46*%
G04 Gerber Fmt 4.6, Leading zero omitted, Abs format (unit mm)*
G04 Created by KiCad (PCBNEW 6.0.7-f9a2dced07~116~ubuntu20.04.1) date 2022-12-02 22:22:49*
%MOMM*%
%LPD*%
G01*
G04 APERTURE LIST*
G04 Aperture macros list*
%AMRoundRect*
0 Rectangle with rounded corners*
0 $1 Rounding radius*
0 $2 $3 $4 $5 $6 $7 $8 $9 X,Y pos of 4 corners*
0 Add a 4 corners polygon primitive as box body*
4,1,4,$2,$3,$4,$5,$6,$7,$8,$9,$2,$3,0*
0 Add four circle primitives for the rounded corners*
1,1,$1+$1,$2,$3*
1,1,$1+$1,$4,$5*
1,1,$1+$1,$6,$7*
1,1,$1+$1,$8,$9*
0 Add four rect primitives between the rounded corners*
20,1,$1+$1,$2,$3,$4,$5,0*
20,1,$1+$1,$4,$5,$6,$7,0*
20,1,$1+$1,$6,$7,$8,$9,0*
20,1,$1+$1,$8,$9,$2,$3,0*%
G04 Aperture macros list end*
%ADD10C,0.300000*%
G04 #@! TA.AperFunction,NonConductor*
%ADD11C,0.300000*%
G04 #@! TD*
G04 #@! TA.AperFunction,SMDPad,CuDef*
%ADD12RoundRect,0.225000X0.225000X0.250000X-0.225000X0.250000X-0.225000X-0.250000X0.225000X-0.250000X0*%
G04 #@! TD*
G04 #@! TA.AperFunction,ComponentPad*
%ADD13R,1.700000X1.700000*%
G04 #@! TD*
G04 #@! TA.AperFunction,ComponentPad*
%ADD14O,1.700000X1.700000*%
G04 #@! TD*
G04 #@! TA.AperFunction,SMDPad,CuDef*
%ADD15RoundRect,0.200000X0.275000X-0.200000X0.275000X0.200000X-0.275000X0.200000X-0.275000X-0.200000X0*%
G04 #@! TD*
G04 #@! TA.AperFunction,SMDPad,CuDef*
%ADD16RoundRect,0.200000X0.200000X0.800000X-0.200000X0.800000X-0.200000X-0.800000X0.200000X-0.800000X0*%
G04 #@! TD*
G04 #@! TA.AperFunction,SMDPad,CuDef*
%ADD17RoundRect,0.225000X0.250000X-0.225000X0.250000X0.225000X-0.250000X0.225000X-0.250000X-0.225000X0*%
G04 #@! TD*
G04 #@! TA.AperFunction,SMDPad,CuDef*
%ADD18R,0.900000X2.000000*%
G04 #@! TD*
G04 #@! TA.AperFunction,SMDPad,CuDef*
%ADD19R,2.000000X0.900000*%
G04 #@! TD*
G04 #@! TA.AperFunction,SMDPad,CuDef*
%ADD20R,1.330000X1.330000*%
G04 #@! TD*
G04 #@! TA.AperFunction,ComponentPad*
%ADD21C,0.400000*%
G04 #@! TD*
G04 #@! TA.AperFunction,ComponentPad*
%ADD22C,0.300000*%
G04 #@! TD*
G04 #@! TA.AperFunction,SMDPad,CuDef*
%ADD23RoundRect,0.135000X0.135000X0.185000X-0.135000X0.185000X-0.135000X-0.185000X0.135000X-0.185000X0*%
G04 #@! TD*
G04 #@! TA.AperFunction,SMDPad,CuDef*
%ADD24R,1.500000X2.000000*%
G04 #@! TD*
G04 #@! TA.AperFunction,SMDPad,CuDef*
%ADD25R,3.800000X2.000000*%
G04 #@! TD*
G04 #@! TA.AperFunction,SMDPad,CuDef*
%ADD26RoundRect,0.135000X0.185000X-0.135000X0.185000X0.135000X-0.185000X0.135000X-0.185000X-0.135000X0*%
G04 #@! TD*
G04 #@! TA.AperFunction,SMDPad,CuDef*
%ADD27RoundRect,0.087500X0.087500X-0.187500X0.087500X0.187500X-0.087500X0.187500X-0.087500X-0.187500X0*%
G04 #@! TD*
G04 #@! TA.AperFunction,SMDPad,CuDef*
%ADD28RoundRect,0.175000X0.625000X-0.175000X0.625000X0.175000X-0.625000X0.175000X-0.625000X-0.175000X0*%
G04 #@! TD*
G04 #@! TA.AperFunction,SMDPad,CuDef*
%ADD29RoundRect,0.150000X0.150000X-0.825000X0.150000X0.825000X-0.150000X0.825000X-0.150000X-0.825000X0*%
G04 #@! TD*
G04 #@! TA.AperFunction,SMDPad,CuDef*
%ADD30RoundRect,0.200000X-0.275000X0.200000X-0.275000X-0.200000X0.275000X-0.200000X0.275000X0.200000X0*%
G04 #@! TD*
G04 #@! TA.AperFunction,SMDPad,CuDef*
%ADD31RoundRect,0.225000X-0.250000X0.225000X-0.250000X-0.225000X0.250000X-0.225000X0.250000X0.225000X0*%
G04 #@! TD*
G04 #@! TA.AperFunction,SMDPad,CuDef*
%ADD32RoundRect,0.225000X-0.225000X-0.250000X0.225000X-0.250000X0.225000X0.250000X-0.225000X0.250000X0*%
G04 #@! TD*
G04 #@! TA.AperFunction,SMDPad,CuDef*
%ADD33R,0.250000X0.550000*%
G04 #@! TD*
G04 #@! TA.AperFunction,SMDPad,CuDef*
%ADD34RoundRect,0.218750X-0.218750X-0.256250X0.218750X-0.256250X0.218750X0.256250X-0.218750X0.256250X0*%
G04 #@! TD*
G04 #@! TA.AperFunction,ComponentPad*
%ADD35O,1.600000X1.200000*%
G04 #@! TD*
G04 #@! TA.AperFunction,ComponentPad*
%ADD36O,1.200000X1.200000*%
G04 #@! TD*
G04 #@! TA.AperFunction,SMDPad,CuDef*
%ADD37R,0.300000X1.150000*%
G04 #@! TD*
G04 #@! TA.AperFunction,ComponentPad*
%ADD38O,1.000000X1.600000*%
G04 #@! TD*
G04 #@! TA.AperFunction,ComponentPad*
%ADD39O,1.000000X2.100000*%
G04 #@! TD*
G04 #@! TA.AperFunction,ViaPad*
%ADD40C,0.800000*%
G04 #@! TD*
G04 #@! TA.AperFunction,Conductor*
%ADD41C,0.250000*%
G04 #@! TD*
G04 #@! TA.AperFunction,Conductor*
%ADD42C,0.450000*%
G04 #@! TD*
G04 #@! TA.AperFunction,Conductor*
%ADD43C,0.750000*%
G04 #@! TD*
G04 APERTURE END LIST*
D10*
D11*
X146591846Y-98921317D02*
X145448989Y-98921317D01*
D12*
X180869418Y-77640460D03*
X179319418Y-77640460D03*
D13*
X144569418Y-83365460D03*
D14*
X142029418Y-83365460D03*
X144569418Y-80825460D03*
X142029418Y-80825460D03*
X144569418Y-78285460D03*
X142029418Y-78285460D03*
D15*
X149494418Y-70265460D03*
X149494418Y-68615460D03*
D16*
X144310418Y-44418460D03*
X140110418Y-44418460D03*
D17*
X175894418Y-65015460D03*
X175894418Y-63465460D03*
D18*
X148034418Y-65590460D03*
X149304418Y-65590460D03*
X150574418Y-65590460D03*
X151844418Y-65590460D03*
X153114418Y-65590460D03*
X154384418Y-65590460D03*
X155654418Y-65590460D03*
X156924418Y-65590460D03*
X158194418Y-65590460D03*
X159464418Y-65590460D03*
X160734418Y-65590460D03*
X162004418Y-65590460D03*
X163274418Y-65590460D03*
X164544418Y-65590460D03*
D19*
X165544418Y-62805460D03*
X165544418Y-61535460D03*
X165544418Y-60265460D03*
X165544418Y-58995460D03*
X165544418Y-57725460D03*
X165544418Y-56455460D03*
X165544418Y-55185460D03*
X165544418Y-53915460D03*
X165544418Y-52645460D03*
X165544418Y-51375460D03*
D18*
X164544418Y-48590460D03*
X163274418Y-48590460D03*
X162004418Y-48590460D03*
X160734418Y-48590460D03*
X159464418Y-48590460D03*
X158194418Y-48590460D03*
X156924418Y-48590460D03*
X155654418Y-48590460D03*
X154384418Y-48590460D03*
X153114418Y-48590460D03*
X151844418Y-48590460D03*
X150574418Y-48590460D03*
X149304418Y-48590460D03*
X148034418Y-48590460D03*
D20*
X153699418Y-59925460D03*
X153699418Y-58090460D03*
X153699418Y-56255460D03*
X155534418Y-59925460D03*
X155534418Y-58090460D03*
X155534418Y-56255460D03*
X157369418Y-59925460D03*
X157369418Y-58090460D03*
X157369418Y-56255460D03*
D21*
X153699418Y-59007960D03*
X153699418Y-57172960D03*
X154616918Y-59925460D03*
X154616918Y-58090460D03*
X154616918Y-56255460D03*
X155534418Y-59007960D03*
D22*
X155534418Y-57172960D03*
D21*
X156451918Y-59925460D03*
D22*
X156451918Y-58090460D03*
X156451918Y-56255460D03*
D21*
X157369418Y-59007960D03*
X157369418Y-57172960D03*
D23*
X180604418Y-79440460D03*
X179584418Y-79440460D03*
D24*
X155194418Y-83890460D03*
X152894418Y-83890460D03*
D25*
X152894418Y-90190460D03*
D24*
X150594418Y-83890460D03*
D26*
X161894418Y-69950460D03*
X161894418Y-68930460D03*
D23*
X145604418Y-67640460D03*
X144584418Y-67640460D03*
D13*
X151294418Y-99040460D03*
D14*
X148754418Y-99040460D03*
D23*
X180604418Y-80840460D03*
X179584418Y-80840460D03*
D12*
X155469418Y-78240460D03*
X153919418Y-78240460D03*
D17*
X183104418Y-72879460D03*
X183104418Y-71329460D03*
D27*
X179394418Y-100365460D03*
X180394418Y-100365460D03*
X180394418Y-98515460D03*
X179394418Y-98515460D03*
D28*
X179894418Y-99440460D03*
D13*
X182119418Y-50515460D03*
D14*
X182119418Y-53055460D03*
X182119418Y-55595460D03*
X182119418Y-58135460D03*
X182119418Y-60675460D03*
X182119418Y-63215460D03*
D12*
X155469418Y-80040460D03*
X153919418Y-80040460D03*
X150869418Y-78040460D03*
X149319418Y-78040460D03*
X180869418Y-82840460D03*
X179319418Y-82840460D03*
D16*
X144818418Y-71088460D03*
X140618418Y-71088460D03*
D17*
X158720418Y-70215460D03*
X158720418Y-68665460D03*
D29*
X172049418Y-72315460D03*
X173319418Y-72315460D03*
X174589418Y-72315460D03*
X175859418Y-72315460D03*
X177129418Y-72315460D03*
X178399418Y-72315460D03*
X179669418Y-72315460D03*
X180939418Y-72315460D03*
X180939418Y-67365460D03*
X179669418Y-67365460D03*
X178399418Y-67365460D03*
X177129418Y-67365460D03*
X175859418Y-67365460D03*
X174589418Y-67365460D03*
X173319418Y-67365460D03*
X172049418Y-67365460D03*
D30*
X167694418Y-71015460D03*
X167694418Y-72665460D03*
D17*
X178494418Y-52215460D03*
X178494418Y-50665460D03*
D31*
X177394418Y-98615460D03*
X177394418Y-100165460D03*
D32*
X149344418Y-80040460D03*
X150894418Y-80040460D03*
D17*
X147544418Y-70215460D03*
X147544418Y-68665460D03*
D33*
X182350418Y-80615460D03*
X182850418Y-80615460D03*
X183350418Y-80615460D03*
X183350418Y-77865460D03*
X182850418Y-77865460D03*
X182350418Y-77865460D03*
D34*
X140506918Y-67640460D03*
X142081918Y-67640460D03*
D35*
X160954418Y-80240460D03*
D36*
X166288418Y-80240460D03*
X163494418Y-83034460D03*
D26*
X164894418Y-69350460D03*
X164894418Y-68330460D03*
D12*
X144869418Y-86640460D03*
X143319418Y-86640460D03*
D37*
X157344418Y-94455460D03*
X158144418Y-94455460D03*
X159444418Y-94455460D03*
X160444418Y-94455460D03*
X160944418Y-94455460D03*
X161944418Y-94455460D03*
X163244418Y-94455460D03*
X164044418Y-94455460D03*
X163744418Y-94455460D03*
X162944418Y-94455460D03*
X162444418Y-94455460D03*
X161444418Y-94455460D03*
X159944418Y-94455460D03*
X158944418Y-94455460D03*
X158444418Y-94455460D03*
X157644418Y-94455460D03*
D38*
X165014418Y-99200460D03*
D39*
X165014418Y-95020460D03*
D38*
X156374418Y-99200460D03*
D39*
X156374418Y-95020460D03*
D17*
X149494418Y-73415460D03*
X149494418Y-71865460D03*
D30*
X160294418Y-68615460D03*
X160294418Y-70265460D03*
D40*
X148052418Y-63468460D03*
X150338418Y-73374460D03*
X181834418Y-83026460D03*
X167356418Y-62960460D03*
X157704418Y-70072460D03*
X157450418Y-58134460D03*
X183104418Y-74136460D03*
X143988418Y-71088460D03*
X149344418Y-78984460D03*
X152444418Y-58840460D03*
X153640418Y-58134460D03*
X162444418Y-90340460D03*
X154444418Y-61340460D03*
X139162418Y-68040460D03*
X178527418Y-98515460D03*
X145766418Y-86582460D03*
X156444418Y-61340460D03*
X148052418Y-46704460D03*
X155469418Y-81553460D03*
X179584418Y-78490460D03*
X148052418Y-71088460D03*
X168880418Y-89630460D03*
X162530418Y-86582460D03*
X152878418Y-76168460D03*
X146020418Y-72866460D03*
X157958418Y-67278460D03*
X173706418Y-64230460D03*
X148560418Y-45434460D03*
X148814418Y-52800460D03*
X162832717Y-92726759D03*
X161300119Y-92210161D03*
X172944418Y-60674460D03*
X162784418Y-60928460D03*
X174976418Y-61499960D03*
X163038418Y-59150460D03*
X178532418Y-74644460D03*
X164816418Y-67278460D03*
X163292418Y-68040460D03*
X177520717Y-75410759D03*
X169642418Y-54070460D03*
X169642418Y-57626460D03*
X171166418Y-69818460D03*
X161768418Y-56102460D03*
X162784418Y-57118460D03*
X171420418Y-68802460D03*
X155418418Y-69056460D03*
X156942418Y-50451960D03*
X156180418Y-68294460D03*
X158212418Y-50451960D03*
X147036418Y-67532460D03*
X149322418Y-63214460D03*
D41*
X149344418Y-78984460D02*
X149344418Y-78065460D01*
D42*
X144869418Y-86640460D02*
X145708418Y-86640460D01*
D43*
X155469418Y-83615460D02*
X155194418Y-83890460D01*
D41*
X155534418Y-56255460D02*
X157369418Y-56255460D01*
X152949418Y-58840460D02*
X153699418Y-58090460D01*
D42*
X164044418Y-94455460D02*
X164449418Y-94455460D01*
X165014418Y-99200460D02*
X156374418Y-99200460D01*
D41*
X153699418Y-59925460D02*
X153699418Y-58193460D01*
X183350418Y-82272460D02*
X182596418Y-83026460D01*
X157369418Y-58090460D02*
X157369418Y-59925460D01*
X153699418Y-56255460D02*
X155534418Y-56255460D01*
X157369418Y-59925460D02*
X155534418Y-59925460D01*
X183350418Y-80615460D02*
X183350418Y-82272460D01*
X156374418Y-93960460D02*
X156374418Y-95020460D01*
D43*
X155469418Y-81553460D02*
X155469418Y-83615460D01*
D42*
X139562418Y-67640460D02*
X140506918Y-67640460D01*
D41*
X177494418Y-98515460D02*
X177394418Y-98615460D01*
D42*
X181648418Y-82840460D02*
X181834418Y-83026460D01*
X180869418Y-82840460D02*
X181648418Y-82840460D01*
X158694418Y-70215460D02*
X157847418Y-70215460D01*
X139162418Y-68040460D02*
X139562418Y-67640460D01*
D43*
X181279418Y-52215460D02*
X182119418Y-53055460D01*
D42*
X179584418Y-78490460D02*
X179584418Y-77905460D01*
D41*
X154444418Y-61015460D02*
X155534418Y-59925460D01*
X179394418Y-98515460D02*
X178527418Y-98515460D01*
D42*
X145766418Y-44418460D02*
X144310418Y-44418460D01*
D41*
X157344418Y-94455460D02*
X156939418Y-94455460D01*
D42*
X157847418Y-70215460D02*
X157704418Y-70072460D01*
X145708418Y-86640460D02*
X145766418Y-86582460D01*
D41*
X178527418Y-98515460D02*
X177494418Y-98515460D01*
X182596418Y-83026460D02*
X181834418Y-83026460D01*
D42*
X183104418Y-72879460D02*
X183104418Y-74136460D01*
X148034418Y-65590460D02*
X148034418Y-63486460D01*
D41*
X156444418Y-61340460D02*
X156444418Y-60835460D01*
X157494418Y-93840460D02*
X156494418Y-93840460D01*
X155534418Y-59925460D02*
X153699418Y-59925460D01*
D42*
X148034418Y-63486460D02*
X148052418Y-63468460D01*
D43*
X165544418Y-62805460D02*
X167201418Y-62805460D01*
X155469418Y-78240460D02*
X155469418Y-81553460D01*
D41*
X156444418Y-60835460D02*
X155534418Y-59925460D01*
X156939418Y-94455460D02*
X156374418Y-95020460D01*
D42*
X179584418Y-77905460D02*
X179319418Y-77640460D01*
D43*
X167201418Y-62805460D02*
X167356418Y-62960460D01*
D41*
X155534418Y-58090460D02*
X153684418Y-58090460D01*
D43*
X178494418Y-52215460D02*
X181279418Y-52215460D01*
D41*
X157644418Y-94455460D02*
X157344418Y-94455460D01*
D42*
X148034418Y-48590460D02*
X148034418Y-46722460D01*
D41*
X149494418Y-73415460D02*
X150297418Y-73415460D01*
X153699418Y-58193460D02*
X153640418Y-58134460D01*
D42*
X144818418Y-71088460D02*
X143988418Y-71088460D01*
X164449418Y-94455460D02*
X165014418Y-95020460D01*
D41*
X150297418Y-73415460D02*
X150338418Y-73374460D01*
X149344418Y-80040460D02*
X149344418Y-78984460D01*
D42*
X179584418Y-79440460D02*
X179584418Y-78490460D01*
X165014418Y-95020460D02*
X165014418Y-99200460D01*
D41*
X153684418Y-58090460D02*
X153640418Y-58134460D01*
X149344418Y-78065460D02*
X149319418Y-78040460D01*
X157644418Y-94455460D02*
X157644418Y-93990460D01*
X157369418Y-56255460D02*
X157369418Y-58090460D01*
D42*
X147544418Y-70580460D02*
X148052418Y-71088460D01*
D41*
X152444418Y-58840460D02*
X152949418Y-58840460D01*
D42*
X148052418Y-46704460D02*
X145766418Y-44418460D01*
D41*
X153699418Y-58090460D02*
X153699418Y-56255460D01*
D42*
X147544418Y-70215460D02*
X147544418Y-70580460D01*
X148034418Y-46722460D02*
X148052418Y-46704460D01*
D41*
X157644418Y-93990460D02*
X157494418Y-93840460D01*
X156494418Y-93840460D02*
X156374418Y-93960460D01*
X154444418Y-61340460D02*
X154444418Y-61015460D01*
X176367418Y-100165460D02*
X175992418Y-99790460D01*
D43*
X152894418Y-83890460D02*
X152894418Y-81065460D01*
X168880418Y-89630460D02*
X175670418Y-82840460D01*
X146020418Y-72358460D02*
X146494898Y-71883980D01*
X160294418Y-71546460D02*
X160294418Y-70265460D01*
D42*
X164294418Y-69950460D02*
X164894418Y-69350460D01*
D41*
X176754418Y-97250460D02*
X181580418Y-97250460D01*
D43*
X153919418Y-78240460D02*
X153919418Y-75889460D01*
X146020418Y-72866460D02*
X146020418Y-72358460D01*
D41*
X175992418Y-99790460D02*
X175992418Y-98012460D01*
X177394418Y-100165460D02*
X176367418Y-100165460D01*
X175992418Y-98012460D02*
X176754418Y-97250460D01*
X182342418Y-96488460D02*
X182342418Y-85863460D01*
D43*
X146494898Y-69343980D02*
X147173418Y-68665460D01*
X152894418Y-90190460D02*
X157652418Y-90190460D01*
D41*
X177594418Y-100365460D02*
X177394418Y-100165460D01*
X179319418Y-82747460D02*
X180604418Y-81462460D01*
D42*
X147544418Y-68665460D02*
X149444418Y-68665460D01*
D41*
X180604418Y-81462460D02*
X180604418Y-80840460D01*
D43*
X152894418Y-83890460D02*
X152894418Y-90190460D01*
D42*
X161894418Y-69950460D02*
X164294418Y-69950460D01*
D41*
X181580418Y-97250460D02*
X182342418Y-96488460D01*
D42*
X149444418Y-68665460D02*
X149494418Y-68615460D01*
D43*
X152878418Y-76168460D02*
X153157418Y-75889460D01*
D41*
X179319418Y-82840460D02*
X179319418Y-82747460D01*
D43*
X156688418Y-73120460D02*
X158720418Y-73120460D01*
X146494898Y-71883980D02*
X146494898Y-69343980D01*
D41*
X182342418Y-85863460D02*
X179319418Y-82840460D01*
D43*
X158720418Y-73120460D02*
X160294418Y-71546460D01*
X175670418Y-82840460D02*
X179319418Y-82840460D01*
X153919418Y-80040460D02*
X153919418Y-78240460D01*
D42*
X149304418Y-65590460D02*
X149304418Y-68425460D01*
D41*
X179394418Y-100365460D02*
X177594418Y-100365460D01*
X180829418Y-80615460D02*
X180604418Y-80840460D01*
D43*
X152894418Y-81065460D02*
X153919418Y-80040460D01*
D42*
X149304418Y-68425460D02*
X149494418Y-68615460D01*
X161894418Y-69950460D02*
X160609418Y-69950460D01*
D43*
X147173418Y-68665460D02*
X147544418Y-68665460D01*
X158922418Y-90190460D02*
X162530418Y-86582460D01*
X153919418Y-75889460D02*
X156688418Y-73120460D01*
D42*
X160609418Y-69950460D02*
X160294418Y-70265460D01*
D41*
X182350418Y-80615460D02*
X180829418Y-80615460D01*
D43*
X153157418Y-75889460D02*
X153919418Y-75889460D01*
X157652418Y-90190460D02*
X158922418Y-90190460D01*
D42*
X176500418Y-70072460D02*
X182596418Y-70072460D01*
X175859418Y-70713460D02*
X176500418Y-70072460D01*
X182596418Y-70072460D02*
X183104418Y-70580460D01*
X183104418Y-70580460D02*
X183104418Y-71329460D01*
X175859418Y-72315460D02*
X175859418Y-70713460D01*
X166288418Y-84856460D02*
X166288418Y-80240460D01*
X170150418Y-77946460D02*
X170150418Y-68802460D01*
X138908418Y-69564460D02*
X139924418Y-68548460D01*
D43*
X161978418Y-97040460D02*
X162870005Y-96148873D01*
X148669907Y-84064971D02*
X147694418Y-85040460D01*
D41*
X158444418Y-95171187D02*
X158444418Y-94455460D01*
D42*
X170150418Y-68802460D02*
X171587418Y-67365460D01*
D41*
X162944418Y-95171187D02*
X162884897Y-95230708D01*
D42*
X158212418Y-92932460D02*
X166288418Y-84856460D01*
D43*
X148694418Y-96240460D02*
X149836418Y-96240460D01*
D42*
X139924418Y-68548460D02*
X144912418Y-68548460D01*
X158212418Y-93694460D02*
X158212418Y-92932460D01*
D41*
X158444418Y-94455460D02*
X158144418Y-94455460D01*
D43*
X153294418Y-97040460D02*
X157894418Y-97040460D01*
X150594418Y-83890460D02*
X150594418Y-82012460D01*
D42*
X144092418Y-88972460D02*
X147694418Y-88972460D01*
D43*
X150869418Y-78040460D02*
X150869418Y-80015460D01*
X150594418Y-83890460D02*
X150419907Y-84064971D01*
D42*
X142029418Y-85350460D02*
X143319418Y-86640460D01*
X167856418Y-80240460D02*
X170150418Y-77946460D01*
X145604418Y-67856460D02*
X145604418Y-67640460D01*
X176857418Y-50665460D02*
X178494418Y-50665460D01*
D43*
X178644418Y-50515460D02*
X178494418Y-50665460D01*
D41*
X162884897Y-95230708D02*
X162884897Y-96133981D01*
D42*
X142029418Y-83365460D02*
X142029418Y-85350460D01*
D43*
X151294418Y-97698460D02*
X151294418Y-99040460D01*
D42*
X171587418Y-67365460D02*
X172049418Y-67365460D01*
X172049418Y-55473460D02*
X176857418Y-50665460D01*
X143319418Y-86640460D02*
X143319418Y-88199460D01*
D43*
X147694418Y-85040460D02*
X147694418Y-88972460D01*
D42*
X143319418Y-88199460D02*
X144092418Y-88972460D01*
X142029418Y-83365460D02*
X140771418Y-83365460D01*
D41*
X158212418Y-93694460D02*
X158144418Y-93762460D01*
X158144418Y-93762460D02*
X158144418Y-94455460D01*
X162944418Y-94455460D02*
X162944418Y-95171187D01*
D42*
X140771418Y-83365460D02*
X138908418Y-81502460D01*
D41*
X158294418Y-96640460D02*
X158503939Y-96430939D01*
X158503939Y-95230708D02*
X158444418Y-95171187D01*
D43*
X150594418Y-82012460D02*
X150594418Y-80340460D01*
X157894418Y-97040460D02*
X161978418Y-97040460D01*
X182119418Y-50515460D02*
X178644418Y-50515460D01*
D41*
X158503939Y-96430939D02*
X158503939Y-95230708D01*
D43*
X150869418Y-80015460D02*
X150894418Y-80040460D01*
X150419907Y-84064971D02*
X148669907Y-84064971D01*
X150594418Y-80340460D02*
X150894418Y-80040460D01*
D42*
X166288418Y-80240460D02*
X167856418Y-80240460D01*
D43*
X147694418Y-95240460D02*
X148694418Y-96240460D01*
D42*
X138908418Y-81502460D02*
X138908418Y-69564460D01*
D43*
X151294418Y-99040460D02*
X153294418Y-97040460D01*
D42*
X172049418Y-67365460D02*
X172049418Y-55473460D01*
X144912418Y-68548460D02*
X145604418Y-67856460D01*
D43*
X157894418Y-97040460D02*
X158294418Y-96640460D01*
X149836418Y-96240460D02*
X151294418Y-97698460D01*
X147694418Y-88972460D02*
X147694418Y-95240460D01*
D42*
X175894418Y-65015460D02*
X175894418Y-67330460D01*
X175894418Y-67330460D02*
X175859418Y-67365460D01*
X148306418Y-72104460D02*
X149255418Y-72104460D01*
X150145418Y-70265460D02*
X149494418Y-70265460D01*
X150574418Y-69836460D02*
X150145418Y-70265460D01*
X145978898Y-76875980D02*
X145978898Y-75432842D01*
X174471418Y-63465460D02*
X175894418Y-63465460D01*
X142972418Y-76688460D02*
X144569418Y-78285460D01*
X173706418Y-64230460D02*
X174471418Y-63465460D01*
X140618418Y-73560460D02*
X142972418Y-75914460D01*
X150574418Y-65590460D02*
X150574418Y-67296460D01*
X150574418Y-67296460D02*
X150574418Y-69836460D01*
X150574418Y-67296460D02*
X157940418Y-67296460D01*
X149255418Y-72104460D02*
X149494418Y-71865460D01*
X146020418Y-75391322D02*
X146020418Y-74390460D01*
X140618418Y-71088460D02*
X140618418Y-73560460D01*
X146020418Y-74390460D02*
X148306418Y-72104460D01*
X149494418Y-71865460D02*
X149494418Y-70265460D01*
X157940418Y-67296460D02*
X157958418Y-67278460D01*
X145978898Y-75432842D02*
X146020418Y-75391322D01*
X142972418Y-75914460D02*
X142972418Y-76688460D01*
X144569418Y-78285460D02*
X145978898Y-76875980D01*
X148560418Y-45434460D02*
X145766418Y-42640460D01*
X160294418Y-68615460D02*
X159415418Y-68615460D01*
X158212418Y-53816460D02*
X159464418Y-55068460D01*
X149830418Y-53816460D02*
X158212418Y-53816460D01*
X148814418Y-52800460D02*
X149830418Y-53816460D01*
X141888418Y-42640460D02*
X140110418Y-44418460D01*
X159464418Y-65590460D02*
X159464418Y-68566460D01*
X159464418Y-55068460D02*
X159464418Y-65590460D01*
X145766418Y-42640460D02*
X141888418Y-42640460D01*
X159464418Y-68566460D02*
X159415418Y-68615460D01*
X159415418Y-68615460D02*
X158770418Y-68615460D01*
X158770418Y-68615460D02*
X158720418Y-68665460D01*
D41*
X180869418Y-77743460D02*
X180869418Y-77640460D01*
X181590929Y-78464971D02*
X182799929Y-78464971D01*
X179584418Y-80840460D02*
X179140418Y-80840460D01*
X182850418Y-78414482D02*
X182850418Y-77865460D01*
X178532418Y-76676460D02*
X179905418Y-76676460D01*
X179905418Y-76676460D02*
X180869418Y-77640460D01*
X178278418Y-79978460D02*
X178278418Y-76930460D01*
X181590929Y-78464971D02*
X180869418Y-77743460D01*
X179140418Y-80840460D02*
X178278418Y-79978460D01*
X178278418Y-76930460D02*
X178532418Y-76676460D01*
X182799929Y-78464971D02*
X182850418Y-78414482D01*
X160444418Y-93490460D02*
X160444418Y-94455460D01*
X160694418Y-93240460D02*
X160444418Y-93490460D01*
X161444418Y-93390460D02*
X161294418Y-93240460D01*
X161444418Y-94455460D02*
X161444418Y-93390460D01*
X161294418Y-93240460D02*
X174214418Y-80320460D01*
X177129418Y-74015460D02*
X177129418Y-72315460D01*
X174214418Y-80320460D02*
X174214418Y-76930460D01*
X161294418Y-93240460D02*
X160694418Y-93240460D01*
X174214418Y-76930460D02*
X177129418Y-74015460D01*
X178399418Y-72315460D02*
X178399418Y-73507460D01*
X159944418Y-95329482D02*
X159944418Y-94455460D01*
X160255396Y-95640460D02*
X159944418Y-95329482D01*
X160944418Y-94455460D02*
X160944418Y-95329482D01*
X161089000Y-92210161D02*
X159944418Y-93354743D01*
X160944418Y-95329482D02*
X160633440Y-95640460D01*
X162832717Y-92630161D02*
X162832717Y-92726759D01*
X159944418Y-93354743D02*
X159944418Y-94455460D01*
X174722418Y-77184460D02*
X174722418Y-80740460D01*
X161300119Y-92210161D02*
X161089000Y-92210161D01*
X178399418Y-73507460D02*
X174722418Y-77184460D01*
X160633440Y-95640460D02*
X160255396Y-95640460D01*
X174722418Y-80740460D02*
X162832717Y-92630161D01*
D42*
X165779418Y-72665460D02*
X167694418Y-72665460D01*
X163494418Y-83034460D02*
X163494418Y-74950460D01*
X163494418Y-74950460D02*
X165779418Y-72665460D01*
X160734418Y-62978460D02*
X160734418Y-65590460D01*
X172945418Y-60675460D02*
X172944418Y-60674460D01*
X162784418Y-60928460D02*
X160734418Y-62978460D01*
X182119418Y-60675460D02*
X172945418Y-60675460D01*
X179549418Y-63215460D02*
X177770418Y-61436460D01*
X150574418Y-50750460D02*
X150574418Y-48590460D01*
X159325858Y-52800460D02*
X152624418Y-52800460D01*
X182119418Y-63215460D02*
X179549418Y-63215460D01*
X163038418Y-59150460D02*
X162530418Y-58642460D01*
X162530418Y-58388460D02*
X160244418Y-56102460D01*
X162530418Y-58642460D02*
X162530418Y-58388460D01*
X160244418Y-53719020D02*
X159325858Y-52800460D01*
X160244418Y-56102460D02*
X160244418Y-53719020D01*
X175039918Y-61436460D02*
X174976418Y-61499960D01*
X152624418Y-52800460D02*
X150574418Y-50750460D01*
X177770418Y-61436460D02*
X175039918Y-61436460D01*
D41*
X180818418Y-74644460D02*
X178532418Y-74644460D01*
D42*
X164894418Y-68330460D02*
X164894418Y-65940460D01*
X164894418Y-65940460D02*
X164544418Y-65590460D01*
D41*
X183350418Y-77176460D02*
X180818418Y-74644460D01*
X183350418Y-77865460D02*
X183350418Y-77176460D01*
X182350418Y-76938460D02*
X180822717Y-75410759D01*
D42*
X163274418Y-68058460D02*
X162402418Y-68930460D01*
X162402418Y-68930460D02*
X161894418Y-68930460D01*
X163274418Y-65590460D02*
X163274418Y-68058460D01*
D41*
X182350418Y-77865460D02*
X182350418Y-76938460D01*
X180822717Y-75410759D02*
X177520717Y-75410759D01*
X182850418Y-80615460D02*
X182850418Y-79622438D01*
X182850418Y-79622438D02*
X182668440Y-79440460D01*
X182668440Y-79440460D02*
X180604418Y-79440460D01*
D42*
X167694418Y-71015460D02*
X167694418Y-66178460D01*
X163038418Y-45942460D02*
X162004418Y-46976460D01*
X169642418Y-64230460D02*
X169642418Y-57626460D01*
X162004418Y-46976460D02*
X162004418Y-48590460D01*
X167694418Y-66178460D02*
X168880418Y-64992460D01*
X168880418Y-64992460D02*
X169642418Y-64230460D01*
X169642418Y-47466460D02*
X168118418Y-45942460D01*
X169642418Y-54070460D02*
X169642418Y-47466460D01*
X168118418Y-45942460D02*
X163038418Y-45942460D01*
D41*
X180394418Y-100365460D02*
X180475845Y-100365460D01*
X184882418Y-95958887D02*
X184882418Y-49498460D01*
X183612418Y-48228460D02*
X177008418Y-48228460D01*
X180475845Y-100365460D02*
X184882418Y-95958887D01*
X170051418Y-55185460D02*
X165544418Y-55185460D01*
X184882418Y-49498460D02*
X183612418Y-48228460D01*
X177008418Y-48228460D02*
X170051418Y-55185460D01*
X169797418Y-56455460D02*
X165544418Y-56455460D01*
X181331418Y-98515460D02*
X184243929Y-95602949D01*
X184243929Y-49621971D02*
X183358418Y-48736460D01*
X184243929Y-95602949D02*
X184243929Y-49621971D01*
X183358418Y-48736460D02*
X177516418Y-48736460D01*
X180394418Y-98515460D02*
X181331418Y-98515460D01*
X177516418Y-48736460D02*
X169797418Y-56455460D01*
D42*
X161768418Y-56102460D02*
X161768418Y-54324460D01*
X173319418Y-70701460D02*
X172436418Y-69818460D01*
X151844418Y-49988460D02*
X151844418Y-48590460D01*
X161768418Y-54324460D02*
X159482418Y-52038460D01*
X173319418Y-72315460D02*
X173319418Y-70701460D01*
X159482418Y-52038460D02*
X153894418Y-52038460D01*
X172436418Y-69818460D02*
X171166418Y-69818460D01*
X153894418Y-52038460D02*
X151844418Y-49988460D01*
X162784418Y-57118460D02*
X162784418Y-53816460D01*
X162784418Y-53816460D02*
X160244418Y-51276460D01*
X160244418Y-51276460D02*
X154771396Y-51276460D01*
X154771396Y-51276460D02*
X153114418Y-49619482D01*
X153114418Y-49619482D02*
X153114418Y-48590460D01*
X174589418Y-70701460D02*
X172690418Y-68802460D01*
X174589418Y-72315460D02*
X174589418Y-70701460D01*
X172690418Y-68802460D02*
X171420418Y-68802460D01*
X144584418Y-67640460D02*
X142081918Y-67640460D01*
D41*
X153132418Y-73374460D02*
X151354418Y-75152460D01*
X147544418Y-75914460D02*
X147544418Y-80390460D01*
X148306418Y-75152460D02*
X147544418Y-75914460D01*
X147544418Y-80390460D02*
X144569418Y-83365460D01*
X156942418Y-50451960D02*
X156942418Y-48608460D01*
X153132418Y-70580460D02*
X153132418Y-73374460D01*
X154656418Y-69056460D02*
X153132418Y-70580460D01*
X155418418Y-69056460D02*
X154656418Y-69056460D01*
X156942418Y-48608460D02*
X156924418Y-48590460D01*
X151354418Y-75152460D02*
X148306418Y-75152460D01*
X152116418Y-72621074D02*
X150093032Y-74644460D01*
X154656418Y-68294460D02*
X152116418Y-70834460D01*
X150093032Y-74644460D02*
X147544418Y-74644460D01*
X158212418Y-48608460D02*
X158194418Y-48590460D01*
X147544418Y-74644460D02*
X146782418Y-75406460D01*
X152116418Y-70834460D02*
X152116418Y-72621074D01*
X158212418Y-50451960D02*
X158212418Y-48608460D01*
X156180418Y-68294460D02*
X154656418Y-68294460D01*
X146782418Y-75406460D02*
X146782418Y-78612460D01*
X146782418Y-78612460D02*
X144569418Y-80825460D01*
X141279418Y-80825460D02*
X140432418Y-79978460D01*
X149304418Y-50532460D02*
X149304418Y-48590460D01*
X147798418Y-59912460D02*
X147798418Y-52038460D01*
X140432418Y-79978460D02*
X140432418Y-76049029D01*
X139670418Y-69818460D02*
X140390898Y-69097980D01*
X142029418Y-80825460D02*
X141279418Y-80825460D01*
X149322418Y-63214460D02*
X149322418Y-61436460D01*
X139670418Y-75287029D02*
X139670418Y-69818460D01*
X145470898Y-69097980D02*
X147036418Y-67532460D01*
X140390898Y-69097980D02*
X145470898Y-69097980D01*
X149322418Y-61436460D02*
X147798418Y-59912460D01*
X147798418Y-52038460D02*
X149304418Y-50532460D01*
X140432418Y-76049029D02*
X139670418Y-75287029D01*
G04 #@! TA.AperFunction,Conductor*
G36*
X138427612Y-82275104D02*
G01*
X138481252Y-82228594D01*
X138551523Y-82218467D01*
X138616113Y-82247939D01*
X138622727Y-82254095D01*
X140206670Y-83838037D01*
X140219057Y-83852449D01*
X140231318Y-83869111D01*
X140236901Y-83873854D01*
X140270138Y-83902091D01*
X140277654Y-83909021D01*
X140283038Y-83914405D01*
X140285899Y-83916668D01*
X140285904Y-83916673D01*
X140304509Y-83931392D01*
X140307911Y-83934181D01*
X140356090Y-83975113D01*
X140356094Y-83975116D01*
X140361669Y-83979852D01*
X140368190Y-83983181D01*
X140372869Y-83986302D01*
X140377623Y-83989238D01*
X140383361Y-83993778D01*
X140389988Y-83996875D01*
X140389989Y-83996876D01*
X140447272Y-84023649D01*
X140451179Y-84025559D01*
X140514000Y-84057636D01*
X140521112Y-84059376D01*
X140526398Y-84061342D01*
X140531683Y-84063100D01*
X140538313Y-84066199D01*
X140596868Y-84078378D01*
X140607381Y-84080565D01*
X140611665Y-84081535D01*
X140680139Y-84098290D01*
X140690938Y-84098960D01*
X140690937Y-84098984D01*
X140695352Y-84099248D01*
X140698602Y-84099538D01*
X140705770Y-84101029D01*
X140713087Y-84100831D01*
X140780541Y-84099006D01*
X140783949Y-84098960D01*
X140818303Y-84098960D01*
X140886424Y-84118962D01*
X140919062Y-84149306D01*
X140922639Y-84154070D01*
X140999424Y-84256338D01*
X141010053Y-84270495D01*
X141171556Y-84424831D01*
X141240924Y-84472151D01*
X141285925Y-84527060D01*
X141295918Y-84576237D01*
X141295918Y-85285294D01*
X141294485Y-85304244D01*
X141292475Y-85317453D01*
X141292475Y-85317457D01*
X141291375Y-85324687D01*
X141291968Y-85331979D01*
X141291968Y-85331983D01*
X141295503Y-85375441D01*
X141295918Y-85385655D01*
X141295918Y-85393286D01*
X141296342Y-85396920D01*
X141296342Y-85396926D01*
X141297799Y-85409421D01*
X141299093Y-85420518D01*
X141299523Y-85424866D01*
X141305241Y-85495165D01*
X141307497Y-85502129D01*
X141308595Y-85507625D01*
X141309884Y-85513078D01*
X141310732Y-85520350D01*
X141334802Y-85586662D01*
X141336220Y-85590793D01*
X141342626Y-85610566D01*
X141355699Y-85650922D01*
X141355701Y-85650926D01*
X141357954Y-85657881D01*
X141361746Y-85664131D01*
X141364089Y-85669248D01*
X141366596Y-85674255D01*
X141369091Y-85681127D01*
X141373099Y-85687240D01*
X141373101Y-85687244D01*
X141407771Y-85740123D01*
X141410118Y-85743844D01*
X141446685Y-85804105D01*
X141453848Y-85812215D01*
X141453830Y-85812231D01*
X141456760Y-85815535D01*
X141458859Y-85818046D01*
X141462872Y-85824166D01*
X141468184Y-85829198D01*
X141517213Y-85875644D01*
X141519655Y-85878022D01*
X142324013Y-86682380D01*
X142358039Y-86744692D01*
X142360918Y-86771475D01*
X142360918Y-86939192D01*
X142361255Y-86942438D01*
X142361255Y-86942442D01*
X142364793Y-86976543D01*
X142371531Y-87041479D01*
X142373713Y-87048020D01*
X142373713Y-87048019D01*
X142423345Y-87196784D01*
X142423346Y-87196786D01*
X142425662Y-87203728D01*
X142515666Y-87349173D01*
X142520848Y-87354346D01*
X142548936Y-87382385D01*
X142583015Y-87444667D01*
X142585918Y-87471558D01*
X142585918Y-88134294D01*
X142584485Y-88153244D01*
X142582475Y-88166453D01*
X142582475Y-88166457D01*
X142581375Y-88173687D01*
X142581968Y-88180979D01*
X142581968Y-88180983D01*
X142585503Y-88224441D01*
X142585918Y-88234655D01*
X142585918Y-88242286D01*
X142586342Y-88245920D01*
X142586342Y-88245926D01*
X142587799Y-88258421D01*
X142589093Y-88269518D01*
X142589523Y-88273866D01*
X142595241Y-88344165D01*
X142597498Y-88351133D01*
X142598597Y-88356632D01*
X142599884Y-88362077D01*
X142600732Y-88369350D01*
X142624805Y-88435669D01*
X142626233Y-88439830D01*
X142645697Y-88499914D01*
X142645698Y-88499917D01*
X142647954Y-88506880D01*
X142651751Y-88513137D01*
X142654097Y-88518262D01*
X142656594Y-88523249D01*
X142659091Y-88530127D01*
X142663101Y-88536244D01*
X142663104Y-88536249D01*
X142697765Y-88589114D01*
X142700113Y-88592836D01*
X142733774Y-88648308D01*
X142736685Y-88653105D01*
X142743847Y-88661215D01*
X142743830Y-88661230D01*
X142746763Y-88664539D01*
X142748860Y-88667047D01*
X142752872Y-88673166D01*
X142758185Y-88678199D01*
X142807158Y-88724592D01*
X142809600Y-88726968D01*
X143527673Y-89445040D01*
X143540059Y-89459453D01*
X143552318Y-89476111D01*
X143576288Y-89496475D01*
X143591138Y-89509091D01*
X143598654Y-89516021D01*
X143604038Y-89521405D01*
X143606899Y-89523668D01*
X143606904Y-89523673D01*
X143625509Y-89538392D01*
X143628911Y-89541181D01*
X143677090Y-89582113D01*
X143677094Y-89582116D01*
X143682669Y-89586852D01*
X143689190Y-89590181D01*
X143693869Y-89593302D01*
X143698623Y-89596238D01*
X143704361Y-89600778D01*
X143710988Y-89603875D01*
X143710989Y-89603876D01*
X143768272Y-89630649D01*
X143772179Y-89632559D01*
X143835000Y-89664636D01*
X143842112Y-89666376D01*
X143847398Y-89668342D01*
X143852683Y-89670100D01*
X143859313Y-89673199D01*
X143928381Y-89687565D01*
X143932665Y-89688535D01*
X144001139Y-89705290D01*
X144011938Y-89705960D01*
X144011937Y-89705984D01*
X144016352Y-89706248D01*
X144019602Y-89706538D01*
X144026770Y-89708029D01*
X144034087Y-89707831D01*
X144101541Y-89706006D01*
X144104949Y-89705960D01*
X146684918Y-89705960D01*
X146753039Y-89725962D01*
X146799532Y-89779618D01*
X146810918Y-89831960D01*
X146810918Y-95161003D01*
X146809367Y-95180715D01*
X146808300Y-95187452D01*
X146808300Y-95187451D01*
X146807268Y-95193967D01*
X146807613Y-95200554D01*
X146807613Y-95200558D01*
X146810745Y-95260310D01*
X146810918Y-95266905D01*
X146810918Y-95286766D01*
X146812995Y-95306529D01*
X146813511Y-95313088D01*
X146815693Y-95354727D01*
X146816642Y-95372831D01*
X146816642Y-95372832D01*
X146816988Y-95379431D01*
X146818699Y-95385815D01*
X146818699Y-95385817D01*
X146820459Y-95392386D01*
X146824061Y-95411821D01*
X146824773Y-95418591D01*
X146824774Y-95418595D01*
X146825464Y-95425162D01*
X146846000Y-95488368D01*
X146847851Y-95494615D01*
X146865056Y-95558822D01*
X146868049Y-95564697D01*
X146868052Y-95564704D01*
X146871145Y-95570774D01*
X146878706Y-95589029D01*
X146880811Y-95595505D01*
X146880813Y-95595509D01*
X146882854Y-95601791D01*
X146886153Y-95607506D01*
X146886158Y-95607516D01*
X146916069Y-95659321D01*
X146919204Y-95665093D01*
X146949370Y-95724299D01*
X146953527Y-95729433D01*
X146953528Y-95729434D01*
X146957811Y-95734723D01*
X146969006Y-95751011D01*
X146975714Y-95762629D01*
X146980131Y-95767535D01*
X146980135Y-95767540D01*
X147020165Y-95811998D01*
X147024449Y-95817013D01*
X147030991Y-95825091D01*
X147036946Y-95832445D01*
X147050982Y-95846481D01*
X147055523Y-95851266D01*
X147099984Y-95900645D01*
X147110844Y-95908535D01*
X147125873Y-95921372D01*
X148013510Y-96809010D01*
X148026350Y-96824044D01*
X148030350Y-96829550D01*
X148030352Y-96829552D01*
X148034233Y-96834894D01*
X148039143Y-96839315D01*
X148039144Y-96839316D01*
X148083602Y-96879346D01*
X148088387Y-96883887D01*
X148102432Y-96897932D01*
X148105006Y-96900016D01*
X148105009Y-96900019D01*
X148117864Y-96910429D01*
X148122880Y-96914713D01*
X148167338Y-96954743D01*
X148167343Y-96954747D01*
X148172249Y-96959164D01*
X148181891Y-96964731D01*
X148183866Y-96965871D01*
X148200159Y-96977069D01*
X148210579Y-96985507D01*
X148269781Y-97015673D01*
X148275551Y-97018806D01*
X148327363Y-97048720D01*
X148327368Y-97048722D01*
X148333087Y-97052024D01*
X148339367Y-97054065D01*
X148339375Y-97054068D01*
X148345839Y-97056168D01*
X148364101Y-97063732D01*
X148370167Y-97066823D01*
X148370176Y-97066826D01*
X148376055Y-97069822D01*
X148382433Y-97071531D01*
X148440222Y-97087016D01*
X148446524Y-97088882D01*
X148509716Y-97109414D01*
X148519666Y-97110460D01*
X148523046Y-97110815D01*
X148542489Y-97114418D01*
X148555447Y-97117890D01*
X148562037Y-97118235D01*
X148562041Y-97118236D01*
X148597274Y-97120082D01*
X148618207Y-97121179D01*
X148621785Y-97121367D01*
X148628349Y-97121883D01*
X148648112Y-97123960D01*
X148667973Y-97123960D01*
X148674568Y-97124133D01*
X148716400Y-97126325D01*
X148740911Y-97127610D01*
X148751958Y-97125860D01*
X148754162Y-97125511D01*
X148773874Y-97123960D01*
X149418270Y-97123960D01*
X149486391Y-97143962D01*
X149507365Y-97160865D01*
X150043557Y-97697057D01*
X150077583Y-97759369D01*
X150072518Y-97830184D01*
X150055292Y-97861710D01*
X149993803Y-97943755D01*
X149942673Y-98080144D01*
X149935918Y-98142326D01*
X149935918Y-99938594D01*
X149942673Y-100000776D01*
X149993803Y-100137165D01*
X150081157Y-100253721D01*
X150197713Y-100341075D01*
X150334102Y-100392205D01*
X150396284Y-100398960D01*
X152192552Y-100398960D01*
X152254734Y-100392205D01*
X152391123Y-100341075D01*
X152507679Y-100253721D01*
X152595033Y-100137165D01*
X152646163Y-100000776D01*
X152652918Y-99938594D01*
X152652918Y-98983608D01*
X152672920Y-98915487D01*
X152689823Y-98894513D01*
X153623471Y-97960865D01*
X153685783Y-97926839D01*
X153712566Y-97923960D01*
X157814961Y-97923960D01*
X157834673Y-97925511D01*
X157847925Y-97927610D01*
X157854512Y-97927265D01*
X157854516Y-97927265D01*
X157914268Y-97924133D01*
X157920863Y-97923960D01*
X161898961Y-97923960D01*
X161918673Y-97925511D01*
X161931925Y-97927610D01*
X161938512Y-97927265D01*
X161938516Y-97927265D01*
X161998268Y-97924133D01*
X162004863Y-97923960D01*
X162024724Y-97923960D01*
X162027995Y-97923616D01*
X162044477Y-97921884D01*
X162051051Y-97921367D01*
X162105552Y-97918510D01*
X162117389Y-97917890D01*
X162130347Y-97914418D01*
X162149790Y-97910815D01*
X162163120Y-97909414D01*
X162226312Y-97888882D01*
X162232614Y-97887016D01*
X162296781Y-97869822D01*
X162302660Y-97866826D01*
X162302669Y-97866823D01*
X162308735Y-97863732D01*
X162326997Y-97856168D01*
X162333461Y-97854068D01*
X162333469Y-97854065D01*
X162339749Y-97852024D01*
X162345468Y-97848722D01*
X162345473Y-97848720D01*
X162397285Y-97818806D01*
X162403055Y-97815673D01*
X162462257Y-97785507D01*
X162467389Y-97781351D01*
X162472677Y-97777069D01*
X162488970Y-97765871D01*
X162500587Y-97759164D01*
X162505493Y-97754747D01*
X162505498Y-97754743D01*
X162549956Y-97714713D01*
X162554972Y-97710429D01*
X162567827Y-97700019D01*
X162570404Y-97697932D01*
X162584449Y-97683887D01*
X162589234Y-97679346D01*
X162638603Y-97634894D01*
X162646493Y-97624034D01*
X162659330Y-97609006D01*
X163527477Y-96740859D01*
X163529562Y-96738284D01*
X163610896Y-96637846D01*
X163610899Y-96637842D01*
X163615052Y-96632713D01*
X163699367Y-96467236D01*
X163713638Y-96413977D01*
X163750588Y-96353355D01*
X163801885Y-96325112D01*
X163882841Y-96302813D01*
X163893059Y-96299999D01*
X164053254Y-96215538D01*
X164058467Y-96211133D01*
X164058471Y-96211130D01*
X164186361Y-96103054D01*
X164186365Y-96103050D01*
X164191575Y-96098647D01*
X164195722Y-96093223D01*
X164195723Y-96093222D01*
X164297424Y-95960203D01*
X164297427Y-95960199D01*
X164301568Y-95954782D01*
X164341994Y-95868088D01*
X164375223Y-95796829D01*
X164375224Y-95796826D01*
X164378103Y-95790652D01*
X164379589Y-95784004D01*
X164379590Y-95784001D01*
X164403275Y-95678039D01*
X164417608Y-95613917D01*
X164417918Y-95608372D01*
X164417918Y-95475216D01*
X164403275Y-95340423D01*
X164355548Y-95198606D01*
X164347690Y-95175256D01*
X164347689Y-95175254D01*
X164345512Y-95168785D01*
X164252241Y-95013555D01*
X164247553Y-95008598D01*
X164247551Y-95008595D01*
X164132500Y-94886933D01*
X164132498Y-94886931D01*
X164127811Y-94881975D01*
X164122173Y-94878143D01*
X164122169Y-94878140D01*
X164015916Y-94805931D01*
X163978030Y-94780183D01*
X163971694Y-94777649D01*
X163969763Y-94776622D01*
X163919007Y-94726979D01*
X163902918Y-94665371D01*
X163902918Y-93832326D01*
X163896163Y-93770144D01*
X163845033Y-93633755D01*
X163757679Y-93517199D01*
X163641123Y-93429845D01*
X163632721Y-93426695D01*
X163625539Y-93422763D01*
X163575393Y-93372505D01*
X163560380Y-93303114D01*
X163584112Y-93238185D01*
X163623835Y-93183511D01*
X163626519Y-93177483D01*
X163626520Y-93177481D01*
X163696371Y-93020592D01*
X163701511Y-93009047D01*
X163717284Y-92934841D01*
X163739845Y-92828703D01*
X163739845Y-92828698D01*
X163741217Y-92822246D01*
X163741217Y-92669755D01*
X163761219Y-92601634D01*
X163778122Y-92580660D01*
X175114665Y-81244117D01*
X175122955Y-81236573D01*
X175129436Y-81232460D01*
X175134861Y-81226683D01*
X175176076Y-81182793D01*
X175178831Y-81179951D01*
X175198552Y-81160230D01*
X175201030Y-81157035D01*
X175208736Y-81148013D01*
X175239004Y-81115781D01*
X175242824Y-81108832D01*
X175248764Y-81098028D01*
X175259617Y-81081504D01*
X175272031Y-81065501D01*
X175289594Y-81024917D01*
X175294801Y-81014287D01*
X175316113Y-80975520D01*
X175318084Y-80967843D01*
X175318086Y-80967838D01*
X175321150Y-80955902D01*
X175327555Y-80937194D01*
X175335599Y-80918605D01*
X175336838Y-80910780D01*
X175336839Y-80910778D01*
X175342515Y-80874941D01*
X175344922Y-80863320D01*
X175353946Y-80828171D01*
X175355918Y-80820490D01*
X175355918Y-80800229D01*
X175357469Y-80780520D01*
X175360637Y-80760517D01*
X175359891Y-80752625D01*
X175359397Y-80747398D01*
X175356477Y-80716506D01*
X175355918Y-80704649D01*
X175355918Y-77499054D01*
X175375920Y-77430933D01*
X175392823Y-77409959D01*
X176725162Y-76077620D01*
X176787474Y-76043594D01*
X176858289Y-76048659D01*
X176898564Y-76073077D01*
X176983773Y-76149799D01*
X177016823Y-76168880D01*
X177098903Y-76216269D01*
X177149161Y-76245286D01*
X177330789Y-76304301D01*
X177337350Y-76304991D01*
X177337352Y-76304991D01*
X177386907Y-76310199D01*
X177520717Y-76324263D01*
X177527282Y-76323573D01*
X177691144Y-76306351D01*
X177760982Y-76319123D01*
X177812829Y-76367625D01*
X177830223Y-76436458D01*
X177807641Y-76503768D01*
X177802234Y-76510649D01*
X177802285Y-76510688D01*
X177802283Y-76510690D01*
X177799803Y-76513887D01*
X177792098Y-76522909D01*
X177781531Y-76534162D01*
X177761832Y-76555139D01*
X177758013Y-76562085D01*
X177758011Y-76562088D01*
X177752070Y-76572894D01*
X177741219Y-76589413D01*
X177738128Y-76593398D01*
X177728804Y-76605419D01*
X177725659Y-76612688D01*
X177725656Y-76612692D01*
X177711244Y-76645997D01*
X177706027Y-76656647D01*
X177684723Y-76695400D01*
X177679685Y-76715023D01*
X177673281Y-76733726D01*
X177668385Y-76745040D01*
X177668385Y-76745041D01*
X177665237Y-76752315D01*
X177663998Y-76760138D01*
X177663995Y-76760148D01*
X177658319Y-76795984D01*
X177655913Y-76807604D01*
X177646890Y-76842749D01*
X177646890Y-76842750D01*
X177644918Y-76850430D01*
X177644918Y-76870684D01*
X177643367Y-76890395D01*
X177641438Y-76902574D01*
X177640198Y-76910403D01*
X177642965Y-76939674D01*
X177644359Y-76954421D01*
X177644918Y-76966279D01*
X177644918Y-79899693D01*
X177644391Y-79910876D01*
X177642716Y-79918369D01*
X177642965Y-79926295D01*
X177642965Y-79926296D01*
X177644856Y-79986446D01*
X177644918Y-79990405D01*
X177644918Y-80018316D01*
X177645415Y-80022250D01*
X177645415Y-80022251D01*
X177645423Y-80022316D01*
X177646356Y-80034153D01*
X177647356Y-80065970D01*
X177647496Y-80070431D01*
X177647745Y-80078350D01*
X177652874Y-80096006D01*
X177653396Y-80097802D01*
X177657404Y-80117154D01*
X177658298Y-80124225D01*
X177659944Y-80137257D01*
X177662861Y-80144626D01*
X177662862Y-80144628D01*
X177676218Y-80178363D01*
X177680063Y-80189591D01*
X177692400Y-80232053D01*
X177696435Y-80238876D01*
X177696436Y-80238878D01*
X177702711Y-80249488D01*
X177711406Y-80267236D01*
X177718866Y-80286077D01*
X177723528Y-80292493D01*
X177723528Y-80292494D01*
X177744854Y-80321847D01*
X177751370Y-80331767D01*
X177769838Y-80362995D01*
X177769840Y-80362998D01*
X177773876Y-80369822D01*
X177788197Y-80384143D01*
X177801037Y-80399176D01*
X177812946Y-80415567D01*
X177819051Y-80420618D01*
X177819056Y-80420623D01*
X177847022Y-80443759D01*
X177855800Y-80451747D01*
X178636766Y-81232713D01*
X178644306Y-81240999D01*
X178648418Y-81247478D01*
X178654195Y-81252903D01*
X178698069Y-81294103D01*
X178700911Y-81296858D01*
X178720648Y-81316595D01*
X178723845Y-81319075D01*
X178732865Y-81326778D01*
X178765097Y-81357046D01*
X178772043Y-81360865D01*
X178772046Y-81360867D01*
X178782852Y-81366808D01*
X178799371Y-81377659D01*
X178815377Y-81390074D01*
X178822646Y-81393219D01*
X178822650Y-81393222D01*
X178855955Y-81407634D01*
X178866605Y-81412851D01*
X178905358Y-81434155D01*
X178913033Y-81436126D01*
X178913034Y-81436126D01*
X178924980Y-81439193D01*
X178943686Y-81445598D01*
X178949523Y-81448124D01*
X178988576Y-81474665D01*
X179051877Y-81537966D01*
X179058698Y-81542000D01*
X179167989Y-81606634D01*
X179191822Y-81620729D01*
X179190669Y-81622678D01*
X179236401Y-81660728D01*
X179257765Y-81728435D01*
X179239132Y-81796942D01*
X179186419Y-81844501D01*
X179131790Y-81856960D01*
X179045686Y-81856960D01*
X178943399Y-81867573D01*
X178898417Y-81882580D01*
X178788094Y-81919387D01*
X178788092Y-81919388D01*
X178781150Y-81921704D01*
X178770133Y-81928521D01*
X178754648Y-81938104D01*
X178688345Y-81956960D01*
X175749875Y-81956960D01*
X175730163Y-81955409D01*
X175723426Y-81954342D01*
X175716911Y-81953310D01*
X175650568Y-81956787D01*
X175643973Y-81956960D01*
X175624112Y-81956960D01*
X175604349Y-81959037D01*
X175597785Y-81959553D01*
X175593920Y-81959755D01*
X175531447Y-81963030D01*
X175518489Y-81966502D01*
X175499046Y-81970105D01*
X175498623Y-81970149D01*
X175485716Y-81971506D01*
X175422524Y-81992038D01*
X175416222Y-81993904D01*
X175358433Y-82009389D01*
X175352055Y-82011098D01*
X175346176Y-82014094D01*
X175346167Y-82014097D01*
X175340101Y-82017188D01*
X175321839Y-82024752D01*
X175315375Y-82026852D01*
X175315367Y-82026855D01*
X175309087Y-82028896D01*
X175303368Y-82032198D01*
X175303363Y-82032200D01*
X175251551Y-82062114D01*
X175245781Y-82065247D01*
X175186579Y-82095413D01*
X175176159Y-82103851D01*
X175159866Y-82115049D01*
X175159031Y-82115531D01*
X175148249Y-82121756D01*
X175143343Y-82126173D01*
X175143338Y-82126177D01*
X175098880Y-82166207D01*
X175093864Y-82170491D01*
X175081009Y-82180901D01*
X175081006Y-82180904D01*
X175078432Y-82182988D01*
X175064387Y-82197033D01*
X175059602Y-82201574D01*
X175015144Y-82241604D01*
X175015143Y-82241605D01*
X175010233Y-82246026D01*
X175002343Y-82256886D01*
X174989506Y-82271914D01*
X168417966Y-88843454D01*
X168391871Y-88863478D01*
X168349192Y-88888119D01*
X168343474Y-88891420D01*
X168335157Y-88898908D01*
X168206463Y-89014785D01*
X168206462Y-89014786D01*
X168201552Y-89019207D01*
X168105887Y-89150878D01*
X168093181Y-89168366D01*
X168093180Y-89168367D01*
X168089300Y-89173708D01*
X168086616Y-89179736D01*
X168086615Y-89179738D01*
X168014309Y-89342141D01*
X168014309Y-89342142D01*
X168011624Y-89348172D01*
X167991771Y-89441573D01*
X167973290Y-89528516D01*
X167973290Y-89528521D01*
X167971918Y-89534973D01*
X167971918Y-89725947D01*
X167973290Y-89732399D01*
X167973290Y-89732404D01*
X167991771Y-89819348D01*
X168011624Y-89912748D01*
X168014309Y-89918778D01*
X168014309Y-89918779D01*
X168086615Y-90081182D01*
X168086616Y-90081184D01*
X168089300Y-90087212D01*
X168093180Y-90092553D01*
X168093181Y-90092554D01*
X168105887Y-90110042D01*
X168201552Y-90241713D01*
X168206462Y-90246134D01*
X168206463Y-90246135D01*
X168335157Y-90362011D01*
X168343474Y-90369500D01*
X168349192Y-90372801D01*
X168464822Y-90439560D01*
X168508862Y-90464987D01*
X168690490Y-90524002D01*
X168697051Y-90524692D01*
X168697053Y-90524692D01*
X168773624Y-90532740D01*
X168880418Y-90543964D01*
X169070346Y-90524002D01*
X169251974Y-90464987D01*
X169417362Y-90369500D01*
X169422269Y-90365082D01*
X169422270Y-90365081D01*
X169540765Y-90258388D01*
X169559284Y-90241713D01*
X169652666Y-90113184D01*
X169661490Y-90101039D01*
X169674331Y-90086005D01*
X175999471Y-83760865D01*
X176061783Y-83726839D01*
X176088566Y-83723960D01*
X178688522Y-83723960D01*
X178754639Y-83742701D01*
X178774925Y-83755205D01*
X178782317Y-83759762D01*
X178944661Y-83813609D01*
X178951498Y-83814309D01*
X178951500Y-83814310D01*
X178975934Y-83816813D01*
X179045686Y-83823960D01*
X179354824Y-83823960D01*
X179422945Y-83843962D01*
X179443919Y-83860865D01*
X181672013Y-86088960D01*
X181706039Y-86151272D01*
X181708918Y-86178055D01*
X181708918Y-95710076D01*
X181688916Y-95778197D01*
X181635260Y-95824690D01*
X181564986Y-95834794D01*
X181500406Y-95805300D01*
X181468065Y-95761890D01*
X181454350Y-95731488D01*
X181446098Y-95719250D01*
X181358385Y-95589177D01*
X181355400Y-95584750D01*
X181334687Y-95563079D01*
X181299985Y-95526773D01*
X181295116Y-95521376D01*
X181290048Y-95515421D01*
X181285258Y-95507829D01*
X181278529Y-95501886D01*
X181278527Y-95501884D01*
X181270375Y-95494685D01*
X181255876Y-95479556D01*
X181243377Y-95464127D01*
X181234078Y-95455713D01*
X181211069Y-95440605D01*
X181196820Y-95429723D01*
X181182918Y-95417445D01*
X181182915Y-95417443D01*
X181176190Y-95411504D01*
X181167301Y-95407330D01*
X181162445Y-95405051D01*
X181151158Y-95399751D01*
X181135562Y-95391028D01*
X181112440Y-95375847D01*
X181103856Y-95373225D01*
X181103853Y-95373223D01*
X181086117Y-95367804D01*
X181069385Y-95361358D01*
X181052600Y-95353478D01*
X181044470Y-95349661D01*
X181017150Y-95345407D01*
X180999719Y-95341409D01*
X180981861Y-95335953D01*
X180981860Y-95335953D01*
X180973275Y-95333330D01*
X180938427Y-95332911D01*
X180936276Y-95332815D01*
X180933995Y-95332460D01*
X180901662Y-95332460D01*
X180900148Y-95332451D01*
X180898448Y-95332431D01*
X180827771Y-95331581D01*
X180825229Y-95332291D01*
X180822642Y-95332460D01*
X173903120Y-95332460D01*
X173902350Y-95332458D01*
X173869396Y-95332257D01*
X173824766Y-95331984D01*
X173816137Y-95334450D01*
X173816132Y-95334451D01*
X173796370Y-95340099D01*
X173779609Y-95343677D01*
X173759266Y-95346590D01*
X173759256Y-95346593D01*
X173750373Y-95347865D01*
X173727023Y-95358481D01*
X173709511Y-95364924D01*
X173696618Y-95368609D01*
X173684853Y-95371972D01*
X173659870Y-95387734D01*
X173644804Y-95395864D01*
X173617908Y-95408093D01*
X173598479Y-95424834D01*
X173583471Y-95435939D01*
X173569379Y-95444830D01*
X173561787Y-95449620D01*
X173542236Y-95471757D01*
X173530044Y-95483801D01*
X173514469Y-95497221D01*
X173514468Y-95497223D01*
X173507671Y-95503079D01*
X173502792Y-95510607D01*
X173502789Y-95510610D01*
X173493722Y-95524599D01*
X173482432Y-95539473D01*
X173471406Y-95551958D01*
X173465462Y-95558688D01*
X173461647Y-95566814D01*
X173461646Y-95566815D01*
X173458986Y-95572481D01*
X173452908Y-95585426D01*
X173444594Y-95600395D01*
X173428525Y-95625187D01*
X173421179Y-95649751D01*
X173414517Y-95667196D01*
X173411603Y-95673403D01*
X173403619Y-95690408D01*
X173399075Y-95719590D01*
X173395292Y-95736309D01*
X173389404Y-95755996D01*
X173389403Y-95755999D01*
X173386831Y-95764601D01*
X173386776Y-95773576D01*
X173386776Y-95773577D01*
X173386735Y-95780270D01*
X173386621Y-95799016D01*
X173386588Y-95799788D01*
X173386418Y-95800883D01*
X173386418Y-95831758D01*
X173386416Y-95832528D01*
X173385966Y-95906176D01*
X173385966Y-95906177D01*
X173385942Y-95910112D01*
X173386326Y-95911456D01*
X173386418Y-95912801D01*
X173386418Y-100633271D01*
X173386408Y-100634836D01*
X173386404Y-100635195D01*
X173385513Y-100706904D01*
X173389404Y-100720850D01*
X173393989Y-100737284D01*
X173397352Y-100753283D01*
X173400550Y-100775618D01*
X173400551Y-100775620D01*
X173401823Y-100784505D01*
X173405538Y-100792676D01*
X173405539Y-100792679D01*
X173411603Y-100806016D01*
X173418265Y-100824302D01*
X173422203Y-100838417D01*
X173422206Y-100838423D01*
X173424617Y-100847066D01*
X173441281Y-100873850D01*
X173448994Y-100888253D01*
X173462051Y-100916970D01*
X173467911Y-100923771D01*
X173477476Y-100934872D01*
X173489002Y-100950552D01*
X173501488Y-100970619D01*
X173504658Y-100974299D01*
X173504659Y-100974301D01*
X173506495Y-100976433D01*
X173506498Y-100976436D01*
X173509671Y-100980120D01*
X173513372Y-100983271D01*
X173513380Y-100983279D01*
X173526176Y-100994173D01*
X173531567Y-100999037D01*
X173533956Y-101001321D01*
X173542337Y-101010147D01*
X173551177Y-101020407D01*
X173551180Y-101020410D01*
X173557037Y-101027207D01*
X173564569Y-101032089D01*
X173571334Y-101037990D01*
X173571248Y-101038088D01*
X173578047Y-101043462D01*
X173624539Y-101087899D01*
X173638708Y-101101442D01*
X173697832Y-101141311D01*
X173759434Y-101182851D01*
X173785446Y-101200392D01*
X173790320Y-101202591D01*
X173790324Y-101202593D01*
X173879034Y-101242611D01*
X173946775Y-101273170D01*
X174118069Y-101317688D01*
X174123387Y-101318140D01*
X174123388Y-101318140D01*
X174163997Y-101321590D01*
X174294418Y-101332670D01*
X174303681Y-101331883D01*
X174439087Y-101320379D01*
X174470767Y-101317688D01*
X174642061Y-101273170D01*
X174646935Y-101270971D01*
X174793053Y-101205055D01*
X174803390Y-101200392D01*
X174807823Y-101197403D01*
X174807826Y-101197401D01*
X174851281Y-101168098D01*
X174950128Y-101101442D01*
X174953988Y-101097753D01*
X174953990Y-101097751D01*
X175008105Y-101046027D01*
X175013502Y-101041158D01*
X175019457Y-101036090D01*
X175027049Y-101031300D01*
X175032992Y-101024571D01*
X175032994Y-101024569D01*
X175040193Y-101016417D01*
X175055322Y-101001918D01*
X175070751Y-100989419D01*
X175079165Y-100980120D01*
X175090211Y-100963297D01*
X175094273Y-100957111D01*
X175105155Y-100942862D01*
X175117433Y-100928960D01*
X175117435Y-100928957D01*
X175123374Y-100922232D01*
X175135127Y-100897200D01*
X175143850Y-100881604D01*
X175159031Y-100858482D01*
X175161653Y-100849898D01*
X175161655Y-100849895D01*
X175167074Y-100832159D01*
X175173520Y-100815427D01*
X175178831Y-100804114D01*
X175185217Y-100790512D01*
X175189471Y-100763192D01*
X175193469Y-100745761D01*
X175198925Y-100727903D01*
X175198925Y-100727902D01*
X175201548Y-100719317D01*
X175201656Y-100710342D01*
X175201656Y-100710341D01*
X175201967Y-100684469D01*
X175202063Y-100682318D01*
X175202418Y-100680037D01*
X175202418Y-100647704D01*
X175202427Y-100646191D01*
X175203297Y-100573813D01*
X175202587Y-100571271D01*
X175202418Y-100568684D01*
X175202418Y-100167569D01*
X175222420Y-100099448D01*
X175276076Y-100052955D01*
X175346350Y-100042851D01*
X175410930Y-100072345D01*
X175432148Y-100098599D01*
X175432866Y-100098077D01*
X175458854Y-100133847D01*
X175465370Y-100143768D01*
X175487876Y-100181822D01*
X175493482Y-100187429D01*
X175502198Y-100196145D01*
X175515038Y-100211178D01*
X175526946Y-100227567D01*
X175538775Y-100237353D01*
X175561011Y-100255748D01*
X175569792Y-100263738D01*
X175863771Y-100557718D01*
X175871305Y-100565997D01*
X175875418Y-100572478D01*
X175925070Y-100619104D01*
X175927912Y-100621859D01*
X175947648Y-100641595D01*
X175950845Y-100644075D01*
X175959865Y-100651778D01*
X175992097Y-100682046D01*
X175999043Y-100685865D01*
X175999046Y-100685867D01*
X176009852Y-100691808D01*
X176026371Y-100702659D01*
X176042377Y-100715074D01*
X176049646Y-100718219D01*
X176049650Y-100718222D01*
X176082955Y-100732634D01*
X176093605Y-100737851D01*
X176132358Y-100759155D01*
X176140033Y-100761126D01*
X176140034Y-100761126D01*
X176151980Y-100764193D01*
X176170684Y-100770597D01*
X176181930Y-100775463D01*
X176189273Y-100778641D01*
X176197096Y-100779880D01*
X176197106Y-100779883D01*
X176232942Y-100785559D01*
X176244562Y-100787965D01*
X176251422Y-100789726D01*
X176287388Y-100798960D01*
X176307642Y-100798960D01*
X176327352Y-100800511D01*
X176347361Y-100803680D01*
X176355253Y-100802934D01*
X176391379Y-100799519D01*
X176403237Y-100798960D01*
X176466039Y-100798960D01*
X176534160Y-100818962D01*
X176563302Y-100845354D01*
X176565666Y-100849173D01*
X176686716Y-100970012D01*
X176692946Y-100973852D01*
X176692947Y-100973853D01*
X176818223Y-101051074D01*
X176832317Y-101059762D01*
X176994661Y-101113609D01*
X177095686Y-101123960D01*
X177693150Y-101123960D01*
X177696396Y-101123623D01*
X177696400Y-101123623D01*
X177718738Y-101121305D01*
X177795437Y-101113347D01*
X177812946Y-101107505D01*
X177949571Y-101061923D01*
X177957686Y-101059216D01*
X178024591Y-101017814D01*
X178090891Y-100998960D01*
X178866349Y-100998960D01*
X178934470Y-101018962D01*
X178943041Y-101024989D01*
X179006347Y-101073565D01*
X179151331Y-101133620D01*
X179159515Y-101134697D01*
X179159517Y-101134698D01*
X179239132Y-101145179D01*
X179267852Y-101148960D01*
X179520984Y-101148960D01*
X179637505Y-101133620D01*
X179782490Y-101073565D01*
X179789041Y-101068538D01*
X179789043Y-101068537D01*
X179817715Y-101046536D01*
X179883935Y-101020936D01*
X179953484Y-101035201D01*
X179971122Y-101046536D01*
X180006347Y-101073565D01*
X180013973Y-101076724D01*
X180013975Y-101076725D01*
X180078698Y-101103534D01*
X180151331Y-101133620D01*
X180159515Y-101134697D01*
X180159517Y-101134698D01*
X180254301Y-101147176D01*
X180267852Y-101148960D01*
X180520984Y-101148960D01*
X180525070Y-101148422D01*
X180525071Y-101148422D01*
X180629317Y-101134698D01*
X180637505Y-101133620D01*
X180782490Y-101073565D01*
X180789041Y-101068538D01*
X180789043Y-101068537D01*
X180900437Y-100983061D01*
X180900440Y-100983058D01*
X180906990Y-100978032D01*
X180912016Y-100971482D01*
X180912017Y-100971481D01*
X180936764Y-100939230D01*
X181002523Y-100853531D01*
X181005682Y-100845905D01*
X181005683Y-100845903D01*
X181059417Y-100716179D01*
X181059418Y-100716177D01*
X181062578Y-100708547D01*
X181063657Y-100700354D01*
X181064728Y-100696355D01*
X181097341Y-100639868D01*
X184371082Y-97366127D01*
X184433394Y-97332101D01*
X184504209Y-97337166D01*
X184561045Y-97379713D01*
X184585856Y-97446233D01*
X184586177Y-97455211D01*
X184586346Y-99410953D01*
X184586417Y-100232383D01*
X184586395Y-100234738D01*
X184585101Y-100303666D01*
X184587459Y-100312329D01*
X184587459Y-100312332D01*
X184588861Y-100317484D01*
X184593069Y-100343249D01*
X184601765Y-100492702D01*
X184601385Y-100512226D01*
X184586084Y-100669439D01*
X184580211Y-100697079D01*
X184464458Y-101044338D01*
X184451516Y-101071680D01*
X184371082Y-101199288D01*
X184360544Y-101216006D01*
X184348883Y-101231669D01*
X184343270Y-101238100D01*
X184234437Y-101362801D01*
X184220504Y-101376465D01*
X184087172Y-101488339D01*
X184071296Y-101499686D01*
X183922277Y-101589616D01*
X183904829Y-101598378D01*
X183854423Y-101618970D01*
X183743709Y-101664200D01*
X183725120Y-101670160D01*
X183555765Y-101710297D01*
X183536471Y-101713314D01*
X183394230Y-101724369D01*
X183377310Y-101723719D01*
X183377308Y-101723864D01*
X183368334Y-101723754D01*
X183359462Y-101722373D01*
X183327899Y-101726500D01*
X183311579Y-101727564D01*
X183308124Y-101727564D01*
X147606989Y-101731590D01*
X147606989Y-100968960D01*
X147606989Y-97087960D01*
X145287292Y-97087960D01*
X145219171Y-97067958D01*
X145172678Y-97014302D01*
X145163003Y-96982649D01*
X145139758Y-96842995D01*
X145138692Y-96839361D01*
X145138691Y-96839357D01*
X145050155Y-96537567D01*
X145050152Y-96537559D01*
X145049086Y-96533925D01*
X144921941Y-96237986D01*
X144920037Y-96234709D01*
X144920034Y-96234702D01*
X144802046Y-96031573D01*
X144760163Y-95959466D01*
X144566097Y-95702398D01*
X144351935Y-95480239D01*
X144345186Y-95473238D01*
X144345183Y-95473236D01*
X144342553Y-95470507D01*
X144339613Y-95468113D01*
X144339607Y-95468108D01*
X144095710Y-95269545D01*
X144095706Y-95269542D01*
X144092769Y-95267151D01*
X144020463Y-95221529D01*
X143823577Y-95097303D01*
X143823574Y-95097301D01*
X143820364Y-95095276D01*
X143733875Y-95054300D01*
X143628911Y-95004572D01*
X143529283Y-94957372D01*
X143484642Y-94942478D01*
X143356157Y-94899613D01*
X143223743Y-94855436D01*
X143217673Y-94854195D01*
X143042613Y-94818420D01*
X142908170Y-94790945D01*
X142587134Y-94764833D01*
X142531088Y-94764246D01*
X142515666Y-94765175D01*
X142213354Y-94783401D01*
X142213350Y-94783401D01*
X142209576Y-94783629D01*
X141892721Y-94841497D01*
X141585114Y-94937012D01*
X141291209Y-95068790D01*
X141015264Y-95234922D01*
X141012280Y-95237249D01*
X141012273Y-95237254D01*
X140764271Y-95430666D01*
X140764268Y-95430668D01*
X140761276Y-95433002D01*
X140544418Y-95648727D01*
X140535610Y-95657489D01*
X140532924Y-95660161D01*
X140333517Y-95913108D01*
X140165942Y-96188180D01*
X140032627Y-96481391D01*
X139935503Y-96788494D01*
X139902345Y-96964821D01*
X139876677Y-97101317D01*
X139876676Y-97101322D01*
X139875977Y-97105041D01*
X139856681Y-97399442D01*
X139855159Y-97422663D01*
X139854911Y-97426447D01*
X139855119Y-97430227D01*
X139855119Y-97430228D01*
X139860199Y-97522538D01*
X139872610Y-97748056D01*
X139873271Y-97751783D01*
X139873271Y-97751787D01*
X139889224Y-97841801D01*
X139928818Y-98065210D01*
X139929923Y-98068835D01*
X139929924Y-98068840D01*
X139980054Y-98233319D01*
X140022721Y-98373313D01*
X140024252Y-98376777D01*
X140024255Y-98376784D01*
X140104401Y-98558070D01*
X140152958Y-98667904D01*
X140154894Y-98671158D01*
X140154897Y-98671164D01*
X140307911Y-98928357D01*
X140317643Y-98944715D01*
X140319958Y-98947716D01*
X140319961Y-98947720D01*
X140377576Y-99022399D01*
X140514391Y-99199737D01*
X140517047Y-99202435D01*
X140705770Y-99394146D01*
X140740351Y-99429275D01*
X140992251Y-99630004D01*
X141266441Y-99799017D01*
X141558950Y-99933865D01*
X141562550Y-99935024D01*
X141562557Y-99935027D01*
X141585114Y-99942291D01*
X141865541Y-100032596D01*
X141869257Y-100033315D01*
X141869265Y-100033317D01*
X142178053Y-100093060D01*
X142178062Y-100093061D01*
X142181772Y-100093779D01*
X142185548Y-100094046D01*
X142185553Y-100094047D01*
X142499274Y-100116259D01*
X142503063Y-100116527D01*
X142515666Y-100115900D01*
X142531088Y-100115132D01*
X142807158Y-100101388D01*
X142824760Y-100100512D01*
X142828493Y-100099871D01*
X142828498Y-100099870D01*
X143073589Y-100057755D01*
X143142204Y-100045965D01*
X143145843Y-100044877D01*
X143145846Y-100044876D01*
X143437218Y-99957737D01*
X143450795Y-99953677D01*
X143746064Y-99824984D01*
X143749335Y-99823061D01*
X143749339Y-99823059D01*
X144020463Y-99663673D01*
X144020471Y-99663668D01*
X144023733Y-99661750D01*
X144026748Y-99659449D01*
X144231404Y-99503261D01*
X144297691Y-99477834D01*
X144367202Y-99492281D01*
X144417868Y-99542015D01*
X144433846Y-99603424D01*
X144433846Y-100968960D01*
X147606989Y-100968960D01*
X147606989Y-101731590D01*
X139912532Y-101732458D01*
X139905624Y-101732268D01*
X139858590Y-101729685D01*
X139858581Y-101729686D01*
X139849625Y-101729194D01*
X139840887Y-101731237D01*
X139840882Y-101731237D01*
X139835413Y-101732515D01*
X139809720Y-101735787D01*
X139656168Y-101739424D01*
X139637078Y-101738425D01*
X139476538Y-101717734D01*
X139460348Y-101715648D01*
X139441631Y-101711774D01*
X139270368Y-101662520D01*
X139252452Y-101655859D01*
X139210664Y-101636599D01*
X139090609Y-101581265D01*
X139073921Y-101571978D01*
X138925228Y-101473762D01*
X138910125Y-101462049D01*
X138825785Y-101385718D01*
X138777994Y-101342465D01*
X138764841Y-101328605D01*
X138652329Y-101190420D01*
X138641418Y-101174724D01*
X138622727Y-101142932D01*
X138551101Y-101021103D01*
X138542695Y-101003945D01*
X138476655Y-100838425D01*
X138470941Y-100820192D01*
X138455179Y-100752198D01*
X138430700Y-100646597D01*
X138427808Y-100627701D01*
X138416693Y-100481582D01*
X138417360Y-100464576D01*
X138417259Y-100464575D01*
X138417368Y-100455605D01*
X138418750Y-100446730D01*
X138414614Y-100415099D01*
X138413550Y-100398813D01*
X138410184Y-90128614D01*
X138407632Y-82343231D01*
X138427612Y-82275104D01*
G37*
G04 #@! TD.AperFunction*
G04 #@! TA.AperFunction,Conductor*
G36*
X138401044Y-43436925D02*
G01*
X138402024Y-43427129D01*
X138404840Y-43398978D01*
X138410680Y-43371675D01*
X138515439Y-43057397D01*
X138519386Y-43047086D01*
X138528180Y-43026820D01*
X138537299Y-43009593D01*
X138630140Y-42862900D01*
X138641806Y-42847285D01*
X138756169Y-42716658D01*
X138770105Y-42703029D01*
X138903242Y-42591608D01*
X138919113Y-42580292D01*
X139067852Y-42490732D01*
X139085272Y-42482002D01*
X139208054Y-42431943D01*
X139246032Y-42416459D01*
X139264596Y-42410519D01*
X139433543Y-42370554D01*
X139452800Y-42367547D01*
X139462648Y-42366783D01*
X139594603Y-42356546D01*
X139611524Y-42357198D01*
X139611526Y-42357056D01*
X139620502Y-42357166D01*
X139629373Y-42358547D01*
X139638275Y-42357383D01*
X139638277Y-42357383D01*
X139660932Y-42354420D01*
X139677255Y-42353356D01*
X140761276Y-42353233D01*
X140834122Y-42353225D01*
X140902245Y-42373219D01*
X140948744Y-42426870D01*
X140958856Y-42497143D01*
X140929370Y-42561727D01*
X140923232Y-42568320D01*
X140596744Y-42894809D01*
X140534431Y-42928834D01*
X140469969Y-42925948D01*
X140446866Y-42918708D01*
X140446863Y-42918707D01*
X140440480Y-42916707D01*
X140367053Y-42909960D01*
X139853784Y-42909961D01*
X139850892Y-42910226D01*
X139787019Y-42916095D01*
X139780356Y-42916707D01*
X139684062Y-42946884D01*
X139623968Y-42965716D01*
X139623966Y-42965717D01*
X139616719Y-42967988D01*
X139470037Y-43056821D01*
X139348779Y-43178079D01*
X139259946Y-43324761D01*
X139257675Y-43332008D01*
X139257674Y-43332010D01*
X139236901Y-43398296D01*
X139208665Y-43488398D01*
X139201918Y-43561825D01*
X139201918Y-43564723D01*
X139201919Y-44420682D01*
X139201919Y-45275094D01*
X139202182Y-45277952D01*
X139202182Y-45277961D01*
X139205444Y-45313464D01*
X139208665Y-45348522D01*
X139210664Y-45354900D01*
X139210664Y-45354901D01*
X139257674Y-45504910D01*
X139257675Y-45504912D01*
X139259946Y-45512159D01*
X139348779Y-45658841D01*
X139470037Y-45780099D01*
X139616719Y-45868932D01*
X139623966Y-45871203D01*
X139623968Y-45871204D01*
X139669063Y-45885336D01*
X139780356Y-45920213D01*
X139853783Y-45926960D01*
X140367052Y-45926959D01*
X140369910Y-45926696D01*
X140369919Y-45926696D01*
X140372869Y-45926425D01*
X140440480Y-45920213D01*
X140446858Y-45918214D01*
X140446859Y-45918214D01*
X140545478Y-45887308D01*
X140604117Y-45868932D01*
X140750799Y-45780099D01*
X140872057Y-45658841D01*
X140960890Y-45512159D01*
X140963161Y-45504912D01*
X140963162Y-45504910D01*
X140983935Y-45438624D01*
X141012171Y-45348522D01*
X141018918Y-45275095D01*
X141018918Y-44599476D01*
X141038920Y-44531355D01*
X141055823Y-44510381D01*
X142155339Y-43410865D01*
X142217651Y-43376839D01*
X142244434Y-43373960D01*
X145410402Y-43373960D01*
X145478523Y-43393962D01*
X145499497Y-43410865D01*
X147634525Y-45545892D01*
X147668676Y-45608789D01*
X147691624Y-45716748D01*
X147694309Y-45722778D01*
X147694309Y-45722779D01*
X147766615Y-45885182D01*
X147766616Y-45885184D01*
X147769300Y-45891212D01*
X147881552Y-46045713D01*
X147886462Y-46050134D01*
X147886463Y-46050135D01*
X148013510Y-46164528D01*
X148023474Y-46173500D01*
X148117864Y-46227996D01*
X148177918Y-46262668D01*
X148188862Y-46268987D01*
X148370490Y-46328002D01*
X148377051Y-46328692D01*
X148377053Y-46328692D01*
X148491773Y-46340749D01*
X148560418Y-46347964D01*
X148566983Y-46347274D01*
X148734320Y-46329686D01*
X148750346Y-46328002D01*
X148931974Y-46268987D01*
X149097362Y-46173500D01*
X149102269Y-46169082D01*
X149102270Y-46169081D01*
X149199782Y-46081281D01*
X149239284Y-46045713D01*
X149280397Y-45989126D01*
X149336991Y-45911231D01*
X149351536Y-45891212D01*
X149354220Y-45885184D01*
X149354221Y-45885182D01*
X149420669Y-45735936D01*
X149429212Y-45716748D01*
X149448989Y-45623705D01*
X149467546Y-45536404D01*
X149467546Y-45536399D01*
X149468918Y-45529947D01*
X149468918Y-45338973D01*
X149467546Y-45332521D01*
X149467546Y-45332516D01*
X149448989Y-45245215D01*
X149429212Y-45152172D01*
X149420669Y-45132984D01*
X149354221Y-44983738D01*
X149354220Y-44983736D01*
X149351536Y-44977708D01*
X149336991Y-44957688D01*
X149280397Y-44879794D01*
X149239284Y-44823207D01*
X149199782Y-44787639D01*
X149102270Y-44699839D01*
X149102269Y-44699838D01*
X149097362Y-44695420D01*
X148931974Y-44599933D01*
X148809701Y-44560204D01*
X148756631Y-44542960D01*
X148756630Y-44542960D01*
X148750346Y-44540918D01*
X148743163Y-44540163D01*
X148742832Y-44540027D01*
X148737318Y-44538855D01*
X148737532Y-44537847D01*
X148677506Y-44513155D01*
X148667232Y-44503948D01*
X146730930Y-42567646D01*
X146696904Y-42505334D01*
X146701969Y-42434519D01*
X146744516Y-42377683D01*
X146811036Y-42352872D01*
X146820011Y-42352551D01*
X165314209Y-42350466D01*
X176036376Y-42349256D01*
X176085045Y-42349251D01*
X176098358Y-42353158D01*
X176126606Y-42349246D01*
X183081942Y-42348462D01*
X183091898Y-42348461D01*
X183094655Y-42348491D01*
X183110092Y-42348829D01*
X183148776Y-42349675D01*
X183162287Y-42349971D01*
X183170959Y-42347640D01*
X183176135Y-42346249D01*
X183201896Y-42342122D01*
X183350923Y-42333894D01*
X183370410Y-42334328D01*
X183543157Y-42351608D01*
X183562344Y-42355042D01*
X183730365Y-42398760D01*
X183748793Y-42405113D01*
X183908058Y-42474222D01*
X183925285Y-42483341D01*
X184071978Y-42576182D01*
X184087593Y-42587848D01*
X184218220Y-42702211D01*
X184231849Y-42716147D01*
X184343270Y-42849284D01*
X184354586Y-42865155D01*
X184444146Y-43013894D01*
X184452876Y-43031314D01*
X184518420Y-43192078D01*
X184524359Y-43210638D01*
X184552815Y-43330934D01*
X184564324Y-43379588D01*
X184567331Y-43398842D01*
X184576108Y-43511975D01*
X184578332Y-43540645D01*
X184577680Y-43557566D01*
X184577822Y-43557568D01*
X184577712Y-43566544D01*
X184576331Y-43575415D01*
X184577495Y-43584317D01*
X184577495Y-43584319D01*
X184578332Y-43590718D01*
X184580457Y-43606972D01*
X184581521Y-43623288D01*
X184581900Y-47997838D01*
X184561904Y-48065960D01*
X184508252Y-48112457D01*
X184437979Y-48122567D01*
X184373396Y-48093080D01*
X184366805Y-48086943D01*
X184116075Y-47836213D01*
X184108531Y-47827923D01*
X184104418Y-47821442D01*
X184054750Y-47774801D01*
X184051909Y-47772047D01*
X184032188Y-47752326D01*
X184028993Y-47749848D01*
X184019971Y-47742142D01*
X183993519Y-47717302D01*
X183987739Y-47711874D01*
X183969986Y-47702114D01*
X183953463Y-47691261D01*
X183943724Y-47683707D01*
X183937459Y-47678847D01*
X183896875Y-47661284D01*
X183886245Y-47656077D01*
X183847478Y-47634765D01*
X183839801Y-47632794D01*
X183839796Y-47632792D01*
X183827860Y-47629728D01*
X183809148Y-47623322D01*
X183797837Y-47618427D01*
X183790563Y-47615279D01*
X183782735Y-47614039D01*
X183782728Y-47614037D01*
X183746894Y-47608361D01*
X183735274Y-47605955D01*
X183700129Y-47596932D01*
X183700128Y-47596932D01*
X183692448Y-47594960D01*
X183672194Y-47594960D01*
X183652483Y-47593409D01*
X183640304Y-47591480D01*
X183632475Y-47590240D01*
X183588456Y-47594401D01*
X183576599Y-47594960D01*
X177833352Y-47594960D01*
X177765231Y-47574958D01*
X177718738Y-47521302D01*
X177708634Y-47451028D01*
X177738128Y-47386448D01*
X177756908Y-47368799D01*
X177843111Y-47303011D01*
X177845830Y-47300363D01*
X177845835Y-47300358D01*
X178055059Y-47096541D01*
X178073829Y-47078256D01*
X178076209Y-47075302D01*
X178076211Y-47075299D01*
X178126796Y-47012496D01*
X178275874Y-46827410D01*
X178277882Y-46824190D01*
X178444309Y-46557336D01*
X178444313Y-46557329D01*
X178446321Y-46554109D01*
X178447933Y-46550661D01*
X178447933Y-46550660D01*
X178473046Y-46496927D01*
X178582699Y-46262310D01*
X178583882Y-46258700D01*
X178583884Y-46258696D01*
X178654195Y-46044214D01*
X178683034Y-45956241D01*
X178683773Y-45952527D01*
X178683773Y-45952526D01*
X178688522Y-45928651D01*
X178745871Y-45640334D01*
X178746158Y-45636562D01*
X178746159Y-45636554D01*
X178770015Y-45322943D01*
X178770015Y-45322938D01*
X178770302Y-45319166D01*
X178755971Y-44997389D01*
X178703088Y-44679665D01*
X178702022Y-44676031D01*
X178702021Y-44676027D01*
X178613485Y-44374237D01*
X178613482Y-44374229D01*
X178612416Y-44370595D01*
X178485271Y-44074656D01*
X178483367Y-44071379D01*
X178483364Y-44071372D01*
X178373621Y-43882437D01*
X178323493Y-43796136D01*
X178129427Y-43539068D01*
X177978991Y-43383015D01*
X177908516Y-43309908D01*
X177908513Y-43309906D01*
X177905883Y-43307177D01*
X177902943Y-43304783D01*
X177902937Y-43304778D01*
X177659040Y-43106215D01*
X177659036Y-43106212D01*
X177656099Y-43103821D01*
X177647496Y-43098393D01*
X177386907Y-42933973D01*
X177386904Y-42933971D01*
X177383694Y-42931946D01*
X177348376Y-42915213D01*
X177155446Y-42823810D01*
X177092613Y-42794042D01*
X177016823Y-42768756D01*
X176915386Y-42734915D01*
X176787073Y-42692106D01*
X176471500Y-42627615D01*
X176150464Y-42601503D01*
X176126609Y-42601253D01*
X176125301Y-42601239D01*
X176112957Y-42597473D01*
X176092641Y-42601023D01*
X175776684Y-42620071D01*
X175776680Y-42620071D01*
X175772906Y-42620299D01*
X175716911Y-42630525D01*
X175604359Y-42651081D01*
X175456051Y-42678167D01*
X175148444Y-42773682D01*
X174854539Y-42905460D01*
X174578594Y-43071592D01*
X174575610Y-43073919D01*
X174575603Y-43073924D01*
X174327601Y-43267336D01*
X174327598Y-43267338D01*
X174324606Y-43269672D01*
X174140751Y-43452566D01*
X174098940Y-43494159D01*
X174096254Y-43496831D01*
X173896847Y-43749778D01*
X173729272Y-44024850D01*
X173595957Y-44318061D01*
X173498833Y-44625164D01*
X173462051Y-44820763D01*
X173440007Y-44937987D01*
X173440006Y-44937992D01*
X173439307Y-44941711D01*
X173418241Y-45263117D01*
X173418449Y-45266897D01*
X173418449Y-45266898D01*
X173422203Y-45335111D01*
X173435940Y-45584726D01*
X173436601Y-45588453D01*
X173436601Y-45588457D01*
X173467911Y-45765123D01*
X173492148Y-45901880D01*
X173493253Y-45905505D01*
X173493254Y-45905510D01*
X173538352Y-46053479D01*
X173586051Y-46209983D01*
X173587582Y-46213447D01*
X173587585Y-46213454D01*
X173647244Y-46348399D01*
X173716288Y-46504574D01*
X173718224Y-46507828D01*
X173718227Y-46507834D01*
X173879034Y-46778126D01*
X173880973Y-46781385D01*
X173883288Y-46784386D01*
X173883291Y-46784390D01*
X173946775Y-46866677D01*
X174077721Y-47036407D01*
X174110309Y-47069511D01*
X174293669Y-47255774D01*
X174303681Y-47265945D01*
X174555581Y-47466674D01*
X174829771Y-47635687D01*
X175122280Y-47770535D01*
X175125880Y-47771694D01*
X175125887Y-47771697D01*
X175425262Y-47868104D01*
X175428871Y-47869266D01*
X175432587Y-47869985D01*
X175432595Y-47869987D01*
X175741383Y-47929730D01*
X175741392Y-47929731D01*
X175745102Y-47930449D01*
X175748878Y-47930716D01*
X175748883Y-47930717D01*
X176046773Y-47951808D01*
X176066393Y-47953197D01*
X176078057Y-47952616D01*
X176147088Y-47969205D01*
X176196192Y-48020482D01*
X176209779Y-48090166D01*
X176183535Y-48156134D01*
X176173419Y-48167555D01*
X173462051Y-50878922D01*
X170653659Y-53687314D01*
X170591347Y-53721340D01*
X170520532Y-53716275D01*
X170463696Y-53673728D01*
X170449457Y-53649467D01*
X170436222Y-53619741D01*
X170436221Y-53619739D01*
X170433536Y-53613708D01*
X170399982Y-53567525D01*
X170376124Y-53500657D01*
X170375918Y-53493464D01*
X170375918Y-47531626D01*
X170377351Y-47512676D01*
X170379361Y-47499467D01*
X170379361Y-47499463D01*
X170380461Y-47492233D01*
X170379868Y-47484941D01*
X170379868Y-47484938D01*
X170376333Y-47441481D01*
X170375918Y-47431266D01*
X170375918Y-47423634D01*
X170375496Y-47420015D01*
X170375495Y-47419996D01*
X170372743Y-47396391D01*
X170372311Y-47392025D01*
X170370089Y-47364706D01*
X170367189Y-47329056D01*
X170367189Y-47329054D01*
X170366595Y-47321756D01*
X170364337Y-47314787D01*
X170363234Y-47309267D01*
X170361952Y-47303842D01*
X170361104Y-47296570D01*
X170337031Y-47230250D01*
X170335608Y-47226104D01*
X170316138Y-47166002D01*
X170316136Y-47165998D01*
X170313882Y-47159040D01*
X170310088Y-47152788D01*
X170307746Y-47147672D01*
X170305242Y-47142671D01*
X170302745Y-47135793D01*
X170298735Y-47129676D01*
X170298732Y-47129671D01*
X170264071Y-47076806D01*
X170261723Y-47073084D01*
X170228062Y-47017612D01*
X170228061Y-47017611D01*
X170225151Y-47012815D01*
X170217989Y-47004705D01*
X170218006Y-47004690D01*
X170215072Y-47001380D01*
X170212976Y-46998873D01*
X170208964Y-46992754D01*
X170154642Y-46941294D01*
X170152200Y-46938916D01*
X168683163Y-45469879D01*
X168670776Y-45455466D01*
X168662859Y-45444708D01*
X168658518Y-45438809D01*
X168619705Y-45405835D01*
X168612189Y-45398905D01*
X168606799Y-45393515D01*
X168585263Y-45376476D01*
X168581923Y-45373736D01*
X168533747Y-45332808D01*
X168533744Y-45332806D01*
X168528167Y-45328068D01*
X168521650Y-45324740D01*
X168516984Y-45321628D01*
X168512219Y-45318686D01*
X168506476Y-45314142D01*
X168442595Y-45284286D01*
X168438649Y-45282358D01*
X168435533Y-45280767D01*
X168375836Y-45250284D01*
X168368725Y-45248544D01*
X168363473Y-45246591D01*
X168358155Y-45244822D01*
X168351523Y-45241722D01*
X168282467Y-45227358D01*
X168278182Y-45226388D01*
X168209697Y-45209630D01*
X168198898Y-45208960D01*
X168198899Y-45208936D01*
X168194484Y-45208672D01*
X168191234Y-45208382D01*
X168184066Y-45206891D01*
X168109295Y-45208914D01*
X168105887Y-45208960D01*
X163103590Y-45208960D01*
X163084639Y-45207527D01*
X163071423Y-45205516D01*
X163071421Y-45205516D01*
X163064191Y-45204416D01*
X163013430Y-45208545D01*
X163003215Y-45208960D01*
X162995592Y-45208960D01*
X162968380Y-45212132D01*
X162964009Y-45212565D01*
X162901014Y-45217689D01*
X162901012Y-45217689D01*
X162893714Y-45218283D01*
X162886744Y-45220541D01*
X162881226Y-45221644D01*
X162875801Y-45222926D01*
X162868528Y-45223774D01*
X162802208Y-45247847D01*
X162798062Y-45249270D01*
X162737960Y-45268740D01*
X162737956Y-45268742D01*
X162730998Y-45270996D01*
X162724746Y-45274790D01*
X162719630Y-45277132D01*
X162714629Y-45279636D01*
X162707751Y-45282133D01*
X162701634Y-45286143D01*
X162701629Y-45286146D01*
X162648764Y-45320807D01*
X162645042Y-45323155D01*
X162589570Y-45356816D01*
X162589569Y-45356817D01*
X162584773Y-45359727D01*
X162576663Y-45366889D01*
X162576648Y-45366872D01*
X162573339Y-45369805D01*
X162570831Y-45371902D01*
X162564712Y-45375914D01*
X162513269Y-45430218D01*
X162510892Y-45432660D01*
X162021433Y-45922119D01*
X161531841Y-46411712D01*
X161517428Y-46424099D01*
X161506666Y-46432019D01*
X161500767Y-46436360D01*
X161467787Y-46475180D01*
X161460857Y-46482696D01*
X161455473Y-46488080D01*
X161453210Y-46490941D01*
X161453205Y-46490946D01*
X161438486Y-46509551D01*
X161435697Y-46512953D01*
X161394765Y-46561132D01*
X161394762Y-46561136D01*
X161390026Y-46566711D01*
X161386697Y-46573232D01*
X161383576Y-46577911D01*
X161380640Y-46582665D01*
X161376100Y-46588403D01*
X161369418Y-46602699D01*
X161346229Y-46652314D01*
X161344319Y-46656221D01*
X161312242Y-46719042D01*
X161310502Y-46726154D01*
X161308536Y-46731440D01*
X161306778Y-46736725D01*
X161303679Y-46743355D01*
X161289312Y-46812428D01*
X161288342Y-46816712D01*
X161286878Y-46822695D01*
X161271588Y-46885181D01*
X161271240Y-46890783D01*
X161271240Y-46890786D01*
X161270918Y-46895980D01*
X161270894Y-46895979D01*
X161270630Y-46900394D01*
X161270340Y-46903644D01*
X161268849Y-46910812D01*
X161269047Y-46918130D01*
X161269978Y-46952553D01*
X161251825Y-47021190D01*
X161199446Y-47069116D01*
X161144024Y-47081960D01*
X160236284Y-47081960D01*
X160174102Y-47088715D01*
X160143647Y-47100132D01*
X160072841Y-47105315D01*
X160055194Y-47100134D01*
X160024734Y-47088715D01*
X159962552Y-47081960D01*
X158966284Y-47081960D01*
X158904102Y-47088715D01*
X158873647Y-47100132D01*
X158802841Y-47105315D01*
X158785194Y-47100134D01*
X158754734Y-47088715D01*
X158692552Y-47081960D01*
X157696284Y-47081960D01*
X157634102Y-47088715D01*
X157603647Y-47100132D01*
X157532841Y-47105315D01*
X157515194Y-47100134D01*
X157484734Y-47088715D01*
X157422552Y-47081960D01*
X156426284Y-47081960D01*
X156364102Y-47088715D01*
X156333647Y-47100132D01*
X156262841Y-47105315D01*
X156245194Y-47100134D01*
X156214734Y-47088715D01*
X156152552Y-47081960D01*
X155156284Y-47081960D01*
X155094102Y-47088715D01*
X155063647Y-47100132D01*
X154992841Y-47105315D01*
X154975194Y-47100134D01*
X154944734Y-47088715D01*
X154882552Y-47081960D01*
X153886284Y-47081960D01*
X153824102Y-47088715D01*
X153793647Y-47100132D01*
X153722841Y-47105315D01*
X153705194Y-47100134D01*
X153674734Y-47088715D01*
X153612552Y-47081960D01*
X152616284Y-47081960D01*
X152554102Y-47088715D01*
X152523647Y-47100132D01*
X152452841Y-47105315D01*
X152435194Y-47100134D01*
X152404734Y-47088715D01*
X152342552Y-47081960D01*
X151346284Y-47081960D01*
X151284102Y-47088715D01*
X151253647Y-47100132D01*
X151182841Y-47105315D01*
X151165194Y-47100134D01*
X151134734Y-47088715D01*
X151072552Y-47081960D01*
X150076284Y-47081960D01*
X150014102Y-47088715D01*
X149983647Y-47100132D01*
X149912841Y-47105315D01*
X149895194Y-47100134D01*
X149864734Y-47088715D01*
X149802552Y-47081960D01*
X148806284Y-47081960D01*
X148744102Y-47088715D01*
X148607713Y-47139845D01*
X148491157Y-47227199D01*
X148403803Y-47343755D01*
X148352673Y-47480144D01*
X148345918Y-47542326D01*
X148345918Y-49638594D01*
X148352673Y-49700776D01*
X148403803Y-49837165D01*
X148491157Y-49953721D01*
X148607713Y-50041075D01*
X148608369Y-50041321D01*
X148655575Y-50088635D01*
X148670918Y-50148893D01*
X148670918Y-50217866D01*
X148650916Y-50285987D01*
X148634017Y-50306957D01*
X147817511Y-51123462D01*
X147755201Y-51157486D01*
X147684385Y-51152421D01*
X147627550Y-51109874D01*
X147602739Y-51043354D01*
X147602418Y-51034365D01*
X147602418Y-47249162D01*
X147602420Y-47248391D01*
X147602894Y-47170808D01*
X147600428Y-47162179D01*
X147600427Y-47162174D01*
X147594779Y-47142412D01*
X147591201Y-47125651D01*
X147588288Y-47105308D01*
X147588285Y-47105298D01*
X147587013Y-47096415D01*
X147576397Y-47073065D01*
X147569954Y-47055553D01*
X147565374Y-47039528D01*
X147565373Y-47039525D01*
X147562906Y-47030895D01*
X147558116Y-47023302D01*
X147555401Y-47017234D01*
X147550379Y-46993706D01*
X147549522Y-46993958D01*
X147544418Y-46976576D01*
X147544418Y-46958460D01*
X147536624Y-46958460D01*
X147514248Y-46939071D01*
X147515092Y-46938097D01*
X147504320Y-46932216D01*
X147496162Y-46922007D01*
X147495867Y-46922258D01*
X147490047Y-46915420D01*
X147485258Y-46907829D01*
X147463121Y-46888278D01*
X147451077Y-46876086D01*
X147437657Y-46860511D01*
X147437655Y-46860510D01*
X147431799Y-46853713D01*
X147424271Y-46848834D01*
X147424268Y-46848831D01*
X147410279Y-46839764D01*
X147395405Y-46828474D01*
X147382920Y-46817448D01*
X147376190Y-46811504D01*
X147349452Y-46798950D01*
X147334483Y-46790636D01*
X147309691Y-46774567D01*
X147285127Y-46767221D01*
X147267682Y-46760559D01*
X147252597Y-46753477D01*
X147244470Y-46749661D01*
X147215288Y-46745117D01*
X147198569Y-46741334D01*
X147178882Y-46735446D01*
X147178879Y-46735445D01*
X147170277Y-46732873D01*
X147135862Y-46732663D01*
X147135090Y-46732630D01*
X147133995Y-46732460D01*
X147103120Y-46732460D01*
X147102350Y-46732458D01*
X147028702Y-46732008D01*
X147028701Y-46732008D01*
X147024766Y-46731984D01*
X147023422Y-46732368D01*
X147022077Y-46732460D01*
X138528418Y-46732460D01*
X138460297Y-46712458D01*
X138413804Y-46658802D01*
X138402418Y-46606460D01*
X138402418Y-43843016D01*
X138402448Y-43840259D01*
X138403733Y-43781567D01*
X138403733Y-43781564D01*
X138403929Y-43772591D01*
X138401599Y-43763921D01*
X138401329Y-43761693D01*
X138400418Y-43746565D01*
X138400418Y-43449466D01*
X138401044Y-43436925D01*
G37*
G04 #@! TD.AperFunction*
G04 #@! TA.AperFunction,Conductor*
G36*
X180953813Y-73876576D02*
G01*
X180998440Y-73821359D01*
X181070153Y-73798960D01*
X181155920Y-73798960D01*
X181158368Y-73798767D01*
X181158376Y-73798767D01*
X181186790Y-73796530D01*
X181193249Y-73796022D01*
X181260767Y-73776406D01*
X181322070Y-73758596D01*
X181353019Y-73749605D01*
X181359845Y-73745568D01*
X181489398Y-73668951D01*
X181489401Y-73668949D01*
X181496225Y-73664913D01*
X181613871Y-73547267D01*
X181617907Y-73540443D01*
X181617909Y-73540440D01*
X181675372Y-73443275D01*
X181698563Y-73404061D01*
X181700774Y-73396450D01*
X181700775Y-73396448D01*
X181715946Y-73344229D01*
X181744980Y-73244291D01*
X181745484Y-73237886D01*
X181745485Y-73237881D01*
X181747725Y-73209418D01*
X181747725Y-73209410D01*
X181747918Y-73206962D01*
X181747918Y-71423958D01*
X181747725Y-71421510D01*
X181747725Y-71421502D01*
X181745485Y-71393039D01*
X181745484Y-71393034D01*
X181744980Y-71386629D01*
X181715946Y-71286691D01*
X181700775Y-71234472D01*
X181700774Y-71234470D01*
X181698563Y-71226859D01*
X181675372Y-71187645D01*
X181617909Y-71090480D01*
X181617907Y-71090477D01*
X181613871Y-71083653D01*
X181551273Y-71021055D01*
X181517247Y-70958743D01*
X181522312Y-70887928D01*
X181564859Y-70831092D01*
X181631379Y-70806281D01*
X181640368Y-70805960D01*
X182008048Y-70805960D01*
X182076169Y-70825962D01*
X182122662Y-70879618D01*
X182132766Y-70949892D01*
X182132650Y-70950539D01*
X182131269Y-70954703D01*
X182120918Y-71055728D01*
X182120918Y-71603192D01*
X182121255Y-71606438D01*
X182121255Y-71606442D01*
X182124793Y-71640543D01*
X182131531Y-71705479D01*
X182133713Y-71712020D01*
X182133713Y-71712019D01*
X182183345Y-71860784D01*
X182183346Y-71860786D01*
X182185662Y-71867728D01*
X182275666Y-72013173D01*
X182396716Y-72134012D01*
X182402946Y-72137852D01*
X182402947Y-72137853D01*
X182407487Y-72140651D01*
X182542317Y-72223762D01*
X182704661Y-72277609D01*
X182805686Y-72287960D01*
X183403150Y-72287960D01*
X183406396Y-72287623D01*
X183406400Y-72287623D01*
X183471425Y-72280876D01*
X183541247Y-72293741D01*
X183593029Y-72342312D01*
X183610429Y-72406203D01*
X183610429Y-76236377D01*
X183590427Y-76304498D01*
X183536771Y-76350991D01*
X183466497Y-76361095D01*
X183401917Y-76331601D01*
X183395334Y-76325472D01*
X182412441Y-75342578D01*
X181322070Y-74252207D01*
X181314530Y-74243921D01*
X181310418Y-74237442D01*
X181260766Y-74190816D01*
X181257925Y-74188062D01*
X181238188Y-74168325D01*
X181234991Y-74165845D01*
X181225969Y-74158140D01*
X181224701Y-74156949D01*
X181193739Y-74127874D01*
X181186793Y-74124055D01*
X181186790Y-74124053D01*
X181175984Y-74118112D01*
X181159465Y-74107261D01*
X181154031Y-74103046D01*
X181143459Y-74094846D01*
X181136190Y-74091701D01*
X181136186Y-74091698D01*
X181102881Y-74077286D01*
X181092231Y-74072069D01*
X181053478Y-74050765D01*
X181038815Y-74047000D01*
X180977812Y-74010687D01*
X180946123Y-73947155D01*
X180953813Y-73876576D01*
G37*
G04 #@! TD.AperFunction*
G04 #@! TA.AperFunction,Conductor*
G36*
X180297920Y-82668933D02*
G01*
X180314823Y-82647959D01*
X180996665Y-81966117D01*
X181004955Y-81958573D01*
X181011436Y-81954460D01*
X181016861Y-81948683D01*
X181058076Y-81904793D01*
X181060831Y-81901951D01*
X181080552Y-81882230D01*
X181083030Y-81879035D01*
X181090736Y-81870013D01*
X181121004Y-81837781D01*
X181124824Y-81830832D01*
X181130764Y-81820028D01*
X181141617Y-81803504D01*
X181154031Y-81787501D01*
X181171594Y-81746917D01*
X181176801Y-81736287D01*
X181198113Y-81697520D01*
X181200084Y-81689843D01*
X181200086Y-81689838D01*
X181203150Y-81677902D01*
X181209555Y-81659194D01*
X181217599Y-81640605D01*
X181218838Y-81632780D01*
X181218839Y-81632778D01*
X181224515Y-81596941D01*
X181226922Y-81585320D01*
X181235062Y-81553614D01*
X181237918Y-81542490D01*
X181237918Y-81522229D01*
X181239469Y-81502520D01*
X181242637Y-81482517D01*
X181241891Y-81474624D01*
X181242025Y-81470357D01*
X181259510Y-81410175D01*
X181318268Y-81310821D01*
X181370161Y-81262368D01*
X181426721Y-81248960D01*
X181813829Y-81248960D01*
X181881950Y-81268962D01*
X181889393Y-81274134D01*
X181978713Y-81341075D01*
X182115102Y-81392205D01*
X182177284Y-81398960D01*
X182523552Y-81398960D01*
X182526949Y-81398591D01*
X182585734Y-81392205D01*
X182585998Y-81394634D01*
X182614838Y-81394634D01*
X182615102Y-81392205D01*
X182677284Y-81398960D01*
X183023552Y-81398960D01*
X183085734Y-81392205D01*
X183222123Y-81341075D01*
X183338679Y-81253721D01*
X183377310Y-81202176D01*
X183383603Y-81193779D01*
X183440462Y-81151264D01*
X183511281Y-81146238D01*
X183573574Y-81180298D01*
X183607564Y-81242629D01*
X183610429Y-81269344D01*
X183610429Y-95288355D01*
X183590427Y-95356476D01*
X183573524Y-95377450D01*
X183191013Y-95759961D01*
X183128701Y-95793987D01*
X183057886Y-95788922D01*
X183001050Y-95746375D01*
X182976239Y-95679855D01*
X182975918Y-95670866D01*
X182975918Y-85942227D01*
X182976445Y-85931044D01*
X182978120Y-85923551D01*
X182977871Y-85915625D01*
X182977871Y-85915624D01*
X182975980Y-85855474D01*
X182975918Y-85851515D01*
X182975918Y-85823604D01*
X182975421Y-85819669D01*
X182975413Y-85819604D01*
X182974480Y-85807767D01*
X182973466Y-85775509D01*
X182973340Y-85771490D01*
X182973091Y-85763571D01*
X182967439Y-85744117D01*
X182963431Y-85724760D01*
X182961886Y-85712530D01*
X182961886Y-85712529D01*
X182960892Y-85704663D01*
X182957973Y-85697292D01*
X182957973Y-85697290D01*
X182944614Y-85663548D01*
X182940769Y-85652318D01*
X182930647Y-85617477D01*
X182930647Y-85617476D01*
X182928436Y-85609867D01*
X182924403Y-85603048D01*
X182924401Y-85603043D01*
X182918125Y-85592432D01*
X182909430Y-85574684D01*
X182901970Y-85555843D01*
X182875982Y-85520073D01*
X182869466Y-85510153D01*
X182850998Y-85478925D01*
X182850996Y-85478922D01*
X182846960Y-85472098D01*
X182832639Y-85457777D01*
X182819798Y-85442743D01*
X182812549Y-85432766D01*
X182807890Y-85426353D01*
X182773813Y-85398162D01*
X182765034Y-85390172D01*
X180314823Y-82939961D01*
X180280797Y-82877649D01*
X180277918Y-82850866D01*
X180277918Y-82737054D01*
X180297920Y-82668933D01*
G37*
G04 #@! TD.AperFunction*
G04 #@! TA.AperFunction,Conductor*
G36*
X172802920Y-55761355D02*
G01*
X172819823Y-55740381D01*
X177124339Y-51435865D01*
X177186651Y-51401839D01*
X177213434Y-51398960D01*
X177663413Y-51398960D01*
X177731534Y-51418962D01*
X177752430Y-51435787D01*
X177781531Y-51464837D01*
X177781536Y-51464841D01*
X177786716Y-51470012D01*
X177792946Y-51473852D01*
X177792947Y-51473853D01*
X177924925Y-51555205D01*
X177932317Y-51559762D01*
X178094661Y-51613609D01*
X178101498Y-51614309D01*
X178101500Y-51614310D01*
X178107300Y-51614904D01*
X178195686Y-51623960D01*
X178793150Y-51623960D01*
X178796396Y-51623623D01*
X178796400Y-51623623D01*
X178815377Y-51621654D01*
X178895437Y-51613347D01*
X178901977Y-51611165D01*
X179048903Y-51562146D01*
X179057686Y-51559216D01*
X179063910Y-51555364D01*
X179063911Y-51555364D01*
X179134090Y-51511936D01*
X179203131Y-51469212D01*
X179234942Y-51437345D01*
X179236343Y-51435942D01*
X179298625Y-51401863D01*
X179325516Y-51398960D01*
X180651548Y-51398960D01*
X180719669Y-51418962D01*
X180766162Y-51472618D01*
X180769530Y-51480730D01*
X180792591Y-51542245D01*
X180818803Y-51612165D01*
X180906157Y-51728721D01*
X181022713Y-51816075D01*
X181159102Y-51867205D01*
X181221284Y-51873960D01*
X183017552Y-51873960D01*
X183079734Y-51867205D01*
X183216123Y-51816075D01*
X183332679Y-51728721D01*
X183381541Y-51663524D01*
X183383603Y-51660773D01*
X183440462Y-51618258D01*
X183511280Y-51613232D01*
X183573574Y-51647292D01*
X183607564Y-51709623D01*
X183610429Y-51736338D01*
X183610429Y-55007302D01*
X183590427Y-55075423D01*
X183536771Y-55121916D01*
X183466497Y-55132020D01*
X183401917Y-55102526D01*
X183371278Y-55062734D01*
X183367004Y-55054009D01*
X183290314Y-54897466D01*
X183160591Y-54715600D01*
X183153311Y-54708294D01*
X183071878Y-54626576D01*
X183002907Y-54557364D01*
X182977840Y-54539351D01*
X182825695Y-54430025D01*
X182821495Y-54427007D01*
X182812549Y-54422585D01*
X182625871Y-54330324D01*
X182625869Y-54330323D01*
X182621229Y-54328030D01*
X182407487Y-54263090D01*
X182186008Y-54233931D01*
X182131531Y-54232600D01*
X182122783Y-54232386D01*
X182122779Y-54232386D01*
X182119418Y-54232304D01*
X181896779Y-54250608D01*
X181680120Y-54305029D01*
X181475258Y-54394106D01*
X181359845Y-54468770D01*
X181292035Y-54512638D01*
X181292032Y-54512640D01*
X181287695Y-54515446D01*
X181122469Y-54665790D01*
X181119270Y-54669841D01*
X181119266Y-54669845D01*
X180987218Y-54837046D01*
X180987216Y-54837050D01*
X180984016Y-54841101D01*
X180977812Y-54852339D01*
X180936764Y-54926698D01*
X180876056Y-55036671D01*
X180874332Y-55041540D01*
X180874330Y-55041544D01*
X180803213Y-55242373D01*
X180803212Y-55242377D01*
X180801487Y-55247248D01*
X180800580Y-55252341D01*
X180800579Y-55252344D01*
X180763218Y-55462087D01*
X180763217Y-55462093D01*
X180762312Y-55467176D01*
X180761410Y-55541008D01*
X180759646Y-55685379D01*
X180759646Y-55685381D01*
X180759583Y-55690549D01*
X180793373Y-55911369D01*
X180862775Y-56123704D01*
X180965925Y-56321853D01*
X180969028Y-56325986D01*
X180969030Y-56325989D01*
X181096948Y-56496360D01*
X181100053Y-56500495D01*
X181143047Y-56541581D01*
X181251924Y-56645626D01*
X181261556Y-56654831D01*
X181419039Y-56762259D01*
X181464039Y-56817167D01*
X181472210Y-56887692D01*
X181440956Y-56951439D01*
X181416472Y-56972136D01*
X181292035Y-57052638D01*
X181292032Y-57052640D01*
X181287695Y-57055446D01*
X181122469Y-57205790D01*
X181119270Y-57209841D01*
X181119266Y-57209845D01*
X180987218Y-57377046D01*
X180987216Y-57377050D01*
X180984016Y-57381101D01*
X180977812Y-57392339D01*
X180936764Y-57466698D01*
X180876056Y-57576671D01*
X180874332Y-57581540D01*
X180874330Y-57581544D01*
X180803213Y-57782373D01*
X180803212Y-57782377D01*
X180801487Y-57787248D01*
X180800580Y-57792341D01*
X180800579Y-57792344D01*
X180763218Y-58002087D01*
X180763217Y-58002093D01*
X180762312Y-58007176D01*
X180761410Y-58081008D01*
X180759646Y-58225379D01*
X180759646Y-58225381D01*
X180759583Y-58230549D01*
X180793373Y-58451369D01*
X180862775Y-58663704D01*
X180965925Y-58861853D01*
X180969028Y-58865986D01*
X180969030Y-58865989D01*
X181096948Y-59036360D01*
X181100053Y-59040495D01*
X181143047Y-59081581D01*
X181251924Y-59185626D01*
X181261556Y-59194831D01*
X181419039Y-59302259D01*
X181464039Y-59357167D01*
X181472210Y-59427692D01*
X181440956Y-59491439D01*
X181416472Y-59512136D01*
X181292035Y-59592638D01*
X181292032Y-59592640D01*
X181287695Y-59595446D01*
X181122469Y-59745790D01*
X181119270Y-59749841D01*
X181119266Y-59749845D01*
X181005378Y-59894052D01*
X180947461Y-59935115D01*
X180906496Y-59941960D01*
X173526451Y-59941960D01*
X173463451Y-59925079D01*
X173321697Y-59843237D01*
X173321696Y-59843236D01*
X173315974Y-59839933D01*
X173134346Y-59780918D01*
X173102916Y-59777614D01*
X172950983Y-59761646D01*
X172944418Y-59760956D01*
X172922088Y-59763303D01*
X172852250Y-59750531D01*
X172800404Y-59702029D01*
X172782918Y-59637993D01*
X172782918Y-55829476D01*
X172802920Y-55761355D01*
G37*
G04 #@! TD.AperFunction*
G04 #@! TA.AperFunction,Conductor*
G36*
X178931920Y-77367839D02*
G01*
X178985576Y-77321346D01*
X179037918Y-77309960D01*
X179590824Y-77309960D01*
X179658945Y-77329962D01*
X179679919Y-77346865D01*
X179874013Y-77540959D01*
X179908039Y-77603271D01*
X179910918Y-77630054D01*
X179910918Y-77939192D01*
X179911255Y-77942438D01*
X179911255Y-77942442D01*
X179914793Y-77976543D01*
X179921531Y-78041479D01*
X179923713Y-78048020D01*
X179923713Y-78048019D01*
X179973345Y-78196784D01*
X179973346Y-78196786D01*
X179975662Y-78203728D01*
X179979514Y-78209952D01*
X179979514Y-78209953D01*
X180013975Y-78265641D01*
X180065666Y-78349173D01*
X180186716Y-78470012D01*
X180192049Y-78473300D01*
X180232863Y-78530861D01*
X180236097Y-78601784D01*
X180200473Y-78663196D01*
X180177848Y-78680283D01*
X180078698Y-78738920D01*
X180071877Y-78742954D01*
X179956912Y-78857919D01*
X179929426Y-78904395D01*
X179878184Y-78991041D01*
X179878184Y-78991042D01*
X179874149Y-78997864D01*
X179871938Y-79005475D01*
X179871937Y-79005477D01*
X179830584Y-79147816D01*
X179830584Y-79147815D01*
X179828789Y-79153994D01*
X179828285Y-79160401D01*
X179828284Y-79160405D01*
X179826111Y-79188016D01*
X179826111Y-79188022D01*
X179825918Y-79190471D01*
X179825918Y-79440308D01*
X179825919Y-79690448D01*
X179828789Y-79726926D01*
X179864780Y-79850808D01*
X179864577Y-79921803D01*
X179826023Y-79981420D01*
X179761359Y-80010728D01*
X179743783Y-80011960D01*
X179386902Y-80011961D01*
X179384430Y-80011961D01*
X179347952Y-80014831D01*
X179313150Y-80024942D01*
X179242156Y-80024740D01*
X179188902Y-79993040D01*
X179075444Y-79879581D01*
X178948822Y-79752959D01*
X178914797Y-79690647D01*
X178911918Y-79663864D01*
X178911918Y-77435960D01*
X178931920Y-77367839D01*
G37*
G04 #@! TD.AperFunction*
G04 #@! TA.AperFunction,Conductor*
G36*
X176645920Y-98258934D02*
G01*
X176662823Y-98237959D01*
X176979919Y-97920864D01*
X177042231Y-97886839D01*
X177069014Y-97883960D01*
X179657150Y-97883960D01*
X179725271Y-97903962D01*
X179771764Y-97957618D01*
X179781868Y-98027892D01*
X179773559Y-98058178D01*
X179729418Y-98164744D01*
X179726258Y-98172373D01*
X179725181Y-98180557D01*
X179725180Y-98180559D01*
X179711456Y-98284807D01*
X179711456Y-98284808D01*
X179710918Y-98288894D01*
X179710918Y-98455960D01*
X179690916Y-98524081D01*
X179637260Y-98570574D01*
X179584918Y-98581960D01*
X179214784Y-98581960D01*
X179143945Y-98588469D01*
X179133142Y-98591854D01*
X178993332Y-98635669D01*
X178986082Y-98637941D01*
X178975934Y-98644086D01*
X178851077Y-98719702D01*
X178844576Y-98723639D01*
X178727597Y-98840618D01*
X178703088Y-98881088D01*
X178645835Y-98975624D01*
X178645834Y-98975627D01*
X178641899Y-98982124D01*
X178624568Y-99037426D01*
X178594427Y-99133604D01*
X178594426Y-99133607D01*
X178592427Y-99139987D01*
X178585918Y-99210826D01*
X178585918Y-99605960D01*
X178565916Y-99674081D01*
X178512260Y-99720574D01*
X178459918Y-99731960D01*
X178438918Y-99731960D01*
X178370797Y-99711958D01*
X178324304Y-99658302D01*
X178319397Y-99645843D01*
X178313174Y-99627192D01*
X178278825Y-99571684D01*
X178227024Y-99487975D01*
X178223170Y-99481747D01*
X178102120Y-99360908D01*
X177993430Y-99293910D01*
X177962749Y-99274998D01*
X177962747Y-99274997D01*
X177956519Y-99271158D01*
X177794175Y-99217311D01*
X177786716Y-99216546D01*
X177708885Y-99208572D01*
X177693150Y-99206960D01*
X177095686Y-99206960D01*
X177089011Y-99207652D01*
X177016823Y-99215143D01*
X176993399Y-99217573D01*
X176877581Y-99256213D01*
X176838094Y-99269387D01*
X176838092Y-99269388D01*
X176831150Y-99271704D01*
X176818221Y-99279704D01*
X176749771Y-99298543D01*
X176682001Y-99277383D01*
X176636429Y-99222943D01*
X176625918Y-99172561D01*
X176625918Y-98327055D01*
X176645920Y-98258934D01*
G37*
G04 #@! TD.AperFunction*
G04 #@! TA.AperFunction,Conductor*
G36*
X161074222Y-91110738D02*
G01*
X161088454Y-91093750D01*
X166760999Y-85421205D01*
X166775411Y-85408819D01*
X166792069Y-85396560D01*
X166796812Y-85390977D01*
X166825043Y-85357747D01*
X166831973Y-85350231D01*
X166837364Y-85344840D01*
X166854377Y-85323336D01*
X166857154Y-85319950D01*
X166898067Y-85271793D01*
X166898071Y-85271788D01*
X166902810Y-85266209D01*
X166906140Y-85259687D01*
X166909260Y-85255009D01*
X166912196Y-85250255D01*
X166916736Y-85244517D01*
X166919833Y-85237890D01*
X166919834Y-85237889D01*
X166946607Y-85180606D01*
X166948517Y-85176699D01*
X166980594Y-85113878D01*
X166982334Y-85106766D01*
X166984300Y-85101480D01*
X166986058Y-85096195D01*
X166989157Y-85089565D01*
X166998536Y-85044473D01*
X167003523Y-85020497D01*
X167004493Y-85016213D01*
X167021248Y-84947739D01*
X167021596Y-84942137D01*
X167021596Y-84942134D01*
X167021918Y-84936940D01*
X167021942Y-84936941D01*
X167022206Y-84932525D01*
X167022496Y-84929276D01*
X167023987Y-84922108D01*
X167021964Y-84847320D01*
X167021918Y-84843914D01*
X167021918Y-81127427D01*
X167041920Y-81059306D01*
X167057664Y-81039506D01*
X167084421Y-81012039D01*
X167146282Y-80977201D01*
X167174675Y-80973960D01*
X167791252Y-80973960D01*
X167810201Y-80975393D01*
X167830645Y-80978503D01*
X167837937Y-80977910D01*
X167837940Y-80977910D01*
X167881397Y-80974375D01*
X167891612Y-80973960D01*
X167899244Y-80973960D01*
X167902863Y-80973538D01*
X167902882Y-80973537D01*
X167926487Y-80970785D01*
X167930853Y-80970353D01*
X168001122Y-80964637D01*
X168008091Y-80962379D01*
X168013611Y-80961276D01*
X168019036Y-80959994D01*
X168026308Y-80959146D01*
X168033187Y-80956649D01*
X168092614Y-80935078D01*
X168096774Y-80933650D01*
X168156876Y-80914180D01*
X168156880Y-80914178D01*
X168163838Y-80911924D01*
X168170090Y-80908130D01*
X168175206Y-80905788D01*
X168180207Y-80903284D01*
X168187085Y-80900787D01*
X168193202Y-80896777D01*
X168193207Y-80896774D01*
X168246072Y-80862113D01*
X168249794Y-80859765D01*
X168310063Y-80823193D01*
X168314266Y-80819481D01*
X168318173Y-80816031D01*
X168318188Y-80816048D01*
X168321497Y-80813115D01*
X168324005Y-80811018D01*
X168330124Y-80807006D01*
X168351523Y-80784417D01*
X168381567Y-80752702D01*
X168383944Y-80750260D01*
X170622995Y-78511208D01*
X170637407Y-78498821D01*
X170654069Y-78486560D01*
X170658812Y-78480977D01*
X170687049Y-78447740D01*
X170693979Y-78440224D01*
X170699363Y-78434840D01*
X170701626Y-78431979D01*
X170701631Y-78431974D01*
X170716350Y-78413369D01*
X170719139Y-78409967D01*
X170760071Y-78361788D01*
X170760074Y-78361784D01*
X170764810Y-78356209D01*
X170768139Y-78349688D01*
X170771260Y-78345009D01*
X170774196Y-78340255D01*
X170778736Y-78334517D01*
X170781833Y-78327890D01*
X170781834Y-78327889D01*
X170808607Y-78270606D01*
X170810517Y-78266699D01*
X170842594Y-78203878D01*
X170844334Y-78196766D01*
X170846300Y-78191480D01*
X170848058Y-78186195D01*
X170851157Y-78179565D01*
X170865523Y-78110497D01*
X170866493Y-78106213D01*
X170883248Y-78037739D01*
X170883596Y-78032137D01*
X170883596Y-78032134D01*
X170883918Y-78026940D01*
X170883942Y-78026941D01*
X170884206Y-78022526D01*
X170884496Y-78019276D01*
X170885987Y-78012108D01*
X170883964Y-77937337D01*
X170883918Y-77933929D01*
X170883918Y-70842210D01*
X170903920Y-70774089D01*
X170957576Y-70727596D01*
X171023088Y-70716900D01*
X171122209Y-70727318D01*
X171166418Y-70731964D01*
X171172983Y-70731274D01*
X171294308Y-70718522D01*
X171356346Y-70712002D01*
X171537974Y-70652987D01*
X171543696Y-70649684D01*
X171543697Y-70649683D01*
X171683719Y-70568841D01*
X171746719Y-70551960D01*
X172080401Y-70551960D01*
X172148522Y-70571962D01*
X172169496Y-70588864D01*
X172549013Y-70968380D01*
X172583038Y-71030693D01*
X172585918Y-71057476D01*
X172585918Y-71149026D01*
X172568372Y-71213164D01*
X172560273Y-71226859D01*
X172558062Y-71234470D01*
X172558061Y-71234472D01*
X172542890Y-71286691D01*
X172513856Y-71386629D01*
X172513352Y-71393034D01*
X172513351Y-71393039D01*
X172511111Y-71421502D01*
X172511111Y-71421510D01*
X172510918Y-71423958D01*
X172510918Y-73206962D01*
X172511111Y-73209410D01*
X172511111Y-73209418D01*
X172513351Y-73237881D01*
X172513352Y-73237886D01*
X172513856Y-73244291D01*
X172542890Y-73344229D01*
X172558061Y-73396448D01*
X172558062Y-73396450D01*
X172560273Y-73404061D01*
X172564310Y-73410888D01*
X172564310Y-73410887D01*
X172640927Y-73540440D01*
X172640929Y-73540443D01*
X172644965Y-73547267D01*
X172762611Y-73664913D01*
X172769435Y-73668949D01*
X172769438Y-73668951D01*
X172856576Y-73720484D01*
X172905817Y-73749605D01*
X172913428Y-73751816D01*
X172913430Y-73751817D01*
X172944418Y-73760820D01*
X173065587Y-73796022D01*
X173102916Y-73798960D01*
X173535920Y-73798960D01*
X173538368Y-73798767D01*
X173538376Y-73798767D01*
X173561787Y-73796924D01*
X173573249Y-73796022D01*
X173644796Y-73775236D01*
X173718227Y-73753902D01*
X173733019Y-73749605D01*
X173876225Y-73664913D01*
X173878907Y-73662231D01*
X173943279Y-73636958D01*
X174012902Y-73650860D01*
X174028730Y-73661032D01*
X174032611Y-73664913D01*
X174175817Y-73749605D01*
X174335587Y-73796022D01*
X174372916Y-73798960D01*
X174805920Y-73798960D01*
X174808368Y-73798767D01*
X174808376Y-73798767D01*
X174833218Y-73796811D01*
X174843249Y-73796022D01*
X174943187Y-73766988D01*
X174991535Y-73752941D01*
X175003019Y-73749605D01*
X175146225Y-73664913D01*
X175148907Y-73662231D01*
X175213279Y-73636958D01*
X175282902Y-73650860D01*
X175298730Y-73661032D01*
X175302611Y-73664913D01*
X175445817Y-73749605D01*
X175453428Y-73751816D01*
X175453430Y-73751817D01*
X175462345Y-73754407D01*
X175605587Y-73796022D01*
X175642916Y-73798960D01*
X176075920Y-73798960D01*
X176078368Y-73798767D01*
X176078376Y-73798767D01*
X176094418Y-73797504D01*
X176113249Y-73796022D01*
X176119425Y-73794228D01*
X176119429Y-73794227D01*
X176120809Y-73793826D01*
X176121611Y-73793828D01*
X176125763Y-73793070D01*
X176125904Y-73793841D01*
X176191806Y-73794029D01*
X176251422Y-73832584D01*
X176280729Y-73897249D01*
X176270424Y-73967494D01*
X176245056Y-74003918D01*
X175154106Y-75094867D01*
X173822165Y-76426808D01*
X173813879Y-76434348D01*
X173807400Y-76438460D01*
X173760774Y-76488112D01*
X173758020Y-76490953D01*
X173738283Y-76510690D01*
X173735803Y-76513887D01*
X173728098Y-76522909D01*
X173718507Y-76533122D01*
X173697832Y-76555139D01*
X173694013Y-76562085D01*
X173694011Y-76562088D01*
X173688070Y-76572894D01*
X173677219Y-76589413D01*
X173676859Y-76589877D01*
X173664804Y-76605419D01*
X173661659Y-76612688D01*
X173661656Y-76612692D01*
X173647244Y-76645997D01*
X173642027Y-76656647D01*
X173620723Y-76695400D01*
X173617908Y-76706363D01*
X173615685Y-76715022D01*
X173609281Y-76733726D01*
X173604385Y-76745040D01*
X173604385Y-76745041D01*
X173601237Y-76752315D01*
X173599998Y-76760138D01*
X173599995Y-76760148D01*
X173594319Y-76795984D01*
X173591913Y-76807604D01*
X173582890Y-76842749D01*
X173582890Y-76842750D01*
X173580918Y-76850430D01*
X173580918Y-76870684D01*
X173579367Y-76890395D01*
X173577438Y-76902574D01*
X173576198Y-76910403D01*
X173576944Y-76918295D01*
X173580359Y-76954421D01*
X173580918Y-76966279D01*
X173580918Y-80005865D01*
X173560916Y-80073986D01*
X173544013Y-80094960D01*
X162095674Y-91543299D01*
X162033362Y-91577325D01*
X161962547Y-91572260D01*
X161922269Y-91547841D01*
X161915624Y-91541858D01*
X161837063Y-91471121D01*
X161671675Y-91375634D01*
X161490047Y-91316619D01*
X161464478Y-91313931D01*
X161306684Y-91297347D01*
X161300119Y-91296657D01*
X161271240Y-91299692D01*
X161190719Y-91308155D01*
X161120881Y-91295383D01*
X161069034Y-91246881D01*
X161051640Y-91178048D01*
X161074222Y-91110738D01*
G37*
G04 #@! TD.AperFunction*
G04 #@! TA.AperFunction,Conductor*
G36*
X153797920Y-85402721D02*
G01*
X153851576Y-85356228D01*
X153859687Y-85352861D01*
X153882711Y-85344229D01*
X153891123Y-85341075D01*
X154007679Y-85253721D01*
X154095033Y-85137165D01*
X154146163Y-85000776D01*
X154152918Y-84938594D01*
X154152918Y-82842326D01*
X154146163Y-82780144D01*
X154095033Y-82643755D01*
X154007679Y-82527199D01*
X153891123Y-82439845D01*
X153882711Y-82436691D01*
X153859687Y-82428059D01*
X153802923Y-82385417D01*
X153778224Y-82318855D01*
X153777918Y-82310078D01*
X153777918Y-81483609D01*
X153797920Y-81415488D01*
X153814823Y-81394514D01*
X154152859Y-81056478D01*
X154215171Y-81022452D01*
X154228949Y-81020246D01*
X154295437Y-81013347D01*
X154457686Y-80959216D01*
X154603131Y-80869212D01*
X154723970Y-80748162D01*
X154727810Y-80741932D01*
X154727811Y-80741931D01*
X154807780Y-80612197D01*
X154813720Y-80602561D01*
X154867567Y-80440217D01*
X154868267Y-80433380D01*
X154868268Y-80433378D01*
X154872501Y-80392059D01*
X154877918Y-80339192D01*
X154877918Y-79741728D01*
X154877581Y-79738482D01*
X154877581Y-79738478D01*
X154874043Y-79704377D01*
X154867305Y-79639441D01*
X154813174Y-79477192D01*
X154813562Y-79477063D01*
X154802918Y-79429247D01*
X154802918Y-78851653D01*
X154813796Y-78802586D01*
X154813720Y-78802561D01*
X154813965Y-78801823D01*
X154813965Y-78801821D01*
X154867567Y-78640217D01*
X154868267Y-78633380D01*
X154868268Y-78633378D01*
X154872501Y-78592059D01*
X154877918Y-78539192D01*
X154877918Y-77941728D01*
X154877581Y-77938482D01*
X154877581Y-77938478D01*
X154874043Y-77904377D01*
X154867305Y-77839441D01*
X154813174Y-77677192D01*
X154813562Y-77677063D01*
X154802918Y-77629247D01*
X154802918Y-76307608D01*
X154822920Y-76239487D01*
X154839823Y-76218513D01*
X157017471Y-74040865D01*
X157079783Y-74006839D01*
X157106566Y-74003960D01*
X158640961Y-74003960D01*
X158660673Y-74005511D01*
X158673925Y-74007610D01*
X158680512Y-74007265D01*
X158680516Y-74007265D01*
X158740268Y-74004133D01*
X158746863Y-74003960D01*
X158766724Y-74003960D01*
X158769995Y-74003616D01*
X158786477Y-74001884D01*
X158793046Y-74001367D01*
X158859389Y-73997890D01*
X158872347Y-73994418D01*
X158891790Y-73990815D01*
X158905120Y-73989414D01*
X158968312Y-73968882D01*
X158974614Y-73967016D01*
X159038781Y-73949822D01*
X159044660Y-73946826D01*
X159044669Y-73946823D01*
X159050735Y-73943732D01*
X159068997Y-73936168D01*
X159075461Y-73934068D01*
X159075469Y-73934065D01*
X159081749Y-73932024D01*
X159087468Y-73928722D01*
X159087473Y-73928720D01*
X159139285Y-73898806D01*
X159145055Y-73895673D01*
X159204257Y-73865507D01*
X159209389Y-73861351D01*
X159214677Y-73857069D01*
X159230970Y-73845871D01*
X159242587Y-73839164D01*
X159247493Y-73834747D01*
X159247498Y-73834743D01*
X159291956Y-73794713D01*
X159296972Y-73790429D01*
X159309376Y-73780384D01*
X159312404Y-73777932D01*
X159326449Y-73763887D01*
X159331234Y-73759346D01*
X159380603Y-73714894D01*
X159388493Y-73704034D01*
X159401330Y-73689006D01*
X160862964Y-72227372D01*
X160877992Y-72214535D01*
X160888852Y-72206645D01*
X160893273Y-72201735D01*
X160893274Y-72201734D01*
X160933302Y-72157278D01*
X160937843Y-72152493D01*
X160951890Y-72138446D01*
X160953974Y-72135872D01*
X160953977Y-72135869D01*
X160964387Y-72123014D01*
X160968671Y-72117998D01*
X161008701Y-72073540D01*
X161008705Y-72073535D01*
X161013122Y-72068629D01*
X161019627Y-72057363D01*
X161019829Y-72057012D01*
X161031027Y-72040719D01*
X161039465Y-72030299D01*
X161069631Y-71971097D01*
X161072764Y-71965327D01*
X161102678Y-71913515D01*
X161102680Y-71913510D01*
X161105982Y-71907791D01*
X161108023Y-71901511D01*
X161108026Y-71901503D01*
X161110126Y-71895039D01*
X161117690Y-71876777D01*
X161120781Y-71870711D01*
X161120784Y-71870702D01*
X161123780Y-71864823D01*
X161126645Y-71854132D01*
X161140974Y-71800656D01*
X161142840Y-71794354D01*
X161163372Y-71731162D01*
X161164729Y-71718255D01*
X161164773Y-71717832D01*
X161168376Y-71698389D01*
X161171848Y-71685431D01*
X161172193Y-71678840D01*
X161172194Y-71678836D01*
X161175324Y-71619106D01*
X161175841Y-71612531D01*
X161177438Y-71597334D01*
X161177918Y-71592766D01*
X161177918Y-71572892D01*
X161178091Y-71566298D01*
X161181222Y-71506559D01*
X161181222Y-71506555D01*
X161181567Y-71499967D01*
X161180535Y-71493452D01*
X161180535Y-71493449D01*
X161179469Y-71486720D01*
X161177918Y-71467010D01*
X161177918Y-70863643D01*
X161196142Y-70798372D01*
X161219890Y-70759159D01*
X161220710Y-70756541D01*
X161265622Y-70704257D01*
X161334199Y-70683960D01*
X161445010Y-70683960D01*
X161480163Y-70688963D01*
X161511169Y-70697971D01*
X161607952Y-70726089D01*
X161614359Y-70726593D01*
X161614363Y-70726594D01*
X161641974Y-70728767D01*
X161644429Y-70728960D01*
X162144406Y-70728959D01*
X162180884Y-70726089D01*
X162278065Y-70697855D01*
X162308673Y-70688963D01*
X162343826Y-70683960D01*
X164229252Y-70683960D01*
X164248202Y-70685393D01*
X164255757Y-70686542D01*
X164268645Y-70688503D01*
X164275937Y-70687910D01*
X164275940Y-70687910D01*
X164319397Y-70684375D01*
X164329612Y-70683960D01*
X164337244Y-70683960D01*
X164340863Y-70683538D01*
X164340882Y-70683537D01*
X164364487Y-70680785D01*
X164368853Y-70680353D01*
X164396172Y-70678131D01*
X164417849Y-70676367D01*
X164439122Y-70674637D01*
X164446091Y-70672379D01*
X164451611Y-70671276D01*
X164457036Y-70669994D01*
X164464308Y-70669146D01*
X164511422Y-70652044D01*
X164530614Y-70645078D01*
X164534774Y-70643650D01*
X164594876Y-70624180D01*
X164594880Y-70624178D01*
X164601838Y-70621924D01*
X164608090Y-70618130D01*
X164613206Y-70615788D01*
X164618207Y-70613284D01*
X164625085Y-70610787D01*
X164631202Y-70606777D01*
X164631207Y-70606774D01*
X164684072Y-70572113D01*
X164687794Y-70569765D01*
X164748063Y-70533193D01*
X164752266Y-70529481D01*
X164756173Y-70526031D01*
X164756188Y-70526048D01*
X164759497Y-70523115D01*
X164762005Y-70521018D01*
X164768124Y-70517006D01*
X164773157Y-70511693D01*
X164819550Y-70462720D01*
X164821926Y-70460278D01*
X165123602Y-70158601D01*
X165181506Y-70128230D01*
X165180884Y-70126089D01*
X165317648Y-70086355D01*
X165337014Y-70080729D01*
X165343836Y-70076694D01*
X165343837Y-70076694D01*
X165470138Y-70002000D01*
X165476959Y-69997966D01*
X165591924Y-69883001D01*
X165595958Y-69876180D01*
X165632461Y-69814456D01*
X165674687Y-69743056D01*
X165676898Y-69735445D01*
X165676899Y-69735443D01*
X165702120Y-69648631D01*
X165720047Y-69586926D01*
X165720551Y-69580519D01*
X165720552Y-69580515D01*
X165722725Y-69552904D01*
X165722725Y-69552898D01*
X165722918Y-69550449D01*
X165722918Y-69350582D01*
X165722917Y-69150472D01*
X165720047Y-69113994D01*
X165691923Y-69017190D01*
X165676899Y-68965477D01*
X165676898Y-68965475D01*
X165674687Y-68957864D01*
X165670651Y-68951039D01*
X165670649Y-68951035D01*
X165643187Y-68904599D01*
X165625727Y-68835783D01*
X165643187Y-68776321D01*
X165670649Y-68729885D01*
X165670651Y-68729881D01*
X165674687Y-68723056D01*
X165676898Y-68715445D01*
X165676899Y-68715443D01*
X165702120Y-68628631D01*
X165720047Y-68566926D01*
X165720551Y-68560519D01*
X165720552Y-68560515D01*
X165722725Y-68532904D01*
X165722725Y-68532898D01*
X165722918Y-68530449D01*
X165722918Y-68330582D01*
X165722917Y-68130472D01*
X165720047Y-68093994D01*
X165691923Y-67997190D01*
X165676899Y-67945477D01*
X165676898Y-67945475D01*
X165674687Y-67937864D01*
X165645463Y-67888449D01*
X165627918Y-67824313D01*
X165627918Y-67716216D01*
X165638811Y-67664967D01*
X165676899Y-67579419D01*
X165685212Y-67560748D01*
X165704974Y-67467776D01*
X165723546Y-67380404D01*
X165723546Y-67380399D01*
X165724918Y-67373947D01*
X165724918Y-67182973D01*
X165723546Y-67176521D01*
X165723546Y-67176516D01*
X165704974Y-67089144D01*
X165685212Y-66996172D01*
X165676899Y-66977500D01*
X165638811Y-66891953D01*
X165627918Y-66840704D01*
X165627918Y-66005626D01*
X165629351Y-65986676D01*
X165631361Y-65973467D01*
X165631361Y-65973463D01*
X165632461Y-65966233D01*
X165631868Y-65958941D01*
X165631868Y-65958938D01*
X165628333Y-65915481D01*
X165627918Y-65905266D01*
X165627918Y-65897634D01*
X165627496Y-65894015D01*
X165627495Y-65893996D01*
X165624743Y-65870391D01*
X165624311Y-65866025D01*
X165622089Y-65838706D01*
X165619189Y-65803056D01*
X165619189Y-65803054D01*
X165618595Y-65795756D01*
X165616337Y-65788787D01*
X165615234Y-65783267D01*
X165613952Y-65777842D01*
X165613104Y-65770570D01*
X165589031Y-65704250D01*
X165587608Y-65700104D01*
X165568138Y-65640002D01*
X165568136Y-65639998D01*
X165565882Y-65633040D01*
X165562088Y-65626788D01*
X165559746Y-65621672D01*
X165557242Y-65616671D01*
X165554745Y-65609793D01*
X165550735Y-65603676D01*
X165550733Y-65603673D01*
X165523546Y-65562207D01*
X165502918Y-65493122D01*
X165502918Y-64542326D01*
X165496163Y-64480144D01*
X165445033Y-64343755D01*
X165357679Y-64227199D01*
X165241123Y-64139845D01*
X165104734Y-64088715D01*
X165042552Y-64081960D01*
X164046284Y-64081960D01*
X163984102Y-64088715D01*
X163953647Y-64100132D01*
X163882841Y-64105315D01*
X163865194Y-64100134D01*
X163834734Y-64088715D01*
X163772552Y-64081960D01*
X162776284Y-64081960D01*
X162714102Y-64088715D01*
X162683647Y-64100132D01*
X162612841Y-64105315D01*
X162595194Y-64100134D01*
X162564734Y-64088715D01*
X162502552Y-64081960D01*
X161593918Y-64081960D01*
X161525797Y-64061958D01*
X161479304Y-64008302D01*
X161467918Y-63955960D01*
X161467918Y-63334476D01*
X161487920Y-63266355D01*
X161504823Y-63245381D01*
X162891232Y-61858972D01*
X162953544Y-61824946D01*
X162967153Y-61822758D01*
X162974346Y-61822002D01*
X162980630Y-61819960D01*
X162980631Y-61819960D01*
X163013430Y-61809303D01*
X163155974Y-61762987D01*
X163161696Y-61759684D01*
X163161697Y-61759683D01*
X163195744Y-61740026D01*
X163321362Y-61667500D01*
X163326269Y-61663082D01*
X163326270Y-61663081D01*
X163458373Y-61544135D01*
X163463284Y-61539713D01*
X163535282Y-61440617D01*
X163560380Y-61406072D01*
X163575536Y-61385212D01*
X163578220Y-61379184D01*
X163578221Y-61379182D01*
X163648304Y-61221772D01*
X163653212Y-61210748D01*
X163673065Y-61117348D01*
X163691546Y-61030404D01*
X163691546Y-61030399D01*
X163692918Y-61023947D01*
X163692918Y-60832973D01*
X163691546Y-60826521D01*
X163691546Y-60826516D01*
X163673065Y-60739573D01*
X163653212Y-60646172D01*
X163648304Y-60635148D01*
X163578221Y-60477738D01*
X163578220Y-60477736D01*
X163575536Y-60471708D01*
X163560380Y-60450847D01*
X163535282Y-60416303D01*
X163463284Y-60317207D01*
X163340201Y-60206382D01*
X163302962Y-60145937D01*
X163304314Y-60074953D01*
X163343828Y-60015969D01*
X163385574Y-59992915D01*
X163409974Y-59984987D01*
X163415696Y-59981684D01*
X163415697Y-59981683D01*
X163459542Y-59956369D01*
X163575362Y-59889500D01*
X163580269Y-59885082D01*
X163580270Y-59885081D01*
X163674171Y-59800532D01*
X163717284Y-59761713D01*
X163772552Y-59685643D01*
X163814313Y-59628165D01*
X163870536Y-59584811D01*
X163941272Y-59578736D01*
X164004063Y-59611868D01*
X164038975Y-59673688D01*
X164041512Y-59715832D01*
X164035918Y-59767326D01*
X164035918Y-60763594D01*
X164042673Y-60825776D01*
X164054090Y-60856231D01*
X164059273Y-60927037D01*
X164054092Y-60944684D01*
X164042673Y-60975144D01*
X164035918Y-61037326D01*
X164035918Y-62033594D01*
X164042673Y-62095776D01*
X164093803Y-62232165D01*
X164181157Y-62348721D01*
X164297713Y-62436075D01*
X164434102Y-62487205D01*
X164496284Y-62493960D01*
X166592552Y-62493960D01*
X166654734Y-62487205D01*
X166791123Y-62436075D01*
X166907679Y-62348721D01*
X166995033Y-62232165D01*
X167046163Y-62095776D01*
X167052918Y-62033594D01*
X167052918Y-61037326D01*
X167046163Y-60975144D01*
X167034746Y-60944689D01*
X167029563Y-60873883D01*
X167034744Y-60856236D01*
X167046163Y-60825776D01*
X167052918Y-60763594D01*
X167052918Y-59767326D01*
X167046163Y-59705144D01*
X167034746Y-59674689D01*
X167029563Y-59603883D01*
X167034744Y-59586236D01*
X167046163Y-59555776D01*
X167052918Y-59493594D01*
X167052918Y-58497326D01*
X167046163Y-58435144D01*
X167034746Y-58404689D01*
X167029563Y-58333883D01*
X167034744Y-58316236D01*
X167046163Y-58285776D01*
X167052918Y-58223594D01*
X167052918Y-57227326D01*
X167052550Y-57223940D01*
X167052433Y-57221777D01*
X167068720Y-57152674D01*
X167119782Y-57103346D01*
X167178248Y-57088960D01*
X168693228Y-57088960D01*
X168761349Y-57108962D01*
X168807842Y-57162618D01*
X168817946Y-57232892D01*
X168808335Y-57266208D01*
X168776310Y-57338137D01*
X168776307Y-57338145D01*
X168773624Y-57344172D01*
X168753771Y-57437573D01*
X168735290Y-57524516D01*
X168735290Y-57524521D01*
X168733918Y-57530973D01*
X168733918Y-57721947D01*
X168735290Y-57728399D01*
X168735290Y-57728404D01*
X168753771Y-57815347D01*
X168773624Y-57908748D01*
X168776309Y-57914778D01*
X168776309Y-57914779D01*
X168848615Y-58077182D01*
X168848616Y-58077184D01*
X168851300Y-58083212D01*
X168855180Y-58088553D01*
X168855181Y-58088554D01*
X168884854Y-58129395D01*
X168908712Y-58196263D01*
X168908918Y-58203456D01*
X168908918Y-63874443D01*
X168888916Y-63942564D01*
X168872014Y-63963538D01*
X168418671Y-64416882D01*
X168418663Y-64416889D01*
X167221835Y-65613718D01*
X167207428Y-65626099D01*
X167196666Y-65634019D01*
X167190767Y-65638360D01*
X167157787Y-65677180D01*
X167150857Y-65684696D01*
X167145473Y-65690080D01*
X167143210Y-65692941D01*
X167143205Y-65692946D01*
X167128486Y-65711551D01*
X167125697Y-65714953D01*
X167084765Y-65763132D01*
X167084762Y-65763136D01*
X167080026Y-65768711D01*
X167076697Y-65775232D01*
X167073576Y-65779911D01*
X167070640Y-65784665D01*
X167066100Y-65790403D01*
X167047016Y-65831234D01*
X167036229Y-65854314D01*
X167034319Y-65858221D01*
X167002242Y-65921042D01*
X167000502Y-65928154D01*
X166998536Y-65933440D01*
X166996778Y-65938725D01*
X166993679Y-65945355D01*
X166979312Y-66014428D01*
X166978342Y-66018712D01*
X166961588Y-66087181D01*
X166961240Y-66092783D01*
X166961240Y-66092786D01*
X166960918Y-66097980D01*
X166960894Y-66097979D01*
X166960630Y-66102394D01*
X166960340Y-66105644D01*
X166958849Y-66112812D01*
X166960629Y-66178609D01*
X166960872Y-66187583D01*
X166960918Y-66190991D01*
X166960918Y-70219750D01*
X166940916Y-70287871D01*
X166924013Y-70308845D01*
X166857779Y-70375079D01*
X166768946Y-70521761D01*
X166766675Y-70529008D01*
X166766674Y-70529010D01*
X166735745Y-70627705D01*
X166717665Y-70685398D01*
X166710918Y-70758825D01*
X166710918Y-70761723D01*
X166710919Y-71016125D01*
X166710919Y-71272094D01*
X166711182Y-71274952D01*
X166711182Y-71274961D01*
X166714444Y-71310464D01*
X166717665Y-71345522D01*
X166719664Y-71351900D01*
X166719664Y-71351901D01*
X166766674Y-71501910D01*
X166766675Y-71501912D01*
X166768946Y-71509159D01*
X166857779Y-71655841D01*
X166918803Y-71716865D01*
X166952829Y-71779177D01*
X166947764Y-71849992D01*
X166905217Y-71906828D01*
X166838697Y-71931639D01*
X166829708Y-71931960D01*
X165844584Y-71931960D01*
X165825634Y-71930527D01*
X165812425Y-71928517D01*
X165812421Y-71928517D01*
X165805191Y-71927417D01*
X165754439Y-71931545D01*
X165744224Y-71931960D01*
X165736592Y-71931960D01*
X165732973Y-71932382D01*
X165732954Y-71932383D01*
X165709349Y-71935135D01*
X165704974Y-71935568D01*
X165642014Y-71940689D01*
X165642012Y-71940689D01*
X165634714Y-71941283D01*
X165627745Y-71943541D01*
X165622225Y-71944644D01*
X165616800Y-71945926D01*
X165609528Y-71946774D01*
X165543208Y-71970847D01*
X165539062Y-71972270D01*
X165478960Y-71991740D01*
X165478956Y-71991742D01*
X165471998Y-71993996D01*
X165465746Y-71997790D01*
X165460630Y-72000132D01*
X165455629Y-72002636D01*
X165448751Y-72005133D01*
X165442634Y-72009143D01*
X165442629Y-72009146D01*
X165389764Y-72043807D01*
X165386042Y-72046155D01*
X165330570Y-72079816D01*
X165330569Y-72079817D01*
X165325773Y-72082727D01*
X165317663Y-72089889D01*
X165317648Y-72089872D01*
X165314339Y-72092805D01*
X165311831Y-72094902D01*
X165305712Y-72098914D01*
X165254269Y-72153218D01*
X165251892Y-72155660D01*
X163021841Y-74385712D01*
X163007428Y-74398099D01*
X162996666Y-74406019D01*
X162990767Y-74410360D01*
X162957787Y-74449180D01*
X162950857Y-74456696D01*
X162945473Y-74462080D01*
X162943210Y-74464941D01*
X162943205Y-74464946D01*
X162928486Y-74483551D01*
X162925697Y-74486953D01*
X162884765Y-74535132D01*
X162884762Y-74535136D01*
X162880026Y-74540711D01*
X162876697Y-74547232D01*
X162873576Y-74551911D01*
X162870640Y-74556665D01*
X162866100Y-74562403D01*
X162836229Y-74626313D01*
X162834319Y-74630221D01*
X162802242Y-74693042D01*
X162800502Y-74700154D01*
X162798536Y-74705440D01*
X162796778Y-74710725D01*
X162793679Y-74717355D01*
X162779312Y-74786428D01*
X162778342Y-74790712D01*
X162761588Y-74859181D01*
X162761240Y-74864783D01*
X162761240Y-74864786D01*
X162760918Y-74869980D01*
X162760894Y-74869979D01*
X162760630Y-74874394D01*
X162760340Y-74877644D01*
X162758849Y-74884812D01*
X162760629Y-74950609D01*
X162760872Y-74959583D01*
X162760918Y-74962991D01*
X162760918Y-82145497D01*
X162740916Y-82213618D01*
X162727442Y-82231026D01*
X162615142Y-82352511D01*
X162615137Y-82352517D01*
X162611218Y-82356757D01*
X162572130Y-82418708D01*
X162505587Y-82524172D01*
X162505585Y-82524177D01*
X162502506Y-82529056D01*
X162427013Y-82718280D01*
X162387267Y-82918094D01*
X162387191Y-82923868D01*
X162387191Y-82923872D01*
X162385842Y-83027008D01*
X162384601Y-83121805D01*
X162385580Y-83127502D01*
X162385580Y-83127503D01*
X162418123Y-83316893D01*
X162419102Y-83322590D01*
X162489616Y-83513726D01*
X162492568Y-83518687D01*
X162492568Y-83518688D01*
X162584449Y-83673125D01*
X162593781Y-83688811D01*
X162728108Y-83841982D01*
X162732633Y-83845549D01*
X162732638Y-83845554D01*
X162836229Y-83927218D01*
X162888099Y-83968109D01*
X162893210Y-83970798D01*
X162893213Y-83970800D01*
X162943205Y-83997102D01*
X163068396Y-84062968D01*
X163262961Y-84123382D01*
X163465277Y-84147328D01*
X163668569Y-84134003D01*
X163866028Y-84083855D01*
X164051042Y-83998562D01*
X164217415Y-83880981D01*
X164247920Y-83849667D01*
X164341994Y-83753097D01*
X164359575Y-83735050D01*
X164362780Y-83730254D01*
X164362782Y-83730251D01*
X164408178Y-83662311D01*
X164472760Y-83565657D01*
X164475038Y-83560354D01*
X164475040Y-83560351D01*
X164550901Y-83383780D01*
X164553181Y-83378473D01*
X164569661Y-83305643D01*
X164596868Y-83185405D01*
X164596869Y-83185400D01*
X164598143Y-83179768D01*
X164598370Y-83173997D01*
X164598370Y-83173995D01*
X164600845Y-83110990D01*
X164606141Y-82976197D01*
X164576908Y-82774577D01*
X164575053Y-82769113D01*
X164575052Y-82769108D01*
X164513280Y-82587133D01*
X164513278Y-82587128D01*
X164511422Y-82581661D01*
X164499701Y-82560731D01*
X164451611Y-82474861D01*
X164411876Y-82403909D01*
X164281604Y-82247274D01*
X164273346Y-82240406D01*
X164233764Y-82181467D01*
X164227918Y-82143534D01*
X164227918Y-75306476D01*
X164247920Y-75238355D01*
X164264823Y-75217381D01*
X166046338Y-73435865D01*
X166108650Y-73401840D01*
X166135433Y-73398960D01*
X166901121Y-73398960D01*
X166969242Y-73418962D01*
X166974979Y-73423041D01*
X166979037Y-73427099D01*
X166985537Y-73431036D01*
X166985539Y-73431037D01*
X167029563Y-73457698D01*
X167125719Y-73515932D01*
X167289356Y-73567213D01*
X167362783Y-73573960D01*
X168026052Y-73573959D01*
X168028910Y-73573696D01*
X168028919Y-73573696D01*
X168064422Y-73570434D01*
X168099480Y-73567213D01*
X168105858Y-73565214D01*
X168105859Y-73565214D01*
X168206463Y-73533686D01*
X168263117Y-73515932D01*
X168409799Y-73427099D01*
X168531057Y-73305841D01*
X168619890Y-73159159D01*
X168622161Y-73151912D01*
X168622162Y-73151910D01*
X168642935Y-73085624D01*
X168671171Y-72995522D01*
X168677918Y-72922095D01*
X168677918Y-72919197D01*
X168677917Y-72664795D01*
X168677917Y-72408826D01*
X168677654Y-72405968D01*
X168677654Y-72405959D01*
X168674392Y-72370456D01*
X168671171Y-72335398D01*
X168668296Y-72326224D01*
X168622162Y-72179010D01*
X168622161Y-72179008D01*
X168619890Y-72171761D01*
X168531057Y-72025079D01*
X168435533Y-71929555D01*
X168401507Y-71867243D01*
X168406572Y-71796428D01*
X168435533Y-71751365D01*
X168531057Y-71655841D01*
X168619890Y-71509159D01*
X168622161Y-71501912D01*
X168622162Y-71501910D01*
X168642935Y-71435624D01*
X168671171Y-71345522D01*
X168677918Y-71272095D01*
X168677918Y-71269197D01*
X168677917Y-71014795D01*
X168677917Y-70758826D01*
X168677654Y-70755968D01*
X168677654Y-70755959D01*
X168674392Y-70720456D01*
X168671171Y-70685398D01*
X168668296Y-70676224D01*
X168622162Y-70529010D01*
X168622161Y-70529008D01*
X168619890Y-70521761D01*
X168531057Y-70375079D01*
X168464823Y-70308845D01*
X168430797Y-70246533D01*
X168427918Y-70219750D01*
X168427918Y-66534477D01*
X168447920Y-66466356D01*
X168464822Y-66445382D01*
X168906039Y-66004164D01*
X169342165Y-65568038D01*
X169342173Y-65568031D01*
X170115005Y-64795199D01*
X170129411Y-64782819D01*
X170146069Y-64770560D01*
X170150812Y-64764977D01*
X170179043Y-64731747D01*
X170185973Y-64724231D01*
X170191364Y-64718840D01*
X170208377Y-64697336D01*
X170211154Y-64693950D01*
X170252067Y-64645793D01*
X170252071Y-64645788D01*
X170256810Y-64640209D01*
X170260140Y-64633687D01*
X170263260Y-64629009D01*
X170266196Y-64624255D01*
X170270736Y-64618517D01*
X170273833Y-64611890D01*
X170273834Y-64611889D01*
X170300607Y-64554606D01*
X170302517Y-64550699D01*
X170334594Y-64487878D01*
X170336334Y-64480766D01*
X170338300Y-64475480D01*
X170340058Y-64470195D01*
X170343157Y-64463565D01*
X170357523Y-64394497D01*
X170358493Y-64390213D01*
X170375248Y-64321739D01*
X170375596Y-64316137D01*
X170375596Y-64316134D01*
X170375918Y-64310940D01*
X170375942Y-64310941D01*
X170376206Y-64306525D01*
X170376496Y-64303276D01*
X170377987Y-64296108D01*
X170375964Y-64221320D01*
X170375918Y-64217914D01*
X170375918Y-58203456D01*
X170395920Y-58135335D01*
X170399982Y-58129395D01*
X170433536Y-58083212D01*
X170436220Y-58077184D01*
X170436221Y-58077182D01*
X170508527Y-57914779D01*
X170511212Y-57908748D01*
X170531065Y-57815347D01*
X170549546Y-57728404D01*
X170549546Y-57728399D01*
X170550918Y-57721947D01*
X170550918Y-57530973D01*
X170549546Y-57524521D01*
X170549546Y-57524516D01*
X170531065Y-57437572D01*
X170511212Y-57344172D01*
X170508527Y-57338141D01*
X170436221Y-57175738D01*
X170436220Y-57175736D01*
X170433536Y-57169708D01*
X170321284Y-57015207D01*
X170316372Y-57010785D01*
X170311959Y-57005883D01*
X170314308Y-57003768D01*
X170284095Y-56955226D01*
X170285122Y-56884237D01*
X170316397Y-56832385D01*
X171100823Y-56047959D01*
X171163135Y-56013933D01*
X171233950Y-56018998D01*
X171290786Y-56061545D01*
X171315597Y-56128065D01*
X171315918Y-56137054D01*
X171315918Y-66199026D01*
X171298372Y-66263164D01*
X171290273Y-66276859D01*
X171288062Y-66284470D01*
X171288061Y-66284472D01*
X171272890Y-66336691D01*
X171243856Y-66436629D01*
X171243352Y-66443034D01*
X171243351Y-66443039D01*
X171241111Y-66471502D01*
X171241111Y-66471510D01*
X171240918Y-66473958D01*
X171240918Y-66646785D01*
X171220916Y-66714906D01*
X171180283Y-66754504D01*
X171138566Y-66779819D01*
X171133773Y-66782727D01*
X171125663Y-66789889D01*
X171125648Y-66789872D01*
X171122339Y-66792805D01*
X171119831Y-66794902D01*
X171113712Y-66798914D01*
X171062269Y-66853218D01*
X171059892Y-66855660D01*
X170372310Y-67543242D01*
X169677841Y-68237712D01*
X169663428Y-68250099D01*
X169652666Y-68258019D01*
X169646767Y-68262360D01*
X169613787Y-68301180D01*
X169606857Y-68308696D01*
X169601473Y-68314080D01*
X169599210Y-68316941D01*
X169599205Y-68316946D01*
X169584486Y-68335551D01*
X169581697Y-68338953D01*
X169540765Y-68387132D01*
X169540762Y-68387136D01*
X169536026Y-68392711D01*
X169532697Y-68399232D01*
X169529576Y-68403911D01*
X169526640Y-68408665D01*
X169522100Y-68414403D01*
X169492229Y-68478313D01*
X169490319Y-68482221D01*
X169458242Y-68545042D01*
X169456502Y-68552154D01*
X169454536Y-68557440D01*
X169452778Y-68562725D01*
X169449679Y-68569355D01*
X169435312Y-68638428D01*
X169434342Y-68642712D01*
X169417588Y-68711181D01*
X169417240Y-68716783D01*
X169417240Y-68716786D01*
X169416918Y-68721980D01*
X169416894Y-68721979D01*
X169416630Y-68726394D01*
X169416340Y-68729644D01*
X169414849Y-68736812D01*
X169416629Y-68802609D01*
X169416872Y-68811583D01*
X169416918Y-68814991D01*
X169416918Y-77590444D01*
X169396916Y-77658565D01*
X169380013Y-77679539D01*
X167589498Y-79470055D01*
X167527186Y-79504080D01*
X167500403Y-79506960D01*
X167179344Y-79506960D01*
X167111223Y-79486958D01*
X167082472Y-79461532D01*
X167079294Y-79457711D01*
X167075604Y-79453274D01*
X166918969Y-79323002D01*
X166796812Y-79254591D01*
X166746260Y-79226280D01*
X166746258Y-79226279D01*
X166741217Y-79223456D01*
X166735750Y-79221600D01*
X166735745Y-79221598D01*
X166553770Y-79159826D01*
X166553765Y-79159825D01*
X166548301Y-79157970D01*
X166346681Y-79128737D01*
X166288418Y-79127211D01*
X166085544Y-79145852D01*
X165889465Y-79201153D01*
X165844584Y-79223285D01*
X165711928Y-79288704D01*
X165706747Y-79291259D01*
X165676899Y-79313547D01*
X165548133Y-79409702D01*
X165548132Y-79409702D01*
X165543509Y-79413155D01*
X165405218Y-79562757D01*
X165350499Y-79649482D01*
X165299587Y-79730172D01*
X165299585Y-79730177D01*
X165296506Y-79735056D01*
X165221013Y-79924280D01*
X165181267Y-80124094D01*
X165181191Y-80129868D01*
X165181191Y-80129872D01*
X165179842Y-80233008D01*
X165178601Y-80327805D01*
X165179580Y-80333502D01*
X165179580Y-80333503D01*
X165212123Y-80522893D01*
X165213102Y-80528590D01*
X165283616Y-80719726D01*
X165286568Y-80724687D01*
X165286568Y-80724688D01*
X165329401Y-80796683D01*
X165387781Y-80894811D01*
X165522108Y-81047982D01*
X165520465Y-81049423D01*
X165551292Y-81102512D01*
X165554918Y-81132522D01*
X165554918Y-84500444D01*
X165534916Y-84568565D01*
X165518013Y-84589539D01*
X163634856Y-86472696D01*
X163572544Y-86506722D01*
X163501729Y-86501657D01*
X163444893Y-86459110D01*
X163422514Y-86409798D01*
X163417490Y-86386162D01*
X163399212Y-86300172D01*
X163385578Y-86269549D01*
X163324221Y-86131738D01*
X163324220Y-86131736D01*
X163321536Y-86125708D01*
X163209284Y-85971207D01*
X163204373Y-85966785D01*
X163072270Y-85847839D01*
X163072269Y-85847838D01*
X163067362Y-85843420D01*
X162927115Y-85762448D01*
X162907697Y-85751237D01*
X162907696Y-85751236D01*
X162901974Y-85747933D01*
X162720346Y-85688918D01*
X162665995Y-85683205D01*
X162536983Y-85669646D01*
X162530418Y-85668956D01*
X162472677Y-85675025D01*
X162347053Y-85688228D01*
X162347051Y-85688228D01*
X162340490Y-85688918D01*
X162158862Y-85747933D01*
X162143593Y-85756748D01*
X162020655Y-85827727D01*
X161993474Y-85843420D01*
X161947685Y-85884648D01*
X161856463Y-85966785D01*
X161856462Y-85966786D01*
X161851552Y-85971207D01*
X161836547Y-85991859D01*
X161749344Y-86111884D01*
X161736503Y-86126918D01*
X158593365Y-89270055D01*
X158531053Y-89304081D01*
X158504270Y-89306960D01*
X155428918Y-89306960D01*
X155360797Y-89286958D01*
X155314304Y-89233302D01*
X155302918Y-89180960D01*
X155302918Y-89142326D01*
X155296163Y-89080144D01*
X155245033Y-88943755D01*
X155157679Y-88827199D01*
X155041123Y-88739845D01*
X154904734Y-88688715D01*
X154842552Y-88681960D01*
X153903918Y-88681960D01*
X153835797Y-88661958D01*
X153789304Y-88608302D01*
X153777918Y-88555960D01*
X153777918Y-85470842D01*
X153797920Y-85402721D01*
G37*
G04 #@! TD.AperFunction*
G04 #@! TA.AperFunction,Conductor*
G36*
X142782920Y-84511785D02*
G01*
X142823083Y-84472473D01*
X142830106Y-84468169D01*
X142834506Y-84465473D01*
X143003356Y-84319210D01*
X143006660Y-84315230D01*
X143010605Y-84310479D01*
X143069508Y-84270844D01*
X143140489Y-84269347D01*
X143201011Y-84306463D01*
X143225530Y-84346735D01*
X143258756Y-84435365D01*
X143268803Y-84462165D01*
X143356157Y-84578721D01*
X143472713Y-84666075D01*
X143609102Y-84717205D01*
X143671284Y-84723960D01*
X145467552Y-84723960D01*
X145529734Y-84717205D01*
X145666123Y-84666075D01*
X145782679Y-84578721D01*
X145870033Y-84462165D01*
X145921163Y-84325776D01*
X145927918Y-84263594D01*
X145927918Y-82955054D01*
X145947920Y-82886933D01*
X145964823Y-82865959D01*
X147936665Y-80894117D01*
X147944955Y-80886573D01*
X147951436Y-80882460D01*
X147956861Y-80876683D01*
X147998076Y-80832793D01*
X148000831Y-80829951D01*
X148020552Y-80810230D01*
X148023030Y-80807035D01*
X148030736Y-80798013D01*
X148061004Y-80765781D01*
X148064824Y-80758832D01*
X148070764Y-80748028D01*
X148081617Y-80731504D01*
X148094031Y-80715501D01*
X148111594Y-80674917D01*
X148116801Y-80664287D01*
X148138113Y-80625520D01*
X148140084Y-80617843D01*
X148140086Y-80617838D01*
X148143150Y-80605902D01*
X148149555Y-80587194D01*
X148157599Y-80568605D01*
X148158838Y-80560780D01*
X148158839Y-80560778D01*
X148164515Y-80524941D01*
X148166922Y-80513320D01*
X148175946Y-80478171D01*
X148177918Y-80470490D01*
X148177918Y-80450229D01*
X148179469Y-80430520D01*
X148182637Y-80410517D01*
X148181891Y-80402625D01*
X148181397Y-80397398D01*
X148178477Y-80366506D01*
X148177918Y-80354649D01*
X148177918Y-76229055D01*
X148197920Y-76160934D01*
X148214823Y-76139959D01*
X148531919Y-75822864D01*
X148594231Y-75788839D01*
X148621014Y-75785960D01*
X151275651Y-75785960D01*
X151286834Y-75786487D01*
X151294327Y-75788162D01*
X151302253Y-75787913D01*
X151302254Y-75787913D01*
X151362404Y-75786022D01*
X151366363Y-75785960D01*
X151394274Y-75785960D01*
X151398208Y-75785463D01*
X151398209Y-75785463D01*
X151398274Y-75785455D01*
X151410111Y-75784522D01*
X151454307Y-75783133D01*
X151473757Y-75777482D01*
X151493118Y-75773473D01*
X151501995Y-75772351D01*
X151513215Y-75770934D01*
X151520586Y-75768015D01*
X151520588Y-75768015D01*
X151554330Y-75754656D01*
X151565560Y-75750811D01*
X151571660Y-75749039D01*
X151608011Y-75738478D01*
X151614830Y-75734445D01*
X151614835Y-75734443D01*
X151625446Y-75728167D01*
X151643194Y-75719472D01*
X151662035Y-75712012D01*
X151668451Y-75707350D01*
X151668452Y-75707350D01*
X151697805Y-75686024D01*
X151707725Y-75679508D01*
X151735360Y-75663164D01*
X151745780Y-75657002D01*
X151760101Y-75642681D01*
X151775134Y-75629841D01*
X151791525Y-75617932D01*
X151796576Y-75611826D01*
X151819716Y-75583855D01*
X151827706Y-75575076D01*
X152007963Y-75394819D01*
X152028033Y-75383860D01*
X152029643Y-75377963D01*
X152047824Y-75354958D01*
X153524665Y-73878117D01*
X153532955Y-73870573D01*
X153539436Y-73866460D01*
X153544861Y-73860683D01*
X153586076Y-73816793D01*
X153588831Y-73813951D01*
X153608553Y-73794229D01*
X153610990Y-73791087D01*
X153611037Y-73791027D01*
X153618735Y-73782015D01*
X153642765Y-73756424D01*
X153649004Y-73749781D01*
X153652821Y-73742838D01*
X153658763Y-73732029D01*
X153669616Y-73715507D01*
X153682032Y-73699501D01*
X153685182Y-73692223D01*
X153685182Y-73692222D01*
X153699592Y-73658923D01*
X153704809Y-73648273D01*
X153726113Y-73609520D01*
X153728084Y-73601845D01*
X153728084Y-73601844D01*
X153731151Y-73589898D01*
X153737555Y-73571193D01*
X153745599Y-73552605D01*
X153746838Y-73544782D01*
X153746841Y-73544772D01*
X153752517Y-73508936D01*
X153754923Y-73497316D01*
X153763946Y-73462171D01*
X153765918Y-73454490D01*
X153765918Y-73434236D01*
X153767469Y-73414526D01*
X153770638Y-73394517D01*
X153769892Y-73386625D01*
X153766477Y-73350499D01*
X153765918Y-73338641D01*
X153765918Y-70895054D01*
X153785920Y-70826933D01*
X153802823Y-70805959D01*
X154769877Y-69838905D01*
X154832189Y-69804879D01*
X154903004Y-69809944D01*
X154921967Y-69818878D01*
X155046862Y-69890987D01*
X155228490Y-69950002D01*
X155418418Y-69969964D01*
X155608346Y-69950002D01*
X155789974Y-69890987D01*
X155955362Y-69795500D01*
X155960269Y-69791082D01*
X155960270Y-69791081D01*
X156028233Y-69729887D01*
X156097284Y-69667713D01*
X156209536Y-69513212D01*
X156212220Y-69507184D01*
X156212221Y-69507182D01*
X156284527Y-69344779D01*
X156287212Y-69338748D01*
X156300339Y-69276989D01*
X156334067Y-69214517D01*
X156384649Y-69183355D01*
X156551974Y-69128987D01*
X156717362Y-69033500D01*
X156722269Y-69029082D01*
X156722270Y-69029081D01*
X156767868Y-68988024D01*
X156859284Y-68905713D01*
X156971536Y-68751212D01*
X156974220Y-68745184D01*
X156974221Y-68745182D01*
X157041146Y-68594865D01*
X157049212Y-68576748D01*
X157069065Y-68483347D01*
X157087546Y-68396404D01*
X157087546Y-68396399D01*
X157088918Y-68389947D01*
X157088918Y-68198973D01*
X157087546Y-68192518D01*
X157087545Y-68192509D01*
X157085344Y-68182154D01*
X157090747Y-68111364D01*
X157133565Y-68054732D01*
X157200203Y-68030240D01*
X157208591Y-68029960D01*
X157409294Y-68029960D01*
X157472294Y-68046841D01*
X157486354Y-68054959D01*
X157552298Y-68093031D01*
X157586862Y-68112987D01*
X157663473Y-68137879D01*
X157665069Y-68138398D01*
X157723675Y-68178471D01*
X157751312Y-68243868D01*
X157749343Y-68284449D01*
X157747269Y-68290703D01*
X157746568Y-68297543D01*
X157746568Y-68297544D01*
X157744902Y-68313805D01*
X157736918Y-68391728D01*
X157736918Y-68939192D01*
X157737255Y-68942438D01*
X157737255Y-68942442D01*
X157739841Y-68967364D01*
X157747531Y-69041479D01*
X157749713Y-69048020D01*
X157749713Y-69048019D01*
X157799345Y-69196784D01*
X157799346Y-69196786D01*
X157801662Y-69203728D01*
X157891666Y-69349173D01*
X157896848Y-69354346D01*
X157914268Y-69371736D01*
X158012716Y-69470012D01*
X158158317Y-69559762D01*
X158320661Y-69613609D01*
X158421686Y-69623960D01*
X159019150Y-69623960D01*
X159121437Y-69613347D01*
X159209389Y-69584003D01*
X159226556Y-69578276D01*
X159297506Y-69575691D01*
X159358590Y-69611874D01*
X159390415Y-69675338D01*
X159382876Y-69745933D01*
X159374211Y-69763066D01*
X159372883Y-69765259D01*
X159372881Y-69765264D01*
X159368946Y-69771761D01*
X159366675Y-69779008D01*
X159366674Y-69779010D01*
X159333810Y-69883880D01*
X159317665Y-69935398D01*
X159310918Y-70008825D01*
X159310918Y-70011723D01*
X159310919Y-70266125D01*
X159310919Y-70522094D01*
X159311182Y-70524952D01*
X159311182Y-70524961D01*
X159314444Y-70560464D01*
X159317665Y-70595522D01*
X159319664Y-70601900D01*
X159319664Y-70601901D01*
X159366674Y-70751910D01*
X159366675Y-70751912D01*
X159368946Y-70759159D01*
X159380603Y-70778407D01*
X159392694Y-70798372D01*
X159410918Y-70863643D01*
X159410918Y-71128312D01*
X159390916Y-71196433D01*
X159374013Y-71217407D01*
X158391365Y-72200055D01*
X158329053Y-72234081D01*
X158302270Y-72236960D01*
X156767868Y-72236960D01*
X156748157Y-72235409D01*
X156741427Y-72234343D01*
X156734911Y-72233311D01*
X156722270Y-72233973D01*
X156668587Y-72236787D01*
X156661992Y-72236960D01*
X156642112Y-72236960D01*
X156622330Y-72239039D01*
X156615766Y-72239555D01*
X156556045Y-72242685D01*
X156556043Y-72242685D01*
X156549447Y-72243031D01*
X156536492Y-72246502D01*
X156517063Y-72250102D01*
X156510292Y-72250814D01*
X156510285Y-72250816D01*
X156503716Y-72251506D01*
X156440530Y-72272036D01*
X156434231Y-72273902D01*
X156376426Y-72289391D01*
X156370055Y-72291098D01*
X156364102Y-72294131D01*
X156358101Y-72297188D01*
X156339839Y-72304752D01*
X156333375Y-72306852D01*
X156333367Y-72306855D01*
X156327087Y-72308896D01*
X156321368Y-72312198D01*
X156321363Y-72312200D01*
X156269551Y-72342114D01*
X156263781Y-72345247D01*
X156204579Y-72375413D01*
X156194159Y-72383851D01*
X156177866Y-72395049D01*
X156177515Y-72395251D01*
X156166249Y-72401756D01*
X156161343Y-72406173D01*
X156161338Y-72406177D01*
X156116880Y-72446207D01*
X156111864Y-72450491D01*
X156099009Y-72460901D01*
X156099006Y-72460904D01*
X156096432Y-72462988D01*
X156082387Y-72477033D01*
X156077602Y-72481574D01*
X156033144Y-72521604D01*
X156033143Y-72521605D01*
X156028233Y-72526026D01*
X156020343Y-72536886D01*
X156007506Y-72551914D01*
X153590365Y-74969055D01*
X153528053Y-75003081D01*
X153501270Y-75005960D01*
X153236875Y-75005960D01*
X153217163Y-75004409D01*
X153210426Y-75003342D01*
X153203911Y-75002310D01*
X153137568Y-75005787D01*
X153130973Y-75005960D01*
X153111112Y-75005960D01*
X153091349Y-75008037D01*
X153084785Y-75008553D01*
X153025041Y-75011684D01*
X153025037Y-75011685D01*
X153018447Y-75012030D01*
X153005489Y-75015502D01*
X152986046Y-75019105D01*
X152979284Y-75019816D01*
X152972716Y-75020506D01*
X152909524Y-75041038D01*
X152903222Y-75042904D01*
X152845433Y-75058389D01*
X152839055Y-75060098D01*
X152833176Y-75063094D01*
X152833167Y-75063097D01*
X152827101Y-75066188D01*
X152808839Y-75073752D01*
X152802376Y-75075852D01*
X152802371Y-75075854D01*
X152796087Y-75077896D01*
X152738537Y-75111123D01*
X152732784Y-75114246D01*
X152673579Y-75144412D01*
X152663155Y-75152853D01*
X152646867Y-75164048D01*
X152640966Y-75167455D01*
X152640965Y-75167456D01*
X152635249Y-75170756D01*
X152630343Y-75175173D01*
X152630338Y-75175177D01*
X152585880Y-75215207D01*
X152580865Y-75219491D01*
X152567997Y-75229912D01*
X152565433Y-75231988D01*
X152551396Y-75246025D01*
X152546611Y-75250566D01*
X152502144Y-75290604D01*
X152502143Y-75290605D01*
X152497233Y-75295026D01*
X152493350Y-75300370D01*
X152493345Y-75300376D01*
X152489344Y-75305883D01*
X152476503Y-75320918D01*
X152415968Y-75381453D01*
X152389873Y-75401477D01*
X152347192Y-75426119D01*
X152341474Y-75429420D01*
X152221229Y-75537689D01*
X152207668Y-75544197D01*
X152207646Y-75544299D01*
X152198994Y-75557975D01*
X152091181Y-75706366D01*
X152091180Y-75706367D01*
X152087300Y-75711708D01*
X152084616Y-75717736D01*
X152084615Y-75717738D01*
X152012309Y-75880141D01*
X152012309Y-75880142D01*
X152009624Y-75886172D01*
X151989771Y-75979573D01*
X151971290Y-76066516D01*
X151971290Y-76066521D01*
X151969918Y-76072973D01*
X151969918Y-76263947D01*
X151971290Y-76270399D01*
X151971290Y-76270404D01*
X151989771Y-76357347D01*
X152009624Y-76450748D01*
X152012309Y-76456778D01*
X152012309Y-76456779D01*
X152084615Y-76619182D01*
X152084616Y-76619184D01*
X152087300Y-76625212D01*
X152199552Y-76779713D01*
X152204462Y-76784134D01*
X152204463Y-76784135D01*
X152246878Y-76822325D01*
X152341474Y-76907500D01*
X152506862Y-77002987D01*
X152688490Y-77062002D01*
X152695051Y-77062692D01*
X152695053Y-77062692D01*
X152767338Y-77070289D01*
X152878418Y-77081964D01*
X152884983Y-77081274D01*
X152884987Y-77081274D01*
X152896750Y-77080038D01*
X152966589Y-77092812D01*
X153018434Y-77141315D01*
X153035918Y-77205348D01*
X153035918Y-77629267D01*
X153025040Y-77678334D01*
X153025116Y-77678359D01*
X153024871Y-77679097D01*
X153024871Y-77679099D01*
X153018434Y-77698504D01*
X152982433Y-77807045D01*
X152971269Y-77840703D01*
X152970569Y-77847540D01*
X152970568Y-77847542D01*
X152966335Y-77888861D01*
X152960918Y-77941728D01*
X152960918Y-78539192D01*
X152961255Y-78542438D01*
X152961255Y-78542442D01*
X152964597Y-78574650D01*
X152971531Y-78641479D01*
X153025662Y-78803728D01*
X153025274Y-78803857D01*
X153035918Y-78851673D01*
X153035918Y-79429267D01*
X153025040Y-79478334D01*
X153025116Y-79478359D01*
X153024871Y-79479097D01*
X153024871Y-79479099D01*
X153018434Y-79498504D01*
X152982433Y-79607045D01*
X152971269Y-79640703D01*
X152970568Y-79647541D01*
X152970568Y-79647543D01*
X152964597Y-79705820D01*
X152937755Y-79771547D01*
X152928348Y-79782073D01*
X152639144Y-80071276D01*
X152325868Y-80384552D01*
X152310834Y-80397392D01*
X152305328Y-80401392D01*
X152305326Y-80401394D01*
X152299984Y-80405275D01*
X152255532Y-80454644D01*
X152250991Y-80459429D01*
X152236946Y-80473474D01*
X152234859Y-80476051D01*
X152224449Y-80488906D01*
X152220165Y-80493922D01*
X152180135Y-80538380D01*
X152180131Y-80538385D01*
X152175714Y-80543291D01*
X152169007Y-80554908D01*
X152157809Y-80571201D01*
X152153527Y-80576489D01*
X152149371Y-80581621D01*
X152119205Y-80640823D01*
X152116072Y-80646593D01*
X152086158Y-80698405D01*
X152086156Y-80698410D01*
X152082854Y-80704129D01*
X152080813Y-80710409D01*
X152080810Y-80710417D01*
X152078710Y-80716881D01*
X152071146Y-80735143D01*
X152068055Y-80741209D01*
X152068052Y-80741218D01*
X152065056Y-80747097D01*
X152056206Y-80780125D01*
X152047862Y-80811264D01*
X152045996Y-80817566D01*
X152025464Y-80880758D01*
X152024063Y-80894088D01*
X152020460Y-80913531D01*
X152016988Y-80926489D01*
X152016643Y-80933079D01*
X152016642Y-80933083D01*
X152014339Y-80977033D01*
X152013511Y-80992832D01*
X152012995Y-80999391D01*
X152010918Y-81019154D01*
X152010918Y-81039015D01*
X152010745Y-81045610D01*
X152007613Y-81105362D01*
X152007613Y-81105366D01*
X152007268Y-81111953D01*
X152009367Y-81125207D01*
X152010918Y-81144916D01*
X152010918Y-82310078D01*
X151990916Y-82378199D01*
X151937260Y-82424692D01*
X151929149Y-82428059D01*
X151906125Y-82436691D01*
X151906122Y-82436692D01*
X151897713Y-82439845D01*
X151888852Y-82446486D01*
X151819983Y-82498100D01*
X151753476Y-82522948D01*
X151684094Y-82507895D01*
X151668853Y-82498100D01*
X151598310Y-82445231D01*
X151598308Y-82445230D01*
X151591123Y-82439845D01*
X151578131Y-82434974D01*
X151559687Y-82428059D01*
X151502923Y-82385417D01*
X151478224Y-82318855D01*
X151477918Y-82310078D01*
X151477918Y-81001428D01*
X151497920Y-80933307D01*
X151537614Y-80894285D01*
X151578131Y-80869212D01*
X151583304Y-80864030D01*
X151590070Y-80857252D01*
X151698970Y-80748162D01*
X151702810Y-80741932D01*
X151702811Y-80741931D01*
X151781157Y-80614830D01*
X151788720Y-80602561D01*
X151842567Y-80440217D01*
X151843267Y-80433380D01*
X151843268Y-80433378D01*
X151847501Y-80392059D01*
X151852918Y-80339192D01*
X151852918Y-79741728D01*
X151852581Y-79738482D01*
X151852581Y-79738478D01*
X151849043Y-79704377D01*
X151842305Y-79639441D01*
X151818268Y-79567394D01*
X151790491Y-79484136D01*
X151790490Y-79484134D01*
X151788174Y-79477192D01*
X151771774Y-79450690D01*
X151752918Y-79384387D01*
X151752918Y-78651653D01*
X151763796Y-78602586D01*
X151763720Y-78602561D01*
X151763965Y-78601823D01*
X151763965Y-78601821D01*
X151766026Y-78595610D01*
X151766026Y-78595609D01*
X151785112Y-78538066D01*
X151817567Y-78440217D01*
X151818267Y-78433380D01*
X151818268Y-78433378D01*
X151822501Y-78392059D01*
X151827918Y-78339192D01*
X151827918Y-77741728D01*
X151827581Y-77738482D01*
X151827581Y-77738478D01*
X151823495Y-77699100D01*
X151817305Y-77639441D01*
X151796576Y-77577309D01*
X151765491Y-77484136D01*
X151765490Y-77484134D01*
X151763174Y-77477192D01*
X151745780Y-77449083D01*
X151677024Y-77337975D01*
X151673170Y-77331747D01*
X151552120Y-77210908D01*
X151537615Y-77201967D01*
X151412749Y-77124998D01*
X151412747Y-77124997D01*
X151406519Y-77121158D01*
X151244175Y-77067311D01*
X151234538Y-77066323D01*
X151146348Y-77057288D01*
X151143150Y-77056960D01*
X150595686Y-77056960D01*
X150493399Y-77067573D01*
X150425827Y-77090117D01*
X150338094Y-77119387D01*
X150338092Y-77119388D01*
X150331150Y-77121704D01*
X150317987Y-77129849D01*
X150191933Y-77207854D01*
X150185705Y-77211708D01*
X150064866Y-77332758D01*
X150007872Y-77425219D01*
X149978956Y-77472129D01*
X149978955Y-77472131D01*
X149975116Y-77478359D01*
X149921269Y-77640703D01*
X149920569Y-77647540D01*
X149920568Y-77647542D01*
X149916335Y-77688861D01*
X149910918Y-77741728D01*
X149910918Y-78339192D01*
X149911255Y-78342438D01*
X149911255Y-78342442D01*
X149914091Y-78369773D01*
X149921531Y-78441479D01*
X149975662Y-78603728D01*
X149975274Y-78603857D01*
X149985918Y-78651673D01*
X149985918Y-79500815D01*
X149979511Y-79540482D01*
X149974021Y-79557033D01*
X149946269Y-79640703D01*
X149945569Y-79647540D01*
X149945568Y-79647542D01*
X149940729Y-79694772D01*
X149938988Y-79711766D01*
X149912147Y-79777493D01*
X149907280Y-79783234D01*
X149880131Y-79813385D01*
X149880129Y-79813388D01*
X149875714Y-79818291D01*
X149869007Y-79829908D01*
X149857809Y-79846201D01*
X149856878Y-79847351D01*
X149849371Y-79856621D01*
X149819205Y-79915823D01*
X149816072Y-79921593D01*
X149786158Y-79973405D01*
X149786156Y-79973410D01*
X149782854Y-79979129D01*
X149780813Y-79985409D01*
X149780810Y-79985417D01*
X149778710Y-79991881D01*
X149771146Y-80010143D01*
X149768055Y-80016209D01*
X149768052Y-80016218D01*
X149765056Y-80022097D01*
X149754352Y-80062044D01*
X149747862Y-80086264D01*
X149745996Y-80092566D01*
X149725464Y-80155758D01*
X149724063Y-80169088D01*
X149720460Y-80188531D01*
X149716988Y-80201489D01*
X149716643Y-80208079D01*
X149716642Y-80208083D01*
X149714339Y-80252033D01*
X149713511Y-80267832D01*
X149712995Y-80274391D01*
X149710918Y-80294154D01*
X149710918Y-80314015D01*
X149710745Y-80320610D01*
X149707613Y-80380362D01*
X149707613Y-80380366D01*
X149707268Y-80386953D01*
X149709367Y-80400207D01*
X149710918Y-80419916D01*
X149710918Y-82310078D01*
X149690916Y-82378199D01*
X149637260Y-82424692D01*
X149629149Y-82428059D01*
X149606125Y-82436691D01*
X149606121Y-82436693D01*
X149597713Y-82439845D01*
X149481157Y-82527199D01*
X149393803Y-82643755D01*
X149342673Y-82780144D01*
X149335918Y-82842326D01*
X149335918Y-83055471D01*
X149315916Y-83123592D01*
X149262260Y-83170085D01*
X149209918Y-83181471D01*
X148749364Y-83181471D01*
X148729652Y-83179920D01*
X148722915Y-83178853D01*
X148716400Y-83177821D01*
X148704426Y-83178448D01*
X148650057Y-83181298D01*
X148643462Y-83181471D01*
X148623601Y-83181471D01*
X148603838Y-83183548D01*
X148597274Y-83184064D01*
X148537530Y-83187195D01*
X148537526Y-83187196D01*
X148530936Y-83187541D01*
X148517978Y-83191013D01*
X148498535Y-83194616D01*
X148491773Y-83195327D01*
X148485205Y-83196017D01*
X148422013Y-83216549D01*
X148415711Y-83218415D01*
X148357922Y-83233900D01*
X148351544Y-83235609D01*
X148345665Y-83238605D01*
X148345656Y-83238608D01*
X148339590Y-83241699D01*
X148321328Y-83249263D01*
X148314864Y-83251363D01*
X148314856Y-83251366D01*
X148308576Y-83253407D01*
X148302857Y-83256709D01*
X148302852Y-83256711D01*
X148251040Y-83286625D01*
X148245270Y-83289758D01*
X148186068Y-83319924D01*
X148175649Y-83328361D01*
X148159353Y-83339561D01*
X148153453Y-83342967D01*
X148153450Y-83342969D01*
X148147738Y-83346267D01*
X148142833Y-83350683D01*
X148142828Y-83350687D01*
X148098360Y-83390725D01*
X148093350Y-83395005D01*
X148080483Y-83405425D01*
X148080482Y-83405426D01*
X148077922Y-83407499D01*
X148063886Y-83421535D01*
X148059101Y-83426076D01*
X148030736Y-83451616D01*
X148009722Y-83470537D01*
X148001832Y-83481396D01*
X147988993Y-83496427D01*
X147125872Y-84359548D01*
X147110844Y-84372385D01*
X147099984Y-84380275D01*
X147055532Y-84429644D01*
X147050991Y-84434429D01*
X147036946Y-84448474D01*
X147034859Y-84451051D01*
X147024449Y-84463906D01*
X147020165Y-84468922D01*
X146980135Y-84513380D01*
X146980131Y-84513385D01*
X146975714Y-84518291D01*
X146969007Y-84529908D01*
X146957809Y-84546201D01*
X146953527Y-84551489D01*
X146949371Y-84556621D01*
X146919205Y-84615823D01*
X146916072Y-84621593D01*
X146886158Y-84673405D01*
X146886156Y-84673410D01*
X146882854Y-84679129D01*
X146880813Y-84685409D01*
X146880810Y-84685417D01*
X146878710Y-84691881D01*
X146871146Y-84710143D01*
X146868055Y-84716209D01*
X146868052Y-84716218D01*
X146865056Y-84722097D01*
X146847865Y-84786253D01*
X146847862Y-84786264D01*
X146845996Y-84792566D01*
X146825464Y-84855758D01*
X146824063Y-84869088D01*
X146820460Y-84888531D01*
X146816988Y-84901489D01*
X146816643Y-84908079D01*
X146816642Y-84908083D01*
X146814339Y-84952033D01*
X146813511Y-84967832D01*
X146812995Y-84974391D01*
X146810918Y-84994154D01*
X146810918Y-85014015D01*
X146810745Y-85020610D01*
X146807613Y-85080362D01*
X146807613Y-85080366D01*
X146807268Y-85086953D01*
X146809367Y-85100207D01*
X146810918Y-85119916D01*
X146810918Y-88112960D01*
X146790916Y-88181081D01*
X146737260Y-88227574D01*
X146684918Y-88238960D01*
X144448435Y-88238960D01*
X144380314Y-88218958D01*
X144359340Y-88202056D01*
X144089823Y-87932540D01*
X144055798Y-87870227D01*
X144052918Y-87843444D01*
X144052918Y-87471465D01*
X144072920Y-87403344D01*
X144089745Y-87382448D01*
X144118795Y-87353347D01*
X144118799Y-87353342D01*
X144123970Y-87348162D01*
X144127810Y-87341932D01*
X144127811Y-87341931D01*
X144186419Y-87246851D01*
X144213720Y-87202561D01*
X144267567Y-87040217D01*
X144268267Y-87033380D01*
X144268268Y-87033378D01*
X144272501Y-86992059D01*
X144277918Y-86939192D01*
X144277918Y-86341728D01*
X144277581Y-86338482D01*
X144277581Y-86338478D01*
X144274043Y-86304377D01*
X144267305Y-86239441D01*
X144255722Y-86204723D01*
X144215491Y-86084136D01*
X144215490Y-86084134D01*
X144213174Y-86077192D01*
X144166039Y-86001022D01*
X144127024Y-85937975D01*
X144123170Y-85931747D01*
X144002120Y-85810908D01*
X143925258Y-85763529D01*
X143862749Y-85724998D01*
X143862747Y-85724997D01*
X143856519Y-85721158D01*
X143694175Y-85667311D01*
X143671284Y-85664965D01*
X143627242Y-85660453D01*
X143593150Y-85656960D01*
X143425434Y-85656960D01*
X143357313Y-85636958D01*
X143336339Y-85620055D01*
X142799823Y-85083539D01*
X142765797Y-85021227D01*
X142762918Y-84994444D01*
X142762918Y-84579906D01*
X142782920Y-84511785D01*
G37*
G04 #@! TD.AperFunction*
G04 #@! TA.AperFunction,Conductor*
G36*
X148597920Y-85390488D02*
G01*
X148614822Y-85369514D01*
X148998959Y-84985376D01*
X149061272Y-84951351D01*
X149088055Y-84948471D01*
X149235737Y-84948471D01*
X149303858Y-84968473D01*
X149350351Y-85022129D01*
X149353719Y-85030242D01*
X149390650Y-85128755D01*
X149390651Y-85128756D01*
X149393803Y-85137165D01*
X149481157Y-85253721D01*
X149597713Y-85341075D01*
X149734102Y-85392205D01*
X149796284Y-85398960D01*
X151392552Y-85398960D01*
X151454734Y-85392205D01*
X151591123Y-85341075D01*
X151598308Y-85335690D01*
X151598310Y-85335689D01*
X151668853Y-85282820D01*
X151735360Y-85257972D01*
X151804742Y-85273025D01*
X151819983Y-85282820D01*
X151888852Y-85334434D01*
X151897713Y-85341075D01*
X151906122Y-85344228D01*
X151906125Y-85344229D01*
X151929149Y-85352861D01*
X151985913Y-85395503D01*
X152010612Y-85462065D01*
X152010918Y-85470842D01*
X152010918Y-88555960D01*
X151990916Y-88624081D01*
X151937260Y-88670574D01*
X151884918Y-88681960D01*
X150946284Y-88681960D01*
X150884102Y-88688715D01*
X150747713Y-88739845D01*
X150631157Y-88827199D01*
X150543803Y-88943755D01*
X150492673Y-89080144D01*
X150485918Y-89142326D01*
X150485918Y-91238594D01*
X150492673Y-91300776D01*
X150543803Y-91437165D01*
X150631157Y-91553721D01*
X150747713Y-91641075D01*
X150884102Y-91692205D01*
X150946284Y-91698960D01*
X154842552Y-91698960D01*
X154904734Y-91692205D01*
X155041123Y-91641075D01*
X155157679Y-91553721D01*
X155245033Y-91437165D01*
X155296163Y-91300776D01*
X155302918Y-91238594D01*
X155302918Y-91199960D01*
X155322920Y-91131839D01*
X155376576Y-91085346D01*
X155428918Y-91073960D01*
X158729403Y-91073960D01*
X158797524Y-91093962D01*
X158844017Y-91147618D01*
X158854121Y-91217892D01*
X158824627Y-91282472D01*
X158818498Y-91289055D01*
X157739841Y-92367712D01*
X157725428Y-92380099D01*
X157714666Y-92388019D01*
X157708767Y-92392360D01*
X157675787Y-92431180D01*
X157668857Y-92438696D01*
X157663473Y-92444080D01*
X157661210Y-92446941D01*
X157661205Y-92446946D01*
X157646486Y-92465551D01*
X157643697Y-92468953D01*
X157602765Y-92517132D01*
X157602762Y-92517136D01*
X157598026Y-92522711D01*
X157594697Y-92529232D01*
X157591576Y-92533911D01*
X157588640Y-92538665D01*
X157584100Y-92544403D01*
X157554229Y-92608313D01*
X157552319Y-92612221D01*
X157520242Y-92675042D01*
X157518502Y-92682154D01*
X157516536Y-92687440D01*
X157514778Y-92692725D01*
X157511679Y-92699355D01*
X157497312Y-92768428D01*
X157496342Y-92772712D01*
X157479588Y-92841181D01*
X157479240Y-92846783D01*
X157479240Y-92846786D01*
X157478918Y-92851980D01*
X157478894Y-92851979D01*
X157478630Y-92856394D01*
X157478340Y-92859644D01*
X157476849Y-92866812D01*
X157478629Y-92932609D01*
X157478872Y-92941583D01*
X157478918Y-92944991D01*
X157478918Y-93737286D01*
X157486243Y-93800115D01*
X157486343Y-93825528D01*
X157486471Y-93825535D01*
X157486352Y-93827737D01*
X157486354Y-93828312D01*
X157486287Y-93828926D01*
X157486287Y-93828932D01*
X157485918Y-93832326D01*
X157485918Y-94670111D01*
X157465916Y-94738232D01*
X157418683Y-94781568D01*
X157341623Y-94822197D01*
X157335582Y-94825382D01*
X157330369Y-94829787D01*
X157330365Y-94829790D01*
X157202475Y-94937866D01*
X157202471Y-94937870D01*
X157197261Y-94942273D01*
X157193113Y-94947698D01*
X157091412Y-95080717D01*
X157091409Y-95080721D01*
X157087268Y-95086138D01*
X157017471Y-95235818D01*
X157013613Y-95244091D01*
X157013612Y-95244094D01*
X157010733Y-95250268D01*
X157009247Y-95256916D01*
X157009246Y-95256919D01*
X156972354Y-95421966D01*
X156972354Y-95421965D01*
X156971228Y-95427003D01*
X156970918Y-95432548D01*
X156970918Y-95565704D01*
X156985561Y-95700497D01*
X157013613Y-95783851D01*
X157041146Y-95865664D01*
X157041147Y-95865666D01*
X157043324Y-95872135D01*
X157046842Y-95877990D01*
X157099763Y-95966066D01*
X157117703Y-96034758D01*
X157095656Y-96102245D01*
X157040623Y-96147099D01*
X156991760Y-96156960D01*
X153373875Y-96156960D01*
X153354163Y-96155409D01*
X153347426Y-96154342D01*
X153340911Y-96153310D01*
X153274568Y-96156787D01*
X153267973Y-96156960D01*
X153248112Y-96156960D01*
X153228349Y-96159037D01*
X153221785Y-96159553D01*
X153162041Y-96162684D01*
X153162037Y-96162685D01*
X153155447Y-96163030D01*
X153142489Y-96166502D01*
X153123046Y-96170105D01*
X153116284Y-96170816D01*
X153109716Y-96171506D01*
X153046524Y-96192038D01*
X153040222Y-96193904D01*
X152982433Y-96209389D01*
X152976055Y-96211098D01*
X152970176Y-96214094D01*
X152970167Y-96214097D01*
X152964101Y-96217188D01*
X152945839Y-96224752D01*
X152939375Y-96226852D01*
X152939367Y-96226855D01*
X152933087Y-96228896D01*
X152927368Y-96232198D01*
X152927363Y-96232200D01*
X152875551Y-96262114D01*
X152869781Y-96265247D01*
X152810579Y-96295413D01*
X152800159Y-96303851D01*
X152783866Y-96315049D01*
X152783515Y-96315251D01*
X152772249Y-96321756D01*
X152767343Y-96326173D01*
X152767338Y-96326177D01*
X152722880Y-96366207D01*
X152717864Y-96370491D01*
X152705009Y-96380901D01*
X152705006Y-96380904D01*
X152702432Y-96382988D01*
X152688387Y-96397033D01*
X152683602Y-96401574D01*
X152639144Y-96441604D01*
X152639143Y-96441605D01*
X152634233Y-96446026D01*
X152626343Y-96456886D01*
X152613506Y-96471914D01*
X152056206Y-97029214D01*
X151993894Y-97063240D01*
X151923079Y-97058175D01*
X151889281Y-97037684D01*
X151888851Y-97038275D01*
X151877992Y-97030385D01*
X151862964Y-97017548D01*
X150517330Y-95671914D01*
X150504493Y-95656886D01*
X150496603Y-95646026D01*
X150477581Y-95628898D01*
X150447234Y-95601574D01*
X150442449Y-95597033D01*
X150428404Y-95582988D01*
X150416024Y-95572963D01*
X150412972Y-95570491D01*
X150407956Y-95566207D01*
X150363498Y-95526177D01*
X150363493Y-95526173D01*
X150358587Y-95521756D01*
X150346970Y-95515049D01*
X150330677Y-95503851D01*
X150325389Y-95499569D01*
X150320257Y-95495413D01*
X150261055Y-95465247D01*
X150255285Y-95462114D01*
X150203473Y-95432200D01*
X150203468Y-95432198D01*
X150197749Y-95428896D01*
X150191469Y-95426855D01*
X150191461Y-95426852D01*
X150184997Y-95424752D01*
X150166735Y-95417188D01*
X150160663Y-95414095D01*
X150154781Y-95411098D01*
X150090601Y-95393901D01*
X150084306Y-95392036D01*
X150021120Y-95371506D01*
X150014551Y-95370816D01*
X150014544Y-95370814D01*
X150007773Y-95370102D01*
X149988344Y-95366502D01*
X149975389Y-95363031D01*
X149960367Y-95362243D01*
X149912147Y-95359716D01*
X149909065Y-95359555D01*
X149902496Y-95359038D01*
X149900813Y-95358861D01*
X149882724Y-95356960D01*
X149862844Y-95356960D01*
X149856249Y-95356787D01*
X149796516Y-95353656D01*
X149796512Y-95353656D01*
X149789925Y-95353311D01*
X149776678Y-95355409D01*
X149756968Y-95356960D01*
X149112567Y-95356960D01*
X149044446Y-95336958D01*
X149023472Y-95320056D01*
X148614823Y-94911408D01*
X148580798Y-94849095D01*
X148577918Y-94822312D01*
X148577918Y-85458609D01*
X148597920Y-85390488D01*
G37*
G04 #@! TD.AperFunction*
G04 #@! TA.AperFunction,Conductor*
G36*
X148451920Y-53736734D02*
G01*
X148505576Y-53690241D01*
X148575850Y-53680137D01*
X148596855Y-53685023D01*
X148624490Y-53694002D01*
X148631053Y-53694692D01*
X148631063Y-53694694D01*
X148631683Y-53694759D01*
X148632018Y-53694897D01*
X148637518Y-53696066D01*
X148637304Y-53697072D01*
X148697339Y-53721773D01*
X148707604Y-53730972D01*
X149265673Y-54289040D01*
X149278059Y-54303453D01*
X149290318Y-54320111D01*
X149295901Y-54324854D01*
X149329138Y-54353091D01*
X149336654Y-54360021D01*
X149342038Y-54365405D01*
X149344899Y-54367668D01*
X149344904Y-54367673D01*
X149363509Y-54382392D01*
X149366911Y-54385181D01*
X149415090Y-54426113D01*
X149415094Y-54426116D01*
X149420669Y-54430852D01*
X149427190Y-54434181D01*
X149431869Y-54437302D01*
X149436623Y-54440238D01*
X149442361Y-54444778D01*
X149448988Y-54447875D01*
X149448989Y-54447876D01*
X149506272Y-54474649D01*
X149510179Y-54476559D01*
X149573000Y-54508636D01*
X149580112Y-54510376D01*
X149585398Y-54512342D01*
X149590683Y-54514100D01*
X149597313Y-54517199D01*
X149604478Y-54518689D01*
X149666381Y-54531565D01*
X149670665Y-54532535D01*
X149739139Y-54549290D01*
X149749938Y-54549960D01*
X149749937Y-54549984D01*
X149754352Y-54550248D01*
X149757602Y-54550538D01*
X149764770Y-54552029D01*
X149789925Y-54551348D01*
X149839541Y-54550006D01*
X149842949Y-54549960D01*
X157856401Y-54549960D01*
X157924522Y-54569962D01*
X157945496Y-54586864D01*
X158694013Y-55335380D01*
X158728038Y-55397693D01*
X158730918Y-55424476D01*
X158730918Y-63955960D01*
X158710916Y-64024081D01*
X158657260Y-64070574D01*
X158604918Y-64081960D01*
X157696284Y-64081960D01*
X157634102Y-64088715D01*
X157603647Y-64100132D01*
X157532841Y-64105315D01*
X157515194Y-64100134D01*
X157484734Y-64088715D01*
X157422552Y-64081960D01*
X156426284Y-64081960D01*
X156364102Y-64088715D01*
X156333647Y-64100132D01*
X156262841Y-64105315D01*
X156245194Y-64100134D01*
X156214734Y-64088715D01*
X156152552Y-64081960D01*
X155156284Y-64081960D01*
X155094102Y-64088715D01*
X155063647Y-64100132D01*
X154992841Y-64105315D01*
X154975194Y-64100134D01*
X154944734Y-64088715D01*
X154882552Y-64081960D01*
X153886284Y-64081960D01*
X153824102Y-64088715D01*
X153793647Y-64100132D01*
X153722841Y-64105315D01*
X153705194Y-64100134D01*
X153674734Y-64088715D01*
X153612552Y-64081960D01*
X152616284Y-64081960D01*
X152554102Y-64088715D01*
X152523647Y-64100132D01*
X152452841Y-64105315D01*
X152435194Y-64100134D01*
X152404734Y-64088715D01*
X152342552Y-64081960D01*
X151346284Y-64081960D01*
X151284102Y-64088715D01*
X151253647Y-64100132D01*
X151182841Y-64105315D01*
X151165194Y-64100134D01*
X151134734Y-64088715D01*
X151072552Y-64081960D01*
X150076284Y-64081960D01*
X150055176Y-64084253D01*
X149985293Y-64071725D01*
X149933277Y-64023404D01*
X149915643Y-63954632D01*
X149937989Y-63887244D01*
X149957257Y-63865355D01*
X150001284Y-63825713D01*
X150113536Y-63671212D01*
X150116220Y-63665184D01*
X150116221Y-63665182D01*
X150185705Y-63509117D01*
X150191212Y-63496748D01*
X150208304Y-63416337D01*
X150229546Y-63316404D01*
X150229546Y-63316399D01*
X150230918Y-63309947D01*
X150230918Y-63118973D01*
X150229546Y-63112521D01*
X150229546Y-63112516D01*
X150208304Y-63012583D01*
X150191212Y-62932172D01*
X150185705Y-62919803D01*
X150116221Y-62763738D01*
X150116220Y-62763736D01*
X150113536Y-62757708D01*
X150088337Y-62723024D01*
X150006706Y-62610670D01*
X150001284Y-62603207D01*
X149996381Y-62598792D01*
X149991958Y-62593880D01*
X149993207Y-62592755D01*
X149960367Y-62539446D01*
X149955918Y-62506260D01*
X149955918Y-61515227D01*
X149956445Y-61504044D01*
X149958120Y-61496551D01*
X149957871Y-61488625D01*
X149957871Y-61488624D01*
X149955980Y-61428474D01*
X149955918Y-61424515D01*
X149955918Y-61396604D01*
X149955421Y-61392669D01*
X149955413Y-61392604D01*
X149954480Y-61380767D01*
X149953466Y-61348509D01*
X149953340Y-61344490D01*
X149953091Y-61336571D01*
X149947439Y-61317117D01*
X149943431Y-61297760D01*
X149941886Y-61285530D01*
X149941886Y-61285529D01*
X149940892Y-61277663D01*
X149937973Y-61270292D01*
X149937973Y-61270290D01*
X149924614Y-61236548D01*
X149920769Y-61225318D01*
X149910647Y-61190477D01*
X149910647Y-61190476D01*
X149908436Y-61182867D01*
X149904403Y-61176048D01*
X149904401Y-61176043D01*
X149898125Y-61165432D01*
X149889430Y-61147684D01*
X149881970Y-61128843D01*
X149856249Y-61093440D01*
X149855982Y-61093073D01*
X149849466Y-61083153D01*
X149830998Y-61051925D01*
X149830996Y-61051922D01*
X149826960Y-61045098D01*
X149812639Y-61030777D01*
X149799798Y-61015743D01*
X149796400Y-61011066D01*
X149787890Y-60999353D01*
X149753813Y-60971162D01*
X149745034Y-60963172D01*
X148468823Y-59686961D01*
X148434797Y-59624649D01*
X148431918Y-59597866D01*
X148431918Y-53804855D01*
X148451920Y-53736734D01*
G37*
G04 #@! TD.AperFunction*
G04 #@! TA.AperFunction,Conductor*
G36*
X147646210Y-73802448D02*
G01*
X147652327Y-73795877D01*
X148573339Y-72874864D01*
X148635650Y-72840840D01*
X148662433Y-72837960D01*
X149190252Y-72837960D01*
X149209201Y-72839393D01*
X149229645Y-72842503D01*
X149236937Y-72841910D01*
X149236940Y-72841910D01*
X149280397Y-72838375D01*
X149290612Y-72837960D01*
X149298244Y-72837960D01*
X149301863Y-72837538D01*
X149301882Y-72837537D01*
X149325487Y-72834785D01*
X149329853Y-72834353D01*
X149351362Y-72832603D01*
X149390651Y-72829407D01*
X149400122Y-72828637D01*
X149407038Y-72826396D01*
X149431664Y-72823960D01*
X149793150Y-72823960D01*
X149796396Y-72823623D01*
X149796400Y-72823623D01*
X149805220Y-72822708D01*
X149895437Y-72813347D01*
X149920820Y-72804878D01*
X150021120Y-72771415D01*
X150057686Y-72759216D01*
X150063910Y-72755364D01*
X150063911Y-72755364D01*
X150118313Y-72721699D01*
X150203131Y-72669212D01*
X150208304Y-72664030D01*
X150243466Y-72628807D01*
X150323970Y-72548162D01*
X150327810Y-72541932D01*
X150327811Y-72541931D01*
X150396284Y-72430847D01*
X150413720Y-72402561D01*
X150467567Y-72240217D01*
X150468267Y-72233380D01*
X150468268Y-72233378D01*
X150472501Y-72192059D01*
X150477918Y-72139192D01*
X150477918Y-71591728D01*
X150477581Y-71588482D01*
X150477581Y-71588478D01*
X150474043Y-71554377D01*
X150467305Y-71489441D01*
X150416024Y-71335734D01*
X150415491Y-71334136D01*
X150415490Y-71334134D01*
X150413174Y-71327192D01*
X150392887Y-71294408D01*
X150327024Y-71187975D01*
X150323170Y-71181747D01*
X150316154Y-71174744D01*
X150315301Y-71173183D01*
X150313441Y-71170837D01*
X150313843Y-71170519D01*
X150282075Y-71112460D01*
X150287080Y-71041640D01*
X150329578Y-70984767D01*
X150362179Y-70967133D01*
X150381611Y-70960079D01*
X150385774Y-70958650D01*
X150445876Y-70939180D01*
X150445880Y-70939178D01*
X150452838Y-70936924D01*
X150459090Y-70933130D01*
X150464206Y-70930788D01*
X150469207Y-70928284D01*
X150476085Y-70925787D01*
X150482202Y-70921777D01*
X150482207Y-70921774D01*
X150535072Y-70887113D01*
X150538794Y-70884765D01*
X150599063Y-70848193D01*
X150603266Y-70844481D01*
X150607173Y-70841031D01*
X150607188Y-70841048D01*
X150610498Y-70838114D01*
X150613005Y-70836018D01*
X150619124Y-70832006D01*
X150624156Y-70826694D01*
X150670584Y-70777684D01*
X150672962Y-70775242D01*
X151046999Y-70401205D01*
X151061411Y-70388819D01*
X151078069Y-70376560D01*
X151082812Y-70370977D01*
X151111043Y-70337747D01*
X151117973Y-70330231D01*
X151123364Y-70324840D01*
X151140377Y-70303336D01*
X151143154Y-70299950D01*
X151184067Y-70251793D01*
X151184071Y-70251788D01*
X151188810Y-70246209D01*
X151192140Y-70239687D01*
X151195260Y-70235009D01*
X151198196Y-70230255D01*
X151202736Y-70224517D01*
X151205833Y-70217890D01*
X151205834Y-70217889D01*
X151232607Y-70160606D01*
X151234517Y-70156699D01*
X151266594Y-70093878D01*
X151268334Y-70086766D01*
X151270303Y-70081472D01*
X151272059Y-70076193D01*
X151275157Y-70069565D01*
X151289524Y-70000490D01*
X151290491Y-69996219D01*
X151307248Y-69927739D01*
X151307595Y-69922140D01*
X151307596Y-69922136D01*
X151307918Y-69916940D01*
X151307942Y-69916941D01*
X151308206Y-69912545D01*
X151308498Y-69909271D01*
X151309988Y-69902108D01*
X151307964Y-69827300D01*
X151307918Y-69823892D01*
X151307918Y-68155960D01*
X151327920Y-68087839D01*
X151381576Y-68041346D01*
X151433918Y-68029960D01*
X153720823Y-68029960D01*
X153788944Y-68049962D01*
X153835437Y-68103618D01*
X153845541Y-68173892D01*
X153816047Y-68238472D01*
X153809918Y-68245055D01*
X151724165Y-70330808D01*
X151715879Y-70338348D01*
X151709400Y-70342460D01*
X151697805Y-70354807D01*
X151662775Y-70392111D01*
X151660020Y-70394953D01*
X151640283Y-70414690D01*
X151637803Y-70417887D01*
X151630098Y-70426909D01*
X151625446Y-70431863D01*
X151599832Y-70459139D01*
X151596013Y-70466085D01*
X151596011Y-70466088D01*
X151590070Y-70476894D01*
X151579219Y-70493413D01*
X151578131Y-70494816D01*
X151566804Y-70509419D01*
X151563659Y-70516688D01*
X151563656Y-70516692D01*
X151549244Y-70549997D01*
X151544027Y-70560647D01*
X151522723Y-70599400D01*
X151517685Y-70619023D01*
X151511281Y-70637726D01*
X151506385Y-70649040D01*
X151506385Y-70649041D01*
X151503237Y-70656315D01*
X151501998Y-70664138D01*
X151501995Y-70664148D01*
X151496319Y-70699984D01*
X151493913Y-70711604D01*
X151484890Y-70746749D01*
X151484890Y-70746750D01*
X151482918Y-70754430D01*
X151482918Y-70774684D01*
X151481367Y-70794395D01*
X151479438Y-70806574D01*
X151478198Y-70814403D01*
X151478944Y-70822295D01*
X151482359Y-70858421D01*
X151482918Y-70870279D01*
X151482918Y-72306480D01*
X151462916Y-72374601D01*
X151446013Y-72395575D01*
X149867532Y-73974055D01*
X149805220Y-74008081D01*
X149778437Y-74010960D01*
X147741434Y-74010960D01*
X147673313Y-73990958D01*
X147626820Y-73937302D01*
X147616716Y-73867028D01*
X147646210Y-73802448D01*
G37*
G04 #@! TD.AperFunction*
G04 #@! TA.AperFunction,Conductor*
G36*
X147551375Y-66674506D02*
G01*
X147556146Y-66662159D01*
X147560311Y-66655733D01*
X147562881Y-66647141D01*
X147562882Y-66647138D01*
X147567657Y-66631170D01*
X147574319Y-66613724D01*
X147585217Y-66590512D01*
X147589761Y-66561330D01*
X147593544Y-66544611D01*
X147599432Y-66524924D01*
X147599433Y-66524921D01*
X147602005Y-66516319D01*
X147602060Y-66507344D01*
X147602060Y-66507343D01*
X147602101Y-66500650D01*
X147602215Y-66481904D01*
X147602248Y-66481132D01*
X147602418Y-66480037D01*
X147602418Y-66449162D01*
X147602420Y-66448392D01*
X147602870Y-66374744D01*
X147602870Y-66374743D01*
X147602894Y-66370808D01*
X147602510Y-66369464D01*
X147602418Y-66368119D01*
X147602418Y-60916555D01*
X147622420Y-60848434D01*
X147676076Y-60801941D01*
X147746350Y-60791837D01*
X147810930Y-60821331D01*
X147817513Y-60827460D01*
X148652013Y-61661960D01*
X148686039Y-61724272D01*
X148688918Y-61751055D01*
X148688918Y-62506260D01*
X148668916Y-62574381D01*
X148652575Y-62593607D01*
X148652878Y-62593880D01*
X148648455Y-62598792D01*
X148643552Y-62603207D01*
X148566674Y-62709020D01*
X148535181Y-62752366D01*
X148535180Y-62752367D01*
X148531300Y-62757708D01*
X148528616Y-62763736D01*
X148528615Y-62763738D01*
X148456309Y-62926141D01*
X148456309Y-62926142D01*
X148453624Y-62932172D01*
X148431918Y-63034290D01*
X148415290Y-63112516D01*
X148415290Y-63112521D01*
X148413918Y-63118973D01*
X148413918Y-63309947D01*
X148415290Y-63316399D01*
X148415290Y-63316404D01*
X148431918Y-63394630D01*
X148453624Y-63496748D01*
X148456309Y-63502778D01*
X148456309Y-63502779D01*
X148528615Y-63665182D01*
X148528616Y-63665184D01*
X148531300Y-63671212D01*
X148535180Y-63676553D01*
X148535181Y-63676554D01*
X148555447Y-63704447D01*
X148643552Y-63825713D01*
X148725186Y-63899217D01*
X148762424Y-63959659D01*
X148761073Y-64030643D01*
X148721559Y-64089628D01*
X148685104Y-64110832D01*
X148616121Y-64136693D01*
X148607713Y-64139845D01*
X148491157Y-64227199D01*
X148403803Y-64343755D01*
X148352673Y-64480144D01*
X148345918Y-64542326D01*
X148345918Y-66638594D01*
X148352673Y-66700776D01*
X148403803Y-66837165D01*
X148491157Y-66953721D01*
X148520485Y-66975701D01*
X148562998Y-67032560D01*
X148570918Y-67076526D01*
X148570918Y-67805960D01*
X148550916Y-67874081D01*
X148497260Y-67920574D01*
X148444918Y-67931960D01*
X148375423Y-67931960D01*
X148307302Y-67911958D01*
X148286406Y-67895133D01*
X148257305Y-67866083D01*
X148257300Y-67866079D01*
X148252120Y-67860908D01*
X148200159Y-67828879D01*
X148112749Y-67774998D01*
X148112747Y-67774997D01*
X148106519Y-67771158D01*
X148031250Y-67746193D01*
X147972891Y-67705763D01*
X147945654Y-67640199D01*
X147944918Y-67626600D01*
X147944918Y-67436973D01*
X147943546Y-67430521D01*
X147943546Y-67430516D01*
X147925065Y-67343573D01*
X147905212Y-67250172D01*
X147902527Y-67244141D01*
X147830221Y-67081738D01*
X147830220Y-67081736D01*
X147827536Y-67075708D01*
X147817513Y-67061912D01*
X147746350Y-66963966D01*
X147715284Y-66921207D01*
X147587261Y-66805935D01*
X147550023Y-66745490D01*
X147551375Y-66674506D01*
G37*
G04 #@! TD.AperFunction*
G04 #@! TA.AperFunction,Conductor*
G36*
X147398400Y-69694007D02*
G01*
X147415303Y-69673033D01*
X147427471Y-69660865D01*
X147489783Y-69626839D01*
X147516566Y-69623960D01*
X147843150Y-69623960D01*
X147945437Y-69613347D01*
X147951977Y-69611165D01*
X148100090Y-69561750D01*
X148107686Y-69559216D01*
X148113910Y-69555364D01*
X148113911Y-69555364D01*
X148186068Y-69510712D01*
X148253131Y-69469212D01*
X148276336Y-69445966D01*
X148286343Y-69435942D01*
X148348625Y-69401863D01*
X148375516Y-69398960D01*
X148579708Y-69398960D01*
X148647829Y-69418962D01*
X148694322Y-69472618D01*
X148704426Y-69542892D01*
X148674932Y-69607472D01*
X148668803Y-69614055D01*
X148657779Y-69625079D01*
X148568946Y-69771761D01*
X148566675Y-69779008D01*
X148566674Y-69779010D01*
X148535181Y-69879505D01*
X148517665Y-69935398D01*
X148510918Y-70008825D01*
X148510918Y-70011723D01*
X148510919Y-70266125D01*
X148510919Y-70522094D01*
X148511182Y-70524952D01*
X148511182Y-70524961D01*
X148514444Y-70560464D01*
X148517665Y-70595522D01*
X148519664Y-70601900D01*
X148519664Y-70601901D01*
X148566674Y-70751910D01*
X148566675Y-70751912D01*
X148568946Y-70759159D01*
X148657779Y-70905841D01*
X148710645Y-70958707D01*
X148744671Y-71021019D01*
X148739606Y-71091834D01*
X148710724Y-71136819D01*
X148670038Y-71177577D01*
X148664866Y-71182758D01*
X148657779Y-71194255D01*
X148585769Y-71311076D01*
X148532996Y-71358570D01*
X148478509Y-71370960D01*
X148371584Y-71370960D01*
X148352634Y-71369527D01*
X148339425Y-71367517D01*
X148339421Y-71367517D01*
X148332191Y-71366417D01*
X148321328Y-71367300D01*
X148281437Y-71370545D01*
X148271223Y-71370960D01*
X148263592Y-71370960D01*
X148253131Y-71372179D01*
X148236377Y-71374133D01*
X148232001Y-71374566D01*
X148214823Y-71375963D01*
X148161713Y-71380283D01*
X148154745Y-71382540D01*
X148149246Y-71383639D01*
X148143801Y-71384926D01*
X148136528Y-71385774D01*
X148070203Y-71409849D01*
X148066048Y-71411275D01*
X148064824Y-71411671D01*
X148049000Y-71416798D01*
X148005964Y-71430739D01*
X148005961Y-71430740D01*
X147998998Y-71432996D01*
X147992741Y-71436793D01*
X147987616Y-71439139D01*
X147982629Y-71441636D01*
X147975751Y-71444133D01*
X147969634Y-71448143D01*
X147969629Y-71448146D01*
X147916764Y-71482807D01*
X147913042Y-71485155D01*
X147857570Y-71518816D01*
X147857569Y-71518817D01*
X147852773Y-71521727D01*
X147844663Y-71528889D01*
X147844648Y-71528872D01*
X147841339Y-71531805D01*
X147838831Y-71533902D01*
X147832712Y-71537914D01*
X147781286Y-71592200D01*
X147778910Y-71594641D01*
X147593493Y-71780058D01*
X147531181Y-71814084D01*
X147460366Y-71809019D01*
X147403530Y-71766472D01*
X147378719Y-71699952D01*
X147378398Y-71690963D01*
X147378398Y-69762128D01*
X147398400Y-69694007D01*
G37*
G04 #@! TD.AperFunction*
G04 #@! TA.AperFunction,Conductor*
G36*
X141371920Y-72338636D02*
G01*
X141375999Y-72332899D01*
X141380057Y-72328841D01*
X141383994Y-72322341D01*
X141383995Y-72322339D01*
X141410118Y-72279204D01*
X141468890Y-72182159D01*
X141471161Y-72174912D01*
X141471162Y-72174910D01*
X141483788Y-72134620D01*
X141520171Y-72018522D01*
X141526918Y-71945095D01*
X141526918Y-71942197D01*
X141526917Y-71086238D01*
X141526917Y-70231826D01*
X141526654Y-70228968D01*
X141526654Y-70228959D01*
X141523392Y-70193456D01*
X141520171Y-70158398D01*
X141483788Y-70042300D01*
X141471162Y-70002010D01*
X141471161Y-70002008D01*
X141468890Y-69994761D01*
X141462872Y-69984824D01*
X141425280Y-69922751D01*
X141407101Y-69854121D01*
X141428912Y-69786557D01*
X141483788Y-69741512D01*
X141533056Y-69731480D01*
X145392131Y-69731480D01*
X145403314Y-69732007D01*
X145410807Y-69733682D01*
X145418733Y-69733433D01*
X145418734Y-69733433D01*
X145478884Y-69731542D01*
X145482843Y-69731480D01*
X145485398Y-69731480D01*
X145553519Y-69751482D01*
X145600012Y-69805138D01*
X145611398Y-69857480D01*
X145611398Y-71465832D01*
X145591396Y-71533953D01*
X145574493Y-71554927D01*
X145451872Y-71677548D01*
X145436844Y-71690385D01*
X145425984Y-71698275D01*
X145410402Y-71715580D01*
X145381532Y-71747644D01*
X145376991Y-71752429D01*
X145362946Y-71766474D01*
X145360298Y-71769744D01*
X145350449Y-71781906D01*
X145346165Y-71786922D01*
X145306135Y-71831380D01*
X145306131Y-71831385D01*
X145301714Y-71836291D01*
X145295007Y-71847908D01*
X145283809Y-71864201D01*
X145275371Y-71874621D01*
X145245205Y-71933823D01*
X145242072Y-71939593D01*
X145212158Y-71991405D01*
X145212156Y-71991410D01*
X145208854Y-71997129D01*
X145206813Y-72003409D01*
X145206810Y-72003417D01*
X145204710Y-72009881D01*
X145197146Y-72028143D01*
X145194055Y-72034209D01*
X145194052Y-72034218D01*
X145191056Y-72040097D01*
X145180531Y-72079376D01*
X145173862Y-72104264D01*
X145171996Y-72110566D01*
X145151464Y-72173758D01*
X145150063Y-72187088D01*
X145146460Y-72206531D01*
X145142988Y-72219489D01*
X145142643Y-72226079D01*
X145142642Y-72226083D01*
X145140339Y-72270033D01*
X145139511Y-72285832D01*
X145138995Y-72292391D01*
X145136918Y-72312154D01*
X145136918Y-72332015D01*
X145136745Y-72338610D01*
X145133613Y-72398362D01*
X145133613Y-72398366D01*
X145133268Y-72404953D01*
X145135367Y-72418207D01*
X145136918Y-72437916D01*
X145136918Y-72640113D01*
X145134165Y-72666310D01*
X145113290Y-72764516D01*
X145113290Y-72764521D01*
X145111918Y-72770973D01*
X145111918Y-72961947D01*
X145113290Y-72968399D01*
X145113290Y-72968404D01*
X145131771Y-73055348D01*
X145151624Y-73148748D01*
X145154309Y-73154778D01*
X145154309Y-73154779D01*
X145226615Y-73317182D01*
X145226616Y-73317184D01*
X145229300Y-73323212D01*
X145341552Y-73477713D01*
X145346462Y-73482134D01*
X145346463Y-73482135D01*
X145470949Y-73594222D01*
X145483474Y-73605500D01*
X145489192Y-73608801D01*
X145521671Y-73627553D01*
X145570664Y-73678935D01*
X145584100Y-73748649D01*
X145557714Y-73814560D01*
X145533357Y-73838151D01*
X145516767Y-73850360D01*
X145483787Y-73889180D01*
X145476857Y-73896696D01*
X145471473Y-73902080D01*
X145469210Y-73904941D01*
X145469205Y-73904946D01*
X145454486Y-73923551D01*
X145451697Y-73926953D01*
X145410765Y-73975132D01*
X145410762Y-73975136D01*
X145406026Y-73980711D01*
X145402697Y-73987232D01*
X145399576Y-73991911D01*
X145396640Y-73996665D01*
X145392100Y-74002403D01*
X145362229Y-74066313D01*
X145360319Y-74070221D01*
X145328242Y-74133042D01*
X145326502Y-74140154D01*
X145324536Y-74145440D01*
X145322778Y-74150725D01*
X145319679Y-74157355D01*
X145305312Y-74226428D01*
X145304342Y-74230712D01*
X145301714Y-74241452D01*
X145287588Y-74299181D01*
X145287240Y-74304783D01*
X145287240Y-74304786D01*
X145286918Y-74309980D01*
X145286894Y-74309979D01*
X145286630Y-74314394D01*
X145286340Y-74317644D01*
X145284849Y-74324812D01*
X145286629Y-74390609D01*
X145286872Y-74399583D01*
X145286918Y-74402991D01*
X145286918Y-75155684D01*
X145280644Y-75194421D01*
X145278159Y-75199737D01*
X145263792Y-75268810D01*
X145262822Y-75273094D01*
X145246068Y-75341563D01*
X145245720Y-75347165D01*
X145245720Y-75347168D01*
X145245398Y-75352362D01*
X145245374Y-75352361D01*
X145245110Y-75356776D01*
X145244820Y-75360026D01*
X145243329Y-75367194D01*
X145245109Y-75432991D01*
X145245352Y-75441965D01*
X145245398Y-75445373D01*
X145245398Y-76519964D01*
X145225396Y-76588085D01*
X145208493Y-76609059D01*
X144907588Y-76909964D01*
X144845276Y-76943990D01*
X144802046Y-76945791D01*
X144639326Y-76924368D01*
X144636008Y-76923931D01*
X144569418Y-76922304D01*
X144346779Y-76940608D01*
X144341767Y-76941867D01*
X144338196Y-76942458D01*
X144267724Y-76933847D01*
X144228527Y-76907244D01*
X143742823Y-76421540D01*
X143708797Y-76359228D01*
X143705918Y-76332445D01*
X143705918Y-75979626D01*
X143707351Y-75960676D01*
X143709361Y-75947467D01*
X143709361Y-75947463D01*
X143710461Y-75940233D01*
X143709868Y-75932941D01*
X143709868Y-75932938D01*
X143706333Y-75889481D01*
X143705918Y-75879266D01*
X143705918Y-75871634D01*
X143705496Y-75868015D01*
X143705495Y-75867996D01*
X143702743Y-75844391D01*
X143702311Y-75840025D01*
X143700089Y-75812706D01*
X143697189Y-75777056D01*
X143697189Y-75777054D01*
X143696595Y-75769756D01*
X143694337Y-75762787D01*
X143693234Y-75757267D01*
X143691952Y-75751842D01*
X143691104Y-75744570D01*
X143667031Y-75678250D01*
X143665608Y-75674104D01*
X143646138Y-75614002D01*
X143646136Y-75613998D01*
X143643882Y-75607040D01*
X143640088Y-75600788D01*
X143637746Y-75595672D01*
X143635242Y-75590671D01*
X143632745Y-75583793D01*
X143628735Y-75577676D01*
X143628732Y-75577671D01*
X143594071Y-75524806D01*
X143591723Y-75521084D01*
X143558062Y-75465612D01*
X143558061Y-75465611D01*
X143555151Y-75460815D01*
X143547989Y-75452705D01*
X143548006Y-75452690D01*
X143545072Y-75449380D01*
X143542976Y-75446873D01*
X143538964Y-75440754D01*
X143484642Y-75389294D01*
X143482200Y-75386916D01*
X141388823Y-73293539D01*
X141354797Y-73231227D01*
X141351918Y-73204444D01*
X141351918Y-72406757D01*
X141371920Y-72338636D01*
G37*
G04 #@! TD.AperFunction*
G04 #@! TA.AperFunction,Conductor*
G36*
X140323920Y-74519355D02*
G01*
X140377576Y-74472862D01*
X140447850Y-74462758D01*
X140512430Y-74492252D01*
X140519013Y-74498381D01*
X142202013Y-76181380D01*
X142236038Y-76243692D01*
X142238918Y-76270475D01*
X142238918Y-76623294D01*
X142237485Y-76642244D01*
X142235475Y-76655453D01*
X142235475Y-76655457D01*
X142234375Y-76662687D01*
X142234968Y-76669979D01*
X142234968Y-76669982D01*
X142238503Y-76713439D01*
X142238918Y-76723654D01*
X142238918Y-76731286D01*
X142239340Y-76734905D01*
X142239341Y-76734924D01*
X142242093Y-76758529D01*
X142242525Y-76762895D01*
X142244434Y-76786362D01*
X142247647Y-76825864D01*
X142247647Y-76825866D01*
X142248241Y-76833164D01*
X142250499Y-76840133D01*
X142251602Y-76845653D01*
X142252884Y-76851078D01*
X142253732Y-76858350D01*
X142277805Y-76924670D01*
X142279228Y-76928816D01*
X142298698Y-76988918D01*
X142298700Y-76988922D01*
X142300954Y-76995880D01*
X142304748Y-77002132D01*
X142307090Y-77007248D01*
X142309594Y-77012249D01*
X142312091Y-77019127D01*
X142316101Y-77025244D01*
X142316104Y-77025249D01*
X142350765Y-77078114D01*
X142353113Y-77081836D01*
X142370820Y-77111016D01*
X142389685Y-77142105D01*
X142396847Y-77150215D01*
X142396830Y-77150230D01*
X142399763Y-77153539D01*
X142401860Y-77156047D01*
X142405872Y-77162166D01*
X142411185Y-77167199D01*
X142460176Y-77213609D01*
X142462618Y-77215986D01*
X143194786Y-77948154D01*
X143228812Y-78010466D01*
X143229738Y-78059345D01*
X143213218Y-78152087D01*
X143213217Y-78152093D01*
X143212312Y-78157176D01*
X143211410Y-78231008D01*
X143209646Y-78375379D01*
X143209646Y-78375381D01*
X143209583Y-78380549D01*
X143243373Y-78601369D01*
X143312775Y-78813704D01*
X143415925Y-79011853D01*
X143419028Y-79015986D01*
X143419030Y-79015989D01*
X143527673Y-79160688D01*
X143550053Y-79190495D01*
X143569266Y-79208855D01*
X143688607Y-79322900D01*
X143711556Y-79344831D01*
X143869039Y-79452259D01*
X143914039Y-79507167D01*
X143922210Y-79577692D01*
X143890956Y-79641439D01*
X143866472Y-79662136D01*
X143742035Y-79742638D01*
X143742032Y-79742640D01*
X143737695Y-79745446D01*
X143572469Y-79895790D01*
X143569270Y-79899841D01*
X143569266Y-79899845D01*
X143437218Y-80067046D01*
X143437216Y-80067050D01*
X143434016Y-80071101D01*
X143411214Y-80112407D01*
X143360782Y-80162376D01*
X143291339Y-80177148D01*
X143224934Y-80152032D01*
X143198327Y-80124680D01*
X143167068Y-80080857D01*
X143070591Y-79945600D01*
X142912907Y-79787364D01*
X142830107Y-79727866D01*
X142735695Y-79660025D01*
X142731495Y-79657007D01*
X142697765Y-79640336D01*
X142535871Y-79560324D01*
X142535869Y-79560323D01*
X142531229Y-79558030D01*
X142411185Y-79521558D01*
X142322441Y-79494595D01*
X142322439Y-79494595D01*
X142317487Y-79493090D01*
X142096008Y-79463931D01*
X142029418Y-79462304D01*
X141806779Y-79480608D01*
X141590120Y-79535029D01*
X141385258Y-79624106D01*
X141336225Y-79655827D01*
X141260358Y-79704907D01*
X141192298Y-79725114D01*
X141124117Y-79705318D01*
X141077463Y-79651802D01*
X141065918Y-79599115D01*
X141065918Y-76127796D01*
X141066445Y-76116613D01*
X141068120Y-76109120D01*
X141067871Y-76101194D01*
X141067871Y-76101193D01*
X141065980Y-76041043D01*
X141065918Y-76037084D01*
X141065918Y-76009173D01*
X141065421Y-76005238D01*
X141065413Y-76005173D01*
X141064480Y-75993336D01*
X141063466Y-75961078D01*
X141063340Y-75957059D01*
X141063091Y-75949140D01*
X141057439Y-75929686D01*
X141053431Y-75910329D01*
X141051886Y-75898099D01*
X141051886Y-75898098D01*
X141050892Y-75890232D01*
X141047973Y-75882861D01*
X141047973Y-75882859D01*
X141034614Y-75849117D01*
X141030769Y-75837887D01*
X141020647Y-75803046D01*
X141020647Y-75803045D01*
X141018436Y-75795436D01*
X141014403Y-75788617D01*
X141014401Y-75788612D01*
X141008125Y-75778001D01*
X140999430Y-75760253D01*
X140991970Y-75741412D01*
X140965982Y-75705642D01*
X140959466Y-75695722D01*
X140940998Y-75664494D01*
X140940996Y-75664491D01*
X140936960Y-75657667D01*
X140922639Y-75643346D01*
X140909798Y-75628312D01*
X140902550Y-75618336D01*
X140897890Y-75611922D01*
X140863825Y-75583741D01*
X140855044Y-75575751D01*
X140340822Y-75061528D01*
X140306797Y-74999216D01*
X140303918Y-74972433D01*
X140303918Y-74587476D01*
X140323920Y-74519355D01*
G37*
G04 #@! TD.AperFunction*
G04 #@! TA.AperFunction,Conductor*
G36*
X138422606Y-67006374D02*
G01*
X138476246Y-66959864D01*
X138528626Y-66948460D01*
X141066921Y-66948460D01*
X141135042Y-66968462D01*
X141181535Y-67022118D01*
X141191639Y-67092392D01*
X141186515Y-67114125D01*
X141166740Y-67173742D01*
X141148346Y-67229198D01*
X141148346Y-67229200D01*
X141146180Y-67235729D01*
X141135918Y-67335888D01*
X141135918Y-67688960D01*
X141115916Y-67757081D01*
X141062260Y-67803574D01*
X141009918Y-67814960D01*
X139989584Y-67814960D01*
X139970634Y-67813527D01*
X139957425Y-67811517D01*
X139957421Y-67811517D01*
X139950191Y-67810417D01*
X139935503Y-67811611D01*
X139899439Y-67814545D01*
X139889224Y-67814960D01*
X139881592Y-67814960D01*
X139877973Y-67815382D01*
X139877954Y-67815383D01*
X139854349Y-67818135D01*
X139849974Y-67818568D01*
X139840882Y-67819307D01*
X139779714Y-67824283D01*
X139772745Y-67826541D01*
X139767225Y-67827644D01*
X139761800Y-67828926D01*
X139754528Y-67829774D01*
X139688208Y-67853847D01*
X139684062Y-67855270D01*
X139623960Y-67874740D01*
X139623956Y-67874742D01*
X139616998Y-67876996D01*
X139610746Y-67880790D01*
X139605630Y-67883132D01*
X139600629Y-67885636D01*
X139593751Y-67888133D01*
X139587634Y-67892143D01*
X139587629Y-67892146D01*
X139534764Y-67926807D01*
X139531042Y-67929155D01*
X139475570Y-67962816D01*
X139475569Y-67962817D01*
X139470773Y-67965727D01*
X139462663Y-67972889D01*
X139462648Y-67972872D01*
X139459339Y-67975805D01*
X139456831Y-67977902D01*
X139450712Y-67981914D01*
X139399286Y-68036200D01*
X139396910Y-68038641D01*
X138618263Y-68817288D01*
X138555951Y-68851314D01*
X138485136Y-68846249D01*
X138428300Y-68803702D01*
X138403489Y-68737182D01*
X138403168Y-68728244D01*
X138402626Y-67074500D01*
X138422606Y-67006374D01*
G37*
G04 #@! TD.AperFunction*
M02*
