M48
; DRILL file {KiCad 6.0.7-f9a2dced07~116~ubuntu20.04.1} date و 22:22:52 ت 02 دسمبر 2022
; FORMAT={-:-/ absolute / metric / decimal}
; #@! TF.CreationDate,2022-12-02T22:22:52+05:00
; #@! TF.GenerationSoftware,Kicad,Pcbnew,6.0.7-f9a2dced07~116~ubuntu20.04.1
; #@! TF.FileFunction,MixedPlating,1,2
FMAT,2
METRIC
; #@! TA.AperFunction,Plated,PTH,ComponentDrill
T1C0.300
; #@! TA.AperFunction,Plated,PTH,ViaDrill
T2C0.400
; #@! TA.AperFunction,Plated,PTH,ComponentDrill
T3C0.600
; #@! TA.AperFunction,Plated,PTH,ComponentDrill
T4C0.700
; #@! TA.AperFunction,Plated,PTH,ComponentDrill
T5C1.000
; #@! TA.AperFunction,NonPlated,NPTH,ComponentDrill
T6C0.650
%
G90
G05
T1
X153.699Y-57.173
X153.699Y-59.008
X154.617Y-56.255
X154.617Y-58.09
X154.617Y-59.925
X155.534Y-57.173
X155.534Y-59.008
X156.452Y-56.255
X156.452Y-58.09
X156.452Y-59.925
X157.369Y-57.173
X157.369Y-59.008
T2
X139.162Y-68.04
X143.988Y-71.088
X145.766Y-86.582
X146.02Y-72.866
X147.036Y-67.532
X148.052Y-46.704
X148.052Y-63.468
X148.052Y-71.088
X148.56Y-45.434
X148.814Y-52.8
X149.322Y-63.214
X149.344Y-78.984
X150.338Y-73.374
X152.444Y-58.84
X152.878Y-76.168
X153.64Y-58.134
X154.444Y-61.34
X155.418Y-69.056
X155.469Y-81.553
X156.18Y-68.294
X156.444Y-61.34
X156.942Y-50.452
X157.45Y-58.134
X157.704Y-70.072
X157.958Y-67.278
X158.212Y-50.452
X161.3Y-92.21
X161.768Y-56.102
X162.444Y-90.34
X162.53Y-86.582
X162.784Y-57.118
X162.784Y-60.928
X162.833Y-92.727
X163.038Y-59.15
X163.292Y-68.04
X164.816Y-67.278
X167.356Y-62.96
X168.88Y-89.63
X169.642Y-54.07
X169.642Y-57.626
X171.166Y-69.818
X171.42Y-68.802
X172.944Y-60.674
X173.706Y-64.23
X174.976Y-61.5
X177.521Y-75.411
X178.527Y-98.515
X178.532Y-74.644
X179.584Y-78.49
X181.834Y-83.026
X183.104Y-74.136
T4
X160.954Y-80.24
X163.494Y-83.034
X166.288Y-80.24
T5
X142.029Y-78.285
X142.029Y-80.825
X142.029Y-83.365
X144.569Y-78.285
X144.569Y-80.825
X144.569Y-83.365
X148.754Y-99.04
X151.294Y-99.04
X182.119Y-50.515
X182.119Y-53.055
X182.119Y-55.595
X182.119Y-58.135
X182.119Y-60.675
X182.119Y-63.215
T6
X157.804Y-95.52
X163.584Y-95.52
T3
X156.374Y-94.47G85X156.374Y-95.57
G05
X156.374Y-98.9G85X156.374Y-99.5
G05
X165.014Y-94.47G85X165.014Y-95.57
G05
X165.014Y-98.9G85X165.014Y-99.5
G05
T0
M30
